%TF.GenerationSoftware,KiCad,Pcbnew,10.0.1*%
%TF.CreationDate,2026-04-19T10:02:46+10:00*%
%TF.ProjectId,project,70726f6a-6563-4742-9e6b-696361645f70,rev?*%
%TF.SameCoordinates,Original*%
%TF.FileFunction,Copper,L2,Bot*%
%TF.FilePolarity,Positive*%
%FSLAX46Y46*%
G04 Gerber Fmt 4.6, Leading zero omitted, Abs format (unit mm)*
G04 Created by KiCad (PCBNEW 10.0.1) date 2026-04-19 10:02:46*
%MOMM*%
%LPD*%
G01*
G04 APERTURE LIST*
G04 Aperture macros list*
%AMRoundRect*
0 Rectangle with rounded corners*
0 $1 Rounding radius*
0 $2 $3 $4 $5 $6 $7 $8 $9 X,Y pos of 4 corners*
0 Add a 4 corners polygon primitive as box body*
4,1,4,$2,$3,$4,$5,$6,$7,$8,$9,$2,$3,0*
0 Add four circle primitives for the rounded corners*
1,1,$1+$1,$2,$3*
1,1,$1+$1,$4,$5*
1,1,$1+$1,$6,$7*
1,1,$1+$1,$8,$9*
0 Add four rect primitives between the rounded corners*
20,1,$1+$1,$2,$3,$4,$5,0*
20,1,$1+$1,$4,$5,$6,$7,0*
20,1,$1+$1,$6,$7,$8,$9,0*
20,1,$1+$1,$8,$9,$2,$3,0*%
G04 Aperture macros list end*
%TA.AperFunction,ComponentPad*%
%ADD10R,1.800000X1.800000*%
%TD*%
%TA.AperFunction,ComponentPad*%
%ADD11C,1.800000*%
%TD*%
%TA.AperFunction,ComponentPad*%
%ADD12R,1.700000X1.700000*%
%TD*%
%TA.AperFunction,ComponentPad*%
%ADD13C,1.700000*%
%TD*%
%TA.AperFunction,ComponentPad*%
%ADD14RoundRect,0.412500X-0.412500X0.412500X-0.412500X-0.412500X0.412500X-0.412500X0.412500X0.412500X0*%
%TD*%
%TA.AperFunction,ComponentPad*%
%ADD15C,1.650000*%
%TD*%
%TA.AperFunction,ComponentPad*%
%ADD16C,1.600000*%
%TD*%
%TA.AperFunction,ComponentPad*%
%ADD17RoundRect,0.250000X0.550000X-0.550000X0.550000X0.550000X-0.550000X0.550000X-0.550000X-0.550000X0*%
%TD*%
%TA.AperFunction,ComponentPad*%
%ADD18RoundRect,0.250000X-0.550000X-0.550000X0.550000X-0.550000X0.550000X0.550000X-0.550000X0.550000X0*%
%TD*%
%TA.AperFunction,ComponentPad*%
%ADD19R,1.130000X1.130000*%
%TD*%
%TA.AperFunction,ComponentPad*%
%ADD20C,1.130000*%
%TD*%
%TA.AperFunction,ComponentPad*%
%ADD21C,2.000000*%
%TD*%
%TA.AperFunction,ViaPad*%
%ADD22C,0.600000*%
%TD*%
%TA.AperFunction,Conductor*%
%ADD23C,0.200000*%
%TD*%
G04 APERTURE END LIST*
D10*
%TO.P,D7,1,K_1*%
%TO.N,Net-(D1-K)*%
X182000000Y-79000000D03*
D11*
%TO.P,D7,2,A_2*%
%TO.N,Net-(D7-A)*%
X179460000Y-79000000D03*
%TD*%
D10*
%TO.P,D1,1,K_1*%
%TO.N,Net-(D1-K)*%
X138230000Y-66500000D03*
D11*
%TO.P,D1,2,A_2*%
%TO.N,Net-(D1-A)*%
X140770000Y-66500000D03*
%TD*%
D12*
%TO.P,J2,1,Pin_1_1*%
%TO.N,+5V*%
X158000000Y-88000000D03*
D13*
%TO.P,J2,2,Pin_2_2*%
%TO.N,CTGND*%
X160540000Y-88000000D03*
%TD*%
D10*
%TO.P,D4,1,K_1*%
%TO.N,Net-(D1-K)*%
X126730000Y-132000000D03*
D11*
%TO.P,D4,2,A_2*%
%TO.N,Net-(D4-A)*%
X129270000Y-132000000D03*
%TD*%
D14*
%TO.P,RV1,1,1_1*%
%TO.N,Net-(U1-DISCH)*%
X159000000Y-73420000D03*
D15*
%TO.P,RV1,2,2_2*%
X159000000Y-75960000D03*
%TO.P,RV1,3,3_3*%
%TO.N,Net-(U1-THRES)*%
X159000000Y-78500000D03*
%TD*%
D10*
%TO.P,D5,1,K_1*%
%TO.N,Net-(D1-K)*%
X165000000Y-115500000D03*
D11*
%TO.P,D5,2,A_2*%
%TO.N,Net-(D5-A)*%
X162460000Y-115500000D03*
%TD*%
D10*
%TO.P,D3,1,K_1*%
%TO.N,Net-(D1-K)*%
X121730000Y-104000000D03*
D11*
%TO.P,D3,2,A_2*%
%TO.N,Net-(D3-A)*%
X124270000Y-104000000D03*
%TD*%
D16*
%TO.P,R1,1*%
%TO.N,+5V*%
X148880000Y-68000000D03*
%TO.P,R1,2*%
%TO.N,Net-(U1-DISCH)*%
X156500000Y-68000000D03*
%TD*%
D17*
%TO.P,U1,1,GND_1*%
%TO.N,CTGND*%
X146190000Y-82810000D03*
D16*
%TO.P,U1,2,TRIG_2*%
%TO.N,Net-(U1-THRES)*%
X148730000Y-82810000D03*
%TO.P,U1,3,OUT_3*%
%TO.N,OUT*%
X151270000Y-82810000D03*
%TO.P,U1,4,~{RST}_4*%
%TO.N,+5V*%
X153810000Y-82810000D03*
%TO.P,U1,5,CONT_5*%
%TO.N,Net-(U1-CONT)*%
X153810000Y-75190000D03*
%TO.P,U1,6,THRES_6*%
%TO.N,Net-(U1-THRES)*%
X151270000Y-75190000D03*
%TO.P,U1,7,DISCH_7*%
%TO.N,Net-(U1-DISCH)*%
X148730000Y-75190000D03*
%TO.P,U1,8,VCC_8*%
%TO.N,+5V*%
X146190000Y-75190000D03*
%TD*%
D18*
%TO.P,C3,1*%
%TO.N,Net-(U1-THRES)*%
X139044888Y-96000000D03*
D16*
%TO.P,C3,2*%
%TO.N,CTGND*%
X141044888Y-96000000D03*
%TD*%
D10*
%TO.P,D8,1,K_1*%
%TO.N,Net-(D1-K)*%
X188000000Y-62000000D03*
D11*
%TO.P,D8,2,A_2*%
%TO.N,Net-(D8-A)*%
X185460000Y-62000000D03*
%TD*%
D10*
%TO.P,D6,1,K_1*%
%TO.N,Net-(D1-K)*%
X181770000Y-100500000D03*
D11*
%TO.P,D6,2,A_2*%
%TO.N,Net-(D6-A)*%
X179230000Y-100500000D03*
%TD*%
D19*
%TO.P,U2,1,Q5_1*%
%TO.N,Net-(D6-A)*%
X166530000Y-71110000D03*
D20*
%TO.P,U2,2,Q1_2*%
%TO.N,Net-(D2-A)*%
X166530000Y-73650000D03*
%TO.P,U2,3,Q0_3*%
%TO.N,Net-(D1-A)*%
X166530000Y-76190000D03*
%TO.P,U2,4,Q2_4*%
%TO.N,Net-(D3-A)*%
X166530000Y-78730000D03*
%TO.P,U2,5,Q6_5*%
%TO.N,Net-(D7-A)*%
X166530000Y-81270000D03*
%TO.P,U2,6,Q7_6*%
%TO.N,Net-(D8-A)*%
X166530000Y-83810000D03*
%TO.P,U2,7,Q3_7*%
%TO.N,Net-(D4-A)*%
X166530000Y-86350000D03*
%TO.P,U2,8,VSS_8*%
%TO.N,CTGND*%
X166530000Y-88890000D03*
%TO.P,U2,9,Q8_9*%
%TO.N,Net-(D9-A)*%
X174470000Y-88890000D03*
%TO.P,U2,10,Q4_10*%
%TO.N,Net-(D5-A)*%
X174470000Y-86350000D03*
%TO.P,U2,11,Q9_11*%
%TO.N,Net-(D10-A)*%
X174470000Y-83810000D03*
%TO.P,U2,12,Cout_12*%
%TO.N,unconnected-(U2-Cout-Pad12)*%
X174470000Y-81270000D03*
%TO.P,U2,13,CKEN_13*%
%TO.N,CTGND*%
X174470000Y-78730000D03*
%TO.P,U2,14,CLK_14*%
%TO.N,OUT*%
X174470000Y-76190000D03*
%TO.P,U2,15,Reset_15*%
%TO.N,CTGND*%
X174470000Y-73650000D03*
%TO.P,U2,16,VDD_16*%
%TO.N,+5V*%
X174470000Y-71110000D03*
%TD*%
D12*
%TO.P,J1,1,Pin_1_1*%
%TO.N,OUT*%
X158000000Y-93000000D03*
%TD*%
D21*
%TO.P,C2,1*%
%TO.N,CTGND*%
X137000000Y-74000000D03*
%TO.P,C2,2*%
%TO.N,Net-(U1-CONT)*%
X142000000Y-74000000D03*
%TD*%
D16*
%TO.P,R2,1*%
%TO.N,Net-(D1-K)*%
X174000000Y-95500000D03*
%TO.P,R2,2*%
%TO.N,CTGND*%
X166380000Y-95500000D03*
%TD*%
D10*
%TO.P,D10,1,K_1*%
%TO.N,Net-(D1-K)*%
X151230000Y-51500000D03*
D11*
%TO.P,D10,2,A_2*%
%TO.N,Net-(D10-A)*%
X153770000Y-51500000D03*
%TD*%
D10*
%TO.P,D9,1,K_1*%
%TO.N,Net-(D1-K)*%
X172500000Y-52500000D03*
D11*
%TO.P,D9,2,A_2*%
%TO.N,Net-(D9-A)*%
X169960000Y-52500000D03*
%TD*%
D10*
%TO.P,D2,1,K_1*%
%TO.N,Net-(D1-K)*%
X124460000Y-77000000D03*
D11*
%TO.P,D2,2,A_2*%
%TO.N,Net-(D2-A)*%
X127000000Y-77000000D03*
%TD*%
D22*
%TO.N,+5V*%
X162000000Y-69000000D03*
%TO.N,OUT*%
X154500000Y-88500000D03*
%TO.N,Net-(D6-A)*%
X168000000Y-81500000D03*
X168000000Y-85500000D03*
%TO.N,Net-(D9-A)*%
X176500000Y-77000000D03*
%TD*%
%TO.N,Net-(D1-K)*%
D23*
X161594559Y-51300000D02*
X158270776Y-54623783D01*
X158270776Y-54623783D02*
X154353783Y-54623783D01*
X154353783Y-54623783D02*
X151230000Y-51500000D01*
X171300000Y-51300000D02*
X161594559Y-51300000D01*
X172500000Y-52500000D02*
X171300000Y-51300000D01*
%TO.N,Net-(D7-A)*%
X179460000Y-79000000D02*
X178560000Y-79900000D01*
X178560000Y-79900000D02*
X167900000Y-79900000D01*
X167900000Y-79900000D02*
X166530000Y-81270000D01*
%TO.N,Net-(D1-A)*%
X166530000Y-76190000D02*
X156840000Y-66500000D01*
X156840000Y-66500000D02*
X140770000Y-66500000D01*
%TO.N,+5V*%
X164975000Y-71975000D02*
X173605000Y-71975000D01*
X162000000Y-69000000D02*
X164975000Y-71975000D01*
X173605000Y-71975000D02*
X174470000Y-71110000D01*
%TO.N,Net-(D4-A)*%
X160563654Y-86350000D02*
X166530000Y-86350000D01*
X159390000Y-101880000D02*
X159390000Y-87523654D01*
X159390000Y-87523654D02*
X160563654Y-86350000D01*
X129270000Y-132000000D02*
X159390000Y-101880000D01*
%TO.N,Net-(U1-DISCH)*%
X148730000Y-75190000D02*
X149830000Y-76290000D01*
X158670000Y-76290000D02*
X159000000Y-75960000D01*
X159000000Y-75960000D02*
X159000000Y-73420000D01*
X159000000Y-70500000D02*
X156500000Y-68000000D01*
X159000000Y-73420000D02*
X159000000Y-70500000D01*
X149830000Y-76290000D02*
X158670000Y-76290000D01*
%TO.N,Net-(U1-THRES)*%
X153040000Y-78500000D02*
X159000000Y-78500000D01*
X148730000Y-82810000D02*
X153040000Y-78500000D01*
%TO.N,Net-(D5-A)*%
X167480000Y-93340000D02*
X174470000Y-86350000D01*
X167480000Y-110480000D02*
X167480000Y-93340000D01*
X162460000Y-115500000D02*
X167480000Y-110480000D01*
%TO.N,Net-(D3-A)*%
X162190000Y-78730000D02*
X166530000Y-78730000D01*
X136920000Y-104000000D02*
X162190000Y-78730000D01*
X124270000Y-104000000D02*
X136920000Y-104000000D01*
%TO.N,OUT*%
X158000000Y-93000000D02*
X154500000Y-89500000D01*
X152370000Y-81710000D02*
X151270000Y-82810000D01*
X174470000Y-76190000D02*
X172795000Y-77865000D01*
X158644314Y-81710000D02*
X152370000Y-81710000D01*
X162489314Y-77865000D02*
X158644314Y-81710000D01*
X172795000Y-77865000D02*
X162489314Y-77865000D01*
X154500000Y-89500000D02*
X154500000Y-88500000D01*
%TO.N,Net-(U1-CONT)*%
X153810000Y-75190000D02*
X152620000Y-74000000D01*
X152620000Y-74000000D02*
X142000000Y-74000000D01*
%TO.N,Net-(D6-A)*%
X168000000Y-85500000D02*
X168000000Y-81500000D01*
%TO.N,Net-(D2-A)*%
X167395000Y-74515000D02*
X166530000Y-73650000D01*
X167395000Y-76548295D02*
X167395000Y-74515000D01*
X127085000Y-77085000D02*
X166858295Y-77085000D01*
X166858295Y-77085000D02*
X167395000Y-76548295D01*
X127000000Y-77000000D02*
X127085000Y-77085000D01*
%TO.N,Net-(D9-A)*%
X176500000Y-77000000D02*
X176500000Y-59040000D01*
X176500000Y-59040000D02*
X169960000Y-52500000D01*
%TD*%
%TA.AperFunction,Conductor*%
%TO.N,CTGND*%
G36*
X173357893Y-78221704D02*
G01*
X173387898Y-78223850D01*
X173392065Y-78226970D01*
X173397212Y-78227763D01*
X173419747Y-78247691D01*
X173443832Y-78265721D01*
X173445651Y-78270599D01*
X173449551Y-78274048D01*
X173457734Y-78302995D01*
X173468249Y-78331185D01*
X173467321Y-78336906D01*
X173468559Y-78341283D01*
X173464401Y-78354931D01*
X173459127Y-78387483D01*
X173445927Y-78419351D01*
X173445925Y-78419358D01*
X173433862Y-78479999D01*
X173433863Y-78480000D01*
X174168458Y-78480000D01*
X174157923Y-78490535D01*
X174106578Y-78579466D01*
X174080000Y-78678656D01*
X174080000Y-78781344D01*
X174106578Y-78880534D01*
X174157923Y-78969465D01*
X174168458Y-78980000D01*
X173433863Y-78980000D01*
X173445925Y-79040641D01*
X173445928Y-79040653D01*
X173482128Y-79128048D01*
X173489597Y-79197517D01*
X173458321Y-79259996D01*
X173398232Y-79295648D01*
X173367567Y-79299500D01*
X167986670Y-79299500D01*
X167986654Y-79299499D01*
X167979058Y-79299499D01*
X167820943Y-79299499D01*
X167779959Y-79310481D01*
X167668214Y-79340423D01*
X167660706Y-79343534D01*
X167659738Y-79341198D01*
X167604124Y-79354674D01*
X167538103Y-79331803D01*
X167494928Y-79276869D01*
X167488307Y-79207314D01*
X167495494Y-79183373D01*
X167554553Y-79040795D01*
X167584593Y-78889778D01*
X167595500Y-78834945D01*
X167595500Y-78625057D01*
X167593239Y-78613690D01*
X167599468Y-78544099D01*
X167642331Y-78488922D01*
X167708221Y-78465678D01*
X167714857Y-78465500D01*
X172708331Y-78465500D01*
X172708347Y-78465501D01*
X172715943Y-78465501D01*
X172874054Y-78465501D01*
X172874057Y-78465501D01*
X173026785Y-78424577D01*
X173119650Y-78370961D01*
X173163716Y-78345520D01*
X173260464Y-78248771D01*
X173264312Y-78245505D01*
X173291799Y-78233285D01*
X173318206Y-78218866D01*
X173323398Y-78219237D01*
X173328157Y-78217122D01*
X173357893Y-78221704D01*
G37*
%TD.AperFunction*%
%TA.AperFunction,Conductor*%
G36*
X152568514Y-43387245D02*
G01*
X152658252Y-43404081D01*
X152680334Y-43410388D01*
X152739535Y-43433413D01*
X152766283Y-43447808D01*
X153256066Y-43794892D01*
X153261809Y-43799217D01*
X153758628Y-44196465D01*
X153764196Y-44201192D01*
X154228265Y-44619346D01*
X154233604Y-44624454D01*
X154666024Y-45063497D01*
X154671085Y-45068953D01*
X155072918Y-45529171D01*
X155077654Y-45534937D01*
X155449539Y-46016497D01*
X155453913Y-46022526D01*
X155595172Y-46230110D01*
X155761279Y-46474211D01*
X155796414Y-46525842D01*
X155800392Y-46532081D01*
X155893390Y-46688007D01*
X156113685Y-47057366D01*
X156117253Y-47063772D01*
X156401318Y-47611226D01*
X156404462Y-47617744D01*
X156659012Y-48187337D01*
X156661729Y-48193918D01*
X156886214Y-48785205D01*
X156888510Y-48791806D01*
X157082184Y-49403826D01*
X157084069Y-49410411D01*
X157245971Y-50041227D01*
X157247463Y-50047769D01*
X157376549Y-50694143D01*
X157377666Y-50700626D01*
X157472891Y-51357093D01*
X157473652Y-51363519D01*
X157534212Y-52020888D01*
X157534635Y-52027277D01*
X157560488Y-52669729D01*
X157560580Y-52676137D01*
X157553727Y-53273480D01*
X157553480Y-53280002D01*
X157522264Y-53766233D01*
X157521760Y-53771987D01*
X157510690Y-53871587D01*
X157508334Y-53885347D01*
X157505785Y-53911373D01*
X157479658Y-53976174D01*
X157422644Y-54016562D01*
X157382376Y-54023283D01*
X154653880Y-54023283D01*
X154586841Y-54003598D01*
X154566199Y-53986964D01*
X153691416Y-53112181D01*
X153657931Y-53050858D01*
X153662915Y-52981166D01*
X153704787Y-52925233D01*
X153770251Y-52900816D01*
X153779097Y-52900500D01*
X153880221Y-52900500D01*
X153880222Y-52900500D01*
X154097951Y-52866015D01*
X154307606Y-52797895D01*
X154504022Y-52697815D01*
X154682365Y-52568242D01*
X154838242Y-52412365D01*
X154967815Y-52234022D01*
X155067895Y-52037606D01*
X155136015Y-51827951D01*
X155170500Y-51610222D01*
X155170500Y-51389778D01*
X155136015Y-51172049D01*
X155067895Y-50962394D01*
X155067895Y-50962393D01*
X154995076Y-50819481D01*
X154967815Y-50765978D01*
X154919516Y-50699500D01*
X154838247Y-50587641D01*
X154838243Y-50587636D01*
X154682363Y-50431756D01*
X154682358Y-50431752D01*
X154504025Y-50302187D01*
X154504024Y-50302186D01*
X154504022Y-50302185D01*
X154386791Y-50242452D01*
X154307606Y-50202104D01*
X154307603Y-50202103D01*
X154097952Y-50133985D01*
X153982675Y-50115727D01*
X153880222Y-50099500D01*
X153659778Y-50099500D01*
X153587201Y-50110995D01*
X153442047Y-50133985D01*
X153232396Y-50202103D01*
X153232393Y-50202104D01*
X153035974Y-50302187D01*
X152857641Y-50431752D01*
X152857636Y-50431756D01*
X152807463Y-50481929D01*
X152746140Y-50515413D01*
X152676448Y-50510428D01*
X152620515Y-50468557D01*
X152603601Y-50437580D01*
X152573797Y-50357671D01*
X152573793Y-50357664D01*
X152487547Y-50242455D01*
X152487544Y-50242452D01*
X152372335Y-50156206D01*
X152372328Y-50156202D01*
X152237482Y-50105908D01*
X152237483Y-50105908D01*
X152177883Y-50099501D01*
X152177881Y-50099500D01*
X152177873Y-50099500D01*
X152177864Y-50099500D01*
X150282129Y-50099500D01*
X150282123Y-50099501D01*
X150222516Y-50105908D01*
X150087671Y-50156202D01*
X150087664Y-50156206D01*
X149972455Y-50242452D01*
X149972452Y-50242455D01*
X149886206Y-50357664D01*
X149886202Y-50357671D01*
X149835908Y-50492517D01*
X149829501Y-50552116D01*
X149829500Y-50552135D01*
X149829500Y-52447870D01*
X149829501Y-52447876D01*
X149835908Y-52507483D01*
X149886202Y-52642328D01*
X149886206Y-52642335D01*
X149972452Y-52757544D01*
X149972455Y-52757547D01*
X150087664Y-52843793D01*
X150087671Y-52843797D01*
X150222517Y-52894091D01*
X150222516Y-52894091D01*
X150229444Y-52894835D01*
X150282127Y-52900500D01*
X151729902Y-52900499D01*
X151796941Y-52920184D01*
X151817583Y-52936818D01*
X153868922Y-54988157D01*
X153868932Y-54988168D01*
X153873262Y-54992498D01*
X153873263Y-54992499D01*
X153985067Y-55104303D01*
X153985069Y-55104304D01*
X153985070Y-55104305D01*
X153998607Y-55112120D01*
X154054123Y-55144172D01*
X154121998Y-55183360D01*
X154274725Y-55224283D01*
X154274726Y-55224283D01*
X158184107Y-55224283D01*
X158184123Y-55224284D01*
X158191719Y-55224284D01*
X158349830Y-55224284D01*
X158349833Y-55224284D01*
X158502561Y-55183360D01*
X158570436Y-55144172D01*
X158639492Y-55104303D01*
X158751296Y-54992499D01*
X158751296Y-54992497D01*
X158761500Y-54982294D01*
X158761503Y-54982289D01*
X161806975Y-51936819D01*
X161868298Y-51903334D01*
X161894656Y-51900500D01*
X168511544Y-51900500D01*
X168578583Y-51920185D01*
X168624338Y-51972989D01*
X168634282Y-52042147D01*
X168629475Y-52062817D01*
X168593985Y-52172045D01*
X168559500Y-52389778D01*
X168559500Y-52610221D01*
X168593985Y-52827952D01*
X168662103Y-53037603D01*
X168662104Y-53037606D01*
X168762187Y-53234025D01*
X168891752Y-53412358D01*
X168891756Y-53412363D01*
X169047636Y-53568243D01*
X169047641Y-53568247D01*
X169149606Y-53642328D01*
X169225978Y-53697815D01*
X169354375Y-53763237D01*
X169422393Y-53797895D01*
X169422396Y-53797896D01*
X169489525Y-53819707D01*
X169632049Y-53866015D01*
X169849778Y-53900500D01*
X169849779Y-53900500D01*
X170070221Y-53900500D01*
X170070222Y-53900500D01*
X170287951Y-53866015D01*
X170358205Y-53843187D01*
X170428044Y-53841192D01*
X170484203Y-53873438D01*
X175863181Y-59252416D01*
X175896666Y-59313739D01*
X175899500Y-59340097D01*
X175899500Y-76420234D01*
X175879815Y-76487273D01*
X175878602Y-76489125D01*
X175790609Y-76620814D01*
X175790602Y-76620827D01*
X175730264Y-76766498D01*
X175730261Y-76766510D01*
X175699500Y-76921153D01*
X175699500Y-77078846D01*
X175730261Y-77233489D01*
X175730264Y-77233501D01*
X175790602Y-77379172D01*
X175790609Y-77379185D01*
X175878210Y-77510288D01*
X175878213Y-77510292D01*
X175989707Y-77621786D01*
X175989711Y-77621789D01*
X176120814Y-77709390D01*
X176120827Y-77709397D01*
X176266498Y-77769735D01*
X176266503Y-77769737D01*
X176404191Y-77797125D01*
X176421153Y-77800499D01*
X176421156Y-77800500D01*
X176421158Y-77800500D01*
X176578844Y-77800500D01*
X176578845Y-77800499D01*
X176733497Y-77769737D01*
X176879179Y-77709394D01*
X177010289Y-77621789D01*
X177121789Y-77510289D01*
X177209394Y-77379179D01*
X177269737Y-77233497D01*
X177300500Y-77078842D01*
X177300500Y-76921158D01*
X177300500Y-76921155D01*
X177300499Y-76921153D01*
X177286471Y-76850631D01*
X177269737Y-76766503D01*
X177240897Y-76696876D01*
X177209397Y-76620827D01*
X177209390Y-76620814D01*
X177121398Y-76489125D01*
X177100520Y-76422447D01*
X177100500Y-76420234D01*
X177100500Y-61889778D01*
X184059500Y-61889778D01*
X184059500Y-62110222D01*
X184067154Y-62158546D01*
X184093985Y-62327952D01*
X184162103Y-62537603D01*
X184162104Y-62537606D01*
X184230122Y-62671096D01*
X184256659Y-62723177D01*
X184262187Y-62734025D01*
X184391752Y-62912358D01*
X184391756Y-62912363D01*
X184547636Y-63068243D01*
X184547641Y-63068247D01*
X184612080Y-63115064D01*
X184725978Y-63197815D01*
X184854375Y-63263237D01*
X184922393Y-63297895D01*
X184922396Y-63297896D01*
X185027221Y-63331955D01*
X185132049Y-63366015D01*
X185349778Y-63400500D01*
X185349779Y-63400500D01*
X185570221Y-63400500D01*
X185570222Y-63400500D01*
X185787951Y-63366015D01*
X185997606Y-63297895D01*
X186194022Y-63197815D01*
X186372365Y-63068242D01*
X186422536Y-63018070D01*
X186483857Y-62984586D01*
X186553548Y-62989570D01*
X186609482Y-63031441D01*
X186626398Y-63062419D01*
X186656202Y-63142328D01*
X186656206Y-63142335D01*
X186742452Y-63257544D01*
X186742455Y-63257547D01*
X186857664Y-63343793D01*
X186857671Y-63343797D01*
X186992517Y-63394091D01*
X186992516Y-63394091D01*
X186999444Y-63394835D01*
X187052127Y-63400500D01*
X188947872Y-63400499D01*
X189007483Y-63394091D01*
X189142331Y-63343796D01*
X189257546Y-63257546D01*
X189343796Y-63142331D01*
X189394091Y-63007483D01*
X189400500Y-62947873D01*
X189400499Y-61052128D01*
X189394091Y-60992517D01*
X189392650Y-60988654D01*
X189343797Y-60857671D01*
X189343793Y-60857664D01*
X189257547Y-60742455D01*
X189257544Y-60742452D01*
X189142335Y-60656206D01*
X189142328Y-60656202D01*
X189007482Y-60605908D01*
X189007483Y-60605908D01*
X188947883Y-60599501D01*
X188947881Y-60599500D01*
X188947873Y-60599500D01*
X188947864Y-60599500D01*
X187052129Y-60599500D01*
X187052123Y-60599501D01*
X186992516Y-60605908D01*
X186857671Y-60656202D01*
X186857664Y-60656206D01*
X186742455Y-60742452D01*
X186742452Y-60742455D01*
X186656206Y-60857664D01*
X186656203Y-60857669D01*
X186626398Y-60937581D01*
X186584526Y-60993514D01*
X186519062Y-61017931D01*
X186450789Y-61003079D01*
X186422535Y-60981928D01*
X186372363Y-60931756D01*
X186372358Y-60931752D01*
X186194025Y-60802187D01*
X186194024Y-60802186D01*
X186194022Y-60802185D01*
X186076791Y-60742452D01*
X185997606Y-60702104D01*
X185997603Y-60702103D01*
X185787952Y-60633985D01*
X185679086Y-60616742D01*
X185570222Y-60599500D01*
X185349778Y-60599500D01*
X185284961Y-60609766D01*
X185132047Y-60633985D01*
X184922396Y-60702103D01*
X184922393Y-60702104D01*
X184725974Y-60802187D01*
X184547641Y-60931752D01*
X184547636Y-60931756D01*
X184391756Y-61087636D01*
X184391752Y-61087641D01*
X184262187Y-61265974D01*
X184162104Y-61462393D01*
X184162103Y-61462396D01*
X184093985Y-61672047D01*
X184069451Y-61826952D01*
X184059500Y-61889778D01*
X177100500Y-61889778D01*
X177100500Y-59129060D01*
X177100502Y-59129054D01*
X177100501Y-59129054D01*
X177100501Y-58960944D01*
X177088221Y-58915116D01*
X177059577Y-58808216D01*
X177055928Y-58801896D01*
X176980524Y-58671290D01*
X176980518Y-58671282D01*
X174706163Y-56396927D01*
X172421414Y-54112179D01*
X172387930Y-54050857D01*
X172392914Y-53981165D01*
X172434786Y-53925232D01*
X172500250Y-53900815D01*
X172509096Y-53900499D01*
X173447871Y-53900499D01*
X173447872Y-53900499D01*
X173507483Y-53894091D01*
X173642331Y-53843796D01*
X173757546Y-53757546D01*
X173843796Y-53642331D01*
X173894091Y-53507483D01*
X173900500Y-53447873D01*
X173900499Y-51552128D01*
X173894091Y-51492517D01*
X173843796Y-51357669D01*
X173843795Y-51357668D01*
X173843793Y-51357664D01*
X173757547Y-51242455D01*
X173757544Y-51242452D01*
X173642335Y-51156206D01*
X173642328Y-51156202D01*
X173507482Y-51105908D01*
X173507483Y-51105908D01*
X173447883Y-51099501D01*
X173447881Y-51099500D01*
X173447873Y-51099500D01*
X173447865Y-51099500D01*
X172000097Y-51099500D01*
X171970656Y-51090855D01*
X171940670Y-51084332D01*
X171935654Y-51080577D01*
X171933058Y-51079815D01*
X171912416Y-51063181D01*
X171787590Y-50938355D01*
X171787588Y-50938352D01*
X171668717Y-50819481D01*
X171668709Y-50819475D01*
X171555778Y-50754275D01*
X171555777Y-50754274D01*
X171555777Y-50754275D01*
X171531785Y-50740423D01*
X171379057Y-50699499D01*
X171220943Y-50699499D01*
X171213347Y-50699499D01*
X171213331Y-50699500D01*
X161841768Y-50699500D01*
X161774729Y-50679815D01*
X161728974Y-50627011D01*
X161719030Y-50557853D01*
X161748055Y-50494297D01*
X161758642Y-50483489D01*
X161964368Y-50297630D01*
X161968371Y-50294165D01*
X162647965Y-49731278D01*
X162652090Y-49728008D01*
X163357785Y-49192661D01*
X163361996Y-49189605D01*
X164093742Y-48681960D01*
X164098044Y-48679108D01*
X164855711Y-48199437D01*
X164860073Y-48196801D01*
X165643195Y-47745626D01*
X165647630Y-47743191D01*
X166455611Y-47321092D01*
X166460093Y-47318865D01*
X167291966Y-46926590D01*
X167296424Y-46924596D01*
X168150541Y-46563129D01*
X168155063Y-46561320D01*
X169029209Y-46231734D01*
X169033773Y-46230115D01*
X169924509Y-45933724D01*
X169929088Y-45932298D01*
X170831715Y-45670504D01*
X170836241Y-45669286D01*
X171743367Y-45443778D01*
X171747975Y-45442726D01*
X172648719Y-45255299D01*
X172653359Y-45254427D01*
X173530065Y-45107080D01*
X173534848Y-45106372D01*
X174357295Y-45001106D01*
X174362204Y-45000580D01*
X175069398Y-44939059D01*
X175074598Y-44938717D01*
X175495394Y-44920056D01*
X175511921Y-44920426D01*
X175680763Y-44935531D01*
X175702492Y-44939450D01*
X175866818Y-44984514D01*
X175887517Y-44992231D01*
X176041233Y-45065743D01*
X176060235Y-45077013D01*
X176198462Y-45176642D01*
X176215159Y-45191102D01*
X176333508Y-45313682D01*
X176347375Y-45330877D01*
X176414622Y-45431442D01*
X176442089Y-45472518D01*
X176452681Y-45491897D01*
X176522973Y-45653199D01*
X176526934Y-45663523D01*
X176546664Y-45722714D01*
X176550718Y-45732515D01*
X176603372Y-45885453D01*
X176732917Y-46261730D01*
X176733542Y-46263595D01*
X176921431Y-46838812D01*
X176922046Y-46840748D01*
X177094993Y-47401173D01*
X177095595Y-47403184D01*
X177252804Y-47944993D01*
X177253390Y-47947080D01*
X177396726Y-48475423D01*
X177397293Y-48477588D01*
X177475641Y-48788482D01*
X177525664Y-48986980D01*
X177525894Y-48987890D01*
X177526437Y-48990136D01*
X177642166Y-49488355D01*
X177642683Y-49490679D01*
X177744637Y-49971294D01*
X177745123Y-49973702D01*
X177835173Y-50443903D01*
X177835623Y-50446390D01*
X177912252Y-50895927D01*
X177912848Y-50899793D01*
X178033672Y-51774322D01*
X178034303Y-51779771D01*
X178111231Y-52604100D01*
X178111632Y-52609834D01*
X178148201Y-53392385D01*
X178148336Y-53398350D01*
X178147272Y-54145546D01*
X178147113Y-54151649D01*
X178110583Y-54871985D01*
X178110124Y-54878068D01*
X178039342Y-55584454D01*
X178038627Y-55590223D01*
X177932713Y-56306749D01*
X177931911Y-56311526D01*
X177783284Y-57102142D01*
X177782940Y-57103902D01*
X177751304Y-57259746D01*
X177750596Y-57262358D01*
X177736555Y-57332398D01*
X177736496Y-57332689D01*
X177722207Y-57403082D01*
X177721847Y-57405765D01*
X177662996Y-57699322D01*
X177660409Y-57712225D01*
X177658146Y-57717052D01*
X177647485Y-57776691D01*
X177647223Y-57778001D01*
X177647220Y-57778020D01*
X177635553Y-57836215D01*
X177635234Y-57840978D01*
X177633578Y-57854490D01*
X177606516Y-58005891D01*
X177583797Y-58132992D01*
X177579239Y-58144031D01*
X177572233Y-58197672D01*
X177571718Y-58200558D01*
X177571718Y-58200563D01*
X177562710Y-58250964D01*
X177562412Y-58257451D01*
X177561991Y-58276113D01*
X177529168Y-58527489D01*
X177528587Y-58531945D01*
X177527693Y-58538788D01*
X177521567Y-58557711D01*
X177519194Y-58603867D01*
X177518564Y-58608697D01*
X177518563Y-58608716D01*
X177513207Y-58649737D01*
X177513207Y-58649742D01*
X177514325Y-58658167D01*
X177515239Y-58680835D01*
X177506524Y-58850446D01*
X177503480Y-58909685D01*
X177503123Y-58910807D01*
X177500100Y-58975454D01*
X177500086Y-58975742D01*
X177496775Y-59040174D01*
X177496843Y-59040975D01*
X177496896Y-59041617D01*
X177496958Y-59042400D01*
X177496969Y-59042449D01*
X177509126Y-59098103D01*
X177510716Y-59105378D01*
X177510837Y-59105936D01*
X177524319Y-59169046D01*
X177524667Y-59170009D01*
X177524667Y-59170010D01*
X177525095Y-59171196D01*
X177554835Y-59228758D01*
X177554903Y-59228891D01*
X177573563Y-59265421D01*
X177584257Y-59286357D01*
X177584968Y-59287389D01*
X177585077Y-59287546D01*
X177585559Y-59288246D01*
X177628846Y-59335779D01*
X177629231Y-59336204D01*
X177672532Y-59384196D01*
X177672534Y-59384198D01*
X177672538Y-59384202D01*
X177672542Y-59384204D01*
X177673531Y-59385047D01*
X177673546Y-59385060D01*
X177674288Y-59385692D01*
X177674318Y-59385711D01*
X177674319Y-59385712D01*
X177721139Y-59415743D01*
X177728473Y-59420447D01*
X177728926Y-59420739D01*
X177783134Y-59455864D01*
X177783144Y-59455867D01*
X177784403Y-59456466D01*
X177784430Y-59456479D01*
X177785211Y-59456850D01*
X177785243Y-59456860D01*
X177785246Y-59456862D01*
X177846672Y-59476437D01*
X177846673Y-59476438D01*
X177846983Y-59476537D01*
X177908510Y-59496459D01*
X177909684Y-59496519D01*
X177910807Y-59496877D01*
X177975478Y-59499900D01*
X178040121Y-59503222D01*
X178040127Y-59503220D01*
X178041466Y-59503114D01*
X178041497Y-59503112D01*
X178042409Y-59503039D01*
X178042446Y-59503030D01*
X178042449Y-59503031D01*
X178105558Y-59489244D01*
X178105797Y-59489191D01*
X178168997Y-59475691D01*
X178170042Y-59475157D01*
X178171196Y-59474905D01*
X178228757Y-59445164D01*
X178286356Y-59415743D01*
X178287230Y-59414953D01*
X178288271Y-59414416D01*
X178288270Y-59414416D01*
X178288277Y-59414413D01*
X178336081Y-59370878D01*
X178384202Y-59327462D01*
X178384203Y-59327459D01*
X178387999Y-59324035D01*
X178391552Y-59320360D01*
X178630563Y-59102698D01*
X178632780Y-59100730D01*
X178918230Y-58853419D01*
X178921770Y-58850467D01*
X179507515Y-58380452D01*
X179512539Y-58376629D01*
X180101655Y-57951871D01*
X180107021Y-57948213D01*
X180702722Y-57564717D01*
X180708371Y-57561291D01*
X181311002Y-57217633D01*
X181316895Y-57214483D01*
X181926769Y-56909492D01*
X181932913Y-56906629D01*
X182550498Y-56639285D01*
X182556826Y-56636751D01*
X183182588Y-56406261D01*
X183189093Y-56404070D01*
X183823472Y-56209857D01*
X183830124Y-56208022D01*
X184473598Y-56049702D01*
X184480307Y-56048248D01*
X185133291Y-55925634D01*
X185139990Y-55924567D01*
X185802747Y-55837666D01*
X185809470Y-55836971D01*
X186481993Y-55785963D01*
X186488647Y-55785638D01*
X187170830Y-55770800D01*
X187177378Y-55770831D01*
X187868507Y-55792516D01*
X187874908Y-55792885D01*
X188573870Y-55851418D01*
X188580179Y-55852108D01*
X189285053Y-55947673D01*
X189291151Y-55948655D01*
X189998933Y-56081094D01*
X190004887Y-56082361D01*
X190710918Y-56250863D01*
X190716714Y-56252396D01*
X190993813Y-56332911D01*
X191413766Y-56454933D01*
X191419433Y-56456727D01*
X192096164Y-56689061D01*
X192101692Y-56691108D01*
X192320131Y-56777973D01*
X192738536Y-56944357D01*
X192744048Y-56946705D01*
X192780793Y-56963415D01*
X193302347Y-57200598D01*
X193308353Y-57203529D01*
X193713908Y-57415244D01*
X193717234Y-57418193D01*
X193772271Y-57445711D01*
X193775252Y-57447267D01*
X193780013Y-57449887D01*
X193954393Y-57550946D01*
X193967092Y-57559391D01*
X193974140Y-57564731D01*
X194125189Y-57679177D01*
X194136756Y-57689120D01*
X194189752Y-57740669D01*
X194278934Y-57827417D01*
X194289196Y-57838709D01*
X194413310Y-57993432D01*
X194422101Y-58005891D01*
X194526257Y-58174678D01*
X194533457Y-58188134D01*
X194616093Y-58368443D01*
X194621587Y-58382684D01*
X194668834Y-58531945D01*
X194674368Y-58561550D01*
X194689302Y-58798000D01*
X194689487Y-58801896D01*
X194698793Y-59096127D01*
X194698855Y-59100077D01*
X194698784Y-59390751D01*
X194698719Y-59394747D01*
X194689595Y-59675591D01*
X194689250Y-59681638D01*
X194643071Y-60248222D01*
X194642136Y-60256360D01*
X194560745Y-60804541D01*
X194559260Y-60812671D01*
X194442633Y-61349167D01*
X194440604Y-61357200D01*
X194288727Y-61883614D01*
X194286176Y-61891463D01*
X194098675Y-62409203D01*
X194095641Y-62416790D01*
X193871759Y-62927195D01*
X193868292Y-62934450D01*
X193606948Y-63438636D01*
X193603108Y-63445501D01*
X193302943Y-63944362D01*
X193298795Y-63950798D01*
X192958187Y-64445016D01*
X192953797Y-64450995D01*
X192570964Y-64940973D01*
X192566400Y-64946479D01*
X192139397Y-65432409D01*
X192134718Y-65437445D01*
X191661494Y-65919283D01*
X191656759Y-65923855D01*
X191135355Y-66401211D01*
X191130610Y-66405339D01*
X190559059Y-66877638D01*
X190554346Y-66881345D01*
X189930799Y-67347776D01*
X189926150Y-67351089D01*
X189249126Y-67810497D01*
X189244566Y-67813447D01*
X188512897Y-68264452D01*
X188508444Y-68267071D01*
X187721707Y-68707897D01*
X187717372Y-68710214D01*
X186876016Y-69138745D01*
X186871802Y-69140792D01*
X185977725Y-69554418D01*
X185973632Y-69556223D01*
X185030965Y-69951696D01*
X185026982Y-69953287D01*
X184043239Y-70326534D01*
X184039350Y-70327935D01*
X183028096Y-70673520D01*
X183024272Y-70674758D01*
X182009880Y-70985089D01*
X182006076Y-70986187D01*
X181035986Y-71249404D01*
X181032131Y-71250384D01*
X180214889Y-71444213D01*
X180211460Y-71444975D01*
X179905540Y-71508438D01*
X179905539Y-71508437D01*
X179904044Y-71508747D01*
X179845076Y-71519541D01*
X179839669Y-71522104D01*
X179836699Y-71522720D01*
X179833820Y-71523318D01*
X179833818Y-71523318D01*
X179833817Y-71523319D01*
X179810503Y-71535054D01*
X179781521Y-71549642D01*
X179778907Y-71550919D01*
X179726001Y-71576010D01*
X179721041Y-71579214D01*
X179716105Y-71582572D01*
X179672378Y-71621557D01*
X179671284Y-71622532D01*
X179625602Y-71661373D01*
X179622204Y-71666292D01*
X179617743Y-71670270D01*
X179585630Y-71719193D01*
X179584003Y-71721609D01*
X179550711Y-71769819D01*
X179548036Y-71775037D01*
X179545427Y-71780441D01*
X179527060Y-71836038D01*
X179526115Y-71838788D01*
X179506449Y-71893936D01*
X179505183Y-71899824D01*
X179504090Y-71905569D01*
X179500739Y-71964032D01*
X179500656Y-71965487D01*
X179495815Y-72025293D01*
X179496891Y-72031172D01*
X179496549Y-72037145D01*
X179496550Y-72037148D01*
X179508435Y-72094441D01*
X179508993Y-72097301D01*
X179519540Y-72154924D01*
X179521355Y-72160556D01*
X179523315Y-72166176D01*
X179526026Y-72171561D01*
X179550297Y-72219778D01*
X179576010Y-72273997D01*
X179579882Y-72278551D01*
X179582572Y-72283895D01*
X179622512Y-72328691D01*
X179661373Y-72374398D01*
X179666294Y-72377796D01*
X179670273Y-72382259D01*
X179670275Y-72382260D01*
X179670277Y-72382262D01*
X179719209Y-72414380D01*
X179721626Y-72416007D01*
X179769812Y-72449284D01*
X179769821Y-72449287D01*
X179775083Y-72451983D01*
X179780439Y-72454570D01*
X179780445Y-72454574D01*
X179836137Y-72472970D01*
X179838685Y-72473846D01*
X179893939Y-72493551D01*
X179893945Y-72493551D01*
X179899811Y-72494812D01*
X179905574Y-72495909D01*
X179905575Y-72495909D01*
X179905578Y-72495910D01*
X179964088Y-72499262D01*
X179966872Y-72499454D01*
X180162486Y-72515289D01*
X180179418Y-72517849D01*
X180392859Y-72565395D01*
X180406573Y-72569289D01*
X180679655Y-72664154D01*
X180682465Y-72665130D01*
X180693618Y-72669622D01*
X180827291Y-72731145D01*
X181029152Y-72824051D01*
X181038311Y-72828737D01*
X181428405Y-73049249D01*
X181436071Y-73053959D01*
X181873250Y-73344932D01*
X181879808Y-73349610D01*
X182358326Y-73715059D01*
X182362655Y-73718521D01*
X182607936Y-73923832D01*
X182610610Y-73926136D01*
X182693918Y-74000000D01*
X182846788Y-74135542D01*
X182863827Y-74150649D01*
X182866339Y-74152938D01*
X183080466Y-74353554D01*
X183124148Y-74394479D01*
X183126520Y-74396762D01*
X183352614Y-74620185D01*
X183387092Y-74654255D01*
X183389329Y-74656524D01*
X183421068Y-74689554D01*
X183650810Y-74928644D01*
X183652952Y-74930931D01*
X183893031Y-75193762D01*
X183907170Y-75209241D01*
X183915586Y-75218454D01*
X183917624Y-75220741D01*
X184128646Y-75463553D01*
X184177964Y-75520300D01*
X184179911Y-75522597D01*
X184440000Y-75836971D01*
X184441860Y-75839274D01*
X184697000Y-76163107D01*
X184698781Y-76165423D01*
X184863642Y-76385125D01*
X184942121Y-76489711D01*
X184952314Y-76503294D01*
X184954011Y-76505611D01*
X185041016Y-76627359D01*
X185200573Y-76850631D01*
X185202207Y-76852974D01*
X185445942Y-77211197D01*
X185447507Y-77213554D01*
X185682782Y-77576903D01*
X185684282Y-77579278D01*
X185915679Y-77955027D01*
X185917115Y-77957419D01*
X185952609Y-78018071D01*
X186092753Y-78257546D01*
X186138975Y-78336528D01*
X186140341Y-78338923D01*
X186210760Y-78465678D01*
X186357429Y-78729685D01*
X186358743Y-78732114D01*
X186565590Y-79124799D01*
X186566845Y-79127247D01*
X186684676Y-79363505D01*
X186763725Y-79522005D01*
X186768091Y-79530758D01*
X186769274Y-79533196D01*
X186878834Y-79765600D01*
X186959938Y-79937643D01*
X186961076Y-79940128D01*
X187145448Y-80354683D01*
X187146529Y-80357187D01*
X187320059Y-80771679D01*
X187321082Y-80774200D01*
X187405798Y-80989707D01*
X187474726Y-81165054D01*
X187487748Y-81198179D01*
X187488714Y-81200717D01*
X187644506Y-81624038D01*
X187645414Y-81626592D01*
X187781564Y-82023067D01*
X187793832Y-82058790D01*
X187794677Y-82061340D01*
X187806259Y-82097628D01*
X187932261Y-82492400D01*
X187933054Y-82494982D01*
X188062813Y-82934340D01*
X188063549Y-82936935D01*
X188182597Y-83374874D01*
X188183275Y-83377479D01*
X188294105Y-83823192D01*
X188294725Y-83825807D01*
X188394978Y-84269875D01*
X188395540Y-84272497D01*
X188487254Y-84723973D01*
X188487759Y-84726601D01*
X188569052Y-85176329D01*
X188569498Y-85178961D01*
X188641924Y-85635594D01*
X188642313Y-85638228D01*
X188704484Y-86093140D01*
X188704815Y-86095775D01*
X188757850Y-86557307D01*
X188758124Y-86559940D01*
X188801026Y-87019634D01*
X188801244Y-87022263D01*
X188834765Y-87488409D01*
X188834925Y-87491033D01*
X188858439Y-87955447D01*
X188858544Y-87958062D01*
X188872415Y-88428470D01*
X188872465Y-88431076D01*
X188876432Y-88900123D01*
X188876426Y-88902717D01*
X188870512Y-89377320D01*
X188870453Y-89379901D01*
X188854693Y-89853330D01*
X188854581Y-89855894D01*
X188828709Y-90334751D01*
X188828545Y-90337298D01*
X188792860Y-90815023D01*
X188792646Y-90817550D01*
X188746607Y-91300651D01*
X188746342Y-91303157D01*
X188690487Y-91785297D01*
X188690174Y-91787779D01*
X188623749Y-92274948D01*
X188623389Y-92277406D01*
X188547085Y-92763998D01*
X188546679Y-92766430D01*
X188459570Y-93257878D01*
X188459119Y-93260282D01*
X188362058Y-93751309D01*
X188361565Y-93753683D01*
X188253457Y-94249433D01*
X188252922Y-94251776D01*
X188134737Y-94747380D01*
X188134162Y-94749692D01*
X188004700Y-95249810D01*
X188004092Y-95252068D01*
X187985498Y-95318650D01*
X187864391Y-95752303D01*
X187863741Y-95754547D01*
X187712647Y-96258710D01*
X187711911Y-96261079D01*
X187539932Y-96795780D01*
X187531748Y-96815318D01*
X187066765Y-97703640D01*
X187064632Y-97707543D01*
X186524380Y-98655289D01*
X186522205Y-98658956D01*
X185923790Y-99629598D01*
X185921591Y-99633036D01*
X185262825Y-100626792D01*
X185260616Y-100630014D01*
X184539125Y-101647285D01*
X184536916Y-101650302D01*
X183750532Y-102691094D01*
X183748335Y-102693917D01*
X182894751Y-103758356D01*
X182892572Y-103760997D01*
X181969694Y-104848888D01*
X181967541Y-104851359D01*
X180973316Y-105962435D01*
X180971193Y-105964748D01*
X179903660Y-107098623D01*
X179901571Y-107100789D01*
X178759090Y-108256738D01*
X178757037Y-108258767D01*
X177538023Y-109436037D01*
X177536008Y-109437940D01*
X176239313Y-110635391D01*
X176237336Y-110637178D01*
X174862042Y-111853514D01*
X174860103Y-111855193D01*
X173405909Y-113088655D01*
X173404007Y-113090236D01*
X171870969Y-114338865D01*
X171869102Y-114340356D01*
X170257995Y-115601725D01*
X170256161Y-115603133D01*
X168568348Y-116874506D01*
X168566543Y-116875840D01*
X166804518Y-118153796D01*
X166802739Y-118155063D01*
X164969785Y-119435821D01*
X164968028Y-119437026D01*
X163068702Y-120716154D01*
X163066961Y-120717306D01*
X161106931Y-121989897D01*
X161105201Y-121991000D01*
X159091902Y-123251307D01*
X159090175Y-123252368D01*
X157032604Y-124494046D01*
X157030873Y-124495072D01*
X154939325Y-125711396D01*
X154937580Y-125712392D01*
X152824661Y-126895757D01*
X152822891Y-126896729D01*
X150702760Y-128039191D01*
X150700954Y-128040146D01*
X148587832Y-129134287D01*
X148586441Y-129134995D01*
X147539162Y-129660652D01*
X147538216Y-129661122D01*
X146500471Y-130170973D01*
X146499507Y-130171442D01*
X145471410Y-130665562D01*
X145470423Y-130666031D01*
X144455547Y-131142835D01*
X144454536Y-131143304D01*
X143456326Y-131601374D01*
X143455287Y-131601845D01*
X142472436Y-132041965D01*
X142471366Y-132042438D01*
X141512083Y-132461186D01*
X141510977Y-132461663D01*
X140568888Y-132862058D01*
X140567743Y-132862538D01*
X139655694Y-133239431D01*
X139654504Y-133239915D01*
X138761810Y-133598021D01*
X138760570Y-133598511D01*
X137903373Y-133931727D01*
X137902077Y-133932222D01*
X137065673Y-134246627D01*
X137064315Y-134247129D01*
X136268452Y-134535734D01*
X136267023Y-134536242D01*
X135492894Y-134806301D01*
X135491388Y-134806816D01*
X134761507Y-135050980D01*
X134759913Y-135051501D01*
X134052390Y-135277589D01*
X134050700Y-135278116D01*
X133389810Y-135478952D01*
X133388010Y-135479484D01*
X132749691Y-135662951D01*
X132747769Y-135663487D01*
X132157115Y-135823016D01*
X132155058Y-135823552D01*
X131586863Y-135966608D01*
X131584654Y-135967143D01*
X131064033Y-136088119D01*
X131061653Y-136088648D01*
X130562861Y-136194260D01*
X130560292Y-136194775D01*
X130107849Y-136280627D01*
X130105066Y-136281122D01*
X129673767Y-136352818D01*
X129670746Y-136353282D01*
X129283680Y-136407860D01*
X129280394Y-136408279D01*
X128913491Y-136450053D01*
X128909908Y-136450408D01*
X128584473Y-136477917D01*
X128580561Y-136478186D01*
X128274236Y-136494344D01*
X128269964Y-136494495D01*
X128003596Y-136499350D01*
X127998555Y-136499340D01*
X127803476Y-136494963D01*
X127797843Y-136494708D01*
X127607708Y-136481776D01*
X127602027Y-136481258D01*
X127415706Y-136459941D01*
X127410014Y-136459156D01*
X127234106Y-136430721D01*
X127225607Y-136429041D01*
X126860312Y-136343456D01*
X126849205Y-136340301D01*
X126499163Y-136223022D01*
X126488534Y-136218909D01*
X126476276Y-136213505D01*
X126255481Y-136116164D01*
X126143842Y-136066946D01*
X126133886Y-136062013D01*
X125792211Y-135873190D01*
X125783071Y-135867610D01*
X125716649Y-135823016D01*
X125442613Y-135639035D01*
X125434387Y-135633007D01*
X125093812Y-135361159D01*
X125086512Y-135354851D01*
X125004125Y-135277864D01*
X124745100Y-135035815D01*
X124738714Y-135029395D01*
X124396125Y-134658848D01*
X124390609Y-134652458D01*
X124046919Y-134225796D01*
X124042206Y-134219551D01*
X124004930Y-134166774D01*
X123838920Y-133931727D01*
X123697851Y-133731994D01*
X123693850Y-133725963D01*
X123349463Y-133172433D01*
X123346093Y-133166677D01*
X123002556Y-132541944D01*
X122999734Y-132536497D01*
X122963281Y-132461663D01*
X122658092Y-131835140D01*
X122655747Y-131830033D01*
X122555454Y-131597905D01*
X122317155Y-131046361D01*
X122315208Y-131041581D01*
X121980993Y-130169842D01*
X121979386Y-130165396D01*
X121650916Y-129199507D01*
X121649609Y-129195432D01*
X121328332Y-128129062D01*
X121327240Y-128125211D01*
X121014757Y-126952089D01*
X121013862Y-126948516D01*
X120711741Y-125661801D01*
X120711012Y-125658492D01*
X120641609Y-125321816D01*
X120420927Y-124251280D01*
X120420356Y-124248323D01*
X120144033Y-122713484D01*
X120143557Y-122710648D01*
X119882771Y-121040835D01*
X119882390Y-121038209D01*
X119664107Y-119413122D01*
X119638933Y-119225708D01*
X119638633Y-119223294D01*
X119605268Y-118931270D01*
X119414288Y-117259714D01*
X119414053Y-117257466D01*
X119379857Y-116900500D01*
X119210641Y-115134118D01*
X119210472Y-115132173D01*
X119029765Y-112839266D01*
X119029644Y-112837553D01*
X118873374Y-110364015D01*
X118873276Y-110362262D01*
X118861642Y-110123911D01*
X118743036Y-107694009D01*
X118742970Y-107692419D01*
X118742159Y-107669680D01*
X118640145Y-104809798D01*
X118640111Y-104808653D01*
X118598346Y-103052135D01*
X120329500Y-103052135D01*
X120329500Y-104947870D01*
X120329501Y-104947876D01*
X120335908Y-105007483D01*
X120386202Y-105142328D01*
X120386206Y-105142335D01*
X120472452Y-105257544D01*
X120472455Y-105257547D01*
X120587664Y-105343793D01*
X120587671Y-105343797D01*
X120722517Y-105394091D01*
X120722516Y-105394091D01*
X120729444Y-105394835D01*
X120782127Y-105400500D01*
X122677872Y-105400499D01*
X122737483Y-105394091D01*
X122872331Y-105343796D01*
X122987546Y-105257546D01*
X123073796Y-105142331D01*
X123101429Y-105068243D01*
X123103601Y-105062420D01*
X123145471Y-105006486D01*
X123210936Y-104982068D01*
X123279209Y-104996919D01*
X123307464Y-105018071D01*
X123357636Y-105068243D01*
X123357641Y-105068247D01*
X123459603Y-105142326D01*
X123535978Y-105197815D01*
X123664375Y-105263237D01*
X123732393Y-105297895D01*
X123732396Y-105297896D01*
X123837221Y-105331955D01*
X123942049Y-105366015D01*
X124159778Y-105400500D01*
X124159779Y-105400500D01*
X124380221Y-105400500D01*
X124380222Y-105400500D01*
X124597951Y-105366015D01*
X124807606Y-105297895D01*
X125004022Y-105197815D01*
X125182365Y-105068242D01*
X125338242Y-104912365D01*
X125467815Y-104734022D01*
X125501352Y-104668204D01*
X125549326Y-104617409D01*
X125611836Y-104600500D01*
X136833331Y-104600500D01*
X136833347Y-104600501D01*
X136840943Y-104600501D01*
X136999054Y-104600501D01*
X136999057Y-104600501D01*
X137151785Y-104559577D01*
X137219156Y-104520680D01*
X137288716Y-104480520D01*
X137400520Y-104368716D01*
X137400520Y-104368714D01*
X137410724Y-104358511D01*
X137410727Y-104358506D01*
X153497713Y-88271521D01*
X153559036Y-88238037D01*
X153628728Y-88243021D01*
X153684661Y-88284893D01*
X153709078Y-88350357D01*
X153707011Y-88383394D01*
X153699500Y-88421153D01*
X153699500Y-88578846D01*
X153730261Y-88733489D01*
X153730264Y-88733501D01*
X153790602Y-88879172D01*
X153790609Y-88879185D01*
X153878602Y-89010874D01*
X153899480Y-89077551D01*
X153899500Y-89079765D01*
X153899500Y-89413330D01*
X153899499Y-89413348D01*
X153899499Y-89579054D01*
X153899498Y-89579054D01*
X153940423Y-89731785D01*
X153949489Y-89747487D01*
X153949490Y-89747490D01*
X154019475Y-89868709D01*
X154019481Y-89868717D01*
X154138349Y-89987585D01*
X154138355Y-89987590D01*
X156613181Y-92462416D01*
X156646666Y-92523739D01*
X156649500Y-92550097D01*
X156649500Y-93897870D01*
X156649501Y-93897876D01*
X156655908Y-93957483D01*
X156706202Y-94092328D01*
X156706206Y-94092335D01*
X156792452Y-94207544D01*
X156792455Y-94207547D01*
X156907664Y-94293793D01*
X156907671Y-94293797D01*
X157042517Y-94344091D01*
X157042516Y-94344091D01*
X157049444Y-94344835D01*
X157102127Y-94350500D01*
X158665500Y-94350499D01*
X158732539Y-94370184D01*
X158778294Y-94422987D01*
X158789500Y-94474499D01*
X158789500Y-101579902D01*
X158769815Y-101646941D01*
X158753181Y-101667583D01*
X129794202Y-130626561D01*
X129732879Y-130660046D01*
X129668203Y-130656811D01*
X129643584Y-130648812D01*
X129597952Y-130633985D01*
X129489086Y-130616742D01*
X129380222Y-130599500D01*
X129159778Y-130599500D01*
X129087201Y-130610995D01*
X128942047Y-130633985D01*
X128732396Y-130702103D01*
X128732393Y-130702104D01*
X128535974Y-130802187D01*
X128357641Y-130931752D01*
X128357636Y-130931756D01*
X128307463Y-130981929D01*
X128246140Y-131015413D01*
X128176448Y-131010428D01*
X128120515Y-130968557D01*
X128103601Y-130937580D01*
X128073797Y-130857671D01*
X128073793Y-130857664D01*
X127987547Y-130742455D01*
X127987544Y-130742452D01*
X127872335Y-130656206D01*
X127872328Y-130656202D01*
X127737482Y-130605908D01*
X127737483Y-130605908D01*
X127677883Y-130599501D01*
X127677881Y-130599500D01*
X127677873Y-130599500D01*
X127677864Y-130599500D01*
X125782129Y-130599500D01*
X125782123Y-130599501D01*
X125722516Y-130605908D01*
X125587671Y-130656202D01*
X125587664Y-130656206D01*
X125472455Y-130742452D01*
X125472452Y-130742455D01*
X125386206Y-130857664D01*
X125386202Y-130857671D01*
X125335908Y-130992517D01*
X125329501Y-131052116D01*
X125329500Y-131052135D01*
X125329500Y-132947870D01*
X125329501Y-132947876D01*
X125335908Y-133007483D01*
X125386202Y-133142328D01*
X125386206Y-133142335D01*
X125472452Y-133257544D01*
X125472455Y-133257547D01*
X125587664Y-133343793D01*
X125587671Y-133343797D01*
X125722517Y-133394091D01*
X125722516Y-133394091D01*
X125729444Y-133394835D01*
X125782127Y-133400500D01*
X127677872Y-133400499D01*
X127737483Y-133394091D01*
X127872331Y-133343796D01*
X127987546Y-133257546D01*
X128073796Y-133142331D01*
X128101429Y-133068243D01*
X128103601Y-133062420D01*
X128145471Y-133006486D01*
X128210936Y-132982068D01*
X128279209Y-132996919D01*
X128307464Y-133018071D01*
X128357636Y-133068243D01*
X128357641Y-133068247D01*
X128459603Y-133142326D01*
X128535978Y-133197815D01*
X128664375Y-133263237D01*
X128732393Y-133297895D01*
X128732396Y-133297896D01*
X128837221Y-133331955D01*
X128942049Y-133366015D01*
X129159778Y-133400500D01*
X129159779Y-133400500D01*
X129380221Y-133400500D01*
X129380222Y-133400500D01*
X129597951Y-133366015D01*
X129807606Y-133297895D01*
X130004022Y-133197815D01*
X130182365Y-133068242D01*
X130338242Y-132912365D01*
X130467815Y-132734022D01*
X130567895Y-132537606D01*
X130636015Y-132327951D01*
X130670500Y-132110222D01*
X130670500Y-131889778D01*
X130636015Y-131672049D01*
X130619444Y-131621051D01*
X130613188Y-131601794D01*
X130611193Y-131531953D01*
X130643436Y-131475797D01*
X146729456Y-115389778D01*
X161059500Y-115389778D01*
X161059500Y-115610221D01*
X161093985Y-115827952D01*
X161162103Y-116037603D01*
X161162104Y-116037606D01*
X161262187Y-116234025D01*
X161391752Y-116412358D01*
X161391756Y-116412363D01*
X161547636Y-116568243D01*
X161547641Y-116568247D01*
X161649606Y-116642328D01*
X161725978Y-116697815D01*
X161854375Y-116763237D01*
X161922393Y-116797895D01*
X161922396Y-116797896D01*
X162027221Y-116831955D01*
X162132049Y-116866015D01*
X162349778Y-116900500D01*
X162349779Y-116900500D01*
X162570221Y-116900500D01*
X162570222Y-116900500D01*
X162787951Y-116866015D01*
X162997606Y-116797895D01*
X163194022Y-116697815D01*
X163372365Y-116568242D01*
X163422536Y-116518070D01*
X163483857Y-116484586D01*
X163553548Y-116489570D01*
X163609482Y-116531441D01*
X163626398Y-116562419D01*
X163656202Y-116642328D01*
X163656206Y-116642335D01*
X163742452Y-116757544D01*
X163742455Y-116757547D01*
X163857664Y-116843793D01*
X163857671Y-116843797D01*
X163992517Y-116894091D01*
X163992516Y-116894091D01*
X163999444Y-116894835D01*
X164052127Y-116900500D01*
X165947872Y-116900499D01*
X166007483Y-116894091D01*
X166142331Y-116843796D01*
X166257546Y-116757546D01*
X166343796Y-116642331D01*
X166394091Y-116507483D01*
X166400500Y-116447873D01*
X166400499Y-114552128D01*
X166394091Y-114492517D01*
X166371429Y-114431758D01*
X166343797Y-114357671D01*
X166343793Y-114357664D01*
X166257547Y-114242455D01*
X166257544Y-114242452D01*
X166142335Y-114156206D01*
X166142328Y-114156202D01*
X166007482Y-114105908D01*
X166007483Y-114105908D01*
X165947883Y-114099501D01*
X165947881Y-114099500D01*
X165947873Y-114099500D01*
X165947865Y-114099500D01*
X165009096Y-114099500D01*
X164942057Y-114079815D01*
X164896302Y-114027011D01*
X164886358Y-113957853D01*
X164915383Y-113894297D01*
X164921415Y-113887819D01*
X166241808Y-112567426D01*
X167838506Y-110970728D01*
X167838511Y-110970724D01*
X167848714Y-110960520D01*
X167848716Y-110960520D01*
X167960520Y-110848716D01*
X168031690Y-110725445D01*
X168039577Y-110711785D01*
X168080500Y-110559057D01*
X168080500Y-110400943D01*
X168080500Y-100389778D01*
X177829500Y-100389778D01*
X177829500Y-100610222D01*
X177832385Y-100628436D01*
X177863985Y-100827952D01*
X177932103Y-101037603D01*
X177932104Y-101037606D01*
X178032187Y-101234025D01*
X178161752Y-101412358D01*
X178161756Y-101412363D01*
X178317636Y-101568243D01*
X178317641Y-101568247D01*
X178454367Y-101667583D01*
X178495978Y-101697815D01*
X178621152Y-101761595D01*
X178692393Y-101797895D01*
X178692396Y-101797896D01*
X178797221Y-101831955D01*
X178902049Y-101866015D01*
X179119778Y-101900500D01*
X179119779Y-101900500D01*
X179340221Y-101900500D01*
X179340222Y-101900500D01*
X179557951Y-101866015D01*
X179767606Y-101797895D01*
X179964022Y-101697815D01*
X180142365Y-101568242D01*
X180192536Y-101518070D01*
X180253857Y-101484586D01*
X180323548Y-101489570D01*
X180379482Y-101531441D01*
X180396398Y-101562419D01*
X180426202Y-101642328D01*
X180426206Y-101642335D01*
X180512452Y-101757544D01*
X180512455Y-101757547D01*
X180627664Y-101843793D01*
X180627671Y-101843797D01*
X180762517Y-101894091D01*
X180762516Y-101894091D01*
X180769444Y-101894835D01*
X180822127Y-101900500D01*
X182717872Y-101900499D01*
X182777483Y-101894091D01*
X182912331Y-101843796D01*
X183027546Y-101757546D01*
X183113796Y-101642331D01*
X183164091Y-101507483D01*
X183170500Y-101447873D01*
X183170499Y-99552128D01*
X183164091Y-99492517D01*
X183143601Y-99437581D01*
X183113797Y-99357671D01*
X183113793Y-99357664D01*
X183027547Y-99242455D01*
X183027544Y-99242452D01*
X182912335Y-99156206D01*
X182912328Y-99156202D01*
X182777482Y-99105908D01*
X182777483Y-99105908D01*
X182717883Y-99099501D01*
X182717881Y-99099500D01*
X182717873Y-99099500D01*
X182717864Y-99099500D01*
X180822129Y-99099500D01*
X180822123Y-99099501D01*
X180762516Y-99105908D01*
X180627671Y-99156202D01*
X180627664Y-99156206D01*
X180512455Y-99242452D01*
X180512452Y-99242455D01*
X180426206Y-99357664D01*
X180426203Y-99357669D01*
X180396398Y-99437581D01*
X180354526Y-99493514D01*
X180289062Y-99517931D01*
X180220789Y-99503079D01*
X180192535Y-99481928D01*
X180142363Y-99431756D01*
X180142358Y-99431752D01*
X179964025Y-99302187D01*
X179964024Y-99302186D01*
X179964022Y-99302185D01*
X179846791Y-99242452D01*
X179767606Y-99202104D01*
X179767603Y-99202103D01*
X179557952Y-99133985D01*
X179410929Y-99110699D01*
X179340222Y-99099500D01*
X179119778Y-99099500D01*
X179049071Y-99110699D01*
X178902047Y-99133985D01*
X178692396Y-99202103D01*
X178692393Y-99202104D01*
X178495974Y-99302187D01*
X178317641Y-99431752D01*
X178317636Y-99431756D01*
X178161756Y-99587636D01*
X178161752Y-99587641D01*
X178032187Y-99765974D01*
X177932104Y-99962393D01*
X177932103Y-99962396D01*
X177863985Y-100172047D01*
X177863985Y-100172049D01*
X177829500Y-100389778D01*
X168080500Y-100389778D01*
X168080500Y-95397648D01*
X172699500Y-95397648D01*
X172699500Y-95602351D01*
X172731522Y-95804534D01*
X172794781Y-95999223D01*
X172843476Y-96094790D01*
X172887585Y-96181359D01*
X172887715Y-96181613D01*
X173008028Y-96347213D01*
X173152786Y-96491971D01*
X173273226Y-96579474D01*
X173318390Y-96612287D01*
X173434607Y-96671503D01*
X173500776Y-96705218D01*
X173500778Y-96705218D01*
X173500781Y-96705220D01*
X173605137Y-96739127D01*
X173695465Y-96768477D01*
X173796557Y-96784488D01*
X173897648Y-96800500D01*
X173897649Y-96800500D01*
X174102351Y-96800500D01*
X174102352Y-96800500D01*
X174304534Y-96768477D01*
X174499219Y-96705220D01*
X174681610Y-96612287D01*
X174774590Y-96544732D01*
X174847213Y-96491971D01*
X174847215Y-96491968D01*
X174847219Y-96491966D01*
X174991966Y-96347219D01*
X174991968Y-96347215D01*
X174991971Y-96347213D01*
X175054550Y-96261079D01*
X175112287Y-96181610D01*
X175205220Y-95999219D01*
X175268477Y-95804534D01*
X175300500Y-95602352D01*
X175300500Y-95397648D01*
X175280928Y-95274076D01*
X175268477Y-95195465D01*
X175221051Y-95049503D01*
X175205220Y-95000781D01*
X175205218Y-95000778D01*
X175205218Y-95000776D01*
X175147826Y-94888139D01*
X175112287Y-94818390D01*
X175073633Y-94765187D01*
X174991971Y-94652786D01*
X174847213Y-94508028D01*
X174681613Y-94387715D01*
X174681612Y-94387714D01*
X174681610Y-94387713D01*
X174624653Y-94358691D01*
X174499223Y-94294781D01*
X174304534Y-94231522D01*
X174129995Y-94203878D01*
X174102352Y-94199500D01*
X173897648Y-94199500D01*
X173873329Y-94203351D01*
X173695465Y-94231522D01*
X173500776Y-94294781D01*
X173318386Y-94387715D01*
X173152786Y-94508028D01*
X173008028Y-94652786D01*
X172887715Y-94818386D01*
X172794781Y-95000776D01*
X172731522Y-95195465D01*
X172699500Y-95397648D01*
X168080500Y-95397648D01*
X168080500Y-93640097D01*
X168100185Y-93573058D01*
X168116819Y-93552416D01*
X170513640Y-91155595D01*
X173255964Y-88413270D01*
X173317285Y-88379787D01*
X173386977Y-88384771D01*
X173442910Y-88426643D01*
X173467327Y-88492107D01*
X173458205Y-88548404D01*
X173445447Y-88579205D01*
X173445445Y-88579210D01*
X173404500Y-88785054D01*
X173404500Y-88785057D01*
X173404500Y-88994943D01*
X173404500Y-88994945D01*
X173404499Y-88994945D01*
X173445445Y-89200789D01*
X173445447Y-89200795D01*
X173525765Y-89394701D01*
X173642373Y-89569218D01*
X173790781Y-89717626D01*
X173965298Y-89834234D01*
X174048548Y-89868717D01*
X174159205Y-89914553D01*
X174159209Y-89914553D01*
X174159210Y-89914554D01*
X174365054Y-89955500D01*
X174365057Y-89955500D01*
X174574945Y-89955500D01*
X174713433Y-89927952D01*
X174780795Y-89914553D01*
X174974703Y-89834233D01*
X175149216Y-89717628D01*
X175297628Y-89569216D01*
X175414233Y-89394703D01*
X175494553Y-89200795D01*
X175519068Y-89077551D01*
X175535500Y-88994945D01*
X175535500Y-88785054D01*
X175494554Y-88579210D01*
X175494553Y-88579209D01*
X175494553Y-88579205D01*
X175449908Y-88471424D01*
X175414234Y-88385298D01*
X175297626Y-88210781D01*
X175149218Y-88062373D01*
X174974701Y-87945765D01*
X174780795Y-87865447D01*
X174780789Y-87865445D01*
X174574945Y-87824500D01*
X174574943Y-87824500D01*
X174365057Y-87824500D01*
X174365055Y-87824500D01*
X174159210Y-87865445D01*
X174159205Y-87865447D01*
X174128404Y-87878205D01*
X174058935Y-87885673D01*
X173996456Y-87854397D01*
X173960804Y-87794307D01*
X173963299Y-87724482D01*
X173993270Y-87675964D01*
X174225339Y-87443895D01*
X174286660Y-87410412D01*
X174337211Y-87409961D01*
X174365056Y-87415500D01*
X174365057Y-87415500D01*
X174574945Y-87415500D01*
X174713433Y-87387952D01*
X174780795Y-87374553D01*
X174974703Y-87294233D01*
X175149216Y-87177628D01*
X175297628Y-87029216D01*
X175414233Y-86854703D01*
X175494553Y-86660795D01*
X175517031Y-86547794D01*
X175535500Y-86454945D01*
X175535500Y-86245054D01*
X175494554Y-86039210D01*
X175494553Y-86039209D01*
X175494553Y-86039205D01*
X175428265Y-85879172D01*
X175414234Y-85845298D01*
X175297626Y-85670781D01*
X175149218Y-85522373D01*
X174974701Y-85405765D01*
X174780795Y-85325447D01*
X174780789Y-85325445D01*
X174574945Y-85284500D01*
X174574943Y-85284500D01*
X174365057Y-85284500D01*
X174365055Y-85284500D01*
X174159210Y-85325445D01*
X174159204Y-85325447D01*
X173965298Y-85405765D01*
X173790781Y-85522373D01*
X173642373Y-85670781D01*
X173525765Y-85845298D01*
X173445447Y-86039204D01*
X173445445Y-86039210D01*
X173404500Y-86245054D01*
X173404500Y-86245057D01*
X173404500Y-86454943D01*
X173410039Y-86482789D01*
X173403811Y-86552380D01*
X173376102Y-86594660D01*
X167111286Y-92859478D01*
X166999481Y-92971282D01*
X166999479Y-92971285D01*
X166949361Y-93058094D01*
X166949359Y-93058096D01*
X166920425Y-93108209D01*
X166920424Y-93108210D01*
X166920423Y-93108215D01*
X166879499Y-93260943D01*
X166879499Y-93260945D01*
X166879499Y-93429046D01*
X166879500Y-93429059D01*
X166879500Y-94124724D01*
X166859815Y-94191763D01*
X166807011Y-94237518D01*
X166737853Y-94247462D01*
X166717183Y-94242655D01*
X166684425Y-94232011D01*
X166684418Y-94232010D01*
X166482317Y-94200000D01*
X166277683Y-94200000D01*
X166075582Y-94232009D01*
X165880968Y-94295244D01*
X165698644Y-94388143D01*
X165654077Y-94420523D01*
X165654077Y-94420524D01*
X166333553Y-95100000D01*
X166327339Y-95100000D01*
X166225606Y-95127259D01*
X166134394Y-95179920D01*
X166059920Y-95254394D01*
X166007259Y-95345606D01*
X165980000Y-95447339D01*
X165980000Y-95453553D01*
X165300524Y-94774077D01*
X165300523Y-94774077D01*
X165268143Y-94818644D01*
X165175244Y-95000968D01*
X165112009Y-95195582D01*
X165080000Y-95397682D01*
X165080000Y-95602317D01*
X165112009Y-95804417D01*
X165175244Y-95999031D01*
X165268141Y-96181350D01*
X165268147Y-96181359D01*
X165300523Y-96225921D01*
X165300524Y-96225922D01*
X165980000Y-95546446D01*
X165980000Y-95552661D01*
X166007259Y-95654394D01*
X166059920Y-95745606D01*
X166134394Y-95820080D01*
X166225606Y-95872741D01*
X166327339Y-95900000D01*
X166333552Y-95900000D01*
X165654076Y-96579474D01*
X165698650Y-96611859D01*
X165880968Y-96704755D01*
X166075582Y-96767990D01*
X166277683Y-96800000D01*
X166482317Y-96800000D01*
X166684418Y-96767989D01*
X166684424Y-96767988D01*
X166717180Y-96757345D01*
X166787021Y-96755348D01*
X166846855Y-96791428D01*
X166877684Y-96854128D01*
X166879500Y-96875275D01*
X166879500Y-110179902D01*
X166859815Y-110246941D01*
X166843181Y-110267583D01*
X162984202Y-114126561D01*
X162922879Y-114160046D01*
X162858203Y-114156811D01*
X162833584Y-114148812D01*
X162787952Y-114133985D01*
X162679086Y-114116742D01*
X162570222Y-114099500D01*
X162349778Y-114099500D01*
X162277201Y-114110995D01*
X162132047Y-114133985D01*
X161922396Y-114202103D01*
X161922393Y-114202104D01*
X161725974Y-114302187D01*
X161547641Y-114431752D01*
X161547636Y-114431756D01*
X161391756Y-114587636D01*
X161391752Y-114587641D01*
X161262187Y-114765974D01*
X161162104Y-114962393D01*
X161162103Y-114962396D01*
X161093985Y-115172047D01*
X161059500Y-115389778D01*
X146729456Y-115389778D01*
X159748506Y-102370728D01*
X159748511Y-102370724D01*
X159758714Y-102360520D01*
X159758716Y-102360520D01*
X159870520Y-102248716D01*
X159949577Y-102111784D01*
X159990500Y-101959057D01*
X159990500Y-89411601D01*
X160010185Y-89344562D01*
X160062989Y-89298807D01*
X160132147Y-89288863D01*
X160152820Y-89293671D01*
X160223866Y-89316756D01*
X160223872Y-89316757D01*
X160433754Y-89350000D01*
X160646246Y-89350000D01*
X160856127Y-89316757D01*
X160856130Y-89316757D01*
X161058217Y-89251095D01*
X161247554Y-89154622D01*
X161301716Y-89115270D01*
X161301717Y-89115270D01*
X160971549Y-88785102D01*
X165465000Y-88785102D01*
X165465000Y-88994897D01*
X165505925Y-89200641D01*
X165505927Y-89200649D01*
X165586207Y-89394464D01*
X165620563Y-89445882D01*
X166140000Y-88926445D01*
X166140000Y-88941344D01*
X166166578Y-89040534D01*
X166217923Y-89129465D01*
X166290535Y-89202077D01*
X166379466Y-89253422D01*
X166478656Y-89280000D01*
X166493553Y-89280000D01*
X165974116Y-89799434D01*
X165974117Y-89799435D01*
X166025528Y-89833788D01*
X166025534Y-89833791D01*
X166219350Y-89914072D01*
X166219358Y-89914074D01*
X166425102Y-89954999D01*
X166425106Y-89955000D01*
X166634894Y-89955000D01*
X166634897Y-89954999D01*
X166840641Y-89914074D01*
X166840649Y-89914072D01*
X167034465Y-89833791D01*
X167034473Y-89833787D01*
X167085881Y-89799435D01*
X167085882Y-89799434D01*
X166566448Y-89280000D01*
X166581344Y-89280000D01*
X166680534Y-89253422D01*
X166769465Y-89202077D01*
X166842077Y-89129465D01*
X166893422Y-89040534D01*
X166920000Y-88941344D01*
X166920000Y-88926448D01*
X167439434Y-89445882D01*
X167439435Y-89445881D01*
X167473787Y-89394473D01*
X167473791Y-89394465D01*
X167554072Y-89200649D01*
X167554074Y-89200641D01*
X167594999Y-88994897D01*
X167595000Y-88994894D01*
X167595000Y-88785106D01*
X167594999Y-88785102D01*
X167554074Y-88579358D01*
X167554072Y-88579350D01*
X167473791Y-88385534D01*
X167473788Y-88385528D01*
X167439435Y-88334117D01*
X167439434Y-88334116D01*
X166920000Y-88853551D01*
X166920000Y-88838656D01*
X166893422Y-88739466D01*
X166842077Y-88650535D01*
X166769465Y-88577923D01*
X166680534Y-88526578D01*
X166581344Y-88500000D01*
X166566447Y-88500000D01*
X167085882Y-87980563D01*
X167034464Y-87946207D01*
X166840649Y-87865927D01*
X166840641Y-87865925D01*
X166634897Y-87825000D01*
X166425102Y-87825000D01*
X166219358Y-87865925D01*
X166219350Y-87865927D01*
X166025535Y-87946207D01*
X166025532Y-87946209D01*
X165974117Y-87980564D01*
X166493554Y-88500000D01*
X166478656Y-88500000D01*
X166379466Y-88526578D01*
X166290535Y-88577923D01*
X166217923Y-88650535D01*
X166166578Y-88739466D01*
X166140000Y-88838656D01*
X166140000Y-88853553D01*
X165620564Y-88334117D01*
X165586209Y-88385532D01*
X165586207Y-88385535D01*
X165505927Y-88579350D01*
X165505925Y-88579358D01*
X165465000Y-88785102D01*
X160971549Y-88785102D01*
X160669409Y-88482962D01*
X160732993Y-88465925D01*
X160847007Y-88400099D01*
X160940099Y-88307007D01*
X161005925Y-88192993D01*
X161022962Y-88129409D01*
X161655270Y-88761717D01*
X161655270Y-88761716D01*
X161694623Y-88707553D01*
X161791095Y-88518217D01*
X161856757Y-88316130D01*
X161856757Y-88316127D01*
X161890000Y-88106246D01*
X161890000Y-87893753D01*
X161856757Y-87683872D01*
X161856757Y-87683869D01*
X161791095Y-87481782D01*
X161694620Y-87292442D01*
X161589231Y-87147385D01*
X161565751Y-87081579D01*
X161581577Y-87013525D01*
X161631682Y-86964830D01*
X161689549Y-86950500D01*
X165583496Y-86950500D01*
X165650535Y-86970185D01*
X165686598Y-87005609D01*
X165702371Y-87029215D01*
X165702374Y-87029219D01*
X165850781Y-87177626D01*
X166025298Y-87294234D01*
X166122251Y-87334393D01*
X166219205Y-87374553D01*
X166219209Y-87374553D01*
X166219210Y-87374554D01*
X166425054Y-87415500D01*
X166425057Y-87415500D01*
X166634945Y-87415500D01*
X166773433Y-87387952D01*
X166840795Y-87374553D01*
X167034703Y-87294233D01*
X167209216Y-87177628D01*
X167357628Y-87029216D01*
X167474233Y-86854703D01*
X167554553Y-86660795D01*
X167577031Y-86547794D01*
X167595500Y-86454945D01*
X167595500Y-86384484D01*
X167615185Y-86317445D01*
X167667989Y-86271690D01*
X167737147Y-86261746D01*
X167760610Y-86268183D01*
X167760676Y-86267969D01*
X167766492Y-86269732D01*
X167766503Y-86269737D01*
X167921153Y-86300499D01*
X167921156Y-86300500D01*
X167921158Y-86300500D01*
X168078844Y-86300500D01*
X168078845Y-86300499D01*
X168233497Y-86269737D01*
X168379179Y-86209394D01*
X168510289Y-86121789D01*
X168621789Y-86010289D01*
X168709394Y-85879179D01*
X168713414Y-85869475D01*
X168746156Y-85790426D01*
X168769737Y-85733497D01*
X168800500Y-85578842D01*
X168800500Y-85421158D01*
X168800500Y-85421155D01*
X168800499Y-85421153D01*
X168797893Y-85408051D01*
X168769737Y-85266503D01*
X168749034Y-85216520D01*
X168709397Y-85120827D01*
X168709390Y-85120814D01*
X168621398Y-84989125D01*
X168600520Y-84922447D01*
X168600500Y-84920234D01*
X168600500Y-83914945D01*
X173404499Y-83914945D01*
X173445445Y-84120789D01*
X173445447Y-84120795D01*
X173525765Y-84314701D01*
X173642373Y-84489218D01*
X173790781Y-84637626D01*
X173965298Y-84754234D01*
X174062251Y-84794393D01*
X174159205Y-84834553D01*
X174159209Y-84834553D01*
X174159210Y-84834554D01*
X174365054Y-84875500D01*
X174365057Y-84875500D01*
X174574945Y-84875500D01*
X174713433Y-84847952D01*
X174780795Y-84834553D01*
X174974703Y-84754233D01*
X175149216Y-84637628D01*
X175297628Y-84489216D01*
X175414233Y-84314703D01*
X175494553Y-84120795D01*
X175512056Y-84032801D01*
X175535500Y-83914945D01*
X175535500Y-83705054D01*
X175494554Y-83499210D01*
X175494553Y-83499209D01*
X175494553Y-83499205D01*
X175434351Y-83353865D01*
X175414234Y-83305298D01*
X175297626Y-83130781D01*
X175149218Y-82982373D01*
X174974701Y-82865765D01*
X174780795Y-82785447D01*
X174780789Y-82785445D01*
X174574945Y-82744500D01*
X174574943Y-82744500D01*
X174365057Y-82744500D01*
X174365055Y-82744500D01*
X174159210Y-82785445D01*
X174159204Y-82785447D01*
X173965298Y-82865765D01*
X173790781Y-82982373D01*
X173642373Y-83130781D01*
X173525765Y-83305298D01*
X173445447Y-83499204D01*
X173445445Y-83499210D01*
X173404500Y-83705054D01*
X173404500Y-83705057D01*
X173404500Y-83914943D01*
X173404500Y-83914945D01*
X173404499Y-83914945D01*
X168600500Y-83914945D01*
X168600500Y-82079765D01*
X168620185Y-82012726D01*
X168621398Y-82010874D01*
X168709390Y-81879185D01*
X168709390Y-81879184D01*
X168709394Y-81879179D01*
X168769737Y-81733497D01*
X168800500Y-81578842D01*
X168800500Y-81421158D01*
X168800500Y-81421155D01*
X168800499Y-81421153D01*
X168800039Y-81418841D01*
X168769737Y-81266503D01*
X168754402Y-81229480D01*
X168709397Y-81120827D01*
X168709390Y-81120814D01*
X168621789Y-80989711D01*
X168621786Y-80989707D01*
X168510292Y-80878213D01*
X168510288Y-80878210D01*
X168379185Y-80790609D01*
X168379172Y-80790602D01*
X168254738Y-80739061D01*
X168200334Y-80695221D01*
X168178269Y-80628926D01*
X168195548Y-80561227D01*
X168246685Y-80513616D01*
X168302190Y-80500500D01*
X173470711Y-80500500D01*
X173537750Y-80520185D01*
X173583505Y-80572989D01*
X173593449Y-80642147D01*
X173573813Y-80693391D01*
X173525766Y-80765297D01*
X173445447Y-80959204D01*
X173445445Y-80959210D01*
X173404500Y-81165054D01*
X173404500Y-81165057D01*
X173404500Y-81374943D01*
X173404500Y-81374945D01*
X173404499Y-81374945D01*
X173445445Y-81580789D01*
X173445447Y-81580795D01*
X173525765Y-81774701D01*
X173642373Y-81949218D01*
X173790781Y-82097626D01*
X173965298Y-82214234D01*
X174062251Y-82254393D01*
X174159205Y-82294553D01*
X174159209Y-82294553D01*
X174159210Y-82294554D01*
X174365054Y-82335500D01*
X174365057Y-82335500D01*
X174574945Y-82335500D01*
X174713433Y-82307952D01*
X174780795Y-82294553D01*
X174974703Y-82214233D01*
X175149216Y-82097628D01*
X175297628Y-81949216D01*
X175414233Y-81774703D01*
X175494553Y-81580795D01*
X175535500Y-81374943D01*
X175535500Y-81165057D01*
X175535500Y-81165054D01*
X175494554Y-80959210D01*
X175494553Y-80959209D01*
X175494553Y-80959205D01*
X175414233Y-80765297D01*
X175366186Y-80693390D01*
X175345309Y-80626713D01*
X175363794Y-80559333D01*
X175415773Y-80512643D01*
X175469289Y-80500500D01*
X178473331Y-80500500D01*
X178473347Y-80500501D01*
X178480943Y-80500501D01*
X178639054Y-80500501D01*
X178639057Y-80500501D01*
X178791785Y-80459577D01*
X178858347Y-80421147D01*
X178928716Y-80380520D01*
X178944884Y-80364351D01*
X178955632Y-80357326D01*
X178977272Y-80350789D01*
X178997110Y-80339955D01*
X179010865Y-80340642D01*
X179022517Y-80337123D01*
X179039953Y-80342096D01*
X179061794Y-80343187D01*
X179132049Y-80366015D01*
X179349778Y-80400500D01*
X179349779Y-80400500D01*
X179570221Y-80400500D01*
X179570222Y-80400500D01*
X179787951Y-80366015D01*
X179997606Y-80297895D01*
X180194022Y-80197815D01*
X180372365Y-80068242D01*
X180422536Y-80018070D01*
X180483857Y-79984586D01*
X180553548Y-79989570D01*
X180609482Y-80031441D01*
X180626398Y-80062419D01*
X180656202Y-80142328D01*
X180656206Y-80142335D01*
X180742452Y-80257544D01*
X180742455Y-80257547D01*
X180857664Y-80343793D01*
X180857671Y-80343797D01*
X180992517Y-80394091D01*
X180992516Y-80394091D01*
X180999444Y-80394835D01*
X181052127Y-80400500D01*
X182947872Y-80400499D01*
X183007483Y-80394091D01*
X183142331Y-80343796D01*
X183257546Y-80257546D01*
X183343796Y-80142331D01*
X183394091Y-80007483D01*
X183400500Y-79947873D01*
X183400499Y-78052128D01*
X183394091Y-77992517D01*
X183381000Y-77957419D01*
X183343797Y-77857671D01*
X183343793Y-77857664D01*
X183257547Y-77742455D01*
X183257544Y-77742452D01*
X183142335Y-77656206D01*
X183142328Y-77656202D01*
X183007482Y-77605908D01*
X183007483Y-77605908D01*
X182947883Y-77599501D01*
X182947881Y-77599500D01*
X182947873Y-77599500D01*
X182947864Y-77599500D01*
X181052129Y-77599500D01*
X181052123Y-77599501D01*
X180992516Y-77605908D01*
X180857671Y-77656202D01*
X180857664Y-77656206D01*
X180742455Y-77742452D01*
X180742452Y-77742455D01*
X180656206Y-77857664D01*
X180656203Y-77857669D01*
X180626398Y-77937581D01*
X180584526Y-77993514D01*
X180519062Y-78017931D01*
X180450789Y-78003079D01*
X180422535Y-77981928D01*
X180372363Y-77931756D01*
X180372358Y-77931752D01*
X180194025Y-77802187D01*
X180194024Y-77802186D01*
X180194022Y-77802185D01*
X180130336Y-77769735D01*
X179997606Y-77702104D01*
X179997603Y-77702103D01*
X179787952Y-77633985D01*
X179679086Y-77616742D01*
X179570222Y-77599500D01*
X179349778Y-77599500D01*
X179277201Y-77610995D01*
X179132047Y-77633985D01*
X178922396Y-77702103D01*
X178922393Y-77702104D01*
X178725974Y-77802187D01*
X178547641Y-77931752D01*
X178547636Y-77931756D01*
X178391756Y-78087636D01*
X178391752Y-78087641D01*
X178262187Y-78265974D01*
X178162104Y-78462393D01*
X178162103Y-78462396D01*
X178093985Y-78672047D01*
X178080067Y-78759922D01*
X178059500Y-78889778D01*
X178059500Y-79110222D01*
X178063713Y-79136819D01*
X178066767Y-79156102D01*
X178057813Y-79225395D01*
X178012817Y-79278847D01*
X177946065Y-79299487D01*
X177944294Y-79299500D01*
X175572433Y-79299500D01*
X175505394Y-79279815D01*
X175459639Y-79227011D01*
X175449695Y-79157853D01*
X175457872Y-79128048D01*
X175494071Y-79040653D01*
X175494074Y-79040641D01*
X175506137Y-78980000D01*
X174771542Y-78980000D01*
X174782077Y-78969465D01*
X174833422Y-78880534D01*
X174860000Y-78781344D01*
X174860000Y-78678656D01*
X174833422Y-78579466D01*
X174782077Y-78490535D01*
X174771542Y-78480000D01*
X175506137Y-78480000D01*
X175506137Y-78479999D01*
X175494074Y-78419358D01*
X175494072Y-78419350D01*
X175413792Y-78225535D01*
X175297239Y-78051102D01*
X175297236Y-78051098D01*
X175148901Y-77902763D01*
X175148897Y-77902760D01*
X174974464Y-77786207D01*
X174780649Y-77705927D01*
X174780641Y-77705925D01*
X174720000Y-77693862D01*
X174720000Y-78428458D01*
X174709465Y-78417923D01*
X174620534Y-78366578D01*
X174521344Y-78340000D01*
X174418656Y-78340000D01*
X174319466Y-78366578D01*
X174230535Y-78417923D01*
X174220000Y-78428458D01*
X174220000Y-77693863D01*
X174219999Y-77693862D01*
X174159358Y-77705925D01*
X174159351Y-77705927D01*
X174127479Y-77719128D01*
X174058010Y-77726594D01*
X173995531Y-77695317D01*
X173959881Y-77635227D01*
X173962377Y-77565402D01*
X173992346Y-77516888D01*
X174225339Y-77283895D01*
X174286660Y-77250412D01*
X174337211Y-77249961D01*
X174365056Y-77255500D01*
X174365057Y-77255500D01*
X174574945Y-77255500D01*
X174713433Y-77227952D01*
X174780795Y-77214553D01*
X174974703Y-77134233D01*
X175149216Y-77017628D01*
X175297628Y-76869216D01*
X175414233Y-76694703D01*
X175494553Y-76500795D01*
X175511262Y-76416795D01*
X175535500Y-76294945D01*
X175535500Y-76085054D01*
X175494554Y-75879210D01*
X175494553Y-75879209D01*
X175494553Y-75879205D01*
X175453013Y-75778919D01*
X175414234Y-75685298D01*
X175297626Y-75510781D01*
X175149218Y-75362373D01*
X174974701Y-75245765D01*
X174780795Y-75165447D01*
X174780789Y-75165445D01*
X174574945Y-75124500D01*
X174574943Y-75124500D01*
X174365057Y-75124500D01*
X174365055Y-75124500D01*
X174159210Y-75165445D01*
X174159204Y-75165447D01*
X173965298Y-75245765D01*
X173790781Y-75362373D01*
X173642373Y-75510781D01*
X173525765Y-75685298D01*
X173445447Y-75879204D01*
X173445445Y-75879210D01*
X173404500Y-76085054D01*
X173404500Y-76085055D01*
X173404500Y-76085057D01*
X173404500Y-76294943D01*
X173408591Y-76315511D01*
X173410039Y-76322789D01*
X173403811Y-76392380D01*
X173376102Y-76434660D01*
X172582584Y-77228181D01*
X172521261Y-77261666D01*
X172494903Y-77264500D01*
X167827391Y-77264500D01*
X167806145Y-77258261D01*
X167784062Y-77256683D01*
X167773277Y-77248610D01*
X167760352Y-77244815D01*
X167745853Y-77228082D01*
X167728127Y-77214814D01*
X167723418Y-77202191D01*
X167714597Y-77192011D01*
X167711446Y-77170097D01*
X167703707Y-77149351D01*
X167706570Y-77136186D01*
X167704653Y-77122853D01*
X167713851Y-77102711D01*
X167718557Y-77081077D01*
X167731828Y-77063347D01*
X167733678Y-77059297D01*
X167739707Y-77052822D01*
X167753503Y-77039025D01*
X167753508Y-77039022D01*
X167763714Y-77028815D01*
X167763716Y-77028815D01*
X167875520Y-76917011D01*
X167954577Y-76780079D01*
X167994182Y-76632272D01*
X167995500Y-76627353D01*
X167995500Y-76469238D01*
X167995500Y-74594061D01*
X167995501Y-74594058D01*
X167995501Y-74435943D01*
X167954577Y-74283216D01*
X167905302Y-74197868D01*
X167875524Y-74146290D01*
X167875518Y-74146282D01*
X167623897Y-73894661D01*
X167590412Y-73833338D01*
X167589961Y-73782786D01*
X167595500Y-73754945D01*
X167595500Y-73754943D01*
X167595500Y-73545057D01*
X167595500Y-73545054D01*
X167554554Y-73339210D01*
X167554553Y-73339209D01*
X167554553Y-73339205D01*
X167485343Y-73172118D01*
X167474234Y-73145298D01*
X167357626Y-72970781D01*
X167209218Y-72822373D01*
X167179629Y-72802603D01*
X167134824Y-72748991D01*
X167126116Y-72679666D01*
X167156270Y-72616638D01*
X167215712Y-72579919D01*
X167248519Y-72575500D01*
X173518331Y-72575500D01*
X173518347Y-72575501D01*
X173525943Y-72575501D01*
X173684054Y-72575501D01*
X173684057Y-72575501D01*
X173763995Y-72554081D01*
X173833843Y-72555744D01*
X173891705Y-72594906D01*
X173919210Y-72659134D01*
X173919490Y-72686010D01*
X173914117Y-72740564D01*
X174433554Y-73260000D01*
X174418656Y-73260000D01*
X174319466Y-73286578D01*
X174230535Y-73337923D01*
X174157923Y-73410535D01*
X174106578Y-73499466D01*
X174080000Y-73598656D01*
X174080000Y-73613553D01*
X173560564Y-73094117D01*
X173526209Y-73145532D01*
X173526207Y-73145535D01*
X173445927Y-73339350D01*
X173445925Y-73339358D01*
X173405000Y-73545102D01*
X173405000Y-73754897D01*
X173445925Y-73960641D01*
X173445927Y-73960649D01*
X173526207Y-74154464D01*
X173560563Y-74205882D01*
X174080000Y-73686445D01*
X174080000Y-73701344D01*
X174106578Y-73800534D01*
X174157923Y-73889465D01*
X174230535Y-73962077D01*
X174319466Y-74013422D01*
X174418656Y-74040000D01*
X174433553Y-74040000D01*
X173914116Y-74559434D01*
X173914117Y-74559435D01*
X173965528Y-74593788D01*
X173965534Y-74593791D01*
X174159350Y-74674072D01*
X174159358Y-74674074D01*
X174365102Y-74714999D01*
X174365106Y-74715000D01*
X174574894Y-74715000D01*
X174574897Y-74714999D01*
X174780641Y-74674074D01*
X174780649Y-74674072D01*
X174974465Y-74593791D01*
X174974473Y-74593787D01*
X175025881Y-74559435D01*
X175025882Y-74559434D01*
X174506448Y-74040000D01*
X174521344Y-74040000D01*
X174620534Y-74013422D01*
X174709465Y-73962077D01*
X174782077Y-73889465D01*
X174833422Y-73800534D01*
X174860000Y-73701344D01*
X174860000Y-73686447D01*
X175379434Y-74205882D01*
X175379435Y-74205881D01*
X175413787Y-74154473D01*
X175413791Y-74154465D01*
X175494072Y-73960649D01*
X175494074Y-73960641D01*
X175534999Y-73754897D01*
X175535000Y-73754894D01*
X175535000Y-73545106D01*
X175534999Y-73545102D01*
X175494074Y-73339358D01*
X175494072Y-73339350D01*
X175413791Y-73145534D01*
X175413788Y-73145528D01*
X175379435Y-73094117D01*
X175379434Y-73094116D01*
X174860000Y-73613551D01*
X174860000Y-73598656D01*
X174833422Y-73499466D01*
X174782077Y-73410535D01*
X174709465Y-73337923D01*
X174620534Y-73286578D01*
X174521344Y-73260000D01*
X174506447Y-73260000D01*
X175025882Y-72740563D01*
X174974464Y-72706207D01*
X174780649Y-72625927D01*
X174780641Y-72625925D01*
X174574897Y-72585000D01*
X174365102Y-72585000D01*
X174159358Y-72625925D01*
X174159351Y-72625927D01*
X174127483Y-72639127D01*
X174116279Y-72640331D01*
X174106391Y-72645731D01*
X174082166Y-72643998D01*
X174058014Y-72646595D01*
X174047937Y-72641550D01*
X174036700Y-72640747D01*
X174017258Y-72626193D01*
X173995535Y-72615319D01*
X173989784Y-72605627D01*
X173980766Y-72598876D01*
X173972279Y-72576122D01*
X173959883Y-72555230D01*
X173960285Y-72543968D01*
X173956348Y-72533412D01*
X173961510Y-72509678D01*
X173962378Y-72485404D01*
X173969189Y-72474377D01*
X173971199Y-72465139D01*
X173992345Y-72436890D01*
X174085520Y-72343716D01*
X174085521Y-72343713D01*
X174225338Y-72203895D01*
X174286659Y-72170412D01*
X174337209Y-72169961D01*
X174365054Y-72175500D01*
X174365057Y-72175500D01*
X174574945Y-72175500D01*
X174749721Y-72140734D01*
X174780795Y-72134553D01*
X174974703Y-72054233D01*
X175149216Y-71937628D01*
X175297628Y-71789216D01*
X175414233Y-71614703D01*
X175494553Y-71420795D01*
X175526457Y-71260407D01*
X175535500Y-71214945D01*
X175535500Y-71005054D01*
X175494554Y-70799210D01*
X175494553Y-70799209D01*
X175494553Y-70799205D01*
X175442492Y-70673520D01*
X175414234Y-70605298D01*
X175297626Y-70430781D01*
X175149218Y-70282373D01*
X174974701Y-70165765D01*
X174780795Y-70085447D01*
X174780789Y-70085445D01*
X174574945Y-70044500D01*
X174574943Y-70044500D01*
X174365057Y-70044500D01*
X174365055Y-70044500D01*
X174159210Y-70085445D01*
X174159204Y-70085447D01*
X173965298Y-70165765D01*
X173790781Y-70282373D01*
X173642373Y-70430781D01*
X173525765Y-70605298D01*
X173445447Y-70799204D01*
X173445445Y-70799210D01*
X173404500Y-71005054D01*
X173404500Y-71214943D01*
X173406761Y-71226311D01*
X173400532Y-71295903D01*
X173357668Y-71351079D01*
X173291778Y-71374322D01*
X173285143Y-71374500D01*
X167719500Y-71374500D01*
X167652461Y-71354815D01*
X167606706Y-71302011D01*
X167595500Y-71250500D01*
X167595499Y-70497129D01*
X167595498Y-70497123D01*
X167595497Y-70497116D01*
X167589091Y-70437517D01*
X167582909Y-70420943D01*
X167538797Y-70302671D01*
X167538793Y-70302664D01*
X167452547Y-70187455D01*
X167452544Y-70187452D01*
X167337335Y-70101206D01*
X167337328Y-70101202D01*
X167202482Y-70050908D01*
X167202483Y-70050908D01*
X167142883Y-70044501D01*
X167142881Y-70044500D01*
X167142873Y-70044500D01*
X167142864Y-70044500D01*
X165917129Y-70044500D01*
X165917123Y-70044501D01*
X165857516Y-70050908D01*
X165722671Y-70101202D01*
X165722664Y-70101206D01*
X165607455Y-70187452D01*
X165607452Y-70187455D01*
X165521206Y-70302664D01*
X165521202Y-70302671D01*
X165470908Y-70437517D01*
X165467263Y-70471424D01*
X165464500Y-70497127D01*
X165464500Y-70905616D01*
X165464501Y-71250500D01*
X165461950Y-71259186D01*
X165463239Y-71268147D01*
X165452261Y-71292183D01*
X165444817Y-71317539D01*
X165437974Y-71323467D01*
X165434214Y-71331703D01*
X165411982Y-71345989D01*
X165392013Y-71363294D01*
X165381497Y-71365581D01*
X165375436Y-71369477D01*
X165340501Y-71374500D01*
X165275097Y-71374500D01*
X165208058Y-71354815D01*
X165187416Y-71338181D01*
X162834574Y-68985339D01*
X162801089Y-68924016D01*
X162800638Y-68921849D01*
X162769738Y-68766510D01*
X162769737Y-68766503D01*
X162746422Y-68710214D01*
X162709397Y-68620827D01*
X162709390Y-68620814D01*
X162621789Y-68489711D01*
X162621786Y-68489707D01*
X162510292Y-68378213D01*
X162510288Y-68378210D01*
X162379185Y-68290609D01*
X162379172Y-68290602D01*
X162233501Y-68230264D01*
X162233489Y-68230261D01*
X162078845Y-68199500D01*
X162078842Y-68199500D01*
X161921158Y-68199500D01*
X161921155Y-68199500D01*
X161766510Y-68230261D01*
X161766498Y-68230264D01*
X161620827Y-68290602D01*
X161620814Y-68290609D01*
X161489711Y-68378210D01*
X161489707Y-68378213D01*
X161378213Y-68489707D01*
X161378210Y-68489711D01*
X161290609Y-68620814D01*
X161290602Y-68620827D01*
X161230264Y-68766498D01*
X161230261Y-68766510D01*
X161199500Y-68921153D01*
X161199500Y-69078846D01*
X161230261Y-69233489D01*
X161230264Y-69233501D01*
X161290602Y-69379172D01*
X161290609Y-69379185D01*
X161378210Y-69510288D01*
X161378213Y-69510292D01*
X161489707Y-69621786D01*
X161489711Y-69621789D01*
X161620814Y-69709390D01*
X161620827Y-69709397D01*
X161766498Y-69769735D01*
X161766503Y-69769737D01*
X161831147Y-69782595D01*
X161921849Y-69800638D01*
X161983760Y-69833023D01*
X161985339Y-69834574D01*
X164490139Y-72339374D01*
X164490149Y-72339385D01*
X164494479Y-72343715D01*
X164494480Y-72343716D01*
X164606284Y-72455520D01*
X164606286Y-72455521D01*
X164606290Y-72455524D01*
X164696327Y-72507506D01*
X164743216Y-72534577D01*
X164835775Y-72559378D01*
X164895942Y-72575500D01*
X164895943Y-72575500D01*
X165811481Y-72575500D01*
X165878520Y-72595185D01*
X165924275Y-72647989D01*
X165934219Y-72717147D01*
X165905194Y-72780703D01*
X165880371Y-72802603D01*
X165850781Y-72822373D01*
X165702373Y-72970781D01*
X165585765Y-73145298D01*
X165505447Y-73339204D01*
X165505445Y-73339210D01*
X165464500Y-73545054D01*
X165464500Y-73545057D01*
X165464500Y-73754943D01*
X165464500Y-73754945D01*
X165464499Y-73754945D01*
X165505445Y-73960789D01*
X165505448Y-73960799D01*
X165518204Y-73991594D01*
X165525673Y-74061063D01*
X165494398Y-74123542D01*
X165434309Y-74159194D01*
X165364483Y-74156700D01*
X165315962Y-74126727D01*
X157327590Y-66138355D01*
X157327588Y-66138352D01*
X157208717Y-66019481D01*
X157208716Y-66019480D01*
X157109839Y-65962394D01*
X157109838Y-65962393D01*
X157071783Y-65940422D01*
X157001631Y-65921625D01*
X156919057Y-65899499D01*
X156760943Y-65899499D01*
X156753347Y-65899499D01*
X156753331Y-65899500D01*
X142111836Y-65899500D01*
X142044797Y-65879815D01*
X142001352Y-65831796D01*
X141967814Y-65765976D01*
X141838247Y-65587641D01*
X141838243Y-65587636D01*
X141682363Y-65431756D01*
X141682358Y-65431752D01*
X141504025Y-65302187D01*
X141504024Y-65302186D01*
X141504022Y-65302185D01*
X141386791Y-65242452D01*
X141307606Y-65202104D01*
X141307603Y-65202103D01*
X141097952Y-65133985D01*
X140989086Y-65116742D01*
X140880222Y-65099500D01*
X140659778Y-65099500D01*
X140587201Y-65110995D01*
X140442047Y-65133985D01*
X140232396Y-65202103D01*
X140232393Y-65202104D01*
X140035974Y-65302187D01*
X139857641Y-65431752D01*
X139857636Y-65431756D01*
X139807463Y-65481929D01*
X139746140Y-65515413D01*
X139676448Y-65510428D01*
X139620515Y-65468557D01*
X139603601Y-65437580D01*
X139573797Y-65357671D01*
X139573793Y-65357664D01*
X139487547Y-65242455D01*
X139487544Y-65242452D01*
X139372335Y-65156206D01*
X139372328Y-65156202D01*
X139237482Y-65105908D01*
X139237483Y-65105908D01*
X139177883Y-65099501D01*
X139177881Y-65099500D01*
X139177873Y-65099500D01*
X139177864Y-65099500D01*
X137282129Y-65099500D01*
X137282123Y-65099501D01*
X137222516Y-65105908D01*
X137087671Y-65156202D01*
X137087664Y-65156206D01*
X136972455Y-65242452D01*
X136972452Y-65242455D01*
X136886206Y-65357664D01*
X136886202Y-65357671D01*
X136835908Y-65492517D01*
X136829501Y-65552116D01*
X136829500Y-65552135D01*
X136829500Y-67447870D01*
X136829501Y-67447876D01*
X136835908Y-67507483D01*
X136886202Y-67642328D01*
X136886206Y-67642335D01*
X136972452Y-67757544D01*
X136972455Y-67757547D01*
X137087664Y-67843793D01*
X137087671Y-67843797D01*
X137222517Y-67894091D01*
X137222516Y-67894091D01*
X137229444Y-67894835D01*
X137282127Y-67900500D01*
X139177872Y-67900499D01*
X139237483Y-67894091D01*
X139372331Y-67843796D01*
X139487546Y-67757546D01*
X139573796Y-67642331D01*
X139601429Y-67568243D01*
X139603601Y-67562420D01*
X139645471Y-67506486D01*
X139710936Y-67482068D01*
X139779209Y-67496919D01*
X139807464Y-67518071D01*
X139857636Y-67568243D01*
X139857641Y-67568247D01*
X139948683Y-67634392D01*
X140035978Y-67697815D01*
X140164375Y-67763237D01*
X140232393Y-67797895D01*
X140232396Y-67797896D01*
X140337221Y-67831955D01*
X140442049Y-67866015D01*
X140659778Y-67900500D01*
X140659779Y-67900500D01*
X140880221Y-67900500D01*
X140880222Y-67900500D01*
X141097951Y-67866015D01*
X141307606Y-67797895D01*
X141504022Y-67697815D01*
X141682365Y-67568242D01*
X141838242Y-67412365D01*
X141967815Y-67234022D01*
X141987847Y-67194708D01*
X142001352Y-67168204D01*
X142049326Y-67117409D01*
X142111836Y-67100500D01*
X147682655Y-67100500D01*
X147749694Y-67120185D01*
X147795449Y-67172989D01*
X147805393Y-67242147D01*
X147782974Y-67297385D01*
X147767712Y-67318390D01*
X147674781Y-67500776D01*
X147611522Y-67695465D01*
X147579500Y-67897648D01*
X147579500Y-68102351D01*
X147611522Y-68304534D01*
X147674781Y-68499223D01*
X147713716Y-68575636D01*
X147755962Y-68658548D01*
X147767715Y-68681613D01*
X147888028Y-68847213D01*
X148032786Y-68991971D01*
X148152362Y-69078846D01*
X148198390Y-69112287D01*
X148314607Y-69171503D01*
X148380776Y-69205218D01*
X148380778Y-69205218D01*
X148380781Y-69205220D01*
X148467784Y-69233489D01*
X148575465Y-69268477D01*
X148676557Y-69284488D01*
X148777648Y-69300500D01*
X148777649Y-69300500D01*
X148982351Y-69300500D01*
X148982352Y-69300500D01*
X149184534Y-69268477D01*
X149379219Y-69205220D01*
X149561610Y-69112287D01*
X149654590Y-69044732D01*
X149727213Y-68991971D01*
X149727215Y-68991968D01*
X149727219Y-68991966D01*
X149871966Y-68847219D01*
X149871968Y-68847215D01*
X149871971Y-68847213D01*
X149972317Y-68709096D01*
X149992287Y-68681610D01*
X150085220Y-68499219D01*
X150148477Y-68304534D01*
X150180500Y-68102352D01*
X150180500Y-67897648D01*
X150158309Y-67757544D01*
X150148477Y-67695465D01*
X150090838Y-67518071D01*
X150085220Y-67500781D01*
X150085218Y-67500778D01*
X150085218Y-67500776D01*
X149992287Y-67318390D01*
X149977026Y-67297385D01*
X149953547Y-67231578D01*
X149969373Y-67163524D01*
X150019479Y-67114830D01*
X150077345Y-67100500D01*
X155302655Y-67100500D01*
X155369694Y-67120185D01*
X155415449Y-67172989D01*
X155425393Y-67242147D01*
X155402974Y-67297385D01*
X155387712Y-67318390D01*
X155294781Y-67500776D01*
X155231522Y-67695465D01*
X155199500Y-67897648D01*
X155199500Y-68102351D01*
X155231522Y-68304534D01*
X155294781Y-68499223D01*
X155333716Y-68575636D01*
X155375962Y-68658548D01*
X155387715Y-68681613D01*
X155508028Y-68847213D01*
X155652786Y-68991971D01*
X155772362Y-69078846D01*
X155818390Y-69112287D01*
X155934607Y-69171503D01*
X156000776Y-69205218D01*
X156000778Y-69205218D01*
X156000781Y-69205220D01*
X156087784Y-69233489D01*
X156195465Y-69268477D01*
X156296557Y-69284488D01*
X156397648Y-69300500D01*
X156397649Y-69300500D01*
X156602351Y-69300500D01*
X156602352Y-69300500D01*
X156804534Y-69268477D01*
X156818842Y-69263827D01*
X156888682Y-69261831D01*
X156944842Y-69294077D01*
X158363181Y-70712416D01*
X158396666Y-70773739D01*
X158399500Y-70800097D01*
X158399500Y-72017518D01*
X158379815Y-72084557D01*
X158327011Y-72130312D01*
X158307595Y-72137293D01*
X158258507Y-72150446D01*
X158087507Y-72237575D01*
X157938354Y-72358354D01*
X157817575Y-72507507D01*
X157730445Y-72678509D01*
X157680772Y-72863890D01*
X157674500Y-72943590D01*
X157674500Y-73896409D01*
X157680772Y-73976109D01*
X157728627Y-74154703D01*
X157730446Y-74161492D01*
X157817576Y-74332494D01*
X157832762Y-74351247D01*
X157938354Y-74481645D01*
X158087507Y-74602425D01*
X158216363Y-74668080D01*
X158267159Y-74716054D01*
X158283954Y-74783875D01*
X158261417Y-74850010D01*
X158232954Y-74878882D01*
X158223893Y-74885466D01*
X158136493Y-74948966D01*
X157988966Y-75096493D01*
X157866330Y-75265285D01*
X157771612Y-75451181D01*
X157722017Y-75603818D01*
X157682579Y-75661494D01*
X157618221Y-75688692D01*
X157604086Y-75689500D01*
X155185801Y-75689500D01*
X155118762Y-75669815D01*
X155073007Y-75617011D01*
X155063063Y-75547853D01*
X155067870Y-75527183D01*
X155078475Y-75494542D01*
X155078475Y-75494538D01*
X155078477Y-75494534D01*
X155110500Y-75292352D01*
X155110500Y-75087648D01*
X155088535Y-74948966D01*
X155078477Y-74885465D01*
X155038924Y-74763735D01*
X155015220Y-74690781D01*
X155015218Y-74690778D01*
X155015218Y-74690776D01*
X154971033Y-74604059D01*
X154922287Y-74508390D01*
X154891435Y-74465925D01*
X154801971Y-74342786D01*
X154657213Y-74198028D01*
X154491613Y-74077715D01*
X154491612Y-74077714D01*
X154491610Y-74077713D01*
X154417594Y-74040000D01*
X154309223Y-73984781D01*
X154114534Y-73921522D01*
X153939995Y-73893878D01*
X153912352Y-73889500D01*
X153707648Y-73889500D01*
X153675063Y-73894661D01*
X153505468Y-73921522D01*
X153498359Y-73923832D01*
X153491154Y-73926173D01*
X153421313Y-73928167D01*
X153365157Y-73895922D01*
X153107590Y-73638355D01*
X153107588Y-73638352D01*
X152988717Y-73519481D01*
X152988716Y-73519480D01*
X152901904Y-73469360D01*
X152901904Y-73469359D01*
X152901900Y-73469358D01*
X152851785Y-73440423D01*
X152699057Y-73399499D01*
X152540943Y-73399499D01*
X152533347Y-73399499D01*
X152533331Y-73399500D01*
X143454068Y-73399500D01*
X143387029Y-73379815D01*
X143343583Y-73331795D01*
X143320544Y-73286578D01*
X143283343Y-73213567D01*
X143144517Y-73022490D01*
X142977510Y-72855483D01*
X142786433Y-72716657D01*
X142726285Y-72686010D01*
X142575996Y-72609433D01*
X142351368Y-72536446D01*
X142118097Y-72499500D01*
X142118092Y-72499500D01*
X141881908Y-72499500D01*
X141881903Y-72499500D01*
X141648631Y-72536446D01*
X141424003Y-72609433D01*
X141213566Y-72716657D01*
X141104550Y-72795862D01*
X141022490Y-72855483D01*
X141022488Y-72855485D01*
X141022487Y-72855485D01*
X140855485Y-73022487D01*
X140855485Y-73022488D01*
X140855483Y-73022490D01*
X140803444Y-73094116D01*
X140716657Y-73213566D01*
X140609433Y-73424003D01*
X140536446Y-73648631D01*
X140499500Y-73881902D01*
X140499500Y-74118097D01*
X140536446Y-74351368D01*
X140609433Y-74575996D01*
X140694092Y-74742147D01*
X140716657Y-74786433D01*
X140855483Y-74977510D01*
X141022490Y-75144517D01*
X141213567Y-75283343D01*
X141312991Y-75334002D01*
X141424003Y-75390566D01*
X141424005Y-75390566D01*
X141424008Y-75390568D01*
X141544412Y-75429689D01*
X141648631Y-75463553D01*
X141881903Y-75500500D01*
X141881908Y-75500500D01*
X142118097Y-75500500D01*
X142351368Y-75463553D01*
X142352870Y-75463065D01*
X142575992Y-75390568D01*
X142786433Y-75283343D01*
X142977510Y-75144517D01*
X143144517Y-74977510D01*
X143283343Y-74786433D01*
X143343583Y-74668204D01*
X143391558Y-74617409D01*
X143454068Y-74600500D01*
X144843443Y-74600500D01*
X144910482Y-74620185D01*
X144956237Y-74672989D01*
X144966181Y-74742147D01*
X144961375Y-74762812D01*
X144955078Y-74782194D01*
X144921522Y-74885465D01*
X144889500Y-75087648D01*
X144889500Y-75292351D01*
X144921522Y-75494534D01*
X144984781Y-75689223D01*
X145041544Y-75800625D01*
X145070805Y-75858053D01*
X145077715Y-75871613D01*
X145198028Y-76037213D01*
X145198034Y-76037219D01*
X145342781Y-76181966D01*
X145408140Y-76229452D01*
X145450436Y-76260181D01*
X145493102Y-76315511D01*
X145499081Y-76385125D01*
X145466476Y-76446920D01*
X145405637Y-76481277D01*
X145377551Y-76484500D01*
X128385146Y-76484500D01*
X128318107Y-76464815D01*
X128274661Y-76416795D01*
X128229460Y-76328085D01*
X128197815Y-76265978D01*
X128181260Y-76243192D01*
X128068247Y-76087641D01*
X128068243Y-76087636D01*
X127912363Y-75931756D01*
X127912358Y-75931752D01*
X127734025Y-75802187D01*
X127734024Y-75802186D01*
X127734022Y-75802185D01*
X127616791Y-75742452D01*
X127537606Y-75702104D01*
X127537603Y-75702103D01*
X127327952Y-75633985D01*
X127155390Y-75606654D01*
X127110222Y-75599500D01*
X126889778Y-75599500D01*
X126844610Y-75606654D01*
X126672047Y-75633985D01*
X126462396Y-75702103D01*
X126462393Y-75702104D01*
X126265974Y-75802187D01*
X126087641Y-75931752D01*
X126087636Y-75931756D01*
X126037463Y-75981929D01*
X125976140Y-76015413D01*
X125906448Y-76010428D01*
X125850515Y-75968557D01*
X125833601Y-75937580D01*
X125803797Y-75857671D01*
X125803793Y-75857664D01*
X125717547Y-75742455D01*
X125717544Y-75742452D01*
X125602335Y-75656206D01*
X125602328Y-75656202D01*
X125467482Y-75605908D01*
X125467483Y-75605908D01*
X125407883Y-75599501D01*
X125407881Y-75599500D01*
X125407873Y-75599500D01*
X125407864Y-75599500D01*
X123512129Y-75599500D01*
X123512123Y-75599501D01*
X123452516Y-75605908D01*
X123317671Y-75656202D01*
X123317664Y-75656206D01*
X123202455Y-75742452D01*
X123202452Y-75742455D01*
X123116206Y-75857664D01*
X123116202Y-75857671D01*
X123065908Y-75992517D01*
X123059501Y-76052116D01*
X123059500Y-76052135D01*
X123059500Y-77947870D01*
X123059501Y-77947876D01*
X123065908Y-78007483D01*
X123116202Y-78142328D01*
X123116206Y-78142335D01*
X123202452Y-78257544D01*
X123202455Y-78257547D01*
X123317664Y-78343793D01*
X123317671Y-78343797D01*
X123452517Y-78394091D01*
X123452516Y-78394091D01*
X123459444Y-78394835D01*
X123512127Y-78400500D01*
X125407872Y-78400499D01*
X125467483Y-78394091D01*
X125602331Y-78343796D01*
X125717546Y-78257546D01*
X125803796Y-78142331D01*
X125831429Y-78068243D01*
X125833601Y-78062420D01*
X125875471Y-78006486D01*
X125940936Y-77982068D01*
X126009209Y-77996919D01*
X126037464Y-78018071D01*
X126087636Y-78068243D01*
X126087641Y-78068247D01*
X126128373Y-78097840D01*
X126265978Y-78197815D01*
X126394375Y-78263237D01*
X126462393Y-78297895D01*
X126462396Y-78297896D01*
X126564852Y-78331185D01*
X126672049Y-78366015D01*
X126889778Y-78400500D01*
X126889779Y-78400500D01*
X127110221Y-78400500D01*
X127110222Y-78400500D01*
X127327951Y-78366015D01*
X127537606Y-78297895D01*
X127734022Y-78197815D01*
X127912365Y-78068242D01*
X128068242Y-77912365D01*
X128079274Y-77897181D01*
X128195932Y-77736615D01*
X128251261Y-77693949D01*
X128296250Y-77685500D01*
X152817729Y-77685500D01*
X152884768Y-77705185D01*
X152930523Y-77757989D01*
X152940467Y-77827147D01*
X152911442Y-77890703D01*
X152852664Y-77928477D01*
X152849864Y-77929263D01*
X152829113Y-77934823D01*
X152808214Y-77940423D01*
X152808209Y-77940426D01*
X152671290Y-78019475D01*
X152671282Y-78019481D01*
X152559478Y-78131286D01*
X149174842Y-81515921D01*
X149113519Y-81549406D01*
X149048848Y-81546173D01*
X149034534Y-81541522D01*
X148859995Y-81513878D01*
X148832352Y-81509500D01*
X148627648Y-81509500D01*
X148603329Y-81513351D01*
X148425465Y-81541522D01*
X148230776Y-81604781D01*
X148048386Y-81697715D01*
X147882786Y-81818028D01*
X147738032Y-81962782D01*
X147669616Y-82056949D01*
X147614286Y-82099614D01*
X147544672Y-82105593D01*
X147482877Y-82072987D01*
X147451592Y-82023067D01*
X147424358Y-81940880D01*
X147424356Y-81940875D01*
X147332315Y-81791654D01*
X147208345Y-81667684D01*
X147059124Y-81575643D01*
X147059119Y-81575641D01*
X146892697Y-81520494D01*
X146892690Y-81520493D01*
X146789986Y-81510000D01*
X146440000Y-81510000D01*
X146440000Y-82494314D01*
X146435606Y-82489920D01*
X146344394Y-82437259D01*
X146242661Y-82410000D01*
X146137339Y-82410000D01*
X146035606Y-82437259D01*
X145944394Y-82489920D01*
X145940000Y-82494314D01*
X145940000Y-81510000D01*
X145590028Y-81510000D01*
X145590012Y-81510001D01*
X145487302Y-81520494D01*
X145320880Y-81575641D01*
X145320875Y-81575643D01*
X145171654Y-81667684D01*
X145047684Y-81791654D01*
X144955643Y-81940875D01*
X144955641Y-81940880D01*
X144900494Y-82107302D01*
X144900493Y-82107309D01*
X144890000Y-82210013D01*
X144890000Y-82560000D01*
X145874314Y-82560000D01*
X145869920Y-82564394D01*
X145817259Y-82655606D01*
X145790000Y-82757339D01*
X145790000Y-82862661D01*
X145817259Y-82964394D01*
X145869920Y-83055606D01*
X145874314Y-83060000D01*
X144890001Y-83060000D01*
X144890001Y-83409986D01*
X144900494Y-83512697D01*
X144955641Y-83679119D01*
X144955643Y-83679124D01*
X145047684Y-83828345D01*
X145171654Y-83952315D01*
X145320875Y-84044356D01*
X145320880Y-84044358D01*
X145487302Y-84099505D01*
X145487309Y-84099506D01*
X145590019Y-84109999D01*
X145939999Y-84109999D01*
X145940000Y-84109998D01*
X145940000Y-83125686D01*
X145944394Y-83130080D01*
X146035606Y-83182741D01*
X146137339Y-83210000D01*
X146242661Y-83210000D01*
X146344394Y-83182741D01*
X146435606Y-83130080D01*
X146440000Y-83125686D01*
X146440000Y-84109999D01*
X146789972Y-84109999D01*
X146789986Y-84109998D01*
X146892697Y-84099505D01*
X147059119Y-84044358D01*
X147059124Y-84044356D01*
X147208345Y-83952315D01*
X147332315Y-83828345D01*
X147424356Y-83679124D01*
X147424359Y-83679117D01*
X147451592Y-83596932D01*
X147491364Y-83539487D01*
X147555879Y-83512663D01*
X147624655Y-83524977D01*
X147669617Y-83563050D01*
X147738034Y-83657219D01*
X147882786Y-83801971D01*
X148037749Y-83914556D01*
X148048390Y-83922287D01*
X148164607Y-83981503D01*
X148230776Y-84015218D01*
X148230778Y-84015218D01*
X148230781Y-84015220D01*
X148320459Y-84044358D01*
X148425465Y-84078477D01*
X148526557Y-84094488D01*
X148627648Y-84110500D01*
X148627649Y-84110500D01*
X148832351Y-84110500D01*
X148832352Y-84110500D01*
X149034534Y-84078477D01*
X149229219Y-84015220D01*
X149411610Y-83922287D01*
X149504590Y-83854732D01*
X149577213Y-83801971D01*
X149577215Y-83801968D01*
X149577219Y-83801966D01*
X149721966Y-83657219D01*
X149721968Y-83657215D01*
X149721971Y-83657213D01*
X149842284Y-83491614D01*
X149842285Y-83491613D01*
X149842287Y-83491610D01*
X149889516Y-83398917D01*
X149937489Y-83348123D01*
X150005310Y-83331328D01*
X150071445Y-83353865D01*
X150110483Y-83398917D01*
X150154348Y-83485006D01*
X150157715Y-83491614D01*
X150278028Y-83657213D01*
X150422786Y-83801971D01*
X150577749Y-83914556D01*
X150588390Y-83922287D01*
X150704607Y-83981503D01*
X150770776Y-84015218D01*
X150770778Y-84015218D01*
X150770781Y-84015220D01*
X150860459Y-84044358D01*
X150965465Y-84078477D01*
X151066557Y-84094488D01*
X151167648Y-84110500D01*
X151167649Y-84110500D01*
X151372351Y-84110500D01*
X151372352Y-84110500D01*
X151574534Y-84078477D01*
X151769219Y-84015220D01*
X151951610Y-83922287D01*
X152044590Y-83854732D01*
X152117213Y-83801971D01*
X152117215Y-83801968D01*
X152117219Y-83801966D01*
X152261966Y-83657219D01*
X152261968Y-83657215D01*
X152261971Y-83657213D01*
X152382284Y-83491614D01*
X152382285Y-83491613D01*
X152382287Y-83491610D01*
X152429516Y-83398917D01*
X152477489Y-83348123D01*
X152545310Y-83331328D01*
X152611445Y-83353865D01*
X152650483Y-83398917D01*
X152694348Y-83485006D01*
X152697715Y-83491614D01*
X152818028Y-83657213D01*
X152962786Y-83801971D01*
X153117749Y-83914556D01*
X153128390Y-83922287D01*
X153244607Y-83981503D01*
X153310776Y-84015218D01*
X153310778Y-84015218D01*
X153310781Y-84015220D01*
X153400459Y-84044358D01*
X153505465Y-84078477D01*
X153606557Y-84094488D01*
X153707648Y-84110500D01*
X153707649Y-84110500D01*
X153912351Y-84110500D01*
X153912352Y-84110500D01*
X154114534Y-84078477D01*
X154309219Y-84015220D01*
X154491610Y-83922287D01*
X154584590Y-83854732D01*
X154657213Y-83801971D01*
X154657215Y-83801968D01*
X154657219Y-83801966D01*
X154801966Y-83657219D01*
X154801968Y-83657215D01*
X154801971Y-83657213D01*
X154870383Y-83563050D01*
X154922287Y-83491610D01*
X155015220Y-83309219D01*
X155078477Y-83114534D01*
X155110500Y-82912352D01*
X155110500Y-82707648D01*
X155078477Y-82505466D01*
X155078475Y-82505462D01*
X155078475Y-82505457D01*
X155067870Y-82472817D01*
X155065875Y-82402976D01*
X155101956Y-82343143D01*
X155164657Y-82312316D01*
X155185801Y-82310500D01*
X157460902Y-82310500D01*
X157527941Y-82330185D01*
X157573696Y-82382989D01*
X157583640Y-82452147D01*
X157554615Y-82515703D01*
X157548583Y-82522181D01*
X136707584Y-103363181D01*
X136646261Y-103396666D01*
X136619903Y-103399500D01*
X125611836Y-103399500D01*
X125544797Y-103379815D01*
X125501352Y-103331796D01*
X125467814Y-103265976D01*
X125338247Y-103087641D01*
X125338243Y-103087636D01*
X125182363Y-102931756D01*
X125182358Y-102931752D01*
X125004025Y-102802187D01*
X125004024Y-102802186D01*
X125004022Y-102802185D01*
X124886791Y-102742452D01*
X124807606Y-102702104D01*
X124807603Y-102702103D01*
X124597952Y-102633985D01*
X124489086Y-102616742D01*
X124380222Y-102599500D01*
X124159778Y-102599500D01*
X124087201Y-102610995D01*
X123942047Y-102633985D01*
X123732396Y-102702103D01*
X123732393Y-102702104D01*
X123535974Y-102802187D01*
X123357641Y-102931752D01*
X123357636Y-102931756D01*
X123307463Y-102981929D01*
X123246140Y-103015413D01*
X123176448Y-103010428D01*
X123120515Y-102968557D01*
X123103601Y-102937580D01*
X123073797Y-102857671D01*
X123073793Y-102857664D01*
X122987547Y-102742455D01*
X122987544Y-102742452D01*
X122872335Y-102656206D01*
X122872328Y-102656202D01*
X122737482Y-102605908D01*
X122737483Y-102605908D01*
X122677883Y-102599501D01*
X122677881Y-102599500D01*
X122677873Y-102599500D01*
X122677864Y-102599500D01*
X120782129Y-102599500D01*
X120782123Y-102599501D01*
X120722516Y-102605908D01*
X120587671Y-102656202D01*
X120587664Y-102656206D01*
X120472455Y-102742452D01*
X120472452Y-102742455D01*
X120386206Y-102857664D01*
X120386202Y-102857671D01*
X120335908Y-102992517D01*
X120329501Y-103052116D01*
X120329500Y-103052135D01*
X118598346Y-103052135D01*
X118565730Y-101680430D01*
X118565707Y-101679170D01*
X118563123Y-101484586D01*
X118520089Y-98244114D01*
X118520082Y-98243394D01*
X118506712Y-95399983D01*
X137744388Y-95399983D01*
X137744388Y-96600001D01*
X137744389Y-96600018D01*
X137754888Y-96702796D01*
X137754889Y-96702799D01*
X137789055Y-96805904D01*
X137810074Y-96869334D01*
X137902176Y-97018656D01*
X138026232Y-97142712D01*
X138175554Y-97234814D01*
X138342091Y-97289999D01*
X138444879Y-97300500D01*
X139644896Y-97300499D01*
X139747685Y-97289999D01*
X139914222Y-97234814D01*
X140063544Y-97142712D01*
X140132767Y-97073489D01*
X140194090Y-97040004D01*
X140263782Y-97044988D01*
X140293334Y-97060853D01*
X140363534Y-97111857D01*
X140545856Y-97204755D01*
X140740470Y-97267990D01*
X140942571Y-97300000D01*
X141147205Y-97300000D01*
X141349305Y-97267990D01*
X141543919Y-97204755D01*
X141726237Y-97111859D01*
X141770809Y-97079474D01*
X141091335Y-96400000D01*
X141097549Y-96400000D01*
X141199282Y-96372741D01*
X141290494Y-96320080D01*
X141364968Y-96245606D01*
X141417629Y-96154394D01*
X141444888Y-96052661D01*
X141444888Y-96046448D01*
X142124362Y-96725922D01*
X142124362Y-96725921D01*
X142156747Y-96681349D01*
X142249643Y-96499031D01*
X142312878Y-96304417D01*
X142344888Y-96102317D01*
X142344888Y-95897682D01*
X142312878Y-95695582D01*
X142249643Y-95500968D01*
X142156747Y-95318650D01*
X142124362Y-95274077D01*
X142124362Y-95274076D01*
X141444888Y-95953551D01*
X141444888Y-95947339D01*
X141417629Y-95845606D01*
X141364968Y-95754394D01*
X141290494Y-95679920D01*
X141199282Y-95627259D01*
X141097549Y-95600000D01*
X141091334Y-95600000D01*
X141770810Y-94920524D01*
X141770809Y-94920523D01*
X141726247Y-94888147D01*
X141726238Y-94888141D01*
X141543919Y-94795244D01*
X141349305Y-94732009D01*
X141147205Y-94700000D01*
X140942571Y-94700000D01*
X140740470Y-94732009D01*
X140545856Y-94795244D01*
X140363539Y-94888139D01*
X140293332Y-94939148D01*
X140227525Y-94962627D01*
X140159471Y-94946801D01*
X140132766Y-94926510D01*
X140063545Y-94857289D01*
X140063544Y-94857288D01*
X139914222Y-94765186D01*
X139747685Y-94710001D01*
X139747683Y-94710000D01*
X139644898Y-94699500D01*
X138444886Y-94699500D01*
X138444869Y-94699501D01*
X138342091Y-94710000D01*
X138342088Y-94710001D01*
X138175556Y-94765185D01*
X138175551Y-94765187D01*
X138026230Y-94857289D01*
X137902177Y-94981342D01*
X137810075Y-95130663D01*
X137810074Y-95130666D01*
X137754889Y-95297203D01*
X137754889Y-95297204D01*
X137754888Y-95297204D01*
X137744388Y-95399983D01*
X118506712Y-95399983D01*
X118501723Y-94339058D01*
X118500500Y-92001902D01*
X118500503Y-92001084D01*
X118500946Y-91932650D01*
X118505462Y-91235198D01*
X118505480Y-91233790D01*
X118520324Y-90474922D01*
X118520367Y-90473311D01*
X118537360Y-89955000D01*
X118544888Y-89725348D01*
X118544953Y-89723704D01*
X118579232Y-88981135D01*
X118579309Y-88979671D01*
X118622968Y-88248426D01*
X118623080Y-88246754D01*
X118625721Y-88210781D01*
X118676327Y-87521478D01*
X118676460Y-87519833D01*
X118677956Y-87502706D01*
X118738742Y-86806533D01*
X118738904Y-86804828D01*
X118748905Y-86706204D01*
X118810616Y-86097674D01*
X118810777Y-86096187D01*
X118891179Y-85401338D01*
X118891369Y-85399792D01*
X118981007Y-84711497D01*
X118981249Y-84709748D01*
X118981570Y-84707537D01*
X119079157Y-84034455D01*
X119079388Y-84032942D01*
X119186383Y-83364183D01*
X119186666Y-83362498D01*
X119301489Y-82707311D01*
X119301822Y-82705496D01*
X119321141Y-82604240D01*
X119425522Y-82057147D01*
X119425882Y-82055337D01*
X119557030Y-81420623D01*
X119557392Y-81418934D01*
X119697202Y-80791330D01*
X119697637Y-80789446D01*
X119701285Y-80774200D01*
X119844440Y-80175804D01*
X119844905Y-80173928D01*
X119852994Y-80142335D01*
X120000210Y-79567373D01*
X120000671Y-79565630D01*
X120162550Y-78973145D01*
X120163076Y-78971283D01*
X120179617Y-78914400D01*
X120333202Y-78386219D01*
X120333756Y-78384372D01*
X120510056Y-77813363D01*
X120510623Y-77811579D01*
X120694981Y-77248055D01*
X120695597Y-77246223D01*
X120885705Y-76696789D01*
X120886355Y-76694966D01*
X121084260Y-76153266D01*
X121084940Y-76151450D01*
X121288181Y-75623811D01*
X121288981Y-75621790D01*
X121329211Y-75522597D01*
X121499865Y-75101824D01*
X121500623Y-75100002D01*
X121716439Y-74594026D01*
X121717303Y-74592051D01*
X121940520Y-74093908D01*
X121941424Y-74091937D01*
X122040184Y-73881947D01*
X135500000Y-73881947D01*
X135500000Y-74118052D01*
X135536934Y-74351247D01*
X135609897Y-74575802D01*
X135717087Y-74786174D01*
X135777338Y-74869104D01*
X135777340Y-74869105D01*
X136517037Y-74129408D01*
X136534075Y-74192993D01*
X136599901Y-74307007D01*
X136692993Y-74400099D01*
X136807007Y-74465925D01*
X136870590Y-74482962D01*
X136130893Y-75222658D01*
X136213828Y-75282914D01*
X136424197Y-75390102D01*
X136648752Y-75463065D01*
X136648751Y-75463065D01*
X136881948Y-75500000D01*
X137118052Y-75500000D01*
X137351247Y-75463065D01*
X137575802Y-75390102D01*
X137786163Y-75282918D01*
X137786169Y-75282914D01*
X137869104Y-75222658D01*
X137869105Y-75222658D01*
X137129408Y-74482962D01*
X137192993Y-74465925D01*
X137307007Y-74400099D01*
X137400099Y-74307007D01*
X137465925Y-74192993D01*
X137482962Y-74129409D01*
X138222658Y-74869105D01*
X138222658Y-74869104D01*
X138282914Y-74786169D01*
X138282918Y-74786163D01*
X138390102Y-74575802D01*
X138463065Y-74351247D01*
X138500000Y-74118052D01*
X138500000Y-73881947D01*
X138463065Y-73648752D01*
X138390102Y-73424197D01*
X138282914Y-73213828D01*
X138222658Y-73130894D01*
X138222658Y-73130893D01*
X137482962Y-73870590D01*
X137465925Y-73807007D01*
X137400099Y-73692993D01*
X137307007Y-73599901D01*
X137192993Y-73534075D01*
X137129409Y-73517037D01*
X137869105Y-72777340D01*
X137869104Y-72777338D01*
X137786174Y-72717087D01*
X137575802Y-72609897D01*
X137351247Y-72536934D01*
X137351248Y-72536934D01*
X137118052Y-72500000D01*
X136881948Y-72500000D01*
X136648752Y-72536934D01*
X136424197Y-72609897D01*
X136213830Y-72717084D01*
X136130894Y-72777340D01*
X136870591Y-73517037D01*
X136807007Y-73534075D01*
X136692993Y-73599901D01*
X136599901Y-73692993D01*
X136534075Y-73807007D01*
X136517037Y-73870591D01*
X135777340Y-73130894D01*
X135717084Y-73213830D01*
X135609897Y-73424197D01*
X135536934Y-73648752D01*
X135500000Y-73881947D01*
X122040184Y-73881947D01*
X122169237Y-73607547D01*
X122170218Y-73605513D01*
X122200035Y-73545057D01*
X122405264Y-73128941D01*
X122406224Y-73127039D01*
X122645490Y-72664083D01*
X122646520Y-72662135D01*
X122892883Y-72206932D01*
X122893969Y-72204973D01*
X123144194Y-71763217D01*
X123145324Y-71761269D01*
X123402406Y-71327393D01*
X123403579Y-71325456D01*
X123664346Y-70904564D01*
X123665592Y-70902597D01*
X123933042Y-70489604D01*
X123934358Y-70487617D01*
X124205096Y-70087529D01*
X124206453Y-70085568D01*
X124483849Y-69693180D01*
X124485272Y-69691211D01*
X124765739Y-69311394D01*
X124767278Y-69309356D01*
X124774109Y-69300500D01*
X125054115Y-68937438D01*
X125055717Y-68935407D01*
X125064892Y-68924016D01*
X125345533Y-68575592D01*
X125347141Y-68573638D01*
X125643280Y-68221605D01*
X125644966Y-68219645D01*
X125943935Y-67879380D01*
X125945629Y-67877494D01*
X126250750Y-67545067D01*
X126252555Y-67543144D01*
X126560425Y-67222114D01*
X126562332Y-67220169D01*
X126572995Y-67209530D01*
X126876244Y-66906969D01*
X126878053Y-66905204D01*
X127194778Y-66602942D01*
X127196740Y-66601111D01*
X127519308Y-66306778D01*
X127521229Y-66305064D01*
X127846620Y-66021316D01*
X127848626Y-66019606D01*
X128179801Y-65743763D01*
X128181897Y-65742057D01*
X128515843Y-65476547D01*
X128518039Y-65474842D01*
X128857640Y-65217290D01*
X128859813Y-65215681D01*
X129202419Y-64968034D01*
X129204705Y-64966422D01*
X129552922Y-64726740D01*
X129555181Y-64725223D01*
X129906449Y-64495220D01*
X129908822Y-64493705D01*
X130265668Y-64271688D01*
X130268012Y-64270268D01*
X130628109Y-64057654D01*
X130630589Y-64056230D01*
X130775057Y-63975396D01*
X130996088Y-63851722D01*
X130998577Y-63850366D01*
X131367707Y-63654947D01*
X131370134Y-63653698D01*
X131744719Y-63466396D01*
X131747165Y-63465208D01*
X132125490Y-63286887D01*
X132127976Y-63285750D01*
X132511720Y-63115625D01*
X132514302Y-63114517D01*
X132901932Y-62953286D01*
X132904522Y-62952243D01*
X133297682Y-62799246D01*
X133300148Y-62798318D01*
X133697627Y-62654061D01*
X133700240Y-62653147D01*
X134103062Y-62517296D01*
X134105656Y-62516454D01*
X134513099Y-62389302D01*
X134515740Y-62388511D01*
X134928559Y-62269871D01*
X134931182Y-62269149D01*
X135348947Y-62159206D01*
X135351512Y-62158561D01*
X135774828Y-62057223D01*
X135777448Y-62056627D01*
X136205898Y-61964070D01*
X136208367Y-61963564D01*
X136642492Y-61879747D01*
X136645052Y-61879282D01*
X137084552Y-61804351D01*
X137087122Y-61803941D01*
X137532224Y-61737941D01*
X137534835Y-61737582D01*
X137985795Y-61680574D01*
X137988320Y-61680282D01*
X138444943Y-61632389D01*
X138447512Y-61632148D01*
X138910316Y-61593428D01*
X138912790Y-61593246D01*
X139381313Y-61563846D01*
X139383813Y-61563716D01*
X139858857Y-61543703D01*
X139861342Y-61543623D01*
X140338983Y-61533218D01*
X140342650Y-61533194D01*
X141326922Y-61541329D01*
X141331676Y-61541461D01*
X142338972Y-61589238D01*
X142343598Y-61589547D01*
X143377695Y-61678149D01*
X143382253Y-61678624D01*
X144444070Y-61809319D01*
X144448398Y-61809931D01*
X145538626Y-61984052D01*
X145542865Y-61984806D01*
X146662226Y-62203773D01*
X146666267Y-62204634D01*
X147820176Y-62471019D01*
X147822174Y-62471497D01*
X147834909Y-62474670D01*
X147852009Y-62480276D01*
X147870908Y-62488034D01*
X147900167Y-62491790D01*
X147914327Y-62494453D01*
X147942962Y-62501586D01*
X147972409Y-62501065D01*
X148001619Y-62504816D01*
X148038006Y-62499906D01*
X148074726Y-62499258D01*
X148103037Y-62491133D01*
X148132220Y-62487196D01*
X148166095Y-62473036D01*
X148173040Y-62471043D01*
X148173041Y-62471043D01*
X148173044Y-62471042D01*
X148174606Y-62470593D01*
X148201397Y-62462906D01*
X148226642Y-62447729D01*
X148253810Y-62436374D01*
X148282865Y-62413930D01*
X148314344Y-62395007D01*
X148334800Y-62373814D01*
X148358104Y-62355814D01*
X148380360Y-62326615D01*
X148405868Y-62300190D01*
X148420142Y-62274423D01*
X148437993Y-62251006D01*
X148451935Y-62217039D01*
X148469733Y-62184914D01*
X148476851Y-62156334D01*
X148488034Y-62129092D01*
X148492710Y-62092670D01*
X148499056Y-62067193D01*
X148501585Y-62057043D01*
X148501585Y-62057042D01*
X148501586Y-62057038D01*
X148501065Y-62027590D01*
X148504816Y-61998381D01*
X148499906Y-61961993D01*
X148499258Y-61925274D01*
X148491133Y-61896962D01*
X148487196Y-61867780D01*
X148473036Y-61833904D01*
X148462906Y-61798603D01*
X148452380Y-61781095D01*
X148444246Y-61765026D01*
X148432844Y-61737748D01*
X148251160Y-61303070D01*
X148250306Y-61300974D01*
X148224559Y-61236060D01*
X148055731Y-60810402D01*
X148054913Y-60808279D01*
X147873808Y-60325482D01*
X147873029Y-60323347D01*
X147705237Y-59848604D01*
X147704509Y-59846480D01*
X147549493Y-59378972D01*
X147548763Y-59376692D01*
X147494852Y-59202528D01*
X147406624Y-58917499D01*
X147405913Y-58915116D01*
X147401757Y-58900652D01*
X147275914Y-58462650D01*
X147275237Y-58460194D01*
X147252774Y-58375393D01*
X147157579Y-58016012D01*
X147156938Y-58013480D01*
X147120578Y-57863388D01*
X147066868Y-57641673D01*
X147050873Y-57575644D01*
X147050268Y-57573025D01*
X147022952Y-57448526D01*
X146955968Y-57143234D01*
X146955417Y-57140581D01*
X146947870Y-57102142D01*
X146872206Y-56716744D01*
X146871698Y-56713996D01*
X146841502Y-56539477D01*
X146799763Y-56298249D01*
X146799313Y-56295455D01*
X146796680Y-56277836D01*
X146737964Y-55885001D01*
X146737575Y-55882164D01*
X146733798Y-55852109D01*
X146687039Y-55480001D01*
X146686707Y-55477081D01*
X146646336Y-55079642D01*
X146646071Y-55076678D01*
X146641364Y-55015719D01*
X146616316Y-54691294D01*
X146616048Y-54686728D01*
X146615856Y-54681949D01*
X146585289Y-53921226D01*
X146585197Y-53915016D01*
X146592899Y-53177284D01*
X146593133Y-53170854D01*
X146599310Y-53072020D01*
X146637801Y-52456119D01*
X146638384Y-52449593D01*
X146718855Y-51756806D01*
X146719807Y-51750185D01*
X146835063Y-51078569D01*
X146836406Y-51071863D01*
X146861483Y-50962396D01*
X146985625Y-50420486D01*
X146987351Y-50413813D01*
X147169841Y-49782008D01*
X147171973Y-49775341D01*
X147177984Y-49758226D01*
X147387173Y-49162552D01*
X147389697Y-49155970D01*
X147637178Y-48561732D01*
X147640058Y-48555339D01*
X147919407Y-47979524D01*
X147922661Y-47973279D01*
X148233448Y-47416020D01*
X148237056Y-47409962D01*
X148242636Y-47401173D01*
X148578707Y-46871762D01*
X148582631Y-46865951D01*
X148954346Y-46347681D01*
X148958523Y-46342189D01*
X149358945Y-45845362D01*
X149363387Y-45840154D01*
X149790251Y-45367079D01*
X149794932Y-45362172D01*
X150244487Y-44916210D01*
X150249439Y-44911560D01*
X150715347Y-44497665D01*
X150720518Y-44493321D01*
X151191525Y-44119167D01*
X151197018Y-44115047D01*
X151651710Y-43793398D01*
X151657551Y-43789512D01*
X152049497Y-43544586D01*
X152055192Y-43541238D01*
X152219491Y-43450531D01*
X152234471Y-43443522D01*
X152319666Y-43410388D01*
X152341745Y-43404081D01*
X152431486Y-43387244D01*
X152454351Y-43385119D01*
X152545649Y-43385119D01*
X152568514Y-43387245D01*
G37*
%TD.AperFunction*%
%TD*%
M02*
