%TF.GenerationSoftware,KiCad,Pcbnew,10.0.1*%
%TF.CreationDate,2026-04-18T21:54:26+10:00*%
%TF.ProjectId,project,70726f6a-6563-4742-9e6b-696361645f70,rev?*%
%TF.SameCoordinates,Original*%
%TF.FileFunction,Legend,Top*%
%TF.FilePolarity,Positive*%
%FSLAX46Y46*%
G04 Gerber Fmt 4.6, Leading zero omitted, Abs format (unit mm)*
G04 Created by KiCad (PCBNEW 10.0.1) date 2026-04-18 21:54:26*
%MOMM*%
%LPD*%
G01*
G04 APERTURE LIST*
%ADD10C,0.100000*%
%ADD11C,0.150000*%
%ADD12C,0.120000*%
%ADD13C,0.000000*%
%ADD14C,0.127000*%
%ADD15C,0.200000*%
G04 APERTURE END LIST*
D10*
X121256265Y-83824800D02*
X121399122Y-83872419D01*
X121399122Y-83872419D02*
X121637217Y-83872419D01*
X121637217Y-83872419D02*
X121732455Y-83824800D01*
X121732455Y-83824800D02*
X121780074Y-83777180D01*
X121780074Y-83777180D02*
X121827693Y-83681942D01*
X121827693Y-83681942D02*
X121827693Y-83586704D01*
X121827693Y-83586704D02*
X121780074Y-83491466D01*
X121780074Y-83491466D02*
X121732455Y-83443847D01*
X121732455Y-83443847D02*
X121637217Y-83396228D01*
X121637217Y-83396228D02*
X121446741Y-83348609D01*
X121446741Y-83348609D02*
X121351503Y-83300990D01*
X121351503Y-83300990D02*
X121303884Y-83253371D01*
X121303884Y-83253371D02*
X121256265Y-83158133D01*
X121256265Y-83158133D02*
X121256265Y-83062895D01*
X121256265Y-83062895D02*
X121303884Y-82967657D01*
X121303884Y-82967657D02*
X121351503Y-82920038D01*
X121351503Y-82920038D02*
X121446741Y-82872419D01*
X121446741Y-82872419D02*
X121684836Y-82872419D01*
X121684836Y-82872419D02*
X121827693Y-82920038D01*
X122113408Y-83205752D02*
X122494360Y-83205752D01*
X122256265Y-82872419D02*
X122256265Y-83729561D01*
X122256265Y-83729561D02*
X122303884Y-83824800D01*
X122303884Y-83824800D02*
X122399122Y-83872419D01*
X122399122Y-83872419D02*
X122494360Y-83872419D01*
X122827694Y-83872419D02*
X122827694Y-83205752D01*
X122827694Y-83396228D02*
X122875313Y-83300990D01*
X122875313Y-83300990D02*
X122922932Y-83253371D01*
X122922932Y-83253371D02*
X123018170Y-83205752D01*
X123018170Y-83205752D02*
X123113408Y-83205752D01*
X123875313Y-83872419D02*
X123875313Y-83348609D01*
X123875313Y-83348609D02*
X123827694Y-83253371D01*
X123827694Y-83253371D02*
X123732456Y-83205752D01*
X123732456Y-83205752D02*
X123541980Y-83205752D01*
X123541980Y-83205752D02*
X123446742Y-83253371D01*
X123875313Y-83824800D02*
X123780075Y-83872419D01*
X123780075Y-83872419D02*
X123541980Y-83872419D01*
X123541980Y-83872419D02*
X123446742Y-83824800D01*
X123446742Y-83824800D02*
X123399123Y-83729561D01*
X123399123Y-83729561D02*
X123399123Y-83634323D01*
X123399123Y-83634323D02*
X123446742Y-83539085D01*
X123446742Y-83539085D02*
X123541980Y-83491466D01*
X123541980Y-83491466D02*
X123780075Y-83491466D01*
X123780075Y-83491466D02*
X123875313Y-83443847D01*
X124256266Y-83205752D02*
X124446742Y-83872419D01*
X124446742Y-83872419D02*
X124637218Y-83396228D01*
X124637218Y-83396228D02*
X124827694Y-83872419D01*
X124827694Y-83872419D02*
X125018170Y-83205752D01*
X125399123Y-83872419D02*
X125399123Y-82872419D01*
X125399123Y-83253371D02*
X125494361Y-83205752D01*
X125494361Y-83205752D02*
X125684837Y-83205752D01*
X125684837Y-83205752D02*
X125780075Y-83253371D01*
X125780075Y-83253371D02*
X125827694Y-83300990D01*
X125827694Y-83300990D02*
X125875313Y-83396228D01*
X125875313Y-83396228D02*
X125875313Y-83681942D01*
X125875313Y-83681942D02*
X125827694Y-83777180D01*
X125827694Y-83777180D02*
X125780075Y-83824800D01*
X125780075Y-83824800D02*
X125684837Y-83872419D01*
X125684837Y-83872419D02*
X125494361Y-83872419D01*
X125494361Y-83872419D02*
X125399123Y-83824800D01*
X126684837Y-83824800D02*
X126589599Y-83872419D01*
X126589599Y-83872419D02*
X126399123Y-83872419D01*
X126399123Y-83872419D02*
X126303885Y-83824800D01*
X126303885Y-83824800D02*
X126256266Y-83729561D01*
X126256266Y-83729561D02*
X126256266Y-83348609D01*
X126256266Y-83348609D02*
X126303885Y-83253371D01*
X126303885Y-83253371D02*
X126399123Y-83205752D01*
X126399123Y-83205752D02*
X126589599Y-83205752D01*
X126589599Y-83205752D02*
X126684837Y-83253371D01*
X126684837Y-83253371D02*
X126732456Y-83348609D01*
X126732456Y-83348609D02*
X126732456Y-83443847D01*
X126732456Y-83443847D02*
X126256266Y-83539085D01*
X127161028Y-83872419D02*
X127161028Y-83205752D01*
X127161028Y-83396228D02*
X127208647Y-83300990D01*
X127208647Y-83300990D02*
X127256266Y-83253371D01*
X127256266Y-83253371D02*
X127351504Y-83205752D01*
X127351504Y-83205752D02*
X127446742Y-83205752D01*
X127780076Y-83872419D02*
X127780076Y-83205752D01*
X127780076Y-83396228D02*
X127827695Y-83300990D01*
X127827695Y-83300990D02*
X127875314Y-83253371D01*
X127875314Y-83253371D02*
X127970552Y-83205752D01*
X127970552Y-83205752D02*
X128065790Y-83205752D01*
X128303886Y-83205752D02*
X128541981Y-83872419D01*
X128780076Y-83205752D02*
X128541981Y-83872419D01*
X128541981Y-83872419D02*
X128446743Y-84110514D01*
X128446743Y-84110514D02*
X128399124Y-84158133D01*
X128399124Y-84158133D02*
X128303886Y-84205752D01*
X129922934Y-83872419D02*
X129922934Y-82872419D01*
X129922934Y-83253371D02*
X130018172Y-83205752D01*
X130018172Y-83205752D02*
X130208648Y-83205752D01*
X130208648Y-83205752D02*
X130303886Y-83253371D01*
X130303886Y-83253371D02*
X130351505Y-83300990D01*
X130351505Y-83300990D02*
X130399124Y-83396228D01*
X130399124Y-83396228D02*
X130399124Y-83681942D01*
X130399124Y-83681942D02*
X130351505Y-83777180D01*
X130351505Y-83777180D02*
X130303886Y-83824800D01*
X130303886Y-83824800D02*
X130208648Y-83872419D01*
X130208648Y-83872419D02*
X130018172Y-83872419D01*
X130018172Y-83872419D02*
X129922934Y-83824800D01*
X130970553Y-83872419D02*
X130875315Y-83824800D01*
X130875315Y-83824800D02*
X130827696Y-83729561D01*
X130827696Y-83729561D02*
X130827696Y-82872419D01*
X131351506Y-83872419D02*
X131351506Y-83205752D01*
X131351506Y-82872419D02*
X131303887Y-82920038D01*
X131303887Y-82920038D02*
X131351506Y-82967657D01*
X131351506Y-82967657D02*
X131399125Y-82920038D01*
X131399125Y-82920038D02*
X131351506Y-82872419D01*
X131351506Y-82872419D02*
X131351506Y-82967657D01*
X131827696Y-83205752D02*
X131827696Y-83872419D01*
X131827696Y-83300990D02*
X131875315Y-83253371D01*
X131875315Y-83253371D02*
X131970553Y-83205752D01*
X131970553Y-83205752D02*
X132113410Y-83205752D01*
X132113410Y-83205752D02*
X132208648Y-83253371D01*
X132208648Y-83253371D02*
X132256267Y-83348609D01*
X132256267Y-83348609D02*
X132256267Y-83872419D01*
X132732458Y-83872419D02*
X132732458Y-82872419D01*
X132827696Y-83491466D02*
X133113410Y-83872419D01*
X133113410Y-83205752D02*
X132732458Y-83586704D01*
X133922934Y-83824800D02*
X133827696Y-83872419D01*
X133827696Y-83872419D02*
X133637220Y-83872419D01*
X133637220Y-83872419D02*
X133541982Y-83824800D01*
X133541982Y-83824800D02*
X133494363Y-83729561D01*
X133494363Y-83729561D02*
X133494363Y-83348609D01*
X133494363Y-83348609D02*
X133541982Y-83253371D01*
X133541982Y-83253371D02*
X133637220Y-83205752D01*
X133637220Y-83205752D02*
X133827696Y-83205752D01*
X133827696Y-83205752D02*
X133922934Y-83253371D01*
X133922934Y-83253371D02*
X133970553Y-83348609D01*
X133970553Y-83348609D02*
X133970553Y-83443847D01*
X133970553Y-83443847D02*
X133494363Y-83539085D01*
X134399125Y-83872419D02*
X134399125Y-83205752D01*
X134399125Y-83396228D02*
X134446744Y-83300990D01*
X134446744Y-83300990D02*
X134494363Y-83253371D01*
X134494363Y-83253371D02*
X134589601Y-83205752D01*
X134589601Y-83205752D02*
X134684839Y-83205752D01*
D11*
X179991905Y-82414819D02*
X179991905Y-81414819D01*
X179991905Y-81414819D02*
X180230000Y-81414819D01*
X180230000Y-81414819D02*
X180372857Y-81462438D01*
X180372857Y-81462438D02*
X180468095Y-81557676D01*
X180468095Y-81557676D02*
X180515714Y-81652914D01*
X180515714Y-81652914D02*
X180563333Y-81843390D01*
X180563333Y-81843390D02*
X180563333Y-81986247D01*
X180563333Y-81986247D02*
X180515714Y-82176723D01*
X180515714Y-82176723D02*
X180468095Y-82271961D01*
X180468095Y-82271961D02*
X180372857Y-82367200D01*
X180372857Y-82367200D02*
X180230000Y-82414819D01*
X180230000Y-82414819D02*
X179991905Y-82414819D01*
X180896667Y-81414819D02*
X181563333Y-81414819D01*
X181563333Y-81414819D02*
X181134762Y-82414819D01*
X138761905Y-63994819D02*
X138761905Y-62994819D01*
X138761905Y-62994819D02*
X139000000Y-62994819D01*
X139000000Y-62994819D02*
X139142857Y-63042438D01*
X139142857Y-63042438D02*
X139238095Y-63137676D01*
X139238095Y-63137676D02*
X139285714Y-63232914D01*
X139285714Y-63232914D02*
X139333333Y-63423390D01*
X139333333Y-63423390D02*
X139333333Y-63566247D01*
X139333333Y-63566247D02*
X139285714Y-63756723D01*
X139285714Y-63756723D02*
X139238095Y-63851961D01*
X139238095Y-63851961D02*
X139142857Y-63947200D01*
X139142857Y-63947200D02*
X139000000Y-63994819D01*
X139000000Y-63994819D02*
X138761905Y-63994819D01*
X140285714Y-63994819D02*
X139714286Y-63994819D01*
X140000000Y-63994819D02*
X140000000Y-62994819D01*
X140000000Y-62994819D02*
X139904762Y-63137676D01*
X139904762Y-63137676D02*
X139809524Y-63232914D01*
X139809524Y-63232914D02*
X139714286Y-63280533D01*
X155074819Y-88333333D02*
X155789104Y-88333333D01*
X155789104Y-88333333D02*
X155931961Y-88380952D01*
X155931961Y-88380952D02*
X156027200Y-88476190D01*
X156027200Y-88476190D02*
X156074819Y-88619047D01*
X156074819Y-88619047D02*
X156074819Y-88714285D01*
X155170057Y-87904761D02*
X155122438Y-87857142D01*
X155122438Y-87857142D02*
X155074819Y-87761904D01*
X155074819Y-87761904D02*
X155074819Y-87523809D01*
X155074819Y-87523809D02*
X155122438Y-87428571D01*
X155122438Y-87428571D02*
X155170057Y-87380952D01*
X155170057Y-87380952D02*
X155265295Y-87333333D01*
X155265295Y-87333333D02*
X155360533Y-87333333D01*
X155360533Y-87333333D02*
X155503390Y-87380952D01*
X155503390Y-87380952D02*
X156074819Y-87952380D01*
X156074819Y-87952380D02*
X156074819Y-87333333D01*
X127261905Y-129494819D02*
X127261905Y-128494819D01*
X127261905Y-128494819D02*
X127500000Y-128494819D01*
X127500000Y-128494819D02*
X127642857Y-128542438D01*
X127642857Y-128542438D02*
X127738095Y-128637676D01*
X127738095Y-128637676D02*
X127785714Y-128732914D01*
X127785714Y-128732914D02*
X127833333Y-128923390D01*
X127833333Y-128923390D02*
X127833333Y-129066247D01*
X127833333Y-129066247D02*
X127785714Y-129256723D01*
X127785714Y-129256723D02*
X127738095Y-129351961D01*
X127738095Y-129351961D02*
X127642857Y-129447200D01*
X127642857Y-129447200D02*
X127500000Y-129494819D01*
X127500000Y-129494819D02*
X127261905Y-129494819D01*
X128690476Y-128828152D02*
X128690476Y-129494819D01*
X128452381Y-128447200D02*
X128214286Y-129161485D01*
X128214286Y-129161485D02*
X128833333Y-129161485D01*
X162954819Y-76555238D02*
X162478628Y-76888571D01*
X162954819Y-77126666D02*
X161954819Y-77126666D01*
X161954819Y-77126666D02*
X161954819Y-76745714D01*
X161954819Y-76745714D02*
X162002438Y-76650476D01*
X162002438Y-76650476D02*
X162050057Y-76602857D01*
X162050057Y-76602857D02*
X162145295Y-76555238D01*
X162145295Y-76555238D02*
X162288152Y-76555238D01*
X162288152Y-76555238D02*
X162383390Y-76602857D01*
X162383390Y-76602857D02*
X162431009Y-76650476D01*
X162431009Y-76650476D02*
X162478628Y-76745714D01*
X162478628Y-76745714D02*
X162478628Y-77126666D01*
X161954819Y-76269523D02*
X162954819Y-75936190D01*
X162954819Y-75936190D02*
X161954819Y-75602857D01*
X162954819Y-74745714D02*
X162954819Y-75317142D01*
X162954819Y-75031428D02*
X161954819Y-75031428D01*
X161954819Y-75031428D02*
X162097676Y-75126666D01*
X162097676Y-75126666D02*
X162192914Y-75221904D01*
X162192914Y-75221904D02*
X162240533Y-75317142D01*
X162991905Y-118914819D02*
X162991905Y-117914819D01*
X162991905Y-117914819D02*
X163230000Y-117914819D01*
X163230000Y-117914819D02*
X163372857Y-117962438D01*
X163372857Y-117962438D02*
X163468095Y-118057676D01*
X163468095Y-118057676D02*
X163515714Y-118152914D01*
X163515714Y-118152914D02*
X163563333Y-118343390D01*
X163563333Y-118343390D02*
X163563333Y-118486247D01*
X163563333Y-118486247D02*
X163515714Y-118676723D01*
X163515714Y-118676723D02*
X163468095Y-118771961D01*
X163468095Y-118771961D02*
X163372857Y-118867200D01*
X163372857Y-118867200D02*
X163230000Y-118914819D01*
X163230000Y-118914819D02*
X162991905Y-118914819D01*
X164468095Y-117914819D02*
X163991905Y-117914819D01*
X163991905Y-117914819D02*
X163944286Y-118391009D01*
X163944286Y-118391009D02*
X163991905Y-118343390D01*
X163991905Y-118343390D02*
X164087143Y-118295771D01*
X164087143Y-118295771D02*
X164325238Y-118295771D01*
X164325238Y-118295771D02*
X164420476Y-118343390D01*
X164420476Y-118343390D02*
X164468095Y-118391009D01*
X164468095Y-118391009D02*
X164515714Y-118486247D01*
X164515714Y-118486247D02*
X164515714Y-118724342D01*
X164515714Y-118724342D02*
X164468095Y-118819580D01*
X164468095Y-118819580D02*
X164420476Y-118867200D01*
X164420476Y-118867200D02*
X164325238Y-118914819D01*
X164325238Y-118914819D02*
X164087143Y-118914819D01*
X164087143Y-118914819D02*
X163991905Y-118867200D01*
X163991905Y-118867200D02*
X163944286Y-118819580D01*
X122261905Y-101494819D02*
X122261905Y-100494819D01*
X122261905Y-100494819D02*
X122500000Y-100494819D01*
X122500000Y-100494819D02*
X122642857Y-100542438D01*
X122642857Y-100542438D02*
X122738095Y-100637676D01*
X122738095Y-100637676D02*
X122785714Y-100732914D01*
X122785714Y-100732914D02*
X122833333Y-100923390D01*
X122833333Y-100923390D02*
X122833333Y-101066247D01*
X122833333Y-101066247D02*
X122785714Y-101256723D01*
X122785714Y-101256723D02*
X122738095Y-101351961D01*
X122738095Y-101351961D02*
X122642857Y-101447200D01*
X122642857Y-101447200D02*
X122500000Y-101494819D01*
X122500000Y-101494819D02*
X122261905Y-101494819D01*
X123166667Y-100494819D02*
X123785714Y-100494819D01*
X123785714Y-100494819D02*
X123452381Y-100875771D01*
X123452381Y-100875771D02*
X123595238Y-100875771D01*
X123595238Y-100875771D02*
X123690476Y-100923390D01*
X123690476Y-100923390D02*
X123738095Y-100971009D01*
X123738095Y-100971009D02*
X123785714Y-101066247D01*
X123785714Y-101066247D02*
X123785714Y-101304342D01*
X123785714Y-101304342D02*
X123738095Y-101399580D01*
X123738095Y-101399580D02*
X123690476Y-101447200D01*
X123690476Y-101447200D02*
X123595238Y-101494819D01*
X123595238Y-101494819D02*
X123309524Y-101494819D01*
X123309524Y-101494819D02*
X123214286Y-101447200D01*
X123214286Y-101447200D02*
X123166667Y-101399580D01*
X152523333Y-66084819D02*
X152190000Y-65608628D01*
X151951905Y-66084819D02*
X151951905Y-65084819D01*
X151951905Y-65084819D02*
X152332857Y-65084819D01*
X152332857Y-65084819D02*
X152428095Y-65132438D01*
X152428095Y-65132438D02*
X152475714Y-65180057D01*
X152475714Y-65180057D02*
X152523333Y-65275295D01*
X152523333Y-65275295D02*
X152523333Y-65418152D01*
X152523333Y-65418152D02*
X152475714Y-65513390D01*
X152475714Y-65513390D02*
X152428095Y-65561009D01*
X152428095Y-65561009D02*
X152332857Y-65608628D01*
X152332857Y-65608628D02*
X151951905Y-65608628D01*
X153475714Y-66084819D02*
X152904286Y-66084819D01*
X153190000Y-66084819D02*
X153190000Y-65084819D01*
X153190000Y-65084819D02*
X153094762Y-65227676D01*
X153094762Y-65227676D02*
X152999524Y-65322914D01*
X152999524Y-65322914D02*
X152904286Y-65370533D01*
X150738095Y-83954819D02*
X150738095Y-84764342D01*
X150738095Y-84764342D02*
X150785714Y-84859580D01*
X150785714Y-84859580D02*
X150833333Y-84907200D01*
X150833333Y-84907200D02*
X150928571Y-84954819D01*
X150928571Y-84954819D02*
X151119047Y-84954819D01*
X151119047Y-84954819D02*
X151214285Y-84907200D01*
X151214285Y-84907200D02*
X151261904Y-84859580D01*
X151261904Y-84859580D02*
X151309523Y-84764342D01*
X151309523Y-84764342D02*
X151309523Y-83954819D01*
X152309523Y-84954819D02*
X151738095Y-84954819D01*
X152023809Y-84954819D02*
X152023809Y-83954819D01*
X152023809Y-83954819D02*
X151928571Y-84097676D01*
X151928571Y-84097676D02*
X151833333Y-84192914D01*
X151833333Y-84192914D02*
X151738095Y-84240533D01*
X139878221Y-92609580D02*
X139830602Y-92657200D01*
X139830602Y-92657200D02*
X139687745Y-92704819D01*
X139687745Y-92704819D02*
X139592507Y-92704819D01*
X139592507Y-92704819D02*
X139449650Y-92657200D01*
X139449650Y-92657200D02*
X139354412Y-92561961D01*
X139354412Y-92561961D02*
X139306793Y-92466723D01*
X139306793Y-92466723D02*
X139259174Y-92276247D01*
X139259174Y-92276247D02*
X139259174Y-92133390D01*
X139259174Y-92133390D02*
X139306793Y-91942914D01*
X139306793Y-91942914D02*
X139354412Y-91847676D01*
X139354412Y-91847676D02*
X139449650Y-91752438D01*
X139449650Y-91752438D02*
X139592507Y-91704819D01*
X139592507Y-91704819D02*
X139687745Y-91704819D01*
X139687745Y-91704819D02*
X139830602Y-91752438D01*
X139830602Y-91752438D02*
X139878221Y-91800057D01*
X140211555Y-91704819D02*
X140830602Y-91704819D01*
X140830602Y-91704819D02*
X140497269Y-92085771D01*
X140497269Y-92085771D02*
X140640126Y-92085771D01*
X140640126Y-92085771D02*
X140735364Y-92133390D01*
X140735364Y-92133390D02*
X140782983Y-92181009D01*
X140782983Y-92181009D02*
X140830602Y-92276247D01*
X140830602Y-92276247D02*
X140830602Y-92514342D01*
X140830602Y-92514342D02*
X140782983Y-92609580D01*
X140782983Y-92609580D02*
X140735364Y-92657200D01*
X140735364Y-92657200D02*
X140640126Y-92704819D01*
X140640126Y-92704819D02*
X140354412Y-92704819D01*
X140354412Y-92704819D02*
X140259174Y-92657200D01*
X140259174Y-92657200D02*
X140211555Y-92609580D01*
X185991905Y-65414819D02*
X185991905Y-64414819D01*
X185991905Y-64414819D02*
X186230000Y-64414819D01*
X186230000Y-64414819D02*
X186372857Y-64462438D01*
X186372857Y-64462438D02*
X186468095Y-64557676D01*
X186468095Y-64557676D02*
X186515714Y-64652914D01*
X186515714Y-64652914D02*
X186563333Y-64843390D01*
X186563333Y-64843390D02*
X186563333Y-64986247D01*
X186563333Y-64986247D02*
X186515714Y-65176723D01*
X186515714Y-65176723D02*
X186468095Y-65271961D01*
X186468095Y-65271961D02*
X186372857Y-65367200D01*
X186372857Y-65367200D02*
X186230000Y-65414819D01*
X186230000Y-65414819D02*
X185991905Y-65414819D01*
X187134762Y-64843390D02*
X187039524Y-64795771D01*
X187039524Y-64795771D02*
X186991905Y-64748152D01*
X186991905Y-64748152D02*
X186944286Y-64652914D01*
X186944286Y-64652914D02*
X186944286Y-64605295D01*
X186944286Y-64605295D02*
X186991905Y-64510057D01*
X186991905Y-64510057D02*
X187039524Y-64462438D01*
X187039524Y-64462438D02*
X187134762Y-64414819D01*
X187134762Y-64414819D02*
X187325238Y-64414819D01*
X187325238Y-64414819D02*
X187420476Y-64462438D01*
X187420476Y-64462438D02*
X187468095Y-64510057D01*
X187468095Y-64510057D02*
X187515714Y-64605295D01*
X187515714Y-64605295D02*
X187515714Y-64652914D01*
X187515714Y-64652914D02*
X187468095Y-64748152D01*
X187468095Y-64748152D02*
X187420476Y-64795771D01*
X187420476Y-64795771D02*
X187325238Y-64843390D01*
X187325238Y-64843390D02*
X187134762Y-64843390D01*
X187134762Y-64843390D02*
X187039524Y-64891009D01*
X187039524Y-64891009D02*
X186991905Y-64938628D01*
X186991905Y-64938628D02*
X186944286Y-65033866D01*
X186944286Y-65033866D02*
X186944286Y-65224342D01*
X186944286Y-65224342D02*
X186991905Y-65319580D01*
X186991905Y-65319580D02*
X187039524Y-65367200D01*
X187039524Y-65367200D02*
X187134762Y-65414819D01*
X187134762Y-65414819D02*
X187325238Y-65414819D01*
X187325238Y-65414819D02*
X187420476Y-65367200D01*
X187420476Y-65367200D02*
X187468095Y-65319580D01*
X187468095Y-65319580D02*
X187515714Y-65224342D01*
X187515714Y-65224342D02*
X187515714Y-65033866D01*
X187515714Y-65033866D02*
X187468095Y-64938628D01*
X187468095Y-64938628D02*
X187420476Y-64891009D01*
X187420476Y-64891009D02*
X187325238Y-64843390D01*
X170491905Y-55914819D02*
X170491905Y-54914819D01*
X170491905Y-54914819D02*
X170730000Y-54914819D01*
X170730000Y-54914819D02*
X170872857Y-54962438D01*
X170872857Y-54962438D02*
X170968095Y-55057676D01*
X170968095Y-55057676D02*
X171015714Y-55152914D01*
X171015714Y-55152914D02*
X171063333Y-55343390D01*
X171063333Y-55343390D02*
X171063333Y-55486247D01*
X171063333Y-55486247D02*
X171015714Y-55676723D01*
X171015714Y-55676723D02*
X170968095Y-55771961D01*
X170968095Y-55771961D02*
X170872857Y-55867200D01*
X170872857Y-55867200D02*
X170730000Y-55914819D01*
X170730000Y-55914819D02*
X170491905Y-55914819D01*
X171920476Y-54914819D02*
X171730000Y-54914819D01*
X171730000Y-54914819D02*
X171634762Y-54962438D01*
X171634762Y-54962438D02*
X171587143Y-55010057D01*
X171587143Y-55010057D02*
X171491905Y-55152914D01*
X171491905Y-55152914D02*
X171444286Y-55343390D01*
X171444286Y-55343390D02*
X171444286Y-55724342D01*
X171444286Y-55724342D02*
X171491905Y-55819580D01*
X171491905Y-55819580D02*
X171539524Y-55867200D01*
X171539524Y-55867200D02*
X171634762Y-55914819D01*
X171634762Y-55914819D02*
X171825238Y-55914819D01*
X171825238Y-55914819D02*
X171920476Y-55867200D01*
X171920476Y-55867200D02*
X171968095Y-55819580D01*
X171968095Y-55819580D02*
X172015714Y-55724342D01*
X172015714Y-55724342D02*
X172015714Y-55486247D01*
X172015714Y-55486247D02*
X171968095Y-55391009D01*
X171968095Y-55391009D02*
X171920476Y-55343390D01*
X171920476Y-55343390D02*
X171825238Y-55295771D01*
X171825238Y-55295771D02*
X171634762Y-55295771D01*
X171634762Y-55295771D02*
X171539524Y-55343390D01*
X171539524Y-55343390D02*
X171491905Y-55391009D01*
X171491905Y-55391009D02*
X171444286Y-55486247D01*
X167738095Y-90454819D02*
X167738095Y-91264342D01*
X167738095Y-91264342D02*
X167785714Y-91359580D01*
X167785714Y-91359580D02*
X167833333Y-91407200D01*
X167833333Y-91407200D02*
X167928571Y-91454819D01*
X167928571Y-91454819D02*
X168119047Y-91454819D01*
X168119047Y-91454819D02*
X168214285Y-91407200D01*
X168214285Y-91407200D02*
X168261904Y-91359580D01*
X168261904Y-91359580D02*
X168309523Y-91264342D01*
X168309523Y-91264342D02*
X168309523Y-90454819D01*
X168738095Y-90550057D02*
X168785714Y-90502438D01*
X168785714Y-90502438D02*
X168880952Y-90454819D01*
X168880952Y-90454819D02*
X169119047Y-90454819D01*
X169119047Y-90454819D02*
X169214285Y-90502438D01*
X169214285Y-90502438D02*
X169261904Y-90550057D01*
X169261904Y-90550057D02*
X169309523Y-90645295D01*
X169309523Y-90645295D02*
X169309523Y-90740533D01*
X169309523Y-90740533D02*
X169261904Y-90883390D01*
X169261904Y-90883390D02*
X168690476Y-91454819D01*
X168690476Y-91454819D02*
X169309523Y-91454819D01*
X157666666Y-90074819D02*
X157666666Y-90789104D01*
X157666666Y-90789104D02*
X157619047Y-90931961D01*
X157619047Y-90931961D02*
X157523809Y-91027200D01*
X157523809Y-91027200D02*
X157380952Y-91074819D01*
X157380952Y-91074819D02*
X157285714Y-91074819D01*
X158666666Y-91074819D02*
X158095238Y-91074819D01*
X158380952Y-91074819D02*
X158380952Y-90074819D01*
X158380952Y-90074819D02*
X158285714Y-90217676D01*
X158285714Y-90217676D02*
X158190476Y-90312914D01*
X158190476Y-90312914D02*
X158095238Y-90360533D01*
X139333333Y-71859580D02*
X139285714Y-71907200D01*
X139285714Y-71907200D02*
X139142857Y-71954819D01*
X139142857Y-71954819D02*
X139047619Y-71954819D01*
X139047619Y-71954819D02*
X138904762Y-71907200D01*
X138904762Y-71907200D02*
X138809524Y-71811961D01*
X138809524Y-71811961D02*
X138761905Y-71716723D01*
X138761905Y-71716723D02*
X138714286Y-71526247D01*
X138714286Y-71526247D02*
X138714286Y-71383390D01*
X138714286Y-71383390D02*
X138761905Y-71192914D01*
X138761905Y-71192914D02*
X138809524Y-71097676D01*
X138809524Y-71097676D02*
X138904762Y-71002438D01*
X138904762Y-71002438D02*
X139047619Y-70954819D01*
X139047619Y-70954819D02*
X139142857Y-70954819D01*
X139142857Y-70954819D02*
X139285714Y-71002438D01*
X139285714Y-71002438D02*
X139333333Y-71050057D01*
X139714286Y-71050057D02*
X139761905Y-71002438D01*
X139761905Y-71002438D02*
X139857143Y-70954819D01*
X139857143Y-70954819D02*
X140095238Y-70954819D01*
X140095238Y-70954819D02*
X140190476Y-71002438D01*
X140190476Y-71002438D02*
X140238095Y-71050057D01*
X140238095Y-71050057D02*
X140285714Y-71145295D01*
X140285714Y-71145295D02*
X140285714Y-71240533D01*
X140285714Y-71240533D02*
X140238095Y-71383390D01*
X140238095Y-71383390D02*
X139666667Y-71954819D01*
X139666667Y-71954819D02*
X140285714Y-71954819D01*
X170023333Y-98324819D02*
X169690000Y-97848628D01*
X169451905Y-98324819D02*
X169451905Y-97324819D01*
X169451905Y-97324819D02*
X169832857Y-97324819D01*
X169832857Y-97324819D02*
X169928095Y-97372438D01*
X169928095Y-97372438D02*
X169975714Y-97420057D01*
X169975714Y-97420057D02*
X170023333Y-97515295D01*
X170023333Y-97515295D02*
X170023333Y-97658152D01*
X170023333Y-97658152D02*
X169975714Y-97753390D01*
X169975714Y-97753390D02*
X169928095Y-97801009D01*
X169928095Y-97801009D02*
X169832857Y-97848628D01*
X169832857Y-97848628D02*
X169451905Y-97848628D01*
X170404286Y-97420057D02*
X170451905Y-97372438D01*
X170451905Y-97372438D02*
X170547143Y-97324819D01*
X170547143Y-97324819D02*
X170785238Y-97324819D01*
X170785238Y-97324819D02*
X170880476Y-97372438D01*
X170880476Y-97372438D02*
X170928095Y-97420057D01*
X170928095Y-97420057D02*
X170975714Y-97515295D01*
X170975714Y-97515295D02*
X170975714Y-97610533D01*
X170975714Y-97610533D02*
X170928095Y-97753390D01*
X170928095Y-97753390D02*
X170356667Y-98324819D01*
X170356667Y-98324819D02*
X170975714Y-98324819D01*
X151285714Y-48994819D02*
X151285714Y-47994819D01*
X151285714Y-47994819D02*
X151523809Y-47994819D01*
X151523809Y-47994819D02*
X151666666Y-48042438D01*
X151666666Y-48042438D02*
X151761904Y-48137676D01*
X151761904Y-48137676D02*
X151809523Y-48232914D01*
X151809523Y-48232914D02*
X151857142Y-48423390D01*
X151857142Y-48423390D02*
X151857142Y-48566247D01*
X151857142Y-48566247D02*
X151809523Y-48756723D01*
X151809523Y-48756723D02*
X151761904Y-48851961D01*
X151761904Y-48851961D02*
X151666666Y-48947200D01*
X151666666Y-48947200D02*
X151523809Y-48994819D01*
X151523809Y-48994819D02*
X151285714Y-48994819D01*
X152809523Y-48994819D02*
X152238095Y-48994819D01*
X152523809Y-48994819D02*
X152523809Y-47994819D01*
X152523809Y-47994819D02*
X152428571Y-48137676D01*
X152428571Y-48137676D02*
X152333333Y-48232914D01*
X152333333Y-48232914D02*
X152238095Y-48280533D01*
X153428571Y-47994819D02*
X153523809Y-47994819D01*
X153523809Y-47994819D02*
X153619047Y-48042438D01*
X153619047Y-48042438D02*
X153666666Y-48090057D01*
X153666666Y-48090057D02*
X153714285Y-48185295D01*
X153714285Y-48185295D02*
X153761904Y-48375771D01*
X153761904Y-48375771D02*
X153761904Y-48613866D01*
X153761904Y-48613866D02*
X153714285Y-48804342D01*
X153714285Y-48804342D02*
X153666666Y-48899580D01*
X153666666Y-48899580D02*
X153619047Y-48947200D01*
X153619047Y-48947200D02*
X153523809Y-48994819D01*
X153523809Y-48994819D02*
X153428571Y-48994819D01*
X153428571Y-48994819D02*
X153333333Y-48947200D01*
X153333333Y-48947200D02*
X153285714Y-48899580D01*
X153285714Y-48899580D02*
X153238095Y-48804342D01*
X153238095Y-48804342D02*
X153190476Y-48613866D01*
X153190476Y-48613866D02*
X153190476Y-48375771D01*
X153190476Y-48375771D02*
X153238095Y-48185295D01*
X153238095Y-48185295D02*
X153285714Y-48090057D01*
X153285714Y-48090057D02*
X153333333Y-48042438D01*
X153333333Y-48042438D02*
X153428571Y-47994819D01*
X179761905Y-103914819D02*
X179761905Y-102914819D01*
X179761905Y-102914819D02*
X180000000Y-102914819D01*
X180000000Y-102914819D02*
X180142857Y-102962438D01*
X180142857Y-102962438D02*
X180238095Y-103057676D01*
X180238095Y-103057676D02*
X180285714Y-103152914D01*
X180285714Y-103152914D02*
X180333333Y-103343390D01*
X180333333Y-103343390D02*
X180333333Y-103486247D01*
X180333333Y-103486247D02*
X180285714Y-103676723D01*
X180285714Y-103676723D02*
X180238095Y-103771961D01*
X180238095Y-103771961D02*
X180142857Y-103867200D01*
X180142857Y-103867200D02*
X180000000Y-103914819D01*
X180000000Y-103914819D02*
X179761905Y-103914819D01*
X180809524Y-103914819D02*
X181000000Y-103914819D01*
X181000000Y-103914819D02*
X181095238Y-103867200D01*
X181095238Y-103867200D02*
X181142857Y-103819580D01*
X181142857Y-103819580D02*
X181238095Y-103676723D01*
X181238095Y-103676723D02*
X181285714Y-103486247D01*
X181285714Y-103486247D02*
X181285714Y-103105295D01*
X181285714Y-103105295D02*
X181238095Y-103010057D01*
X181238095Y-103010057D02*
X181190476Y-102962438D01*
X181190476Y-102962438D02*
X181095238Y-102914819D01*
X181095238Y-102914819D02*
X180904762Y-102914819D01*
X180904762Y-102914819D02*
X180809524Y-102962438D01*
X180809524Y-102962438D02*
X180761905Y-103010057D01*
X180761905Y-103010057D02*
X180714286Y-103105295D01*
X180714286Y-103105295D02*
X180714286Y-103343390D01*
X180714286Y-103343390D02*
X180761905Y-103438628D01*
X180761905Y-103438628D02*
X180809524Y-103486247D01*
X180809524Y-103486247D02*
X180904762Y-103533866D01*
X180904762Y-103533866D02*
X181095238Y-103533866D01*
X181095238Y-103533866D02*
X181190476Y-103486247D01*
X181190476Y-103486247D02*
X181238095Y-103438628D01*
X181238095Y-103438628D02*
X181285714Y-103343390D01*
X124991905Y-74494819D02*
X124991905Y-73494819D01*
X124991905Y-73494819D02*
X125230000Y-73494819D01*
X125230000Y-73494819D02*
X125372857Y-73542438D01*
X125372857Y-73542438D02*
X125468095Y-73637676D01*
X125468095Y-73637676D02*
X125515714Y-73732914D01*
X125515714Y-73732914D02*
X125563333Y-73923390D01*
X125563333Y-73923390D02*
X125563333Y-74066247D01*
X125563333Y-74066247D02*
X125515714Y-74256723D01*
X125515714Y-74256723D02*
X125468095Y-74351961D01*
X125468095Y-74351961D02*
X125372857Y-74447200D01*
X125372857Y-74447200D02*
X125230000Y-74494819D01*
X125230000Y-74494819D02*
X124991905Y-74494819D01*
X125944286Y-73590057D02*
X125991905Y-73542438D01*
X125991905Y-73542438D02*
X126087143Y-73494819D01*
X126087143Y-73494819D02*
X126325238Y-73494819D01*
X126325238Y-73494819D02*
X126420476Y-73542438D01*
X126420476Y-73542438D02*
X126468095Y-73590057D01*
X126468095Y-73590057D02*
X126515714Y-73685295D01*
X126515714Y-73685295D02*
X126515714Y-73780533D01*
X126515714Y-73780533D02*
X126468095Y-73923390D01*
X126468095Y-73923390D02*
X125896667Y-74494819D01*
X125896667Y-74494819D02*
X126515714Y-74494819D01*
%TO.C,D7*%
D12*
X182290000Y-77920000D02*
X182290000Y-77764000D01*
X182290000Y-80236000D02*
X182290000Y-80080000D01*
X179058563Y-77920000D02*
G75*
G02*
X182290000Y-77764484I1671437J-1080000D01*
G01*
X179689039Y-77920000D02*
G75*
G02*
X181770961Y-77920000I1040961J-1080000D01*
G01*
X181770961Y-80080000D02*
G75*
G02*
X179689039Y-80080000I-1040961J1080000D01*
G01*
X182290000Y-80235516D02*
G75*
G02*
X179058563Y-80080000I-1560000J1235516D01*
G01*
%TO.C,D1*%
X137940000Y-65264000D02*
X137940000Y-65420000D01*
X137940000Y-67580000D02*
X137940000Y-67736000D01*
X137940000Y-65264484D02*
G75*
G02*
X141171437Y-65420000I1560000J-1235516D01*
G01*
X138459039Y-65420000D02*
G75*
G02*
X140540961Y-65420000I1040961J-1080000D01*
G01*
X140540961Y-67580000D02*
G75*
G02*
X138459039Y-67580000I-1040961J1080000D01*
G01*
X141171437Y-67580000D02*
G75*
G02*
X137940000Y-67735516I-1671437J1080000D01*
G01*
%TO.C,J2*%
X156620000Y-89380000D02*
X156620000Y-88000000D01*
X158000000Y-89380000D02*
X156620000Y-89380000D01*
X159270000Y-86620000D02*
X161920000Y-86620000D01*
X159270000Y-89380000D02*
X159270000Y-86620000D01*
X159270000Y-89380000D02*
X161920000Y-89380000D01*
X161920000Y-89380000D02*
X161920000Y-86620000D01*
%TO.C,D4*%
X126440000Y-130764000D02*
X126440000Y-130920000D01*
X126440000Y-133080000D02*
X126440000Y-133236000D01*
X126440000Y-130764484D02*
G75*
G02*
X129671437Y-130920000I1560000J-1235516D01*
G01*
X126959039Y-130920000D02*
G75*
G02*
X129040961Y-130920000I1040961J-1080000D01*
G01*
X129040961Y-133080000D02*
G75*
G02*
X126959039Y-133080000I-1040961J1080000D01*
G01*
X129671437Y-133080000D02*
G75*
G02*
X126440000Y-133235516I-1671437J1080000D01*
G01*
D13*
%TO.C,G\u002A\u002A\u002A*%
G36*
X128939333Y-87393667D02*
G01*
X128897000Y-87436000D01*
X128854667Y-87393667D01*
X128897000Y-87351333D01*
X128939333Y-87393667D01*
G37*
G36*
X133511333Y-86547000D02*
G01*
X133469000Y-86589333D01*
X133426667Y-86547000D01*
X133469000Y-86504667D01*
X133511333Y-86547000D01*
G37*
G36*
X127154810Y-85704203D02*
G01*
X127161333Y-85732673D01*
X127099547Y-85852364D01*
X127076667Y-85869667D01*
X126998523Y-85865796D01*
X126992000Y-85837327D01*
X127053786Y-85717635D01*
X127076667Y-85700333D01*
X127154810Y-85704203D01*
G37*
G36*
X120973706Y-88263611D02*
G01*
X120980667Y-88264606D01*
X121158719Y-88300181D01*
X121234635Y-88334086D01*
X121234667Y-88334609D01*
X121160935Y-88357606D01*
X120983344Y-88367331D01*
X120980667Y-88367333D01*
X120802265Y-88347040D01*
X120726684Y-88298152D01*
X120726667Y-88297330D01*
X120798993Y-88259144D01*
X120973706Y-88263611D01*
G37*
G36*
X131116561Y-97205005D02*
G01*
X131133840Y-97329928D01*
X131064060Y-97535112D01*
X130934842Y-97776234D01*
X130773808Y-98008969D01*
X130608583Y-98188992D01*
X130466787Y-98271980D01*
X130450785Y-98273333D01*
X130440035Y-98221023D01*
X130531044Y-98087965D01*
X130613607Y-97996664D01*
X130806277Y-97757036D01*
X130953905Y-97503116D01*
X130978672Y-97442009D01*
X131052630Y-97269267D01*
X131109909Y-97202004D01*
X131116561Y-97205005D01*
G37*
G36*
X121707157Y-91537950D02*
G01*
X121644451Y-91751605D01*
X121544761Y-92059927D01*
X121419081Y-92430887D01*
X121278407Y-92832450D01*
X121133731Y-93232585D01*
X120996050Y-93599261D01*
X120905898Y-93828333D01*
X120813075Y-94034141D01*
X120749261Y-94130810D01*
X120730627Y-94112492D01*
X120758630Y-93978973D01*
X120837378Y-93728373D01*
X120953703Y-93400423D01*
X121053287Y-93138826D01*
X121210003Y-92733831D01*
X121361817Y-92333621D01*
X121486187Y-91997956D01*
X121534987Y-91861756D01*
X121624497Y-91626169D01*
X121694134Y-91478740D01*
X121721884Y-91450995D01*
X121707157Y-91537950D01*
G37*
G36*
X130588130Y-96598204D02*
G01*
X130497194Y-96654245D01*
X130271287Y-96753143D01*
X129955127Y-96862280D01*
X129563746Y-96970211D01*
X129152183Y-97064648D01*
X128775479Y-97133303D01*
X128488673Y-97163888D01*
X128431333Y-97163931D01*
X128187919Y-97136958D01*
X127962765Y-97093762D01*
X127718661Y-97013794D01*
X127539432Y-96926703D01*
X127423380Y-96850298D01*
X127451531Y-96849322D01*
X127542333Y-96880278D01*
X128188941Y-97028362D01*
X128875463Y-97030993D01*
X129618405Y-96887235D01*
X130082333Y-96736165D01*
X130368247Y-96638046D01*
X130540997Y-96592432D01*
X130588130Y-96598204D01*
G37*
G36*
X132230314Y-92261983D02*
G01*
X132305207Y-92407522D01*
X132348245Y-92514894D01*
X132427707Y-92741831D01*
X132417646Y-92832881D01*
X132299839Y-92805746D01*
X132135500Y-92721573D01*
X131951118Y-92597020D01*
X131920745Y-92483203D01*
X132101104Y-92483203D01*
X132114333Y-92516000D01*
X132190415Y-92596770D01*
X132203997Y-92600667D01*
X132240362Y-92535161D01*
X132241333Y-92516000D01*
X132176245Y-92434587D01*
X132151670Y-92431333D01*
X132101104Y-92483203D01*
X131920745Y-92483203D01*
X131920552Y-92482480D01*
X132036076Y-92337184D01*
X132058722Y-92316349D01*
X132160329Y-92239942D01*
X132230314Y-92261983D01*
G37*
G36*
X123524656Y-91898880D02*
G01*
X123764580Y-91986094D01*
X123993020Y-92090566D01*
X124144613Y-92183765D01*
X124340331Y-92377959D01*
X124377457Y-92523869D01*
X124260436Y-92618961D01*
X123993713Y-92660702D01*
X123581732Y-92646556D01*
X123372359Y-92624075D01*
X123200944Y-92593724D01*
X123130565Y-92525868D01*
X123131958Y-92369061D01*
X123138850Y-92321473D01*
X123262880Y-92321473D01*
X123337033Y-92470120D01*
X123541833Y-92539419D01*
X123842448Y-92574057D01*
X124017086Y-92583056D01*
X124107422Y-92564579D01*
X124155131Y-92516793D01*
X124157959Y-92512291D01*
X124157613Y-92373579D01*
X124014975Y-92228504D01*
X123754441Y-92100511D01*
X123715501Y-92087111D01*
X123502458Y-92032145D01*
X123387155Y-92053760D01*
X123342570Y-92103947D01*
X123262880Y-92321473D01*
X123138850Y-92321473D01*
X123151308Y-92235458D01*
X123189481Y-92011138D01*
X123220396Y-91872055D01*
X123227569Y-91854268D01*
X123327551Y-91848434D01*
X123524656Y-91898880D01*
G37*
G36*
X130511669Y-84743567D02*
G01*
X130518738Y-84743862D01*
X131108069Y-84769000D01*
X131000835Y-85509915D01*
X130849453Y-86264465D01*
X130599158Y-87109193D01*
X130246087Y-88055136D01*
X129786376Y-89113332D01*
X129600488Y-89510333D01*
X129359720Y-90010691D01*
X129153643Y-90428636D01*
X128988102Y-90753615D01*
X128868945Y-90975076D01*
X128802017Y-91082466D01*
X128793165Y-91065231D01*
X128848235Y-90912819D01*
X128920344Y-90738000D01*
X129211370Y-89914258D01*
X129342988Y-89383333D01*
X129447333Y-89383333D01*
X129478311Y-89453023D01*
X129503778Y-89439778D01*
X129513911Y-89339298D01*
X129503778Y-89326889D01*
X129453443Y-89338511D01*
X129447333Y-89383333D01*
X129342988Y-89383333D01*
X129446210Y-88966951D01*
X129617852Y-87934546D01*
X129719287Y-86855513D01*
X129743196Y-86222890D01*
X129755721Y-85760221D01*
X129775861Y-85356056D01*
X129801357Y-85041257D01*
X129829947Y-84846687D01*
X129847380Y-84800753D01*
X129968077Y-84763098D01*
X130206535Y-84742593D01*
X130511669Y-84743567D01*
G37*
G36*
X129061017Y-85128833D02*
G01*
X128735573Y-85661041D01*
X128442241Y-86072019D01*
X128153282Y-86398941D01*
X128014920Y-86530676D01*
X127765089Y-86740236D01*
X127602238Y-86832040D01*
X127503057Y-86816827D01*
X127474054Y-86779833D01*
X127475924Y-86672711D01*
X127513443Y-86446659D01*
X127578883Y-86146430D01*
X127594664Y-86081333D01*
X127672966Y-85716160D01*
X127729564Y-85361696D01*
X127752559Y-85092880D01*
X127752607Y-85086500D01*
X127767890Y-84866677D01*
X127804674Y-84739378D01*
X127822828Y-84726667D01*
X127861534Y-84803498D01*
X127866385Y-85010772D01*
X127840390Y-85313661D01*
X127786555Y-85677335D01*
X127707890Y-86066965D01*
X127706587Y-86072610D01*
X127637029Y-86410077D01*
X127622119Y-86602246D01*
X127664317Y-86664911D01*
X127766082Y-86613866D01*
X127788115Y-86596153D01*
X127912214Y-86420026D01*
X128035319Y-86120694D01*
X128142718Y-85743727D01*
X128219695Y-85334697D01*
X128234555Y-85213500D01*
X128286122Y-84726667D01*
X128790106Y-84726667D01*
X129294090Y-84726667D01*
X129061017Y-85128833D01*
G37*
G36*
X131572565Y-86485074D02*
G01*
X131671454Y-86654459D01*
X131796123Y-86908508D01*
X131807955Y-86934417D01*
X132053539Y-87475427D01*
X131549682Y-87709714D01*
X131288335Y-87829152D01*
X131095088Y-87913555D01*
X131013948Y-87944000D01*
X131025063Y-87869924D01*
X131081371Y-87671273D01*
X131111966Y-87574584D01*
X131240797Y-87574584D01*
X131267195Y-87665376D01*
X131362078Y-87676238D01*
X131373500Y-87674218D01*
X131460248Y-87624173D01*
X131510183Y-87490520D01*
X131528197Y-87304767D01*
X131735908Y-87304767D01*
X131750660Y-87467516D01*
X131805961Y-87479445D01*
X131826773Y-87461093D01*
X131875762Y-87327689D01*
X131829348Y-87211326D01*
X131766077Y-87123284D01*
X131740671Y-87174100D01*
X131735908Y-87304767D01*
X131528197Y-87304767D01*
X131534891Y-87235748D01*
X131538824Y-87138844D01*
X131555982Y-86631667D01*
X131397219Y-87055000D01*
X131283825Y-87379309D01*
X131240797Y-87574584D01*
X131111966Y-87574584D01*
X131172456Y-87383415D01*
X131229797Y-87211127D01*
X131343284Y-86883937D01*
X131439567Y-86621989D01*
X131504251Y-86463752D01*
X131519948Y-86435830D01*
X131572565Y-86485074D01*
G37*
G36*
X134273333Y-85909343D02*
G01*
X134270636Y-86387066D01*
X134261022Y-86717779D01*
X134242207Y-86923742D01*
X134211907Y-87027216D01*
X134167840Y-87050461D01*
X134156594Y-87047222D01*
X134052747Y-86948758D01*
X134042932Y-86901712D01*
X134022874Y-86607732D01*
X133923105Y-86355417D01*
X133723000Y-86081333D01*
X133555852Y-85852749D01*
X133448391Y-85651018D01*
X133426667Y-85564079D01*
X133370855Y-85411824D01*
X133228543Y-85204158D01*
X133124479Y-85085256D01*
X132822292Y-84769000D01*
X132873473Y-85065333D01*
X132903233Y-85289785D01*
X132936500Y-85620753D01*
X132967151Y-85995691D01*
X132973741Y-86089763D01*
X132990717Y-86468266D01*
X132980920Y-86801854D01*
X132937787Y-87141469D01*
X132854760Y-87538049D01*
X132725277Y-88042536D01*
X132719485Y-88064025D01*
X132607137Y-88480383D01*
X132555875Y-87931436D01*
X132429808Y-87248510D01*
X132193364Y-86603640D01*
X131867946Y-86054806D01*
X131858616Y-86042503D01*
X131695198Y-85812198D01*
X131618197Y-85629165D01*
X131605575Y-85414276D01*
X131623634Y-85198747D01*
X131672357Y-84726667D01*
X132972845Y-84726667D01*
X134273333Y-84726667D01*
X134273333Y-85909343D01*
G37*
G36*
X125656939Y-84742829D02*
G01*
X125853791Y-84745813D01*
X127373000Y-84769000D01*
X126953388Y-85219764D01*
X126466381Y-85672328D01*
X125854411Y-86131077D01*
X125158975Y-86571139D01*
X124421571Y-86967645D01*
X123683696Y-87295725D01*
X123204503Y-87466522D01*
X122852289Y-87558460D01*
X122434639Y-87638405D01*
X121992623Y-87701893D01*
X121567308Y-87744461D01*
X121199763Y-87761644D01*
X120931058Y-87748978D01*
X120832500Y-87724357D01*
X120741580Y-87608255D01*
X120726667Y-87523844D01*
X120750849Y-87446958D01*
X120843885Y-87390773D01*
X121036510Y-87345556D01*
X121359459Y-87301576D01*
X121467500Y-87289262D01*
X122208333Y-87206724D01*
X121467500Y-87194362D01*
X121137149Y-87182140D01*
X120882851Y-87159957D01*
X120742879Y-87131737D01*
X120727369Y-87118500D01*
X120799653Y-87060324D01*
X120996893Y-86946263D01*
X121290497Y-86791830D01*
X121651875Y-86612537D01*
X121722202Y-86578684D01*
X122265867Y-86296311D01*
X122808684Y-85975253D01*
X123315086Y-85639579D01*
X123749506Y-85313361D01*
X124076375Y-85020667D01*
X124160458Y-84928626D01*
X124226301Y-84855414D01*
X124298584Y-84802387D01*
X124403032Y-84766768D01*
X124565368Y-84745780D01*
X124811315Y-84736645D01*
X125166598Y-84736587D01*
X125656939Y-84742829D01*
G37*
G36*
X132102257Y-96267933D02*
G01*
X131940581Y-96988629D01*
X131617985Y-97677861D01*
X131488416Y-97879131D01*
X131302381Y-98137175D01*
X131190956Y-98258934D01*
X131143857Y-98254639D01*
X131140667Y-98225088D01*
X131184901Y-98134288D01*
X131298929Y-97951030D01*
X131407817Y-97788553D01*
X131648216Y-97384206D01*
X131838848Y-96957879D01*
X131957980Y-96564498D01*
X131987333Y-96323873D01*
X131987333Y-96069562D01*
X131458167Y-96335328D01*
X131180632Y-96488219D01*
X130962330Y-96633254D01*
X130850791Y-96738714D01*
X130673475Y-96961433D01*
X130401588Y-97208211D01*
X130093567Y-97430563D01*
X129865950Y-97555793D01*
X129660817Y-97664363D01*
X129595733Y-97751544D01*
X129624534Y-97817146D01*
X129788606Y-97960076D01*
X129964922Y-97983178D01*
X130179150Y-97879807D01*
X130456956Y-97643315D01*
X130515298Y-97586488D01*
X130730855Y-97381460D01*
X130891445Y-97243670D01*
X130968451Y-97197260D01*
X130971333Y-97201794D01*
X130916056Y-97295211D01*
X130774211Y-97466490D01*
X130581784Y-97677880D01*
X130374756Y-97891631D01*
X130189110Y-98069993D01*
X130060831Y-98175215D01*
X130030659Y-98188667D01*
X129924750Y-98146594D01*
X129729931Y-98038992D01*
X129591410Y-97954144D01*
X129221606Y-97719621D01*
X129651970Y-97529679D01*
X129994774Y-97343156D01*
X130335185Y-97099811D01*
X130618226Y-96842769D01*
X130767243Y-96654869D01*
X130873914Y-96558410D01*
X131091691Y-96411887D01*
X131380491Y-96241502D01*
X131496928Y-96177868D01*
X132149523Y-95828866D01*
X132102257Y-96267933D01*
G37*
G36*
X133833845Y-88185280D02*
G01*
X133887185Y-88303833D01*
X133963952Y-88770323D01*
X134028863Y-89376253D01*
X134080060Y-90092022D01*
X134115685Y-90888034D01*
X134133880Y-91734688D01*
X134135632Y-92262000D01*
X134129978Y-92959202D01*
X134117191Y-93523397D01*
X134094921Y-93990843D01*
X134060818Y-94397797D01*
X134012534Y-94780519D01*
X133947717Y-95175266D01*
X133946332Y-95183000D01*
X133847379Y-95685564D01*
X133728015Y-96215097D01*
X133596982Y-96739865D01*
X133463024Y-97228134D01*
X133334881Y-97648172D01*
X133221295Y-97968245D01*
X133131009Y-98156618D01*
X133124691Y-98165538D01*
X133104172Y-98151282D01*
X133130974Y-98001497D01*
X133199243Y-97741422D01*
X133303124Y-97396293D01*
X133303175Y-97396133D01*
X133625201Y-96194299D01*
X133868112Y-94902729D01*
X134024428Y-93580367D01*
X134086673Y-92286160D01*
X134067320Y-91373000D01*
X134029462Y-90752625D01*
X133986666Y-90158780D01*
X133941141Y-89613292D01*
X133895093Y-89137984D01*
X133850729Y-88754681D01*
X133810258Y-88485209D01*
X133775886Y-88351392D01*
X133760872Y-88342959D01*
X133743247Y-88449236D01*
X133741810Y-88687725D01*
X133755833Y-89022154D01*
X133781757Y-89383333D01*
X133813371Y-89927918D01*
X133828806Y-90589504D01*
X133829130Y-91327143D01*
X133815416Y-92099885D01*
X133788732Y-92866780D01*
X133750148Y-93586880D01*
X133700734Y-94219235D01*
X133642390Y-94717333D01*
X133574499Y-95126178D01*
X133487039Y-95581370D01*
X133385688Y-96060744D01*
X133276123Y-96542135D01*
X133164020Y-97003379D01*
X133055056Y-97422311D01*
X132954909Y-97776767D01*
X132869256Y-98044582D01*
X132803773Y-98203591D01*
X132764139Y-98231631D01*
X132755299Y-98180754D01*
X132778430Y-98029770D01*
X132844332Y-97782922D01*
X132908420Y-97583447D01*
X133017530Y-97219100D01*
X133140824Y-96730108D01*
X133269161Y-96159547D01*
X133393402Y-95550491D01*
X133504407Y-94946016D01*
X133593038Y-94389197D01*
X133606368Y-94294000D01*
X133641147Y-93938900D01*
X133669930Y-93448340D01*
X133692416Y-92856097D01*
X133708303Y-92195949D01*
X133717287Y-91501673D01*
X133719068Y-90807046D01*
X133713342Y-90145847D01*
X133699808Y-89551851D01*
X133678163Y-89058837D01*
X133655801Y-88769500D01*
X133626241Y-88435616D01*
X133623635Y-88236738D01*
X133651072Y-88140225D01*
X133711636Y-88113441D01*
X133717856Y-88113333D01*
X133833845Y-88185280D01*
G37*
G36*
X126730841Y-86250138D02*
G01*
X126814875Y-86314325D01*
X126932566Y-86442807D01*
X126948771Y-86593893D01*
X126912995Y-86743219D01*
X126877444Y-87084766D01*
X126912969Y-87239156D01*
X126997753Y-87386680D01*
X127136025Y-87427649D01*
X127268532Y-87415672D01*
X127503373Y-87370703D01*
X127675419Y-87318630D01*
X127799826Y-87342368D01*
X127914900Y-87487299D01*
X127991929Y-87706397D01*
X128008000Y-87863317D01*
X128001390Y-87964394D01*
X127958401Y-88008315D01*
X127844294Y-87995043D01*
X127624329Y-87924537D01*
X127449405Y-87862689D01*
X127188784Y-87780140D01*
X126816691Y-87675347D01*
X126708173Y-87646975D01*
X127182153Y-87646975D01*
X127309500Y-87716304D01*
X127445555Y-87753898D01*
X127478833Y-87764845D01*
X127497575Y-87705382D01*
X127500000Y-87647667D01*
X127669333Y-87647667D01*
X127713494Y-87817905D01*
X127796333Y-87859333D01*
X127909059Y-87817292D01*
X127923333Y-87781591D01*
X127886868Y-87607967D01*
X127804829Y-87469511D01*
X127744941Y-87436000D01*
X127688088Y-87508509D01*
X127669333Y-87647667D01*
X127500000Y-87647667D01*
X127429414Y-87544238D01*
X127330667Y-87520667D01*
X127185264Y-87561604D01*
X127182153Y-87646975D01*
X126708173Y-87646975D01*
X126386913Y-87562982D01*
X126033815Y-87476577D01*
X125049820Y-87244070D01*
X125342931Y-87067568D01*
X125658505Y-87067568D01*
X125660329Y-87213356D01*
X125800717Y-87320393D01*
X125912500Y-87344649D01*
X125956807Y-87275985D01*
X125975979Y-87100924D01*
X125976000Y-87094354D01*
X125974106Y-87068122D01*
X126145333Y-87068122D01*
X126157255Y-87301173D01*
X126206376Y-87409289D01*
X126312732Y-87435996D01*
X126314667Y-87436000D01*
X126408299Y-87417920D01*
X126459412Y-87338143D01*
X126480453Y-87158358D01*
X126483984Y-86915948D01*
X126653333Y-86915948D01*
X126663182Y-87252077D01*
X126701961Y-87454540D01*
X126783517Y-87558331D01*
X126921697Y-87598443D01*
X126923479Y-87598649D01*
X126930025Y-87539498D01*
X126866782Y-87386733D01*
X126859392Y-87372500D01*
X126774421Y-87035160D01*
X126787858Y-86789844D01*
X126801422Y-86531144D01*
X126755733Y-86390113D01*
X126746112Y-86382680D01*
X126692684Y-86415518D01*
X126662256Y-86600428D01*
X126653333Y-86915948D01*
X126483984Y-86915948D01*
X126484000Y-86914878D01*
X126481588Y-86631652D01*
X126465856Y-86490073D01*
X126424061Y-86462456D01*
X126343459Y-86521116D01*
X126314667Y-86547000D01*
X126187167Y-86744239D01*
X126145429Y-87048547D01*
X126145333Y-87068122D01*
X125974106Y-87068122D01*
X125963567Y-86922120D01*
X125903835Y-86885612D01*
X125806667Y-86928000D01*
X125658505Y-87067568D01*
X125342931Y-87067568D01*
X125517849Y-86962238D01*
X125831315Y-86763122D01*
X126141706Y-86549555D01*
X126310422Y-86423362D01*
X126509029Y-86273428D01*
X126631135Y-86219584D01*
X126730841Y-86250138D01*
G37*
G36*
X133695780Y-87187653D02*
G01*
X133777984Y-87450103D01*
X133853352Y-87585430D01*
X133952379Y-87631678D01*
X134051535Y-87631463D01*
X134198749Y-87644288D01*
X134227933Y-87694963D01*
X134103115Y-87765237D01*
X133919451Y-87765953D01*
X133763365Y-87705163D01*
X133720343Y-87647667D01*
X133644199Y-87425269D01*
X133586906Y-87349374D01*
X133529794Y-87425485D01*
X133454199Y-87659108D01*
X133433192Y-87732333D01*
X133256885Y-88257175D01*
X133070809Y-88632071D01*
X132879560Y-88848138D01*
X132844456Y-88869737D01*
X132754392Y-88956899D01*
X132693230Y-89126768D01*
X132650215Y-89415485D01*
X132635813Y-89570747D01*
X132599522Y-89996201D01*
X132558560Y-90463067D01*
X132529834Y-90781992D01*
X132511567Y-91221489D01*
X132553543Y-91569765D01*
X132607129Y-91755658D01*
X132703644Y-92031850D01*
X132829440Y-92389618D01*
X132955776Y-92747243D01*
X133114762Y-93349352D01*
X133170128Y-93939100D01*
X133123869Y-94482365D01*
X132977976Y-94945025D01*
X132811906Y-95209621D01*
X132757674Y-95367552D01*
X132722562Y-95678847D01*
X132708154Y-96128451D01*
X132707883Y-96198014D01*
X132703924Y-96600623D01*
X132685626Y-96887797D01*
X132641889Y-97113401D01*
X132561615Y-97331301D01*
X132433702Y-97595365D01*
X132410667Y-97640441D01*
X132206786Y-98005778D01*
X132049705Y-98212837D01*
X131936201Y-98265116D01*
X131882404Y-98214302D01*
X131888557Y-98183154D01*
X131923425Y-98183154D01*
X131935006Y-98188667D01*
X132012272Y-98129063D01*
X132029667Y-98104000D01*
X132051241Y-98024846D01*
X132039660Y-98019333D01*
X131962395Y-98078937D01*
X131945000Y-98104000D01*
X131923425Y-98183154D01*
X131888557Y-98183154D01*
X131902477Y-98112681D01*
X131979592Y-97922137D01*
X132114809Y-97922137D01*
X132161322Y-97883614D01*
X132275509Y-97692171D01*
X132330186Y-97587795D01*
X132428820Y-97375709D01*
X132476210Y-97235326D01*
X132474875Y-97208653D01*
X132423443Y-97258283D01*
X132327242Y-97420552D01*
X132258402Y-97555524D01*
X132144368Y-97811514D01*
X132114809Y-97922137D01*
X131979592Y-97922137D01*
X131987456Y-97902707D01*
X132120614Y-97624385D01*
X132165509Y-97537258D01*
X132316158Y-97270304D01*
X132440223Y-97088721D01*
X132517343Y-97020934D01*
X132529433Y-97029258D01*
X132548416Y-97020503D01*
X132543270Y-96879636D01*
X132533993Y-96791667D01*
X132517337Y-96597150D01*
X132535104Y-96557117D01*
X132573139Y-96622333D01*
X132616419Y-96671633D01*
X132641199Y-96583179D01*
X132650224Y-96343409D01*
X132650276Y-96241333D01*
X132643393Y-95960898D01*
X132624688Y-95839799D01*
X132592144Y-95868324D01*
X132580000Y-95902667D01*
X132512212Y-96114333D01*
X132503773Y-95914775D01*
X132462464Y-95769175D01*
X132372645Y-95762296D01*
X132286736Y-95758539D01*
X132297037Y-95686688D01*
X132390339Y-95573864D01*
X132495341Y-95597677D01*
X132516735Y-95627500D01*
X132534348Y-95625821D01*
X132526768Y-95586002D01*
X132555102Y-95462528D01*
X132654592Y-95249519D01*
X132771284Y-95046672D01*
X132939187Y-94735902D01*
X133030667Y-94436435D01*
X133072493Y-94059778D01*
X133073125Y-94048753D01*
X133079847Y-93787384D01*
X133061836Y-93546629D01*
X133010324Y-93283345D01*
X132916539Y-92954392D01*
X132771711Y-92516626D01*
X132747040Y-92444714D01*
X132599306Y-92007839D01*
X132501271Y-91686629D01*
X132445125Y-91437480D01*
X132423060Y-91216786D01*
X132427264Y-90980943D01*
X132444161Y-90753631D01*
X132480895Y-90312223D01*
X132520858Y-89821054D01*
X132550072Y-89453971D01*
X132584266Y-89110964D01*
X132627286Y-88903512D01*
X132688999Y-88797841D01*
X132751175Y-88765653D01*
X132914945Y-88668145D01*
X133063238Y-88455486D01*
X133204479Y-88110722D01*
X133347091Y-87616896D01*
X133372594Y-87514795D01*
X133565682Y-86727640D01*
X133695780Y-87187653D01*
G37*
G36*
X122544568Y-95851509D02*
G01*
X122776000Y-95901539D01*
X123133677Y-95984986D01*
X123330863Y-96031311D01*
X125000280Y-96482515D01*
X126600789Y-97041875D01*
X128193559Y-97731267D01*
X128509855Y-97883394D01*
X129308043Y-98273333D01*
X128018817Y-98273333D01*
X127458655Y-98268351D01*
X127044161Y-98252153D01*
X126751927Y-98222861D01*
X126558546Y-98178598D01*
X126492882Y-98150927D01*
X126177512Y-98022793D01*
X125744971Y-97894161D01*
X125246957Y-97777053D01*
X124735170Y-97683491D01*
X124261309Y-97625496D01*
X124219167Y-97622201D01*
X123877009Y-97599498D01*
X123669831Y-97597295D01*
X123563898Y-97621621D01*
X123525474Y-97678507D01*
X123520667Y-97747052D01*
X123538035Y-97847134D01*
X123606045Y-97924631D01*
X123748553Y-97986924D01*
X123989414Y-98041396D01*
X124352485Y-98095429D01*
X124833000Y-98153155D01*
X125764333Y-98259146D01*
X124875333Y-98236434D01*
X124488145Y-98220459D01*
X124151702Y-98195451D01*
X123910139Y-98165302D01*
X123822077Y-98143629D01*
X123668517Y-98123502D01*
X123624522Y-98173434D01*
X123541456Y-98267568D01*
X123513611Y-98273333D01*
X123483951Y-98193980D01*
X123459567Y-97977125D01*
X123442813Y-97654575D01*
X123436040Y-97258136D01*
X123436000Y-97224058D01*
X123433582Y-96883389D01*
X123605333Y-96883389D01*
X123613247Y-97226876D01*
X123639433Y-97422764D01*
X123687563Y-97492154D01*
X123710861Y-97490268D01*
X123791609Y-97391485D01*
X123861631Y-97189438D01*
X123875315Y-97123380D01*
X123934771Y-96703575D01*
X123935238Y-96497990D01*
X124113333Y-96497990D01*
X124130517Y-96642939D01*
X124197397Y-96631147D01*
X124274460Y-96547554D01*
X124322423Y-96438917D01*
X124242494Y-96380878D01*
X124136706Y-96392375D01*
X124113333Y-96497990D01*
X123935238Y-96497990D01*
X123935399Y-96427369D01*
X123875389Y-96278913D01*
X123774667Y-96241333D01*
X123688470Y-96256180D01*
X123637707Y-96323995D01*
X123613170Y-96479693D01*
X123605650Y-96758188D01*
X123605333Y-96883389D01*
X123433582Y-96883389D01*
X123432812Y-96774853D01*
X123421026Y-96467517D01*
X123397310Y-96274667D01*
X123358333Y-96168921D01*
X123302075Y-96123392D01*
X123167107Y-96078563D01*
X123132742Y-96072000D01*
X123119570Y-96151425D01*
X123108619Y-96368742D01*
X123100902Y-96692513D01*
X123097430Y-97091303D01*
X123097333Y-97172667D01*
X123089195Y-97695087D01*
X123067706Y-98049575D01*
X123037251Y-98236600D01*
X123002219Y-98256632D01*
X122966994Y-98110139D01*
X122935963Y-97797592D01*
X122913514Y-97319459D01*
X122909291Y-97152545D01*
X122897319Y-96693344D01*
X122881470Y-96376657D01*
X122857734Y-96175665D01*
X122822103Y-96063550D01*
X122770567Y-96013491D01*
X122737500Y-96003337D01*
X122677943Y-96005181D01*
X122636806Y-96054437D01*
X122610735Y-96176473D01*
X122596374Y-96396660D01*
X122590372Y-96740368D01*
X122589333Y-97124125D01*
X122583305Y-97608617D01*
X122566029Y-97972616D01*
X122538724Y-98199615D01*
X122504667Y-98273333D01*
X122468090Y-98191853D01*
X122439934Y-97959880D01*
X122421748Y-97596115D01*
X122415269Y-97193833D01*
X122410539Y-96114333D01*
X122250667Y-96495333D01*
X122142346Y-96867622D01*
X122091569Y-97347604D01*
X122086064Y-97574833D01*
X122071452Y-97932691D01*
X122038713Y-98164760D01*
X121996005Y-98261998D01*
X121951486Y-98215367D01*
X121913315Y-98015824D01*
X121895058Y-97786500D01*
X121869667Y-97299667D01*
X121721500Y-97570629D01*
X121619467Y-97816924D01*
X121573536Y-98045759D01*
X121573333Y-98057462D01*
X121538893Y-98225999D01*
X121460790Y-98270866D01*
X121376852Y-98171036D01*
X121375406Y-98167500D01*
X121337153Y-98105108D01*
X121326017Y-98167500D01*
X121273466Y-98252502D01*
X121186593Y-98275682D01*
X121150000Y-98225351D01*
X121196595Y-98133644D01*
X121312632Y-97964363D01*
X121354790Y-97907851D01*
X121476318Y-97721214D01*
X121635195Y-97440834D01*
X121812576Y-97104722D01*
X121989616Y-96750895D01*
X122147469Y-96417366D01*
X122267288Y-96142150D01*
X122330228Y-95963261D01*
X122335333Y-95929978D01*
X122334762Y-95874129D01*
X122351246Y-95840582D01*
X122412082Y-95832116D01*
X122544568Y-95851509D01*
G37*
G36*
X122791671Y-88592518D02*
G01*
X122815979Y-88969983D01*
X122819747Y-89475143D01*
X122805107Y-90067883D01*
X122774189Y-90708088D01*
X122729127Y-91355643D01*
X122672051Y-91970434D01*
X122605092Y-92512347D01*
X122572243Y-92722105D01*
X122296544Y-94040067D01*
X121936533Y-95267136D01*
X121499573Y-96382253D01*
X120993024Y-97364359D01*
X120890731Y-97532251D01*
X120718316Y-97807667D01*
X120767548Y-97172667D01*
X120806741Y-96616286D01*
X120835494Y-96103368D01*
X120853354Y-95655587D01*
X120859869Y-95294616D01*
X120858419Y-95225333D01*
X121076343Y-95225333D01*
X121077892Y-96114333D01*
X121234667Y-95775667D01*
X121311115Y-95566689D01*
X121359591Y-95310562D01*
X121385190Y-94966414D01*
X121392990Y-94505667D01*
X121394539Y-93574333D01*
X121234666Y-93955333D01*
X121153366Y-94199149D01*
X121103777Y-94488670D01*
X121080272Y-94869029D01*
X121076343Y-95225333D01*
X120858419Y-95225333D01*
X120854584Y-95042131D01*
X120837048Y-94919805D01*
X120814434Y-94929000D01*
X120754465Y-95019650D01*
X120732617Y-94979503D01*
X120763777Y-94842227D01*
X120850478Y-94611229D01*
X120939456Y-94410871D01*
X121035397Y-94177379D01*
X121156621Y-93838160D01*
X121291247Y-93431985D01*
X121427391Y-92997629D01*
X121553168Y-92573864D01*
X121656696Y-92199464D01*
X121726091Y-91913201D01*
X121749351Y-91768395D01*
X121771860Y-91693786D01*
X121797518Y-91729169D01*
X121799423Y-91860135D01*
X121762823Y-92098614D01*
X121706167Y-92349841D01*
X121629215Y-92787860D01*
X121587242Y-93343012D01*
X121580976Y-93771671D01*
X121588618Y-94675000D01*
X121748375Y-94082333D01*
X121824674Y-93699946D01*
X121878531Y-93231755D01*
X121908150Y-92728836D01*
X121911736Y-92242266D01*
X121887494Y-91823123D01*
X121837861Y-91536710D01*
X121810824Y-91279718D01*
X121836876Y-91219330D01*
X122111223Y-91219330D01*
X122117819Y-91658577D01*
X122132044Y-91928834D01*
X122154082Y-92030193D01*
X122184115Y-91962749D01*
X122222323Y-91726595D01*
X122268890Y-91321824D01*
X122323996Y-90748530D01*
X122326465Y-90721157D01*
X122359986Y-90213540D01*
X122368203Y-89747537D01*
X122352810Y-89350259D01*
X122315504Y-89048816D01*
X122257981Y-88870318D01*
X122208333Y-88833000D01*
X122177529Y-88915922D01*
X122151877Y-89157833D01*
X122131932Y-89548451D01*
X122118252Y-90077494D01*
X122112076Y-90611000D01*
X122111223Y-91219330D01*
X121836876Y-91219330D01*
X121880195Y-91118920D01*
X121973424Y-90946831D01*
X121996667Y-90848818D01*
X121954912Y-90745928D01*
X121860844Y-90765503D01*
X121761260Y-90892710D01*
X121745305Y-90928500D01*
X121688705Y-91027036D01*
X121666059Y-90992000D01*
X121712309Y-90827691D01*
X121787693Y-90700651D01*
X121865623Y-90503705D01*
X121903214Y-90164480D01*
X121907383Y-89896318D01*
X121902766Y-89256333D01*
X121730369Y-89679667D01*
X121627109Y-89996018D01*
X121585709Y-90322027D01*
X121592559Y-90695667D01*
X121603530Y-90948790D01*
X121595126Y-91153757D01*
X121556291Y-91351543D01*
X121475967Y-91583122D01*
X121343099Y-91889468D01*
X121169911Y-92262000D01*
X121005890Y-92605709D01*
X120877497Y-92863857D01*
X120795660Y-93015358D01*
X120771305Y-93039128D01*
X120775074Y-93024000D01*
X120816938Y-92820873D01*
X120848283Y-92555173D01*
X120867911Y-92266906D01*
X120869082Y-92219667D01*
X121072431Y-92219667D01*
X121234667Y-91923333D01*
X121351182Y-91600345D01*
X121395863Y-91169898D01*
X121396902Y-91076667D01*
X121396902Y-90526333D01*
X121234667Y-90822667D01*
X121118151Y-91145655D01*
X121073470Y-91576101D01*
X121072431Y-91669333D01*
X121072431Y-92219667D01*
X120869082Y-92219667D01*
X120874624Y-91996075D01*
X120867223Y-91782687D01*
X120845018Y-91669333D01*
X120844511Y-91666747D01*
X120815640Y-91669333D01*
X120775500Y-91672185D01*
X120748236Y-91535854D01*
X120732749Y-91250074D01*
X120727963Y-90851435D01*
X120730842Y-90424096D01*
X120746423Y-90117109D01*
X120783051Y-89881549D01*
X120849071Y-89668491D01*
X120952827Y-89429010D01*
X120980671Y-89369769D01*
X121119265Y-89052932D01*
X121230516Y-88755303D01*
X121286427Y-88557833D01*
X121329706Y-88389934D01*
X121410409Y-88309126D01*
X121580196Y-88283194D01*
X121730922Y-88280647D01*
X122052224Y-88262867D01*
X122363448Y-88221178D01*
X122430831Y-88207227D01*
X122737996Y-88135828D01*
X122791671Y-88592518D01*
G37*
G36*
X129130698Y-86164087D02*
G01*
X129148153Y-86396360D01*
X129146312Y-86730804D01*
X129127052Y-87145648D01*
X129092253Y-87619118D01*
X129043791Y-88129444D01*
X128983546Y-88654852D01*
X128913395Y-89173570D01*
X128835217Y-89663826D01*
X128750890Y-90103848D01*
X128662291Y-90471863D01*
X128648482Y-90520423D01*
X128533809Y-90957165D01*
X128490752Y-91242751D01*
X128521552Y-91380496D01*
X128628453Y-91373715D01*
X128813697Y-91225723D01*
X128996175Y-91034333D01*
X129559415Y-90365008D01*
X129926053Y-90365008D01*
X129963260Y-90399333D01*
X130025633Y-90328351D01*
X130040000Y-90230000D01*
X130027414Y-90103000D01*
X130216842Y-90103000D01*
X130217254Y-90441667D01*
X130382558Y-90018333D01*
X130477413Y-89734608D01*
X130535478Y-89481867D01*
X130544382Y-89383333D01*
X130535545Y-89261332D01*
X130500038Y-89263485D01*
X130415471Y-89401228D01*
X130378667Y-89468000D01*
X130268263Y-89761145D01*
X130217256Y-90077089D01*
X130216842Y-90103000D01*
X130027414Y-90103000D01*
X130026342Y-90092178D01*
X130007541Y-90060667D01*
X129963067Y-90130477D01*
X129930801Y-90230000D01*
X129926053Y-90365008D01*
X129559415Y-90365008D01*
X129638789Y-90270684D01*
X130151862Y-89550443D01*
X130456170Y-89036937D01*
X130471609Y-89009098D01*
X130717333Y-89009098D01*
X130726229Y-89198241D01*
X130772222Y-89249929D01*
X130884274Y-89195844D01*
X130886667Y-89194351D01*
X131015684Y-89041197D01*
X131031521Y-88937509D01*
X131237321Y-88937509D01*
X131286940Y-89027469D01*
X131389556Y-89044667D01*
X131502548Y-89018485D01*
X131553113Y-88910037D01*
X131564000Y-88699792D01*
X131557240Y-88584175D01*
X131731634Y-88584175D01*
X131740425Y-88844872D01*
X131797609Y-89089376D01*
X131881500Y-89238131D01*
X131964986Y-89320583D01*
X132012181Y-89314152D01*
X132037336Y-89192409D01*
X132054702Y-88928923D01*
X132055407Y-88915611D01*
X132062314Y-88629338D01*
X132053028Y-88403891D01*
X132037445Y-88314741D01*
X131935581Y-88241310D01*
X131863538Y-88250819D01*
X131772313Y-88366438D01*
X131731634Y-88584175D01*
X131557240Y-88584175D01*
X131551066Y-88478569D01*
X131500347Y-88387286D01*
X131415833Y-88382996D01*
X131300095Y-88473209D01*
X131243738Y-88702066D01*
X131241389Y-88727871D01*
X131237321Y-88937509D01*
X131031521Y-88937509D01*
X131055984Y-88777344D01*
X131056000Y-88770300D01*
X131047461Y-88565759D01*
X131026286Y-88457268D01*
X131019714Y-88452000D01*
X130896257Y-88525842D01*
X130786061Y-88706454D01*
X130722437Y-88932464D01*
X130717333Y-89009098D01*
X130471609Y-89009098D01*
X130624499Y-88733413D01*
X130754015Y-88541415D01*
X130886629Y-88423613D01*
X131064249Y-88342680D01*
X131326137Y-88262059D01*
X131623799Y-88174263D01*
X131868720Y-88100546D01*
X131995528Y-88060842D01*
X132066714Y-88063181D01*
X132116121Y-88146707D01*
X132152968Y-88340895D01*
X132186028Y-88669958D01*
X132213845Y-89059884D01*
X132233428Y-89450999D01*
X132240506Y-89755941D01*
X132239679Y-90187667D01*
X132039549Y-89757874D01*
X131820723Y-89412688D01*
X131564091Y-89207259D01*
X131292237Y-89147237D01*
X131027743Y-89238271D01*
X130816180Y-89451840D01*
X130678121Y-89690503D01*
X130544059Y-89993125D01*
X130423185Y-90326502D01*
X130324690Y-90657432D01*
X130257763Y-90952711D01*
X130231596Y-91179135D01*
X130255378Y-91303502D01*
X130300662Y-91314335D01*
X130375024Y-91218755D01*
X130462617Y-91004423D01*
X130540579Y-90732729D01*
X130607399Y-90479668D01*
X130660099Y-90328834D01*
X130687834Y-90310884D01*
X130688463Y-90314667D01*
X130741826Y-90680267D01*
X130784206Y-90901155D01*
X130824312Y-91000803D01*
X130870855Y-91002683D01*
X130922226Y-90944613D01*
X131074538Y-90840579D01*
X131172677Y-90849323D01*
X131336707Y-90982323D01*
X131357281Y-91172102D01*
X131264813Y-91333820D01*
X131171992Y-91448945D01*
X131202331Y-91492943D01*
X131377337Y-91500000D01*
X131614925Y-91449910D01*
X131733169Y-91351833D01*
X131793130Y-91269951D01*
X131790708Y-91330796D01*
X131769191Y-91415333D01*
X131723247Y-91574188D01*
X131701649Y-91630526D01*
X131622035Y-91655501D01*
X131421049Y-91718382D01*
X131138947Y-91806576D01*
X131079638Y-91825112D01*
X130690980Y-91960278D01*
X130461144Y-92074932D01*
X130381584Y-92174316D01*
X130409425Y-92236314D01*
X130516938Y-92241895D01*
X130735408Y-92193887D01*
X131021065Y-92107496D01*
X131330136Y-91997929D01*
X131618850Y-91880390D01*
X131843435Y-91770086D01*
X131939737Y-91704701D01*
X132134744Y-91528402D01*
X132116948Y-91754625D01*
X132043842Y-91981709D01*
X131916243Y-92163757D01*
X131755170Y-92410189D01*
X131747269Y-92641922D01*
X131877393Y-92825733D01*
X132130397Y-92928401D01*
X132269818Y-92939333D01*
X132458795Y-93018097D01*
X132587706Y-93251480D01*
X132654778Y-93635115D01*
X132664667Y-93911118D01*
X132581522Y-94399621D01*
X132337155Y-94865996D01*
X131939163Y-95301266D01*
X131395146Y-95696453D01*
X130951665Y-95934851D01*
X130233386Y-96247837D01*
X129570689Y-96465878D01*
X128895350Y-96609551D01*
X128558333Y-96656737D01*
X128071140Y-96711124D01*
X127713542Y-96737080D01*
X127448020Y-96733523D01*
X127237061Y-96699372D01*
X127043148Y-96633547D01*
X126992000Y-96611601D01*
X126244491Y-96311804D01*
X125379285Y-96018059D01*
X124447656Y-95747480D01*
X124240333Y-95693136D01*
X123696867Y-95553436D01*
X123295996Y-95451968D01*
X123016091Y-95385689D01*
X122835521Y-95351555D01*
X122732656Y-95346522D01*
X122685867Y-95367547D01*
X122673522Y-95411585D01*
X122674000Y-95472723D01*
X122639513Y-95632717D01*
X122597780Y-95685779D01*
X122550109Y-95652748D01*
X122548455Y-95480580D01*
X122590188Y-95192336D01*
X122610450Y-95098687D01*
X122779312Y-95098687D01*
X122824522Y-95162072D01*
X122944362Y-95222462D01*
X123164697Y-95290954D01*
X123511391Y-95378648D01*
X123746234Y-95434587D01*
X124378825Y-95594909D01*
X125032837Y-95780061D01*
X125665368Y-95976496D01*
X126233517Y-96170668D01*
X126694384Y-96349029D01*
X126827310Y-96407468D01*
X127023454Y-96486878D01*
X127220400Y-96533986D01*
X127464085Y-96553530D01*
X127800448Y-96550250D01*
X128092667Y-96538022D01*
X128518499Y-96508229D01*
X128931365Y-96463289D01*
X129270213Y-96410541D01*
X129405000Y-96380294D01*
X129828333Y-96265237D01*
X129108667Y-96265699D01*
X128716446Y-96252304D01*
X128346182Y-96205041D01*
X127965095Y-96114091D01*
X127540402Y-95969633D01*
X127039324Y-95761847D01*
X126429079Y-95480913D01*
X126327698Y-95432621D01*
X125727949Y-95130764D01*
X125366330Y-94929155D01*
X127697058Y-94929155D01*
X127762521Y-95018933D01*
X127899405Y-95073439D01*
X128154069Y-95151917D01*
X128478904Y-95241993D01*
X128826303Y-95331290D01*
X129148659Y-95407435D01*
X129398364Y-95458053D01*
X129504251Y-95471663D01*
X129673527Y-95426450D01*
X129906544Y-95302337D01*
X130054198Y-95200154D01*
X130313680Y-94970176D01*
X130446182Y-94788880D01*
X130457980Y-94675414D01*
X130355353Y-94648924D01*
X130144578Y-94728560D01*
X129940832Y-94854383D01*
X129777100Y-94962301D01*
X129639819Y-95021810D01*
X129479335Y-95038846D01*
X129245995Y-95019346D01*
X128930606Y-94975165D01*
X128581444Y-94918688D01*
X128277017Y-94859801D01*
X128072663Y-94809440D01*
X128046049Y-94800371D01*
X127878589Y-94782819D01*
X127747434Y-94837174D01*
X127697058Y-94929155D01*
X125366330Y-94929155D01*
X125184904Y-94828007D01*
X124721706Y-94539099D01*
X124361497Y-94278789D01*
X124127419Y-94061825D01*
X124080704Y-94000595D01*
X123988994Y-93774603D01*
X123949352Y-93525539D01*
X129036683Y-93525539D01*
X129078429Y-93626792D01*
X129172167Y-93692417D01*
X129404614Y-93737857D01*
X129713324Y-93676638D01*
X129913000Y-93592279D01*
X130101723Y-93447108D01*
X130169714Y-93290757D01*
X130115934Y-93164612D01*
X129939343Y-93110058D01*
X129925108Y-93109963D01*
X129806143Y-93123576D01*
X129841811Y-93176167D01*
X129870667Y-93196239D01*
X129946729Y-93274491D01*
X129890352Y-93360856D01*
X129833318Y-93406609D01*
X129619008Y-93507819D01*
X129470505Y-93532000D01*
X129358049Y-93519569D01*
X129327819Y-93463504D01*
X129386458Y-93335640D01*
X129396815Y-93320333D01*
X129616667Y-93320333D01*
X129659000Y-93362667D01*
X129701333Y-93320333D01*
X129659000Y-93278000D01*
X129616667Y-93320333D01*
X129396815Y-93320333D01*
X129540611Y-93107818D01*
X129585362Y-93045167D01*
X129621651Y-92981667D01*
X129786000Y-92981667D01*
X129828333Y-93024000D01*
X129870667Y-92981667D01*
X129828333Y-92939333D01*
X129786000Y-92981667D01*
X129621651Y-92981667D01*
X129668308Y-92900023D01*
X129647475Y-92857135D01*
X129546939Y-92907730D01*
X129390776Y-93043039D01*
X129286771Y-93153946D01*
X129103611Y-93379760D01*
X129036683Y-93525539D01*
X123949352Y-93525539D01*
X123944733Y-93496520D01*
X123944000Y-93461133D01*
X123933813Y-93250679D01*
X123871655Y-93145760D01*
X123710132Y-93093995D01*
X123594030Y-93074346D01*
X123372168Y-93045219D01*
X123235503Y-93039282D01*
X123218655Y-93043789D01*
X123192003Y-93131930D01*
X123139614Y-93350718D01*
X123069646Y-93664892D01*
X123007428Y-93956764D01*
X122926725Y-94341499D01*
X122855702Y-94678734D01*
X122803543Y-94924948D01*
X122782870Y-95021209D01*
X122779312Y-95098687D01*
X122610450Y-95098687D01*
X122672680Y-94811075D01*
X122717820Y-94632667D01*
X122808893Y-94250232D01*
X122901327Y-93805054D01*
X122965925Y-93447333D01*
X123030299Y-93107618D01*
X123092018Y-92914221D01*
X123159491Y-92844493D01*
X123189196Y-92845931D01*
X123337281Y-92871139D01*
X123588167Y-92899617D01*
X123774667Y-92916097D01*
X124162058Y-92911283D01*
X124412249Y-92819943D01*
X124537518Y-92635120D01*
X124557833Y-92472180D01*
X124494453Y-92230418D01*
X124295449Y-92030938D01*
X123947524Y-91862881D01*
X123722257Y-91789761D01*
X123696324Y-91782222D01*
X124226222Y-91782222D01*
X124237844Y-91832556D01*
X124282667Y-91838667D01*
X124352357Y-91807688D01*
X124339111Y-91782222D01*
X124238631Y-91772089D01*
X124226222Y-91782222D01*
X123696324Y-91782222D01*
X123266666Y-91657318D01*
X123266666Y-91076667D01*
X123378433Y-91076667D01*
X123382768Y-91309272D01*
X123394204Y-91412841D01*
X123410385Y-91368395D01*
X123412581Y-91351833D01*
X123426592Y-91054948D01*
X123412581Y-90801500D01*
X123395980Y-90737598D01*
X123383836Y-90824038D01*
X123378503Y-91041842D01*
X123378433Y-91076667D01*
X123266666Y-91076667D01*
X123266666Y-90724935D01*
X123619029Y-90724935D01*
X123622444Y-91117889D01*
X123629657Y-91401866D01*
X123640395Y-91549684D01*
X123643196Y-91561214D01*
X123739594Y-91672677D01*
X123852873Y-91651540D01*
X123932533Y-91520555D01*
X123936807Y-91485199D01*
X124113333Y-91485199D01*
X124185455Y-91554315D01*
X124360449Y-91637774D01*
X124576260Y-91711547D01*
X124770832Y-91751607D01*
X124806321Y-91753528D01*
X124918518Y-91784011D01*
X125102655Y-91855202D01*
X125326779Y-91935671D01*
X125655504Y-92036090D01*
X126043467Y-92144585D01*
X126445308Y-92249286D01*
X126815665Y-92338321D01*
X127109174Y-92399816D01*
X127267167Y-92421696D01*
X127454700Y-92389596D01*
X127500000Y-92304333D01*
X127427594Y-92201265D01*
X127309500Y-92176373D01*
X127161744Y-92153212D01*
X126886845Y-92090279D01*
X126519899Y-91996304D01*
X126096003Y-91880017D01*
X125946772Y-91837418D01*
X125317770Y-91660291D01*
X124835915Y-91534918D01*
X124487964Y-91458752D01*
X124260672Y-91429251D01*
X124140797Y-91443869D01*
X124113333Y-91485199D01*
X123936807Y-91485199D01*
X123944000Y-91425700D01*
X123902241Y-91210834D01*
X123817000Y-91076667D01*
X123735373Y-90919173D01*
X123696899Y-90658108D01*
X123699417Y-90494214D01*
X123840324Y-90494214D01*
X123861602Y-90760796D01*
X123904953Y-90958977D01*
X123935895Y-91017762D01*
X124059597Y-91052143D01*
X124186473Y-90949620D01*
X124288138Y-90739654D01*
X124317395Y-90621761D01*
X124472103Y-90232130D01*
X124762612Y-89892311D01*
X125157830Y-89623463D01*
X125626666Y-89446750D01*
X126136921Y-89383333D01*
X126367542Y-89386443D01*
X126450968Y-89406630D01*
X126409337Y-89460183D01*
X126324562Y-89521398D01*
X126126338Y-89737986D01*
X125970345Y-90045967D01*
X125893824Y-90367476D01*
X125891333Y-90427206D01*
X125920441Y-90575048D01*
X126040759Y-90599892D01*
X126089637Y-90591943D01*
X126316397Y-90616835D01*
X126478249Y-90755491D01*
X126556566Y-90958792D01*
X126532720Y-91177615D01*
X126388081Y-91362838D01*
X126383275Y-91366251D01*
X126257128Y-91465865D01*
X126257899Y-91536765D01*
X126395620Y-91628431D01*
X126441667Y-91654272D01*
X126748334Y-91745779D01*
X127042868Y-91669186D01*
X127252513Y-91506513D01*
X127410514Y-91307748D01*
X127495379Y-91121603D01*
X127500000Y-91083179D01*
X127534276Y-90942101D01*
X127584667Y-90907333D01*
X127651199Y-90979124D01*
X127670489Y-91097833D01*
X127696897Y-91365180D01*
X127761461Y-91572123D01*
X127847300Y-91667732D01*
X127859918Y-91669333D01*
X127909933Y-91594017D01*
X127923749Y-91395407D01*
X127906132Y-91114516D01*
X127861849Y-90792353D01*
X127795665Y-90469930D01*
X127712348Y-90188256D01*
X127677718Y-90101636D01*
X127361039Y-89559188D01*
X126954831Y-89159113D01*
X126462791Y-88903936D01*
X125888614Y-88796180D01*
X125760588Y-88792526D01*
X125425161Y-88808497D01*
X125157162Y-88876045D01*
X124867456Y-89020276D01*
X124790218Y-89065833D01*
X124314611Y-89422224D01*
X124002394Y-89822598D01*
X123853656Y-90266823D01*
X123840324Y-90494214D01*
X123699417Y-90494214D01*
X123701577Y-90353644D01*
X123749409Y-90065953D01*
X123817000Y-89891333D01*
X123885139Y-89680034D01*
X123925995Y-89325760D01*
X123940959Y-88816330D01*
X123941000Y-88805625D01*
X123940372Y-88607108D01*
X124129223Y-88607108D01*
X124129648Y-88973933D01*
X124137747Y-89197300D01*
X124159968Y-89303081D01*
X124202760Y-89317146D01*
X124272571Y-89265367D01*
X124289496Y-89250153D01*
X124372301Y-89147427D01*
X124421834Y-88996834D01*
X124445824Y-88757778D01*
X124451725Y-88412645D01*
X124621333Y-88412645D01*
X124624597Y-88706960D01*
X124642058Y-88863403D01*
X124685223Y-88913415D01*
X124765600Y-88888437D01*
X124790667Y-88875333D01*
X124892862Y-88787196D01*
X124944362Y-88632533D01*
X124959861Y-88363324D01*
X124959990Y-88325000D01*
X125129333Y-88325000D01*
X125140413Y-88563095D01*
X125186418Y-88675683D01*
X125286502Y-88705854D01*
X125298667Y-88706000D01*
X125404486Y-88681071D01*
X125454526Y-88577558D01*
X125467935Y-88352370D01*
X125468000Y-88325000D01*
X125637333Y-88325000D01*
X125656275Y-88529239D01*
X125730222Y-88611647D01*
X125806667Y-88621333D01*
X125932370Y-88579611D01*
X125974909Y-88426383D01*
X125975101Y-88417593D01*
X126145333Y-88417593D01*
X126165433Y-88618486D01*
X126243295Y-88697857D01*
X126314667Y-88706000D01*
X126440532Y-88664108D01*
X126467696Y-88565736D01*
X126653333Y-88565736D01*
X126691844Y-88809585D01*
X126822105Y-88929646D01*
X126933611Y-88953316D01*
X126971419Y-88883610D01*
X126977597Y-88747365D01*
X127161333Y-88747365D01*
X127204031Y-89086045D01*
X127309500Y-89301246D01*
X127393283Y-89390056D01*
X127440370Y-89388284D01*
X127465278Y-89270173D01*
X127476768Y-89096803D01*
X127669333Y-89096803D01*
X127686821Y-89367234D01*
X127732573Y-89680589D01*
X127796521Y-89992695D01*
X127868594Y-90259381D01*
X127938725Y-90436476D01*
X127985539Y-90484000D01*
X127994382Y-90404905D01*
X128001586Y-90189905D01*
X128006380Y-89872423D01*
X128007184Y-89692789D01*
X128177333Y-89692789D01*
X128178036Y-90153681D01*
X128182727Y-90468167D01*
X128195276Y-90659176D01*
X128219555Y-90749634D01*
X128259436Y-90762471D01*
X128318789Y-90720613D01*
X128346667Y-90695667D01*
X128414054Y-90621243D01*
X128460603Y-90521293D01*
X128489907Y-90366302D01*
X128505559Y-90126755D01*
X128511154Y-89773137D01*
X128510633Y-89349044D01*
X128503768Y-88845466D01*
X128488401Y-88509953D01*
X128464448Y-88341447D01*
X128431821Y-88338890D01*
X128428695Y-88346167D01*
X128337949Y-88492847D01*
X128264728Y-88536667D01*
X128226275Y-88619489D01*
X128198401Y-88861152D01*
X128181877Y-89251445D01*
X128177333Y-89692789D01*
X128007184Y-89692789D01*
X128008000Y-89510333D01*
X128006204Y-89091987D01*
X127997495Y-88814316D01*
X127976890Y-88648671D01*
X127939408Y-88566404D01*
X127880065Y-88538867D01*
X127838667Y-88536667D01*
X127747663Y-88553532D01*
X127696590Y-88628880D01*
X127674221Y-88799840D01*
X127669333Y-89096803D01*
X127476768Y-89096803D01*
X127482524Y-89009960D01*
X127483456Y-88992568D01*
X127481572Y-88656094D01*
X127430390Y-88471673D01*
X127398789Y-88439983D01*
X127263298Y-88378174D01*
X127190879Y-88427640D01*
X127163629Y-88611553D01*
X127161333Y-88747365D01*
X126977597Y-88747365D01*
X126979643Y-88702240D01*
X126975944Y-88643204D01*
X126923994Y-88401898D01*
X126813587Y-88301065D01*
X126801500Y-88298329D01*
X126699736Y-88313540D01*
X126658151Y-88437030D01*
X126653333Y-88565736D01*
X126467696Y-88565736D01*
X126482963Y-88510446D01*
X126484000Y-88461875D01*
X126439748Y-88257194D01*
X126314667Y-88173468D01*
X126199679Y-88167865D01*
X126152679Y-88260526D01*
X126145333Y-88417593D01*
X125975101Y-88417593D01*
X125976000Y-88376392D01*
X125931555Y-88170174D01*
X125842075Y-88080058D01*
X125709118Y-88038636D01*
X125651459Y-88078445D01*
X125637637Y-88237122D01*
X125637333Y-88325000D01*
X125468000Y-88325000D01*
X125456920Y-88086905D01*
X125410915Y-87974317D01*
X125310831Y-87944145D01*
X125298667Y-87944000D01*
X125192847Y-87968929D01*
X125142807Y-88072442D01*
X125129398Y-88297629D01*
X125129333Y-88325000D01*
X124959990Y-88325000D01*
X124960000Y-88322021D01*
X124952555Y-88053963D01*
X124920403Y-87914711D01*
X124848820Y-87864036D01*
X124790667Y-87859333D01*
X124699221Y-87876397D01*
X124648134Y-87952474D01*
X124625982Y-88124893D01*
X124621333Y-88412645D01*
X124451725Y-88412645D01*
X124452000Y-88396544D01*
X124444982Y-88074800D01*
X124426279Y-87830104D01*
X124399412Y-87701588D01*
X124388500Y-87691296D01*
X124271634Y-87724064D01*
X124194827Y-87834215D01*
X124150631Y-88048057D01*
X124131598Y-88391898D01*
X124129223Y-88607108D01*
X123940372Y-88607108D01*
X123939756Y-88412481D01*
X123929500Y-88159990D01*
X123905317Y-88019521D01*
X123862292Y-87962442D01*
X123795833Y-87960060D01*
X123745523Y-87982884D01*
X123707365Y-88043832D01*
X123679257Y-88164538D01*
X123659095Y-88366634D01*
X123644778Y-88671752D01*
X123634201Y-89101524D01*
X123625264Y-89677584D01*
X123624687Y-89720816D01*
X123619686Y-90250184D01*
X123619029Y-90724935D01*
X123266666Y-90724935D01*
X123266666Y-90702830D01*
X123272356Y-90187810D01*
X123287586Y-89612357D01*
X123309602Y-89069466D01*
X123321521Y-88851811D01*
X123376376Y-87955280D01*
X123864201Y-87772846D01*
X123999733Y-87719046D01*
X124106786Y-87676523D01*
X124205678Y-87647961D01*
X124316728Y-87636042D01*
X124460252Y-87643452D01*
X124656570Y-87672875D01*
X124925998Y-87726993D01*
X125288856Y-87808491D01*
X125765460Y-87920054D01*
X126376129Y-88064363D01*
X126765617Y-88156107D01*
X127301255Y-88276976D01*
X127693898Y-88353143D01*
X127963058Y-88387501D01*
X128128245Y-88382944D01*
X128180140Y-88365831D01*
X128304675Y-88225233D01*
X128685333Y-88225233D01*
X128687236Y-88709126D01*
X128692524Y-89125706D01*
X128700565Y-89449108D01*
X128710727Y-89653466D01*
X128721699Y-89713856D01*
X128744267Y-89620945D01*
X128780778Y-89391616D01*
X128826649Y-89057770D01*
X128877300Y-88651308D01*
X128890930Y-88535578D01*
X128941695Y-88061204D01*
X128983528Y-87597826D01*
X129012290Y-87196553D01*
X129023840Y-86908493D01*
X129023897Y-86893711D01*
X129021382Y-86617974D01*
X129004658Y-86483813D01*
X128960179Y-86463475D01*
X128874397Y-86529204D01*
X128854667Y-86547000D01*
X128794125Y-86612647D01*
X128749976Y-86700571D01*
X128719656Y-86836192D01*
X128700600Y-87044930D01*
X128690243Y-87352204D01*
X128686019Y-87783434D01*
X128685333Y-88225233D01*
X128304675Y-88225233D01*
X128328322Y-88198536D01*
X128400698Y-87926991D01*
X128390428Y-87601600D01*
X128319403Y-87339664D01*
X128216693Y-87078190D01*
X128388906Y-87078190D01*
X128401756Y-87142378D01*
X128467969Y-87257694D01*
X128508087Y-87208419D01*
X128516000Y-87092336D01*
X128484741Y-86974291D01*
X128435031Y-86968048D01*
X128388906Y-87078190D01*
X128216693Y-87078190D01*
X128186417Y-87001114D01*
X128545611Y-86647057D01*
X128765838Y-86417146D01*
X128950792Y-86201814D01*
X129030388Y-86093144D01*
X129092069Y-86055757D01*
X129130698Y-86164087D01*
G37*
%TO.C,RV1*%
D12*
X156390000Y-71000000D02*
X156390000Y-80920000D01*
X161610000Y-71000000D02*
X156390000Y-71000000D01*
X161610000Y-71000000D02*
X161610000Y-73120000D01*
X161610000Y-73820000D02*
X161610000Y-80920000D01*
X161610000Y-80920000D02*
X156390000Y-80920000D01*
X161940000Y-73660000D02*
X161610000Y-73420000D01*
X161940000Y-73180000D01*
X161940000Y-73660000D01*
G36*
X161940000Y-73660000D02*
G01*
X161610000Y-73420000D01*
X161940000Y-73180000D01*
X161940000Y-73660000D01*
G37*
%TO.C,D5*%
X165290000Y-114420000D02*
X165290000Y-114264000D01*
X165290000Y-116736000D02*
X165290000Y-116580000D01*
X162058563Y-114420000D02*
G75*
G02*
X165290000Y-114264484I1671437J-1080000D01*
G01*
X162689039Y-114420000D02*
G75*
G02*
X164770961Y-114420000I1040961J-1080000D01*
G01*
X164770961Y-116580000D02*
G75*
G02*
X162689039Y-116580000I-1040961J1080000D01*
G01*
X165290000Y-116735516D02*
G75*
G02*
X162058563Y-116580000I-1560000J1235516D01*
G01*
%TO.C,D3*%
X121440000Y-102764000D02*
X121440000Y-102920000D01*
X121440000Y-105080000D02*
X121440000Y-105236000D01*
X121440000Y-102764484D02*
G75*
G02*
X124671437Y-102920000I1560000J-1235516D01*
G01*
X121959039Y-102920000D02*
G75*
G02*
X124040961Y-102920000I1040961J-1080000D01*
G01*
X124040961Y-105080000D02*
G75*
G02*
X121959039Y-105080000I-1040961J1080000D01*
G01*
X124671437Y-105080000D02*
G75*
G02*
X121440000Y-105235516I-1671437J1080000D01*
G01*
%TO.C,R1*%
X149420000Y-66630000D02*
X155960000Y-66630000D01*
X149420000Y-66960000D02*
X149420000Y-66630000D01*
X149420000Y-69040000D02*
X149420000Y-69370000D01*
X149420000Y-69370000D02*
X155960000Y-69370000D01*
X155960000Y-66630000D02*
X155960000Y-66960000D01*
X155960000Y-69370000D02*
X155960000Y-69040000D01*
%TO.C,U1*%
X144860000Y-76350000D02*
X144860000Y-78000000D01*
X144860000Y-80000000D02*
X144860000Y-81650000D01*
X144860000Y-81650000D02*
X155140000Y-81650000D01*
X155140000Y-76350000D02*
X144860000Y-76350000D01*
X155140000Y-81650000D02*
X155140000Y-76350000D01*
X144860000Y-78000000D02*
G75*
G02*
X144860000Y-80000000I0J-1000000D01*
G01*
%TO.C,C3*%
X137240113Y-94525000D02*
X137740113Y-94525000D01*
X137490113Y-94275000D02*
X137490113Y-94775000D01*
X140044888Y-93420000D02*
X140044888Y-94960000D01*
X140044888Y-97040000D02*
X140044888Y-98580000D01*
X140084888Y-93420000D02*
X140084888Y-94960000D01*
X140084888Y-97040000D02*
X140084888Y-98580000D01*
X140124888Y-93421000D02*
X140124888Y-94960000D01*
X140124888Y-97040000D02*
X140124888Y-98579000D01*
X140164888Y-93423000D02*
X140164888Y-94960000D01*
X140164888Y-97040000D02*
X140164888Y-98577000D01*
X140204888Y-93425000D02*
X140204888Y-94960000D01*
X140204888Y-97040000D02*
X140204888Y-98575000D01*
X140244888Y-93428000D02*
X140244888Y-94960000D01*
X140244888Y-97040000D02*
X140244888Y-98572000D01*
X140284888Y-93431000D02*
X140284888Y-94960000D01*
X140284888Y-97040000D02*
X140284888Y-98569000D01*
X140324888Y-93435000D02*
X140324888Y-94960000D01*
X140324888Y-97040000D02*
X140324888Y-98565000D01*
X140364888Y-93440000D02*
X140364888Y-94960000D01*
X140364888Y-97040000D02*
X140364888Y-98560000D01*
X140404888Y-93445000D02*
X140404888Y-94960000D01*
X140404888Y-97040000D02*
X140404888Y-98555000D01*
X140444888Y-93451000D02*
X140444888Y-94960000D01*
X140444888Y-97040000D02*
X140444888Y-98549000D01*
X140484888Y-93457000D02*
X140484888Y-94960000D01*
X140484888Y-97040000D02*
X140484888Y-98543000D01*
X140524888Y-93464000D02*
X140524888Y-94960000D01*
X140524888Y-97040000D02*
X140524888Y-98536000D01*
X140564888Y-93472000D02*
X140564888Y-94960000D01*
X140564888Y-97040000D02*
X140564888Y-98528000D01*
X140604888Y-93481000D02*
X140604888Y-94960000D01*
X140604888Y-97040000D02*
X140604888Y-98519000D01*
X140644888Y-93490000D02*
X140644888Y-94960000D01*
X140644888Y-97040000D02*
X140644888Y-98510000D01*
X140684888Y-93499000D02*
X140684888Y-94960000D01*
X140684888Y-97040000D02*
X140684888Y-98501000D01*
X140724888Y-93510000D02*
X140724888Y-94960000D01*
X140724888Y-97040000D02*
X140724888Y-98490000D01*
X140764888Y-93521000D02*
X140764888Y-94960000D01*
X140764888Y-97040000D02*
X140764888Y-98479000D01*
X140804888Y-93533000D02*
X140804888Y-94960000D01*
X140804888Y-97040000D02*
X140804888Y-98467000D01*
X140844888Y-93545000D02*
X140844888Y-94960000D01*
X140844888Y-97040000D02*
X140844888Y-98455000D01*
X140884888Y-93558000D02*
X140884888Y-94960000D01*
X140884888Y-97040000D02*
X140884888Y-98442000D01*
X140924888Y-93572000D02*
X140924888Y-94960000D01*
X140924888Y-97040000D02*
X140924888Y-98428000D01*
X140964888Y-93587000D02*
X140964888Y-94960000D01*
X140964888Y-97040000D02*
X140964888Y-98413000D01*
X141004888Y-93602000D02*
X141004888Y-94960000D01*
X141004888Y-97040000D02*
X141004888Y-98398000D01*
X141044888Y-93618000D02*
X141044888Y-94960000D01*
X141044888Y-97040000D02*
X141044888Y-98382000D01*
X141084888Y-93635000D02*
X141084888Y-94960000D01*
X141084888Y-97040000D02*
X141084888Y-98365000D01*
X141124888Y-93653000D02*
X141124888Y-94960000D01*
X141124888Y-97040000D02*
X141124888Y-98347000D01*
X141164888Y-93671000D02*
X141164888Y-94960000D01*
X141164888Y-97040000D02*
X141164888Y-98329000D01*
X141204888Y-93691000D02*
X141204888Y-94960000D01*
X141204888Y-97040000D02*
X141204888Y-98309000D01*
X141244888Y-93711000D02*
X141244888Y-94960000D01*
X141244888Y-97040000D02*
X141244888Y-98289000D01*
X141284888Y-93732000D02*
X141284888Y-94960000D01*
X141284888Y-97040000D02*
X141284888Y-98268000D01*
X141324888Y-93754000D02*
X141324888Y-94960000D01*
X141324888Y-97040000D02*
X141324888Y-98246000D01*
X141364888Y-93777000D02*
X141364888Y-94960000D01*
X141364888Y-97040000D02*
X141364888Y-98223000D01*
X141404888Y-93801000D02*
X141404888Y-94960000D01*
X141404888Y-97040000D02*
X141404888Y-98199000D01*
X141444888Y-93825000D02*
X141444888Y-94960000D01*
X141444888Y-97040000D02*
X141444888Y-98175000D01*
X141484888Y-93851000D02*
X141484888Y-94960000D01*
X141484888Y-97040000D02*
X141484888Y-98149000D01*
X141524888Y-93878000D02*
X141524888Y-94960000D01*
X141524888Y-97040000D02*
X141524888Y-98122000D01*
X141564888Y-93906000D02*
X141564888Y-94960000D01*
X141564888Y-97040000D02*
X141564888Y-98094000D01*
X141604888Y-93935000D02*
X141604888Y-94960000D01*
X141604888Y-97040000D02*
X141604888Y-98065000D01*
X141644888Y-93965000D02*
X141644888Y-94960000D01*
X141644888Y-97040000D02*
X141644888Y-98035000D01*
X141684888Y-93997000D02*
X141684888Y-94960000D01*
X141684888Y-97040000D02*
X141684888Y-98003000D01*
X141724888Y-94030000D02*
X141724888Y-94960000D01*
X141724888Y-97040000D02*
X141724888Y-97970000D01*
X141764888Y-94064000D02*
X141764888Y-94960000D01*
X141764888Y-97040000D02*
X141764888Y-97936000D01*
X141804888Y-94099000D02*
X141804888Y-94960000D01*
X141804888Y-97040000D02*
X141804888Y-97901000D01*
X141844888Y-94136000D02*
X141844888Y-94960000D01*
X141844888Y-97040000D02*
X141844888Y-97864000D01*
X141884888Y-94175000D02*
X141884888Y-94960000D01*
X141884888Y-97040000D02*
X141884888Y-97825000D01*
X141924888Y-94215000D02*
X141924888Y-94960000D01*
X141924888Y-97040000D02*
X141924888Y-97785000D01*
X141964888Y-94257000D02*
X141964888Y-94960000D01*
X141964888Y-97040000D02*
X141964888Y-97743000D01*
X142004888Y-94301000D02*
X142004888Y-94960000D01*
X142004888Y-97040000D02*
X142004888Y-97699000D01*
X142044888Y-94348000D02*
X142044888Y-94960000D01*
X142044888Y-97040000D02*
X142044888Y-97652000D01*
X142084888Y-94396000D02*
X142084888Y-97604000D01*
X142124888Y-94447000D02*
X142124888Y-97553000D01*
X142164888Y-94501000D02*
X142164888Y-97499000D01*
X142204888Y-94557000D02*
X142204888Y-97443000D01*
X142244888Y-94617000D02*
X142244888Y-97383000D01*
X142284888Y-94681000D02*
X142284888Y-97319000D01*
X142324888Y-94749000D02*
X142324888Y-97251000D01*
X142364888Y-94823000D02*
X142364888Y-97177000D01*
X142404888Y-94902000D02*
X142404888Y-97098000D01*
X142444888Y-94989000D02*
X142444888Y-97011000D01*
X142484888Y-95086000D02*
X142484888Y-96914000D01*
X142524888Y-95195000D02*
X142524888Y-96805000D01*
X142564888Y-95323000D02*
X142564888Y-96677000D01*
X142604888Y-95483000D02*
X142604888Y-96517000D01*
X142644888Y-95717000D02*
X142644888Y-96283000D01*
X142664888Y-96000000D02*
G75*
G02*
X137424888Y-96000000I-2620000J0D01*
G01*
X137424888Y-96000000D02*
G75*
G02*
X142664888Y-96000000I2620000J0D01*
G01*
%TO.C,D8*%
X188290000Y-60920000D02*
X188290000Y-60764000D01*
X188290000Y-63236000D02*
X188290000Y-63080000D01*
X185058563Y-60920000D02*
G75*
G02*
X188290000Y-60764484I1671437J-1080000D01*
G01*
X185689039Y-60920000D02*
G75*
G02*
X187770961Y-60920000I1040961J-1080000D01*
G01*
X187770961Y-63080000D02*
G75*
G02*
X185689039Y-63080000I-1040961J1080000D01*
G01*
X188290000Y-63235516D02*
G75*
G02*
X185058563Y-63080000I-1560000J1235516D01*
G01*
%TO.C,D6*%
X172790000Y-51420000D02*
X172790000Y-51264000D01*
X172790000Y-53736000D02*
X172790000Y-53580000D01*
X169558563Y-51420000D02*
G75*
G02*
X172790000Y-51264484I1671437J-1080000D01*
G01*
X170189039Y-51420000D02*
G75*
G02*
X172270961Y-51420000I1040961J-1080000D01*
G01*
X172270961Y-53580000D02*
G75*
G02*
X170189039Y-53580000I-1040961J1080000D01*
G01*
X172790000Y-53735516D02*
G75*
G02*
X169558563Y-53580000I-1560000J1235516D01*
G01*
%TO.C,U2*%
D14*
X167325000Y-70225000D02*
X173675000Y-70225000D01*
X167325000Y-89775000D02*
X173675000Y-89775000D01*
D15*
X165565000Y-71110000D02*
G75*
G02*
X165365000Y-71110000I-100000J0D01*
G01*
X165365000Y-71110000D02*
G75*
G02*
X165565000Y-71110000I100000J0D01*
G01*
%TO.C,J1*%
D12*
X156620000Y-91620000D02*
X158000000Y-91620000D01*
X156620000Y-93000000D02*
X156620000Y-91620000D01*
X156620000Y-94270000D02*
X156620000Y-94380000D01*
X156620000Y-94270000D02*
X159380000Y-94270000D01*
X156620000Y-94380000D02*
X159380000Y-94380000D01*
X159380000Y-94270000D02*
X159380000Y-94380000D01*
%TO.C,C2*%
X135630000Y-72630000D02*
X143370000Y-72630000D01*
X135630000Y-75370000D02*
X135630000Y-72630000D01*
X143370000Y-72630000D02*
X143370000Y-75370000D01*
X143370000Y-75370000D02*
X135630000Y-75370000D01*
%TO.C,R2*%
X166920000Y-94130000D02*
X166920000Y-94460000D01*
X166920000Y-96870000D02*
X166920000Y-96540000D01*
X173460000Y-94130000D02*
X166920000Y-94130000D01*
X173460000Y-94460000D02*
X173460000Y-94130000D01*
X173460000Y-96540000D02*
X173460000Y-96870000D01*
X173460000Y-96870000D02*
X166920000Y-96870000D01*
%TO.C,D10*%
X150940000Y-50264000D02*
X150940000Y-50420000D01*
X150940000Y-52580000D02*
X150940000Y-52736000D01*
X150940000Y-50264484D02*
G75*
G02*
X154171437Y-50420000I1560000J-1235516D01*
G01*
X151459039Y-50420000D02*
G75*
G02*
X153540961Y-50420000I1040961J-1080000D01*
G01*
X153540961Y-52580000D02*
G75*
G02*
X151459039Y-52580000I-1040961J1080000D01*
G01*
X154171437Y-52580000D02*
G75*
G02*
X150940000Y-52735516I-1671437J1080000D01*
G01*
%TO.C,D9*%
X182060000Y-99420000D02*
X182060000Y-99264000D01*
X182060000Y-101736000D02*
X182060000Y-101580000D01*
X178828563Y-99420000D02*
G75*
G02*
X182060000Y-99264484I1671437J-1080000D01*
G01*
X179459039Y-99420000D02*
G75*
G02*
X181540961Y-99420000I1040961J-1080000D01*
G01*
X181540961Y-101580000D02*
G75*
G02*
X179459039Y-101580000I-1040961J1080000D01*
G01*
X182060000Y-101735516D02*
G75*
G02*
X178828563Y-101580000I-1560000J1235516D01*
G01*
%TO.C,D2*%
X124170000Y-75764000D02*
X124170000Y-75920000D01*
X124170000Y-78080000D02*
X124170000Y-78236000D01*
X124170000Y-75764484D02*
G75*
G02*
X127401437Y-75920000I1560000J-1235516D01*
G01*
X124689039Y-75920000D02*
G75*
G02*
X126770961Y-75920000I1040961J-1080000D01*
G01*
X126770961Y-78080000D02*
G75*
G02*
X124689039Y-78080000I-1040961J1080000D01*
G01*
X127401437Y-78080000D02*
G75*
G02*
X124170000Y-78235516I-1671437J1080000D01*
G01*
%TD*%
M02*
