%TF.GenerationSoftware,KiCad,Pcbnew,10.0.1*%
%TF.CreationDate,2026-04-18T21:54:27+10:00*%
%TF.ProjectId,project,70726f6a-6563-4742-9e6b-696361645f70,rev?*%
%TF.SameCoordinates,Original*%
%TF.FileFunction,Soldermask,Top*%
%TF.FilePolarity,Negative*%
%FSLAX46Y46*%
G04 Gerber Fmt 4.6, Leading zero omitted, Abs format (unit mm)*
G04 Created by KiCad (PCBNEW 10.0.1) date 2026-04-18 21:54:27*
%MOMM*%
%LPD*%
G01*
G04 APERTURE LIST*
G04 Aperture macros list*
%AMRoundRect*
0 Rectangle with rounded corners*
0 $1 Rounding radius*
0 $2 $3 $4 $5 $6 $7 $8 $9 X,Y pos of 4 corners*
0 Add a 4 corners polygon primitive as box body*
4,1,4,$2,$3,$4,$5,$6,$7,$8,$9,$2,$3,0*
0 Add four circle primitives for the rounded corners*
1,1,$1+$1,$2,$3*
1,1,$1+$1,$4,$5*
1,1,$1+$1,$6,$7*
1,1,$1+$1,$8,$9*
0 Add four rect primitives between the rounded corners*
20,1,$1+$1,$2,$3,$4,$5,0*
20,1,$1+$1,$4,$5,$6,$7,0*
20,1,$1+$1,$6,$7,$8,$9,0*
20,1,$1+$1,$8,$9,$2,$3,0*%
G04 Aperture macros list end*
%ADD10R,1.800000X1.800000*%
%ADD11C,1.800000*%
%ADD12R,1.700000X1.700000*%
%ADD13C,1.700000*%
%ADD14RoundRect,0.412500X-0.412500X0.412500X-0.412500X-0.412500X0.412500X-0.412500X0.412500X0.412500X0*%
%ADD15C,1.650000*%
%ADD16C,1.600000*%
%ADD17RoundRect,0.250000X0.550000X-0.550000X0.550000X0.550000X-0.550000X0.550000X-0.550000X-0.550000X0*%
%ADD18RoundRect,0.250000X-0.550000X-0.550000X0.550000X-0.550000X0.550000X0.550000X-0.550000X0.550000X0*%
%ADD19RoundRect,0.102000X-0.565000X-0.565000X0.565000X-0.565000X0.565000X0.565000X-0.565000X0.565000X0*%
%ADD20C,1.334000*%
%ADD21C,2.000000*%
G04 APERTURE END LIST*
D10*
%TO.C,D7*%
X182000000Y-79000000D03*
D11*
X179460000Y-79000000D03*
%TD*%
D10*
%TO.C,D1*%
X138230000Y-66500000D03*
D11*
X140770000Y-66500000D03*
%TD*%
D12*
%TO.C,J2*%
X158000000Y-88000000D03*
D13*
X160540000Y-88000000D03*
%TD*%
D10*
%TO.C,D4*%
X126730000Y-132000000D03*
D11*
X129270000Y-132000000D03*
%TD*%
D14*
%TO.C,RV1*%
X159000000Y-73420000D03*
D15*
X159000000Y-75960000D03*
X159000000Y-78500000D03*
%TD*%
D10*
%TO.C,D5*%
X165000000Y-115500000D03*
D11*
X162460000Y-115500000D03*
%TD*%
D10*
%TO.C,D3*%
X121730000Y-104000000D03*
D11*
X124270000Y-104000000D03*
%TD*%
D16*
%TO.C,R1*%
X148880000Y-68000000D03*
X156500000Y-68000000D03*
%TD*%
D17*
%TO.C,U1*%
X146190000Y-82810000D03*
D16*
X148730000Y-82810000D03*
X151270000Y-82810000D03*
X153810000Y-82810000D03*
X153810000Y-75190000D03*
X151270000Y-75190000D03*
X148730000Y-75190000D03*
X146190000Y-75190000D03*
%TD*%
D18*
%TO.C,C3*%
X139044888Y-96000000D03*
D16*
X141044888Y-96000000D03*
%TD*%
D10*
%TO.C,D8*%
X188000000Y-62000000D03*
D11*
X185460000Y-62000000D03*
%TD*%
D10*
%TO.C,D6*%
X172500000Y-52500000D03*
D11*
X169960000Y-52500000D03*
%TD*%
D19*
%TO.C,U2*%
X166530000Y-71110000D03*
D20*
X166530000Y-73650000D03*
X166530000Y-76190000D03*
X166530000Y-78730000D03*
X166530000Y-81270000D03*
X166530000Y-83810000D03*
X166530000Y-86350000D03*
X166530000Y-88890000D03*
X174470000Y-88890000D03*
X174470000Y-86350000D03*
X174470000Y-83810000D03*
X174470000Y-81270000D03*
X174470000Y-78730000D03*
X174470000Y-76190000D03*
X174470000Y-73650000D03*
X174470000Y-71110000D03*
%TD*%
D12*
%TO.C,J1*%
X158000000Y-93000000D03*
%TD*%
D21*
%TO.C,C2*%
X137000000Y-74000000D03*
X142000000Y-74000000D03*
%TD*%
D16*
%TO.C,R2*%
X174000000Y-95500000D03*
X166380000Y-95500000D03*
%TD*%
D10*
%TO.C,D10*%
X151230000Y-51500000D03*
D11*
X153770000Y-51500000D03*
%TD*%
D10*
%TO.C,D9*%
X181770000Y-100500000D03*
D11*
X179230000Y-100500000D03*
%TD*%
D10*
%TO.C,D2*%
X124460000Y-77000000D03*
D11*
X127000000Y-77000000D03*
%TD*%
M02*
