%TF.GenerationSoftware,KiCad,Pcbnew,10.0.1*%
%TF.CreationDate,2026-04-19T10:02:46+10:00*%
%TF.ProjectId,project,70726f6a-6563-4742-9e6b-696361645f70,rev?*%
%TF.SameCoordinates,Original*%
%TF.FileFunction,Copper,L1,Top*%
%TF.FilePolarity,Positive*%
%FSLAX46Y46*%
G04 Gerber Fmt 4.6, Leading zero omitted, Abs format (unit mm)*
G04 Created by KiCad (PCBNEW 10.0.1) date 2026-04-19 10:02:46*
%MOMM*%
%LPD*%
G01*
G04 APERTURE LIST*
G04 Aperture macros list*
%AMRoundRect*
0 Rectangle with rounded corners*
0 $1 Rounding radius*
0 $2 $3 $4 $5 $6 $7 $8 $9 X,Y pos of 4 corners*
0 Add a 4 corners polygon primitive as box body*
4,1,4,$2,$3,$4,$5,$6,$7,$8,$9,$2,$3,0*
0 Add four circle primitives for the rounded corners*
1,1,$1+$1,$2,$3*
1,1,$1+$1,$4,$5*
1,1,$1+$1,$6,$7*
1,1,$1+$1,$8,$9*
0 Add four rect primitives between the rounded corners*
20,1,$1+$1,$2,$3,$4,$5,0*
20,1,$1+$1,$4,$5,$6,$7,0*
20,1,$1+$1,$6,$7,$8,$9,0*
20,1,$1+$1,$8,$9,$2,$3,0*%
G04 Aperture macros list end*
%TA.AperFunction,ComponentPad*%
%ADD10R,1.800000X1.800000*%
%TD*%
%TA.AperFunction,ComponentPad*%
%ADD11C,1.800000*%
%TD*%
%TA.AperFunction,ComponentPad*%
%ADD12R,1.700000X1.700000*%
%TD*%
%TA.AperFunction,ComponentPad*%
%ADD13C,1.700000*%
%TD*%
%TA.AperFunction,ComponentPad*%
%ADD14RoundRect,0.412500X-0.412500X0.412500X-0.412500X-0.412500X0.412500X-0.412500X0.412500X0.412500X0*%
%TD*%
%TA.AperFunction,ComponentPad*%
%ADD15C,1.650000*%
%TD*%
%TA.AperFunction,ComponentPad*%
%ADD16C,1.600000*%
%TD*%
%TA.AperFunction,ComponentPad*%
%ADD17RoundRect,0.250000X0.550000X-0.550000X0.550000X0.550000X-0.550000X0.550000X-0.550000X-0.550000X0*%
%TD*%
%TA.AperFunction,ComponentPad*%
%ADD18RoundRect,0.250000X-0.550000X-0.550000X0.550000X-0.550000X0.550000X0.550000X-0.550000X0.550000X0*%
%TD*%
%TA.AperFunction,ComponentPad*%
%ADD19R,1.130000X1.130000*%
%TD*%
%TA.AperFunction,ComponentPad*%
%ADD20C,1.130000*%
%TD*%
%TA.AperFunction,ComponentPad*%
%ADD21C,2.000000*%
%TD*%
%TA.AperFunction,ViaPad*%
%ADD22C,0.600000*%
%TD*%
%TA.AperFunction,Conductor*%
%ADD23C,0.200000*%
%TD*%
G04 APERTURE END LIST*
D10*
%TO.P,D7,1,K_1*%
%TO.N,Net-(D1-K)*%
X182000000Y-79000000D03*
D11*
%TO.P,D7,2,A_2*%
%TO.N,Net-(D7-A)*%
X179460000Y-79000000D03*
%TD*%
D10*
%TO.P,D1,1,K_1*%
%TO.N,Net-(D1-K)*%
X138230000Y-66500000D03*
D11*
%TO.P,D1,2,A_2*%
%TO.N,Net-(D1-A)*%
X140770000Y-66500000D03*
%TD*%
D12*
%TO.P,J2,1,Pin_1_1*%
%TO.N,+5V*%
X158000000Y-88000000D03*
D13*
%TO.P,J2,2,Pin_2_2*%
%TO.N,CTGND*%
X160540000Y-88000000D03*
%TD*%
D10*
%TO.P,D4,1,K_1*%
%TO.N,Net-(D1-K)*%
X126730000Y-132000000D03*
D11*
%TO.P,D4,2,A_2*%
%TO.N,Net-(D4-A)*%
X129270000Y-132000000D03*
%TD*%
D14*
%TO.P,RV1,1,1_1*%
%TO.N,Net-(U1-DISCH)*%
X159000000Y-73420000D03*
D15*
%TO.P,RV1,2,2_2*%
X159000000Y-75960000D03*
%TO.P,RV1,3,3_3*%
%TO.N,Net-(U1-THRES)*%
X159000000Y-78500000D03*
%TD*%
D10*
%TO.P,D5,1,K_1*%
%TO.N,Net-(D1-K)*%
X165000000Y-115500000D03*
D11*
%TO.P,D5,2,A_2*%
%TO.N,Net-(D5-A)*%
X162460000Y-115500000D03*
%TD*%
D10*
%TO.P,D3,1,K_1*%
%TO.N,Net-(D1-K)*%
X121730000Y-104000000D03*
D11*
%TO.P,D3,2,A_2*%
%TO.N,Net-(D3-A)*%
X124270000Y-104000000D03*
%TD*%
D16*
%TO.P,R1,1*%
%TO.N,+5V*%
X148880000Y-68000000D03*
%TO.P,R1,2*%
%TO.N,Net-(U1-DISCH)*%
X156500000Y-68000000D03*
%TD*%
D17*
%TO.P,U1,1,GND_1*%
%TO.N,CTGND*%
X146190000Y-82810000D03*
D16*
%TO.P,U1,2,TRIG_2*%
%TO.N,Net-(U1-THRES)*%
X148730000Y-82810000D03*
%TO.P,U1,3,OUT_3*%
%TO.N,OUT*%
X151270000Y-82810000D03*
%TO.P,U1,4,~{RST}_4*%
%TO.N,+5V*%
X153810000Y-82810000D03*
%TO.P,U1,5,CONT_5*%
%TO.N,Net-(U1-CONT)*%
X153810000Y-75190000D03*
%TO.P,U1,6,THRES_6*%
%TO.N,Net-(U1-THRES)*%
X151270000Y-75190000D03*
%TO.P,U1,7,DISCH_7*%
%TO.N,Net-(U1-DISCH)*%
X148730000Y-75190000D03*
%TO.P,U1,8,VCC_8*%
%TO.N,+5V*%
X146190000Y-75190000D03*
%TD*%
D18*
%TO.P,C3,1*%
%TO.N,Net-(U1-THRES)*%
X139044888Y-96000000D03*
D16*
%TO.P,C3,2*%
%TO.N,CTGND*%
X141044888Y-96000000D03*
%TD*%
D10*
%TO.P,D8,1,K_1*%
%TO.N,Net-(D1-K)*%
X188000000Y-62000000D03*
D11*
%TO.P,D8,2,A_2*%
%TO.N,Net-(D8-A)*%
X185460000Y-62000000D03*
%TD*%
D10*
%TO.P,D6,1,K_1*%
%TO.N,Net-(D1-K)*%
X181770000Y-100500000D03*
D11*
%TO.P,D6,2,A_2*%
%TO.N,Net-(D6-A)*%
X179230000Y-100500000D03*
%TD*%
D19*
%TO.P,U2,1,Q5_1*%
%TO.N,Net-(D6-A)*%
X166530000Y-71110000D03*
D20*
%TO.P,U2,2,Q1_2*%
%TO.N,Net-(D2-A)*%
X166530000Y-73650000D03*
%TO.P,U2,3,Q0_3*%
%TO.N,Net-(D1-A)*%
X166530000Y-76190000D03*
%TO.P,U2,4,Q2_4*%
%TO.N,Net-(D3-A)*%
X166530000Y-78730000D03*
%TO.P,U2,5,Q6_5*%
%TO.N,Net-(D7-A)*%
X166530000Y-81270000D03*
%TO.P,U2,6,Q7_6*%
%TO.N,Net-(D8-A)*%
X166530000Y-83810000D03*
%TO.P,U2,7,Q3_7*%
%TO.N,Net-(D4-A)*%
X166530000Y-86350000D03*
%TO.P,U2,8,VSS_8*%
%TO.N,CTGND*%
X166530000Y-88890000D03*
%TO.P,U2,9,Q8_9*%
%TO.N,Net-(D9-A)*%
X174470000Y-88890000D03*
%TO.P,U2,10,Q4_10*%
%TO.N,Net-(D5-A)*%
X174470000Y-86350000D03*
%TO.P,U2,11,Q9_11*%
%TO.N,Net-(D10-A)*%
X174470000Y-83810000D03*
%TO.P,U2,12,Cout_12*%
%TO.N,unconnected-(U2-Cout-Pad12)*%
X174470000Y-81270000D03*
%TO.P,U2,13,CKEN_13*%
%TO.N,CTGND*%
X174470000Y-78730000D03*
%TO.P,U2,14,CLK_14*%
%TO.N,OUT*%
X174470000Y-76190000D03*
%TO.P,U2,15,Reset_15*%
%TO.N,CTGND*%
X174470000Y-73650000D03*
%TO.P,U2,16,VDD_16*%
%TO.N,+5V*%
X174470000Y-71110000D03*
%TD*%
D12*
%TO.P,J1,1,Pin_1_1*%
%TO.N,OUT*%
X158000000Y-93000000D03*
%TD*%
D21*
%TO.P,C2,1*%
%TO.N,CTGND*%
X137000000Y-74000000D03*
%TO.P,C2,2*%
%TO.N,Net-(U1-CONT)*%
X142000000Y-74000000D03*
%TD*%
D16*
%TO.P,R2,1*%
%TO.N,Net-(D1-K)*%
X174000000Y-95500000D03*
%TO.P,R2,2*%
%TO.N,CTGND*%
X166380000Y-95500000D03*
%TD*%
D10*
%TO.P,D10,1,K_1*%
%TO.N,Net-(D1-K)*%
X151230000Y-51500000D03*
D11*
%TO.P,D10,2,A_2*%
%TO.N,Net-(D10-A)*%
X153770000Y-51500000D03*
%TD*%
D10*
%TO.P,D9,1,K_1*%
%TO.N,Net-(D1-K)*%
X172500000Y-52500000D03*
D11*
%TO.P,D9,2,A_2*%
%TO.N,Net-(D9-A)*%
X169960000Y-52500000D03*
%TD*%
D10*
%TO.P,D2,1,K_1*%
%TO.N,Net-(D1-K)*%
X124460000Y-77000000D03*
D11*
%TO.P,D2,2,A_2*%
%TO.N,Net-(D2-A)*%
X127000000Y-77000000D03*
%TD*%
D22*
%TO.N,+5V*%
X162000000Y-69000000D03*
%TO.N,OUT*%
X154500000Y-88500000D03*
%TO.N,Net-(D6-A)*%
X168000000Y-81500000D03*
X168000000Y-85500000D03*
%TO.N,Net-(D9-A)*%
X176500000Y-77000000D03*
%TD*%
%TO.N,Net-(D1-K)*%
D23*
X182000000Y-77500000D02*
X182000000Y-79000000D01*
X172500000Y-52500000D02*
X172500000Y-54364015D01*
X126730000Y-109000000D02*
X121730000Y-104000000D01*
X165000000Y-115500000D02*
X174000000Y-106500000D01*
X126730000Y-132000000D02*
X126730000Y-109000000D01*
X138230000Y-66500000D02*
X134960000Y-66500000D01*
X174000000Y-106500000D02*
X174000000Y-95500000D01*
X151230000Y-51500000D02*
X151000000Y-51730000D01*
X148700000Y-65300000D02*
X139430000Y-65300000D01*
X188000000Y-62000000D02*
X178500000Y-71500000D01*
X151000000Y-63000000D02*
X148700000Y-65300000D01*
X151000000Y-51730000D02*
X151000000Y-63000000D01*
X178500000Y-71500000D02*
X178500000Y-74000000D01*
X181770000Y-100500000D02*
X175770000Y-106500000D01*
X186500000Y-60500000D02*
X188000000Y-62000000D01*
X178500000Y-74000000D02*
X182000000Y-77500000D01*
X124460000Y-77000000D02*
X124460000Y-101270000D01*
X182000000Y-100500000D02*
X182000000Y-79000000D01*
X139430000Y-65300000D02*
X138230000Y-66500000D01*
X172500000Y-54364015D02*
X178635985Y-60500000D01*
X175770000Y-106500000D02*
X174000000Y-106500000D01*
X134960000Y-66500000D02*
X124460000Y-77000000D01*
X178635985Y-60500000D02*
X186500000Y-60500000D01*
X124460000Y-101270000D02*
X121730000Y-104000000D01*
%TO.N,+5V*%
X148880000Y-68380000D02*
X146190000Y-71070000D01*
X158000000Y-87000000D02*
X153810000Y-82810000D01*
X161900000Y-69100000D02*
X162000000Y-69000000D01*
X158000000Y-88000000D02*
X158000000Y-87000000D01*
X146190000Y-71070000D02*
X146190000Y-75190000D01*
X146190000Y-75190000D02*
X153810000Y-82810000D01*
X149980000Y-69100000D02*
X161900000Y-69100000D01*
X148880000Y-68000000D02*
X148880000Y-68380000D01*
X148880000Y-68000000D02*
X149980000Y-69100000D01*
%TO.N,CTGND*%
X146190000Y-85310000D02*
X146000000Y-85500000D01*
X146190000Y-82810000D02*
X146190000Y-85310000D01*
X160540000Y-88000000D02*
X163020000Y-90480000D01*
%TO.N,Net-(U1-THRES)*%
X147630000Y-81710000D02*
X148730000Y-82810000D01*
X139044888Y-96000000D02*
X139044888Y-88070368D01*
X139044888Y-88070368D02*
X145405256Y-81710000D01*
X154580000Y-78500000D02*
X159000000Y-78500000D01*
X145405256Y-81710000D02*
X147630000Y-81710000D01*
X151270000Y-75190000D02*
X154580000Y-78500000D01*
%TO.N,OUT*%
X154500000Y-88500000D02*
X151270000Y-85270000D01*
X151270000Y-85270000D02*
X151270000Y-82810000D01*
%TO.N,Net-(D8-A)*%
X166530000Y-83810000D02*
X166538529Y-83810000D01*
X173605000Y-75738295D02*
X185460000Y-63883295D01*
X185460000Y-63883295D02*
X185460000Y-62000000D01*
X173605000Y-76743529D02*
X173605000Y-75738295D01*
X166538529Y-83810000D02*
X173605000Y-76743529D01*
%TO.N,Net-(D6-A)*%
X168000000Y-72580000D02*
X166530000Y-71110000D01*
X179230000Y-96730000D02*
X168000000Y-85500000D01*
X179230000Y-100500000D02*
X179230000Y-96730000D01*
X168000000Y-81500000D02*
X168000000Y-72580000D01*
%TO.N,Net-(D9-A)*%
X174470000Y-88890000D02*
X176500000Y-86860000D01*
X176500000Y-86860000D02*
X176500000Y-77000000D01*
%TO.N,Net-(D10-A)*%
X162900000Y-81403295D02*
X162900000Y-61965685D01*
X153770000Y-52835685D02*
X153770000Y-51500000D01*
X166171705Y-84675000D02*
X162900000Y-81403295D01*
X173605000Y-84675000D02*
X166171705Y-84675000D01*
X174470000Y-83810000D02*
X173605000Y-84675000D01*
X162900000Y-61965685D02*
X153770000Y-52835685D01*
%TD*%
%TA.AperFunction,Conductor*%
%TO.N,CTGND*%
G36*
X152568514Y-43387245D02*
G01*
X152658252Y-43404081D01*
X152680334Y-43410388D01*
X152739535Y-43433413D01*
X152766283Y-43447808D01*
X153256066Y-43794892D01*
X153261809Y-43799217D01*
X153758628Y-44196465D01*
X153764196Y-44201192D01*
X154228265Y-44619346D01*
X154233604Y-44624454D01*
X154666024Y-45063497D01*
X154671085Y-45068953D01*
X155072918Y-45529171D01*
X155077654Y-45534937D01*
X155449539Y-46016497D01*
X155453913Y-46022526D01*
X155595172Y-46230110D01*
X155761279Y-46474211D01*
X155796414Y-46525842D01*
X155800392Y-46532081D01*
X155893390Y-46688007D01*
X156113685Y-47057366D01*
X156117253Y-47063772D01*
X156401318Y-47611226D01*
X156404462Y-47617744D01*
X156659012Y-48187337D01*
X156661729Y-48193918D01*
X156886214Y-48785205D01*
X156888510Y-48791806D01*
X157082184Y-49403826D01*
X157084069Y-49410411D01*
X157245971Y-50041227D01*
X157247463Y-50047769D01*
X157376549Y-50694143D01*
X157377666Y-50700626D01*
X157472891Y-51357093D01*
X157473652Y-51363519D01*
X157534212Y-52020888D01*
X157534635Y-52027277D01*
X157560488Y-52669729D01*
X157560580Y-52676137D01*
X157553727Y-53273480D01*
X157553480Y-53280002D01*
X157522264Y-53766233D01*
X157521760Y-53771987D01*
X157510690Y-53871587D01*
X157508334Y-53885345D01*
X157502277Y-53947175D01*
X157502109Y-53948778D01*
X157495284Y-54010196D01*
X157495367Y-54014326D01*
X157495368Y-54014352D01*
X157495410Y-54016462D01*
X157495416Y-54016519D01*
X157505559Y-54077754D01*
X157505813Y-54079352D01*
X157515121Y-54140483D01*
X157516239Y-54144345D01*
X157516241Y-54144349D01*
X157516861Y-54146489D01*
X157516880Y-54146543D01*
X157529642Y-54174669D01*
X157542876Y-54203836D01*
X157568003Y-54261190D01*
X157570072Y-54263777D01*
X157571446Y-54266804D01*
X157571447Y-54266805D01*
X157571448Y-54266807D01*
X157611233Y-54315232D01*
X157650324Y-54364100D01*
X157652998Y-54366067D01*
X157655106Y-54368633D01*
X157706042Y-54405092D01*
X157756475Y-54442196D01*
X157759560Y-54443400D01*
X157762261Y-54445334D01*
X157762264Y-54445335D01*
X157762267Y-54445337D01*
X157820920Y-54467377D01*
X157879222Y-54490158D01*
X157882519Y-54490524D01*
X157885629Y-54491693D01*
X157947285Y-54497731D01*
X157948723Y-54497882D01*
X158010199Y-54504716D01*
X158010207Y-54504714D01*
X158014319Y-54504632D01*
X158014326Y-54504632D01*
X158016489Y-54504588D01*
X158016781Y-54504539D01*
X158016785Y-54504540D01*
X158077799Y-54494432D01*
X158077800Y-54494432D01*
X158078546Y-54494308D01*
X158140482Y-54484879D01*
X158143526Y-54483545D01*
X158146799Y-54483003D01*
X158203836Y-54457123D01*
X158261190Y-54431997D01*
X158263774Y-54429928D01*
X158266802Y-54428555D01*
X158266803Y-54428553D01*
X158266807Y-54428552D01*
X158315232Y-54388766D01*
X158364100Y-54349676D01*
X158366064Y-54347004D01*
X158368632Y-54344895D01*
X158404645Y-54294582D01*
X158404645Y-54294581D01*
X158405095Y-54293953D01*
X158442196Y-54243525D01*
X158443403Y-54240434D01*
X158938648Y-53548541D01*
X158941793Y-53544339D01*
X159491686Y-52841499D01*
X159494980Y-52837471D01*
X160070708Y-52163328D01*
X160074205Y-52159407D01*
X160675814Y-51513476D01*
X160679464Y-51509722D01*
X161307020Y-50891643D01*
X161310819Y-50888060D01*
X161964424Y-50297578D01*
X161968337Y-50294194D01*
X162647965Y-49731278D01*
X162652090Y-49728008D01*
X163357785Y-49192661D01*
X163361996Y-49189605D01*
X164093742Y-48681960D01*
X164098044Y-48679108D01*
X164855711Y-48199437D01*
X164860073Y-48196801D01*
X165643195Y-47745626D01*
X165647630Y-47743191D01*
X166455611Y-47321092D01*
X166460093Y-47318865D01*
X167291966Y-46926590D01*
X167296424Y-46924596D01*
X168150541Y-46563129D01*
X168155063Y-46561320D01*
X169029209Y-46231734D01*
X169033773Y-46230115D01*
X169924509Y-45933724D01*
X169929088Y-45932298D01*
X170831715Y-45670504D01*
X170836241Y-45669286D01*
X171743367Y-45443778D01*
X171747975Y-45442726D01*
X172648719Y-45255299D01*
X172653359Y-45254427D01*
X173530065Y-45107080D01*
X173534848Y-45106372D01*
X174357295Y-45001106D01*
X174362204Y-45000580D01*
X175069398Y-44939059D01*
X175074598Y-44938717D01*
X175495394Y-44920056D01*
X175511921Y-44920426D01*
X175680763Y-44935531D01*
X175702492Y-44939450D01*
X175866818Y-44984514D01*
X175887517Y-44992231D01*
X176041233Y-45065743D01*
X176060235Y-45077013D01*
X176198462Y-45176642D01*
X176215159Y-45191102D01*
X176333508Y-45313682D01*
X176347375Y-45330877D01*
X176414622Y-45431442D01*
X176442089Y-45472518D01*
X176452681Y-45491897D01*
X176522973Y-45653199D01*
X176526934Y-45663523D01*
X176546664Y-45722714D01*
X176550718Y-45732515D01*
X176603372Y-45885453D01*
X176732917Y-46261730D01*
X176733542Y-46263595D01*
X176921431Y-46838812D01*
X176922046Y-46840748D01*
X177094993Y-47401173D01*
X177095595Y-47403184D01*
X177252804Y-47944993D01*
X177253390Y-47947080D01*
X177396726Y-48475423D01*
X177397293Y-48477588D01*
X177475641Y-48788482D01*
X177525664Y-48986980D01*
X177525894Y-48987890D01*
X177526437Y-48990136D01*
X177642166Y-49488355D01*
X177642683Y-49490679D01*
X177744637Y-49971294D01*
X177745123Y-49973702D01*
X177835173Y-50443903D01*
X177835623Y-50446390D01*
X177912252Y-50895927D01*
X177912848Y-50899793D01*
X178033672Y-51774322D01*
X178034303Y-51779771D01*
X178111231Y-52604100D01*
X178111632Y-52609834D01*
X178148201Y-53392385D01*
X178148336Y-53398350D01*
X178147272Y-54145546D01*
X178147113Y-54151649D01*
X178110583Y-54871985D01*
X178110124Y-54878068D01*
X178039342Y-55584454D01*
X178038627Y-55590223D01*
X177932713Y-56306749D01*
X177931911Y-56311526D01*
X177783284Y-57102142D01*
X177782940Y-57103902D01*
X177751304Y-57259746D01*
X177750596Y-57262358D01*
X177736555Y-57332398D01*
X177736496Y-57332689D01*
X177722207Y-57403082D01*
X177721847Y-57405765D01*
X177662996Y-57699322D01*
X177660409Y-57712225D01*
X177658146Y-57717052D01*
X177647485Y-57776691D01*
X177647223Y-57778001D01*
X177647220Y-57778020D01*
X177635553Y-57836215D01*
X177635234Y-57840978D01*
X177633578Y-57854490D01*
X177606516Y-58005891D01*
X177583797Y-58132992D01*
X177579239Y-58144031D01*
X177572233Y-58197672D01*
X177571718Y-58200558D01*
X177571718Y-58200563D01*
X177562710Y-58250964D01*
X177562412Y-58257439D01*
X177561992Y-58276109D01*
X177559868Y-58292380D01*
X177531671Y-58356307D01*
X177473389Y-58394842D01*
X177403525Y-58395750D01*
X177349230Y-58364010D01*
X173136819Y-54151599D01*
X173103334Y-54090276D01*
X173100500Y-54063918D01*
X173100500Y-54024499D01*
X173120185Y-53957460D01*
X173172989Y-53911705D01*
X173224500Y-53900499D01*
X173447871Y-53900499D01*
X173447872Y-53900499D01*
X173507483Y-53894091D01*
X173642331Y-53843796D01*
X173757546Y-53757546D01*
X173843796Y-53642331D01*
X173894091Y-53507483D01*
X173900500Y-53447873D01*
X173900499Y-51552128D01*
X173894091Y-51492517D01*
X173873601Y-51437581D01*
X173843797Y-51357671D01*
X173843793Y-51357664D01*
X173757547Y-51242455D01*
X173757544Y-51242452D01*
X173642335Y-51156206D01*
X173642328Y-51156202D01*
X173507482Y-51105908D01*
X173507483Y-51105908D01*
X173447883Y-51099501D01*
X173447881Y-51099500D01*
X173447873Y-51099500D01*
X173447864Y-51099500D01*
X171552129Y-51099500D01*
X171552123Y-51099501D01*
X171492516Y-51105908D01*
X171357671Y-51156202D01*
X171357664Y-51156206D01*
X171242455Y-51242452D01*
X171242452Y-51242455D01*
X171156206Y-51357664D01*
X171156203Y-51357669D01*
X171126398Y-51437581D01*
X171084526Y-51493514D01*
X171019062Y-51517931D01*
X170950789Y-51503079D01*
X170922535Y-51481928D01*
X170872363Y-51431756D01*
X170872358Y-51431752D01*
X170694025Y-51302187D01*
X170694024Y-51302186D01*
X170694022Y-51302185D01*
X170576791Y-51242452D01*
X170497606Y-51202104D01*
X170497603Y-51202103D01*
X170287952Y-51133985D01*
X170179086Y-51116742D01*
X170070222Y-51099500D01*
X169849778Y-51099500D01*
X169777201Y-51110995D01*
X169632047Y-51133985D01*
X169422396Y-51202103D01*
X169422393Y-51202104D01*
X169225974Y-51302187D01*
X169047641Y-51431752D01*
X169047636Y-51431756D01*
X168891756Y-51587636D01*
X168891752Y-51587641D01*
X168762187Y-51765974D01*
X168662104Y-51962393D01*
X168662103Y-51962396D01*
X168593985Y-52172047D01*
X168559500Y-52389778D01*
X168559500Y-52610221D01*
X168593985Y-52827952D01*
X168662103Y-53037603D01*
X168662104Y-53037606D01*
X168762187Y-53234025D01*
X168891752Y-53412358D01*
X168891756Y-53412363D01*
X169047636Y-53568243D01*
X169047641Y-53568247D01*
X169149606Y-53642328D01*
X169225978Y-53697815D01*
X169354375Y-53763237D01*
X169422393Y-53797895D01*
X169422396Y-53797896D01*
X169527221Y-53831955D01*
X169632049Y-53866015D01*
X169849778Y-53900500D01*
X169849779Y-53900500D01*
X170070221Y-53900500D01*
X170070222Y-53900500D01*
X170287951Y-53866015D01*
X170497606Y-53797895D01*
X170694022Y-53697815D01*
X170872365Y-53568242D01*
X170922536Y-53518070D01*
X170983857Y-53484586D01*
X171053548Y-53489570D01*
X171109482Y-53531441D01*
X171126398Y-53562419D01*
X171156202Y-53642328D01*
X171156206Y-53642335D01*
X171242452Y-53757544D01*
X171242455Y-53757547D01*
X171357664Y-53843793D01*
X171357671Y-53843797D01*
X171402618Y-53860561D01*
X171492517Y-53894091D01*
X171552127Y-53900500D01*
X171775500Y-53900499D01*
X171842539Y-53920183D01*
X171888294Y-53972987D01*
X171899500Y-54024499D01*
X171899500Y-54277345D01*
X171899499Y-54277363D01*
X171899499Y-54443069D01*
X171899498Y-54443069D01*
X171940424Y-54595804D01*
X171940425Y-54595805D01*
X171965485Y-54639209D01*
X171965486Y-54639210D01*
X171995557Y-54691294D01*
X172019479Y-54732729D01*
X172019481Y-54732732D01*
X172138349Y-54851600D01*
X172138355Y-54851605D01*
X178151124Y-60864374D01*
X178151134Y-60864385D01*
X178155464Y-60868715D01*
X178155465Y-60868716D01*
X178267269Y-60980520D01*
X178267271Y-60980521D01*
X178267272Y-60980522D01*
X178330551Y-61017055D01*
X178330553Y-61017057D01*
X178365674Y-61037334D01*
X178404200Y-61059577D01*
X178556927Y-61100500D01*
X178556928Y-61100500D01*
X184144150Y-61100500D01*
X184211189Y-61120185D01*
X184256944Y-61172989D01*
X184266888Y-61242147D01*
X184254635Y-61280795D01*
X184162104Y-61462393D01*
X184162103Y-61462396D01*
X184093985Y-61672047D01*
X184069451Y-61826952D01*
X184059500Y-61889778D01*
X184059500Y-62110222D01*
X184067154Y-62158546D01*
X184093985Y-62327952D01*
X184162103Y-62537603D01*
X184162104Y-62537606D01*
X184230122Y-62671096D01*
X184256659Y-62723177D01*
X184262187Y-62734025D01*
X184391752Y-62912358D01*
X184391756Y-62912363D01*
X184547636Y-63068243D01*
X184547641Y-63068247D01*
X184725976Y-63197814D01*
X184791794Y-63231350D01*
X184802858Y-63241799D01*
X184816703Y-63248122D01*
X184827743Y-63265301D01*
X184842591Y-63279324D01*
X184846832Y-63295005D01*
X184854477Y-63306900D01*
X184859500Y-63341835D01*
X184859500Y-63583196D01*
X184839815Y-63650235D01*
X184823181Y-63670877D01*
X175439571Y-73054486D01*
X175394401Y-73079150D01*
X174860000Y-73613553D01*
X174860000Y-73598656D01*
X174833422Y-73499466D01*
X174782077Y-73410535D01*
X174709465Y-73337923D01*
X174620534Y-73286578D01*
X174521344Y-73260000D01*
X174506447Y-73260000D01*
X175025882Y-72740563D01*
X174974464Y-72706207D01*
X174780649Y-72625927D01*
X174780641Y-72625925D01*
X174574897Y-72585000D01*
X174365102Y-72585000D01*
X174159358Y-72625925D01*
X174159350Y-72625927D01*
X173965535Y-72706207D01*
X173965532Y-72706209D01*
X173914117Y-72740564D01*
X174433554Y-73260000D01*
X174418656Y-73260000D01*
X174319466Y-73286578D01*
X174230535Y-73337923D01*
X174157923Y-73410535D01*
X174106578Y-73499466D01*
X174080000Y-73598656D01*
X174080000Y-73613553D01*
X173560564Y-73094117D01*
X173526209Y-73145532D01*
X173526207Y-73145535D01*
X173445927Y-73339350D01*
X173445925Y-73339358D01*
X173405000Y-73545102D01*
X173405000Y-73754897D01*
X173445925Y-73960641D01*
X173445927Y-73960649D01*
X173526207Y-74154464D01*
X173560563Y-74205882D01*
X174080000Y-73686445D01*
X174080000Y-73701344D01*
X174106578Y-73800534D01*
X174157923Y-73889465D01*
X174230535Y-73962077D01*
X174319466Y-74013422D01*
X174418656Y-74040000D01*
X174433553Y-74040000D01*
X173900001Y-74573550D01*
X173897188Y-74588385D01*
X173874486Y-74619571D01*
X173236286Y-75257773D01*
X173124481Y-75369577D01*
X173124475Y-75369585D01*
X173082374Y-75442508D01*
X173082374Y-75442510D01*
X173045423Y-75506509D01*
X173044278Y-75510784D01*
X173004499Y-75659238D01*
X173004499Y-75659240D01*
X173004499Y-75827341D01*
X173004500Y-75827354D01*
X173004500Y-76443432D01*
X172984815Y-76510471D01*
X172968181Y-76531113D01*
X168812181Y-80687113D01*
X168750858Y-80720598D01*
X168681166Y-80715614D01*
X168625233Y-80673742D01*
X168600816Y-80608278D01*
X168600500Y-80599432D01*
X168600500Y-72669059D01*
X168600501Y-72669046D01*
X168600501Y-72500945D01*
X168600501Y-72500943D01*
X168559577Y-72348215D01*
X168527443Y-72292558D01*
X168480520Y-72211284D01*
X168368716Y-72099480D01*
X168368715Y-72099479D01*
X168364385Y-72095149D01*
X168364374Y-72095139D01*
X167631818Y-71362583D01*
X167598333Y-71301260D01*
X167595499Y-71274902D01*
X167595499Y-71214945D01*
X173404499Y-71214945D01*
X173445445Y-71420789D01*
X173445447Y-71420795D01*
X173525765Y-71614701D01*
X173642373Y-71789218D01*
X173790781Y-71937626D01*
X173965298Y-72054234D01*
X174049407Y-72089073D01*
X174159205Y-72134553D01*
X174159209Y-72134553D01*
X174159210Y-72134554D01*
X174365054Y-72175500D01*
X174365057Y-72175500D01*
X174574945Y-72175500D01*
X174749721Y-72140734D01*
X174780795Y-72134553D01*
X174974703Y-72054233D01*
X175149216Y-71937628D01*
X175297628Y-71789216D01*
X175414233Y-71614703D01*
X175494553Y-71420795D01*
X175528433Y-71250473D01*
X175535500Y-71214945D01*
X175535500Y-71005054D01*
X175494554Y-70799210D01*
X175494553Y-70799209D01*
X175494553Y-70799205D01*
X175442492Y-70673520D01*
X175414234Y-70605298D01*
X175297626Y-70430781D01*
X175149218Y-70282373D01*
X174974701Y-70165765D01*
X174780795Y-70085447D01*
X174780789Y-70085445D01*
X174574945Y-70044500D01*
X174574943Y-70044500D01*
X174365057Y-70044500D01*
X174365055Y-70044500D01*
X174159210Y-70085445D01*
X174159204Y-70085447D01*
X173965298Y-70165765D01*
X173790781Y-70282373D01*
X173642373Y-70430781D01*
X173525765Y-70605298D01*
X173445447Y-70799204D01*
X173445445Y-70799210D01*
X173404500Y-71005054D01*
X173404500Y-71005057D01*
X173404500Y-71214943D01*
X173404500Y-71214945D01*
X173404499Y-71214945D01*
X167595499Y-71214945D01*
X167595499Y-70497129D01*
X167595498Y-70497123D01*
X167595497Y-70497116D01*
X167589091Y-70437517D01*
X167563110Y-70367859D01*
X167538797Y-70302671D01*
X167538793Y-70302664D01*
X167452547Y-70187455D01*
X167452544Y-70187452D01*
X167337335Y-70101206D01*
X167337328Y-70101202D01*
X167202482Y-70050908D01*
X167202483Y-70050908D01*
X167142883Y-70044501D01*
X167142881Y-70044500D01*
X167142873Y-70044500D01*
X167142864Y-70044500D01*
X165917129Y-70044500D01*
X165917123Y-70044501D01*
X165857516Y-70050908D01*
X165722671Y-70101202D01*
X165722664Y-70101206D01*
X165607455Y-70187452D01*
X165607452Y-70187455D01*
X165521206Y-70302664D01*
X165521202Y-70302671D01*
X165470908Y-70437517D01*
X165467263Y-70471424D01*
X165464501Y-70497123D01*
X165464500Y-70497135D01*
X165464500Y-71722870D01*
X165464501Y-71722876D01*
X165470908Y-71782483D01*
X165521202Y-71917328D01*
X165521206Y-71917335D01*
X165607452Y-72032544D01*
X165607455Y-72032547D01*
X165722664Y-72118793D01*
X165722671Y-72118797D01*
X165857517Y-72169091D01*
X165857516Y-72169091D01*
X165864444Y-72169835D01*
X165917127Y-72175500D01*
X166694902Y-72175499D01*
X166761941Y-72195183D01*
X166782583Y-72211818D01*
X167006727Y-72435962D01*
X167040212Y-72497285D01*
X167035228Y-72566977D01*
X166993356Y-72622910D01*
X166927892Y-72647327D01*
X166871594Y-72638204D01*
X166840799Y-72625448D01*
X166840789Y-72625445D01*
X166634945Y-72584500D01*
X166634943Y-72584500D01*
X166425057Y-72584500D01*
X166425055Y-72584500D01*
X166219210Y-72625445D01*
X166219204Y-72625447D01*
X166025298Y-72705765D01*
X165850781Y-72822373D01*
X165702373Y-72970781D01*
X165585765Y-73145298D01*
X165505447Y-73339204D01*
X165505445Y-73339210D01*
X165464500Y-73545054D01*
X165464500Y-73545057D01*
X165464500Y-73754943D01*
X165464500Y-73754945D01*
X165464499Y-73754945D01*
X165505445Y-73960789D01*
X165505447Y-73960795D01*
X165585765Y-74154701D01*
X165702373Y-74329218D01*
X165850781Y-74477626D01*
X166025298Y-74594234D01*
X166122251Y-74634393D01*
X166219205Y-74674553D01*
X166219209Y-74674553D01*
X166219210Y-74674554D01*
X166425054Y-74715500D01*
X166425057Y-74715500D01*
X166634945Y-74715500D01*
X166773433Y-74687952D01*
X166840795Y-74674553D01*
X167034703Y-74594233D01*
X167034704Y-74594232D01*
X167034705Y-74594232D01*
X167206610Y-74479370D01*
X167273287Y-74458492D01*
X167340667Y-74476977D01*
X167387357Y-74528956D01*
X167399500Y-74582472D01*
X167399500Y-75257527D01*
X167379815Y-75324566D01*
X167327011Y-75370321D01*
X167257853Y-75380265D01*
X167206610Y-75360630D01*
X167063348Y-75264907D01*
X167034703Y-75245767D01*
X167034698Y-75245765D01*
X166840795Y-75165447D01*
X166840789Y-75165445D01*
X166634945Y-75124500D01*
X166634943Y-75124500D01*
X166425057Y-75124500D01*
X166425055Y-75124500D01*
X166219210Y-75165445D01*
X166219204Y-75165447D01*
X166025298Y-75245765D01*
X165850781Y-75362373D01*
X165702373Y-75510781D01*
X165585765Y-75685298D01*
X165505447Y-75879204D01*
X165505445Y-75879210D01*
X165464500Y-76085054D01*
X165464500Y-76085057D01*
X165464500Y-76294943D01*
X165464500Y-76294945D01*
X165464499Y-76294945D01*
X165505445Y-76500789D01*
X165505447Y-76500795D01*
X165585765Y-76694701D01*
X165702373Y-76869218D01*
X165850781Y-77017626D01*
X166025298Y-77134234D01*
X166094758Y-77163005D01*
X166219205Y-77214553D01*
X166219209Y-77214553D01*
X166219210Y-77214554D01*
X166425054Y-77255500D01*
X166425057Y-77255500D01*
X166634945Y-77255500D01*
X166805463Y-77221581D01*
X166840795Y-77214553D01*
X167034703Y-77134233D01*
X167034704Y-77134232D01*
X167034705Y-77134232D01*
X167206610Y-77019370D01*
X167273287Y-76998492D01*
X167340667Y-77016977D01*
X167387357Y-77068956D01*
X167399500Y-77122472D01*
X167399500Y-77797527D01*
X167379815Y-77864566D01*
X167327011Y-77910321D01*
X167257853Y-77920265D01*
X167206610Y-77900630D01*
X167052303Y-77797527D01*
X167034703Y-77785767D01*
X167034698Y-77785765D01*
X166840795Y-77705447D01*
X166840789Y-77705445D01*
X166634945Y-77664500D01*
X166634943Y-77664500D01*
X166425057Y-77664500D01*
X166425055Y-77664500D01*
X166219210Y-77705445D01*
X166219204Y-77705447D01*
X166025298Y-77785765D01*
X165850781Y-77902373D01*
X165702373Y-78050781D01*
X165585765Y-78225298D01*
X165505447Y-78419204D01*
X165505445Y-78419210D01*
X165464500Y-78625054D01*
X165464500Y-78625057D01*
X165464500Y-78834943D01*
X165464500Y-78834945D01*
X165464499Y-78834945D01*
X165505445Y-79040789D01*
X165505447Y-79040795D01*
X165585765Y-79234701D01*
X165702373Y-79409218D01*
X165850781Y-79557626D01*
X166025298Y-79674234D01*
X166122251Y-79714393D01*
X166219205Y-79754553D01*
X166219209Y-79754553D01*
X166219210Y-79754554D01*
X166425054Y-79795500D01*
X166425057Y-79795500D01*
X166634945Y-79795500D01*
X166782574Y-79766134D01*
X166840795Y-79754553D01*
X167034703Y-79674233D01*
X167034704Y-79674232D01*
X167034705Y-79674232D01*
X167206610Y-79559370D01*
X167273287Y-79538492D01*
X167340667Y-79556977D01*
X167387357Y-79608956D01*
X167399500Y-79662472D01*
X167399500Y-80337527D01*
X167379815Y-80404566D01*
X167327011Y-80450321D01*
X167257853Y-80460265D01*
X167206610Y-80440630D01*
X167061687Y-80343797D01*
X167034703Y-80325767D01*
X167034698Y-80325765D01*
X166840795Y-80245447D01*
X166840789Y-80245445D01*
X166634945Y-80204500D01*
X166634943Y-80204500D01*
X166425057Y-80204500D01*
X166425055Y-80204500D01*
X166219210Y-80245445D01*
X166219204Y-80245447D01*
X166025298Y-80325765D01*
X165850781Y-80442373D01*
X165702373Y-80590781D01*
X165585765Y-80765298D01*
X165505447Y-80959204D01*
X165505445Y-80959210D01*
X165464500Y-81165054D01*
X165464500Y-81165057D01*
X165464500Y-81374943D01*
X165464500Y-81374945D01*
X165464499Y-81374945D01*
X165505445Y-81580789D01*
X165505447Y-81580795D01*
X165585765Y-81774701D01*
X165702373Y-81949218D01*
X165850781Y-82097626D01*
X166025298Y-82214234D01*
X166122251Y-82254393D01*
X166219205Y-82294553D01*
X166219209Y-82294553D01*
X166219210Y-82294554D01*
X166425054Y-82335500D01*
X166425057Y-82335500D01*
X166634945Y-82335500D01*
X166815568Y-82299571D01*
X166840795Y-82294553D01*
X166886153Y-82275764D01*
X166955621Y-82268296D01*
X167018100Y-82299571D01*
X167053753Y-82359659D01*
X167051260Y-82429485D01*
X167021286Y-82478007D01*
X166781775Y-82717517D01*
X166720452Y-82751002D01*
X166669904Y-82751454D01*
X166634943Y-82744500D01*
X166425057Y-82744500D01*
X166425055Y-82744500D01*
X166219210Y-82785445D01*
X166219204Y-82785447D01*
X166025298Y-82865765D01*
X165850781Y-82982373D01*
X165702374Y-83130780D01*
X165702371Y-83130784D01*
X165695933Y-83140420D01*
X165642320Y-83185225D01*
X165572995Y-83193932D01*
X165509968Y-83163777D01*
X165505150Y-83159210D01*
X164545624Y-82199684D01*
X163536819Y-81190878D01*
X163503334Y-81129555D01*
X163500500Y-81103197D01*
X163500500Y-62054744D01*
X163500501Y-62054731D01*
X163500501Y-61886630D01*
X163500501Y-61886628D01*
X163459577Y-61733900D01*
X163422450Y-61669594D01*
X163380520Y-61596969D01*
X163268716Y-61485165D01*
X163268715Y-61485164D01*
X163264385Y-61480834D01*
X163264374Y-61480824D01*
X154593561Y-52810011D01*
X154560076Y-52748688D01*
X154565060Y-52678996D01*
X154606932Y-52623063D01*
X154608302Y-52622051D01*
X154682365Y-52568242D01*
X154838242Y-52412365D01*
X154967815Y-52234022D01*
X155067895Y-52037606D01*
X155136015Y-51827951D01*
X155170500Y-51610222D01*
X155170500Y-51389778D01*
X155136015Y-51172049D01*
X155067895Y-50962394D01*
X155067895Y-50962393D01*
X154999069Y-50827317D01*
X154967815Y-50765978D01*
X154905599Y-50680344D01*
X154838247Y-50587641D01*
X154838243Y-50587636D01*
X154682363Y-50431756D01*
X154682358Y-50431752D01*
X154504025Y-50302187D01*
X154504024Y-50302186D01*
X154504022Y-50302185D01*
X154386791Y-50242452D01*
X154307606Y-50202104D01*
X154307603Y-50202103D01*
X154097952Y-50133985D01*
X153982675Y-50115727D01*
X153880222Y-50099500D01*
X153659778Y-50099500D01*
X153587201Y-50110995D01*
X153442047Y-50133985D01*
X153232396Y-50202103D01*
X153232393Y-50202104D01*
X153035974Y-50302187D01*
X152857641Y-50431752D01*
X152857636Y-50431756D01*
X152807463Y-50481929D01*
X152746140Y-50515413D01*
X152676448Y-50510428D01*
X152620515Y-50468557D01*
X152603601Y-50437580D01*
X152573797Y-50357671D01*
X152573793Y-50357664D01*
X152487547Y-50242455D01*
X152487544Y-50242452D01*
X152372335Y-50156206D01*
X152372328Y-50156202D01*
X152237482Y-50105908D01*
X152237483Y-50105908D01*
X152177883Y-50099501D01*
X152177881Y-50099500D01*
X152177873Y-50099500D01*
X152177864Y-50099500D01*
X150282129Y-50099500D01*
X150282123Y-50099501D01*
X150222516Y-50105908D01*
X150087671Y-50156202D01*
X150087664Y-50156206D01*
X149972455Y-50242452D01*
X149972452Y-50242455D01*
X149886206Y-50357664D01*
X149886202Y-50357671D01*
X149835908Y-50492517D01*
X149829501Y-50552116D01*
X149829500Y-50552135D01*
X149829500Y-52447870D01*
X149829501Y-52447876D01*
X149835908Y-52507483D01*
X149886202Y-52642328D01*
X149886206Y-52642335D01*
X149972452Y-52757544D01*
X149972455Y-52757547D01*
X150087664Y-52843793D01*
X150087671Y-52843797D01*
X150222516Y-52894091D01*
X150282113Y-52900499D01*
X150282127Y-52900500D01*
X150282129Y-52900501D01*
X150285431Y-52900856D01*
X150285347Y-52901635D01*
X150348018Y-52923739D01*
X150390886Y-52978913D01*
X150399500Y-53024323D01*
X150399500Y-62699903D01*
X150379815Y-62766942D01*
X150363181Y-62787584D01*
X148487584Y-64663181D01*
X148426261Y-64696666D01*
X148399903Y-64699500D01*
X139350942Y-64699500D01*
X139198214Y-64740423D01*
X139155221Y-64765246D01*
X139155220Y-64765246D01*
X139061287Y-64819477D01*
X139061282Y-64819481D01*
X138949480Y-64931283D01*
X138949480Y-64931284D01*
X138949478Y-64931286D01*
X138880115Y-65000649D01*
X138817582Y-65063182D01*
X138756259Y-65096666D01*
X138729901Y-65099500D01*
X137282129Y-65099500D01*
X137282123Y-65099501D01*
X137222516Y-65105908D01*
X137087671Y-65156202D01*
X137087664Y-65156206D01*
X136972455Y-65242452D01*
X136972452Y-65242455D01*
X136886206Y-65357664D01*
X136886202Y-65357671D01*
X136835908Y-65492517D01*
X136829501Y-65552116D01*
X136829500Y-65552135D01*
X136829500Y-65775500D01*
X136809815Y-65842539D01*
X136757011Y-65888294D01*
X136705500Y-65899500D01*
X134880941Y-65899500D01*
X134844812Y-65909180D01*
X134844813Y-65909181D01*
X134728214Y-65940423D01*
X134728209Y-65940426D01*
X134591290Y-66019475D01*
X134591282Y-66019481D01*
X134479478Y-66131286D01*
X125047582Y-75563181D01*
X124986259Y-75596666D01*
X124959901Y-75599500D01*
X123512129Y-75599500D01*
X123512123Y-75599501D01*
X123452516Y-75605908D01*
X123317671Y-75656202D01*
X123317664Y-75656206D01*
X123202455Y-75742452D01*
X123202452Y-75742455D01*
X123116206Y-75857664D01*
X123116202Y-75857671D01*
X123065908Y-75992517D01*
X123059501Y-76052116D01*
X123059500Y-76052135D01*
X123059500Y-77947870D01*
X123059501Y-77947876D01*
X123065908Y-78007483D01*
X123116202Y-78142328D01*
X123116206Y-78142335D01*
X123202452Y-78257544D01*
X123202455Y-78257547D01*
X123317664Y-78343793D01*
X123317671Y-78343797D01*
X123362618Y-78360561D01*
X123452517Y-78394091D01*
X123512127Y-78400500D01*
X123735500Y-78400499D01*
X123802539Y-78420183D01*
X123848294Y-78472987D01*
X123859500Y-78524499D01*
X123859500Y-100969902D01*
X123839815Y-101036941D01*
X123823181Y-101057583D01*
X122317582Y-102563181D01*
X122256259Y-102596666D01*
X122229901Y-102599500D01*
X120782129Y-102599500D01*
X120782123Y-102599501D01*
X120722516Y-102605908D01*
X120587671Y-102656202D01*
X120587664Y-102656206D01*
X120472455Y-102742452D01*
X120472452Y-102742455D01*
X120386206Y-102857664D01*
X120386202Y-102857671D01*
X120335908Y-102992517D01*
X120329501Y-103052116D01*
X120329500Y-103052135D01*
X120329500Y-104947870D01*
X120329501Y-104947876D01*
X120335908Y-105007483D01*
X120386202Y-105142328D01*
X120386206Y-105142335D01*
X120472452Y-105257544D01*
X120472455Y-105257547D01*
X120587664Y-105343793D01*
X120587671Y-105343797D01*
X120722517Y-105394091D01*
X120722516Y-105394091D01*
X120729444Y-105394835D01*
X120782127Y-105400500D01*
X122229902Y-105400499D01*
X122296941Y-105420184D01*
X122317583Y-105436818D01*
X126093181Y-109212416D01*
X126126666Y-109273739D01*
X126129500Y-109300097D01*
X126129500Y-130475500D01*
X126109815Y-130542539D01*
X126057011Y-130588294D01*
X126005501Y-130599500D01*
X125782130Y-130599500D01*
X125782123Y-130599501D01*
X125722516Y-130605908D01*
X125587671Y-130656202D01*
X125587664Y-130656206D01*
X125472455Y-130742452D01*
X125472452Y-130742455D01*
X125386206Y-130857664D01*
X125386202Y-130857671D01*
X125335908Y-130992517D01*
X125329501Y-131052116D01*
X125329500Y-131052135D01*
X125329500Y-132947870D01*
X125329501Y-132947876D01*
X125335908Y-133007483D01*
X125386202Y-133142328D01*
X125386206Y-133142335D01*
X125472452Y-133257544D01*
X125472455Y-133257547D01*
X125587664Y-133343793D01*
X125587671Y-133343797D01*
X125722517Y-133394091D01*
X125722516Y-133394091D01*
X125729444Y-133394835D01*
X125782127Y-133400500D01*
X127677872Y-133400499D01*
X127737483Y-133394091D01*
X127872331Y-133343796D01*
X127987546Y-133257546D01*
X128073796Y-133142331D01*
X128101429Y-133068243D01*
X128103601Y-133062420D01*
X128145471Y-133006486D01*
X128210936Y-132982068D01*
X128279209Y-132996919D01*
X128307464Y-133018071D01*
X128357636Y-133068243D01*
X128357641Y-133068247D01*
X128459603Y-133142326D01*
X128535978Y-133197815D01*
X128664375Y-133263237D01*
X128732393Y-133297895D01*
X128732396Y-133297896D01*
X128837221Y-133331955D01*
X128942049Y-133366015D01*
X129159778Y-133400500D01*
X129159779Y-133400500D01*
X129380221Y-133400500D01*
X129380222Y-133400500D01*
X129597951Y-133366015D01*
X129807606Y-133297895D01*
X130004022Y-133197815D01*
X130182365Y-133068242D01*
X130338242Y-132912365D01*
X130467815Y-132734022D01*
X130567895Y-132537606D01*
X130636015Y-132327951D01*
X130670500Y-132110222D01*
X130670500Y-131889778D01*
X130636015Y-131672049D01*
X130574335Y-131482215D01*
X130567896Y-131462396D01*
X130567895Y-131462393D01*
X130521308Y-131370963D01*
X130467815Y-131265978D01*
X130378688Y-131143304D01*
X130338247Y-131087641D01*
X130338243Y-131087636D01*
X130182363Y-130931756D01*
X130182358Y-130931752D01*
X130004025Y-130802187D01*
X130004024Y-130802186D01*
X130004022Y-130802185D01*
X129886791Y-130742452D01*
X129807606Y-130702104D01*
X129807603Y-130702103D01*
X129597952Y-130633985D01*
X129489086Y-130616742D01*
X129380222Y-130599500D01*
X129159778Y-130599500D01*
X129087201Y-130610995D01*
X128942047Y-130633985D01*
X128732396Y-130702103D01*
X128732393Y-130702104D01*
X128535974Y-130802187D01*
X128357641Y-130931752D01*
X128357636Y-130931756D01*
X128307463Y-130981929D01*
X128246140Y-131015413D01*
X128176448Y-131010428D01*
X128120515Y-130968557D01*
X128103601Y-130937580D01*
X128073797Y-130857671D01*
X128073793Y-130857664D01*
X127987547Y-130742455D01*
X127987544Y-130742452D01*
X127872335Y-130656206D01*
X127872328Y-130656202D01*
X127737482Y-130605908D01*
X127737483Y-130605908D01*
X127677883Y-130599501D01*
X127677881Y-130599500D01*
X127677873Y-130599500D01*
X127677865Y-130599500D01*
X127454500Y-130599500D01*
X127387461Y-130579815D01*
X127341706Y-130527011D01*
X127330500Y-130475500D01*
X127330500Y-109089059D01*
X127330501Y-109089046D01*
X127330501Y-108920945D01*
X127330501Y-108920943D01*
X127289577Y-108768215D01*
X127240134Y-108682578D01*
X127210520Y-108631284D01*
X127098716Y-108519480D01*
X127098715Y-108519479D01*
X127094385Y-108515149D01*
X127094374Y-108515139D01*
X124191416Y-105612181D01*
X124157931Y-105550858D01*
X124162915Y-105481166D01*
X124204787Y-105425233D01*
X124270251Y-105400816D01*
X124279097Y-105400500D01*
X124380221Y-105400500D01*
X124380222Y-105400500D01*
X124597951Y-105366015D01*
X124807606Y-105297895D01*
X125004022Y-105197815D01*
X125182365Y-105068242D01*
X125338242Y-104912365D01*
X125467815Y-104734022D01*
X125567895Y-104537606D01*
X125636015Y-104327951D01*
X125670500Y-104110222D01*
X125670500Y-103889778D01*
X125636015Y-103672049D01*
X125567895Y-103462394D01*
X125567895Y-103462393D01*
X125512825Y-103354314D01*
X125467815Y-103265978D01*
X125451260Y-103243192D01*
X125338247Y-103087641D01*
X125338243Y-103087636D01*
X125182363Y-102931756D01*
X125182358Y-102931752D01*
X125004025Y-102802187D01*
X125004024Y-102802186D01*
X125004022Y-102802185D01*
X124886791Y-102742452D01*
X124807606Y-102702104D01*
X124807603Y-102702103D01*
X124597952Y-102633985D01*
X124489086Y-102616742D01*
X124380222Y-102599500D01*
X124279096Y-102599500D01*
X124212057Y-102579815D01*
X124166302Y-102527011D01*
X124156358Y-102457853D01*
X124185383Y-102394297D01*
X124191415Y-102387819D01*
X124473531Y-102105703D01*
X124818506Y-101760728D01*
X124818511Y-101760724D01*
X124828714Y-101750520D01*
X124828716Y-101750520D01*
X124940520Y-101638716D01*
X125016287Y-101507483D01*
X125019577Y-101501785D01*
X125060501Y-101349057D01*
X125060501Y-101190943D01*
X125060501Y-101183348D01*
X125060500Y-101183330D01*
X125060500Y-78524499D01*
X125080185Y-78457460D01*
X125132989Y-78411705D01*
X125184500Y-78400499D01*
X125407871Y-78400499D01*
X125407872Y-78400499D01*
X125467483Y-78394091D01*
X125602331Y-78343796D01*
X125717546Y-78257546D01*
X125803796Y-78142331D01*
X125831429Y-78068243D01*
X125833601Y-78062420D01*
X125875471Y-78006486D01*
X125940936Y-77982068D01*
X126009209Y-77996919D01*
X126037464Y-78018071D01*
X126087636Y-78068243D01*
X126087641Y-78068247D01*
X126189603Y-78142326D01*
X126265978Y-78197815D01*
X126394375Y-78263237D01*
X126462393Y-78297895D01*
X126462396Y-78297896D01*
X126567221Y-78331955D01*
X126672049Y-78366015D01*
X126889778Y-78400500D01*
X126889779Y-78400500D01*
X127110221Y-78400500D01*
X127110222Y-78400500D01*
X127327951Y-78366015D01*
X127537606Y-78297895D01*
X127734022Y-78197815D01*
X127912365Y-78068242D01*
X128068242Y-77912365D01*
X128197815Y-77734022D01*
X128297895Y-77537606D01*
X128366015Y-77327951D01*
X128400500Y-77110222D01*
X128400500Y-76889778D01*
X128366015Y-76672049D01*
X128311940Y-76505621D01*
X128297896Y-76462396D01*
X128297895Y-76462393D01*
X128229460Y-76328085D01*
X128197815Y-76265978D01*
X128171865Y-76230261D01*
X128068247Y-76087641D01*
X128068243Y-76087636D01*
X127912363Y-75931756D01*
X127912358Y-75931752D01*
X127734025Y-75802187D01*
X127734024Y-75802186D01*
X127734022Y-75802185D01*
X127616791Y-75742452D01*
X127537606Y-75702104D01*
X127537603Y-75702103D01*
X127327952Y-75633985D01*
X127155390Y-75606654D01*
X127110222Y-75599500D01*
X127009096Y-75599500D01*
X126942057Y-75579815D01*
X126896302Y-75527011D01*
X126886358Y-75457853D01*
X126915383Y-75394297D01*
X126921415Y-75387819D01*
X128427287Y-73881947D01*
X135500000Y-73881947D01*
X135500000Y-74118052D01*
X135536934Y-74351247D01*
X135609897Y-74575802D01*
X135717087Y-74786174D01*
X135777338Y-74869104D01*
X135777340Y-74869105D01*
X136517037Y-74129408D01*
X136534075Y-74192993D01*
X136599901Y-74307007D01*
X136692993Y-74400099D01*
X136807007Y-74465925D01*
X136870590Y-74482962D01*
X136130893Y-75222658D01*
X136213828Y-75282914D01*
X136424197Y-75390102D01*
X136648752Y-75463065D01*
X136648751Y-75463065D01*
X136881948Y-75500000D01*
X137118052Y-75500000D01*
X137351247Y-75463065D01*
X137575802Y-75390102D01*
X137786163Y-75282918D01*
X137786169Y-75282914D01*
X137869104Y-75222658D01*
X137869105Y-75222658D01*
X137129408Y-74482962D01*
X137192993Y-74465925D01*
X137307007Y-74400099D01*
X137400099Y-74307007D01*
X137465925Y-74192993D01*
X137482962Y-74129409D01*
X138222658Y-74869105D01*
X138222658Y-74869104D01*
X138282914Y-74786169D01*
X138282918Y-74786163D01*
X138390102Y-74575802D01*
X138463065Y-74351247D01*
X138500000Y-74118052D01*
X138500000Y-73881947D01*
X138499993Y-73881902D01*
X140499500Y-73881902D01*
X140499500Y-74118097D01*
X140536446Y-74351368D01*
X140609433Y-74575996D01*
X140680797Y-74716054D01*
X140716657Y-74786433D01*
X140855483Y-74977510D01*
X141022490Y-75144517D01*
X141213567Y-75283343D01*
X141282604Y-75318519D01*
X141424003Y-75390566D01*
X141424005Y-75390566D01*
X141424008Y-75390568D01*
X141544412Y-75429689D01*
X141648631Y-75463553D01*
X141881903Y-75500500D01*
X141881908Y-75500500D01*
X142118097Y-75500500D01*
X142351368Y-75463553D01*
X142368911Y-75457853D01*
X142575992Y-75390568D01*
X142786433Y-75283343D01*
X142977510Y-75144517D01*
X143144517Y-74977510D01*
X143283343Y-74786433D01*
X143390568Y-74575992D01*
X143463553Y-74351368D01*
X143478185Y-74258986D01*
X143500500Y-74118097D01*
X143500500Y-73881902D01*
X143463553Y-73648631D01*
X143401250Y-73456885D01*
X143390568Y-73424008D01*
X143390566Y-73424005D01*
X143390566Y-73424003D01*
X143292580Y-73231696D01*
X143283343Y-73213567D01*
X143144517Y-73022490D01*
X142977510Y-72855483D01*
X142786433Y-72716657D01*
X142765056Y-72705765D01*
X142575996Y-72609433D01*
X142351368Y-72536446D01*
X142118097Y-72499500D01*
X142118092Y-72499500D01*
X141881908Y-72499500D01*
X141881903Y-72499500D01*
X141648631Y-72536446D01*
X141424003Y-72609433D01*
X141213566Y-72716657D01*
X141130047Y-72777338D01*
X141022490Y-72855483D01*
X141022488Y-72855485D01*
X141022487Y-72855485D01*
X140855485Y-73022487D01*
X140855485Y-73022488D01*
X140855483Y-73022490D01*
X140814317Y-73079150D01*
X140716657Y-73213566D01*
X140609433Y-73424003D01*
X140536446Y-73648631D01*
X140499500Y-73881902D01*
X138499993Y-73881902D01*
X138463065Y-73648752D01*
X138390102Y-73424197D01*
X138282914Y-73213828D01*
X138222658Y-73130894D01*
X138222658Y-73130893D01*
X137482962Y-73870590D01*
X137465925Y-73807007D01*
X137400099Y-73692993D01*
X137307007Y-73599901D01*
X137192993Y-73534075D01*
X137129409Y-73517037D01*
X137869105Y-72777340D01*
X137869104Y-72777338D01*
X137786174Y-72717087D01*
X137575802Y-72609897D01*
X137351247Y-72536934D01*
X137351248Y-72536934D01*
X137118052Y-72500000D01*
X136881948Y-72500000D01*
X136648752Y-72536934D01*
X136424197Y-72609897D01*
X136213830Y-72717084D01*
X136130894Y-72777340D01*
X136870591Y-73517037D01*
X136807007Y-73534075D01*
X136692993Y-73599901D01*
X136599901Y-73692993D01*
X136534075Y-73807007D01*
X136517037Y-73870591D01*
X135777340Y-73130894D01*
X135717084Y-73213830D01*
X135609897Y-73424197D01*
X135536934Y-73648752D01*
X135500000Y-73881947D01*
X128427287Y-73881947D01*
X129572316Y-72736918D01*
X130946652Y-71362583D01*
X135172416Y-67136819D01*
X135233739Y-67103334D01*
X135260097Y-67100500D01*
X136705501Y-67100500D01*
X136772540Y-67120185D01*
X136818295Y-67172989D01*
X136829501Y-67224500D01*
X136829501Y-67447876D01*
X136835908Y-67507483D01*
X136886202Y-67642328D01*
X136886206Y-67642335D01*
X136972452Y-67757544D01*
X136972455Y-67757547D01*
X137087664Y-67843793D01*
X137087671Y-67843797D01*
X137222517Y-67894091D01*
X137222516Y-67894091D01*
X137229444Y-67894835D01*
X137282127Y-67900500D01*
X139177872Y-67900499D01*
X139237483Y-67894091D01*
X139372331Y-67843796D01*
X139487546Y-67757546D01*
X139573796Y-67642331D01*
X139601429Y-67568243D01*
X139603601Y-67562420D01*
X139645471Y-67506486D01*
X139710936Y-67482068D01*
X139779209Y-67496919D01*
X139807464Y-67518071D01*
X139857636Y-67568243D01*
X139857641Y-67568247D01*
X139948683Y-67634392D01*
X140035978Y-67697815D01*
X140164375Y-67763237D01*
X140232393Y-67797895D01*
X140232396Y-67797896D01*
X140337221Y-67831955D01*
X140442049Y-67866015D01*
X140659778Y-67900500D01*
X140659779Y-67900500D01*
X140880221Y-67900500D01*
X140880222Y-67900500D01*
X141097951Y-67866015D01*
X141307606Y-67797895D01*
X141504022Y-67697815D01*
X141682365Y-67568242D01*
X141838242Y-67412365D01*
X141967815Y-67234022D01*
X142067895Y-67037606D01*
X142136015Y-66827951D01*
X142170500Y-66610222D01*
X142170500Y-66389778D01*
X142136015Y-66172049D01*
X142127873Y-66146990D01*
X142100525Y-66062817D01*
X142098530Y-65992976D01*
X142134611Y-65933143D01*
X142197312Y-65902316D01*
X142218456Y-65900500D01*
X148613331Y-65900500D01*
X148613347Y-65900501D01*
X148620943Y-65900501D01*
X148779054Y-65900501D01*
X148779057Y-65900501D01*
X148931785Y-65859577D01*
X148985591Y-65828512D01*
X148985592Y-65828512D01*
X149068709Y-65780524D01*
X149068708Y-65780524D01*
X149068716Y-65780520D01*
X149180520Y-65668716D01*
X149180520Y-65668714D01*
X149190724Y-65658511D01*
X149190728Y-65658506D01*
X151358506Y-63490728D01*
X151358511Y-63490724D01*
X151368714Y-63480520D01*
X151368716Y-63480520D01*
X151480520Y-63368716D01*
X151539041Y-63267354D01*
X151559577Y-63231785D01*
X151600500Y-63079058D01*
X151600500Y-62920943D01*
X151600500Y-53024499D01*
X151620185Y-52957460D01*
X151672989Y-52911705D01*
X151724500Y-52900499D01*
X152177871Y-52900499D01*
X152177872Y-52900499D01*
X152237483Y-52894091D01*
X152372331Y-52843796D01*
X152487546Y-52757546D01*
X152573796Y-52642331D01*
X152573798Y-52642326D01*
X152603601Y-52562420D01*
X152645471Y-52506486D01*
X152710936Y-52482068D01*
X152779209Y-52496919D01*
X152807464Y-52518071D01*
X152857636Y-52568243D01*
X152857641Y-52568247D01*
X153006141Y-52676137D01*
X153035978Y-52697815D01*
X153101794Y-52731350D01*
X153152590Y-52779325D01*
X153169499Y-52841835D01*
X153169499Y-52914739D01*
X153169498Y-52914739D01*
X153210423Y-53067471D01*
X153210424Y-53067472D01*
X153235645Y-53111156D01*
X153289480Y-53204401D01*
X153289482Y-53204403D01*
X153408349Y-53323270D01*
X153408355Y-53323275D01*
X162263181Y-62178101D01*
X162296666Y-62239424D01*
X162299500Y-62265782D01*
X162299500Y-68092297D01*
X162279815Y-68159336D01*
X162227011Y-68205091D01*
X162157853Y-68215035D01*
X162151309Y-68213914D01*
X162078845Y-68199500D01*
X162078842Y-68199500D01*
X161921158Y-68199500D01*
X161921155Y-68199500D01*
X161766510Y-68230261D01*
X161766498Y-68230264D01*
X161620827Y-68290602D01*
X161620814Y-68290609D01*
X161489712Y-68378209D01*
X161460898Y-68407024D01*
X161404739Y-68463182D01*
X161343419Y-68496666D01*
X161317060Y-68499500D01*
X157875801Y-68499500D01*
X157808762Y-68479815D01*
X157763007Y-68427011D01*
X157753063Y-68357853D01*
X157757870Y-68337183D01*
X157768475Y-68304542D01*
X157768475Y-68304538D01*
X157768477Y-68304534D01*
X157800500Y-68102352D01*
X157800500Y-67897648D01*
X157778309Y-67757544D01*
X157768477Y-67695465D01*
X157710838Y-67518071D01*
X157705220Y-67500781D01*
X157705218Y-67500778D01*
X157705218Y-67500776D01*
X157660166Y-67412358D01*
X157612287Y-67318390D01*
X157569110Y-67258961D01*
X157491971Y-67152786D01*
X157347213Y-67008028D01*
X157181613Y-66887715D01*
X157181612Y-66887714D01*
X157181610Y-66887713D01*
X157124653Y-66858691D01*
X156999223Y-66794781D01*
X156804534Y-66731522D01*
X156629995Y-66703878D01*
X156602352Y-66699500D01*
X156397648Y-66699500D01*
X156373329Y-66703351D01*
X156195465Y-66731522D01*
X156000776Y-66794781D01*
X155818386Y-66887715D01*
X155652786Y-67008028D01*
X155508028Y-67152786D01*
X155387715Y-67318386D01*
X155294781Y-67500776D01*
X155231522Y-67695465D01*
X155199500Y-67897648D01*
X155199500Y-68102351D01*
X155231523Y-68304535D01*
X155231524Y-68304542D01*
X155242130Y-68337183D01*
X155244125Y-68407024D01*
X155208044Y-68466857D01*
X155145343Y-68497684D01*
X155124199Y-68499500D01*
X150280097Y-68499500D01*
X150250656Y-68490855D01*
X150220670Y-68484332D01*
X150215654Y-68480577D01*
X150213058Y-68479815D01*
X150192416Y-68463181D01*
X150174077Y-68444842D01*
X150140592Y-68383519D01*
X150143828Y-68318841D01*
X150148477Y-68304534D01*
X150180500Y-68102352D01*
X150180500Y-67897648D01*
X150158309Y-67757544D01*
X150148477Y-67695465D01*
X150090838Y-67518071D01*
X150085220Y-67500781D01*
X150085218Y-67500778D01*
X150085218Y-67500776D01*
X150040166Y-67412358D01*
X149992287Y-67318390D01*
X149949110Y-67258961D01*
X149871971Y-67152786D01*
X149727213Y-67008028D01*
X149561613Y-66887715D01*
X149561612Y-66887714D01*
X149561610Y-66887713D01*
X149504653Y-66858691D01*
X149379223Y-66794781D01*
X149184534Y-66731522D01*
X149009995Y-66703878D01*
X148982352Y-66699500D01*
X148777648Y-66699500D01*
X148753329Y-66703351D01*
X148575465Y-66731522D01*
X148380776Y-66794781D01*
X148198386Y-66887715D01*
X148032786Y-67008028D01*
X147888028Y-67152786D01*
X147767715Y-67318386D01*
X147674781Y-67500776D01*
X147611522Y-67695465D01*
X147579500Y-67897648D01*
X147579500Y-68102351D01*
X147611522Y-68304534D01*
X147674781Y-68499223D01*
X147713797Y-68575794D01*
X147726693Y-68644463D01*
X147700417Y-68709204D01*
X147690993Y-68719770D01*
X145821286Y-70589478D01*
X145709481Y-70701282D01*
X145709475Y-70701290D01*
X145662302Y-70782998D01*
X145662302Y-70782999D01*
X145630423Y-70838215D01*
X145589499Y-70990943D01*
X145589499Y-70990945D01*
X145589499Y-71159046D01*
X145589500Y-71159059D01*
X145589500Y-73960397D01*
X145569815Y-74027436D01*
X145521800Y-74070879D01*
X145508389Y-74077712D01*
X145342786Y-74198028D01*
X145198028Y-74342786D01*
X145077715Y-74508386D01*
X144984781Y-74690776D01*
X144921522Y-74885465D01*
X144889500Y-75087648D01*
X144889500Y-75292351D01*
X144921522Y-75494534D01*
X144984781Y-75689223D01*
X145041544Y-75800625D01*
X145070805Y-75858053D01*
X145077715Y-75871613D01*
X145198028Y-76037213D01*
X145342786Y-76181971D01*
X145476551Y-76279155D01*
X145508390Y-76302287D01*
X145622633Y-76360497D01*
X145690776Y-76395218D01*
X145690778Y-76395218D01*
X145690781Y-76395220D01*
X145795137Y-76429127D01*
X145885465Y-76458477D01*
X145950768Y-76468820D01*
X146087648Y-76490500D01*
X146087649Y-76490500D01*
X146292351Y-76490500D01*
X146292352Y-76490500D01*
X146494534Y-76458477D01*
X146508842Y-76453827D01*
X146578682Y-76451831D01*
X146634842Y-76484077D01*
X151448584Y-81297819D01*
X151482069Y-81359142D01*
X151477085Y-81428834D01*
X151435213Y-81484767D01*
X151369749Y-81509184D01*
X151360903Y-81509500D01*
X151167648Y-81509500D01*
X151143329Y-81513351D01*
X150965465Y-81541522D01*
X150770776Y-81604781D01*
X150588386Y-81697715D01*
X150422786Y-81818028D01*
X150278028Y-81962786D01*
X150157715Y-82128386D01*
X150110485Y-82221080D01*
X150062510Y-82271876D01*
X149994689Y-82288671D01*
X149928554Y-82266134D01*
X149889515Y-82221080D01*
X149878613Y-82199684D01*
X149842287Y-82128390D01*
X149819936Y-82097626D01*
X149721971Y-81962786D01*
X149577213Y-81818028D01*
X149411613Y-81697715D01*
X149411612Y-81697714D01*
X149411610Y-81697713D01*
X149354653Y-81668691D01*
X149229223Y-81604781D01*
X149034534Y-81541522D01*
X148859995Y-81513878D01*
X148832352Y-81509500D01*
X148627648Y-81509500D01*
X148589599Y-81515526D01*
X148425468Y-81541522D01*
X148416717Y-81544365D01*
X148411154Y-81546173D01*
X148395941Y-81546607D01*
X148381684Y-81551925D01*
X148361729Y-81547584D01*
X148341313Y-81548167D01*
X148327226Y-81540078D01*
X148313411Y-81537073D01*
X148285157Y-81515922D01*
X148117590Y-81348355D01*
X148117588Y-81348352D01*
X147998717Y-81229481D01*
X147998716Y-81229480D01*
X147898308Y-81171510D01*
X147898307Y-81171509D01*
X147861783Y-81150422D01*
X147805881Y-81135443D01*
X147709057Y-81109499D01*
X147550943Y-81109499D01*
X147543347Y-81109499D01*
X147543331Y-81109500D01*
X145491926Y-81109500D01*
X145491910Y-81109499D01*
X145484314Y-81109499D01*
X145326199Y-81109499D01*
X145251351Y-81129555D01*
X145173470Y-81150423D01*
X145173465Y-81150426D01*
X145036546Y-81229475D01*
X145036538Y-81229481D01*
X138564367Y-87701652D01*
X138547849Y-87730264D01*
X138532195Y-87757378D01*
X138485311Y-87838583D01*
X138444387Y-87991311D01*
X138444387Y-87991313D01*
X138444387Y-88159414D01*
X138444388Y-88159427D01*
X138444388Y-94587837D01*
X138424703Y-94654876D01*
X138371899Y-94700631D01*
X138346347Y-94709089D01*
X138342095Y-94709999D01*
X138175556Y-94765185D01*
X138175551Y-94765187D01*
X138026230Y-94857289D01*
X137902177Y-94981342D01*
X137810075Y-95130663D01*
X137810074Y-95130666D01*
X137754889Y-95297203D01*
X137754889Y-95297204D01*
X137754888Y-95297204D01*
X137744388Y-95399983D01*
X137744388Y-96600001D01*
X137744389Y-96600009D01*
X137754888Y-96702796D01*
X137754889Y-96702799D01*
X137787099Y-96800000D01*
X137810074Y-96869334D01*
X137902176Y-97018656D01*
X138026232Y-97142712D01*
X138175554Y-97234814D01*
X138342091Y-97289999D01*
X138444879Y-97300500D01*
X139644896Y-97300499D01*
X139747685Y-97289999D01*
X139914222Y-97234814D01*
X140063544Y-97142712D01*
X140132767Y-97073489D01*
X140194090Y-97040004D01*
X140263782Y-97044988D01*
X140293334Y-97060853D01*
X140363534Y-97111857D01*
X140545856Y-97204755D01*
X140740470Y-97267990D01*
X140942571Y-97300000D01*
X141147205Y-97300000D01*
X141349305Y-97267990D01*
X141543919Y-97204755D01*
X141726237Y-97111859D01*
X141770809Y-97079474D01*
X141091335Y-96400000D01*
X141097549Y-96400000D01*
X141199282Y-96372741D01*
X141290494Y-96320080D01*
X141364968Y-96245606D01*
X141417629Y-96154394D01*
X141444888Y-96052661D01*
X141444888Y-96046448D01*
X142124362Y-96725922D01*
X142124362Y-96725921D01*
X142156747Y-96681349D01*
X142249645Y-96499026D01*
X142251310Y-96493903D01*
X142251312Y-96493896D01*
X142312878Y-96304417D01*
X142344888Y-96102317D01*
X142344888Y-95897682D01*
X142312878Y-95695582D01*
X142249643Y-95500968D01*
X142223220Y-95449111D01*
X142223219Y-95449109D01*
X142197016Y-95397682D01*
X165080000Y-95397682D01*
X165080000Y-95602317D01*
X165112009Y-95804417D01*
X165175244Y-95999031D01*
X165268141Y-96181350D01*
X165268147Y-96181359D01*
X165300523Y-96225921D01*
X165300524Y-96225922D01*
X165980000Y-95546446D01*
X165980000Y-95552661D01*
X166007259Y-95654394D01*
X166059920Y-95745606D01*
X166134394Y-95820080D01*
X166225606Y-95872741D01*
X166327339Y-95900000D01*
X166333553Y-95900000D01*
X165654076Y-96579474D01*
X165698650Y-96611859D01*
X165880968Y-96704755D01*
X166075582Y-96767990D01*
X166277683Y-96800000D01*
X166482317Y-96800000D01*
X166684417Y-96767990D01*
X166879031Y-96704755D01*
X167061349Y-96611859D01*
X167105921Y-96579474D01*
X166426447Y-95900000D01*
X166432661Y-95900000D01*
X166534394Y-95872741D01*
X166625606Y-95820080D01*
X166700080Y-95745606D01*
X166752741Y-95654394D01*
X166780000Y-95552661D01*
X166780000Y-95546447D01*
X167459474Y-96225921D01*
X167491859Y-96181349D01*
X167584755Y-95999031D01*
X167647990Y-95804417D01*
X167680000Y-95602317D01*
X167680000Y-95397682D01*
X167647990Y-95195582D01*
X167584755Y-95000968D01*
X167491859Y-94818650D01*
X167459474Y-94774077D01*
X167459474Y-94774076D01*
X166780000Y-95453551D01*
X166780000Y-95447339D01*
X166752741Y-95345606D01*
X166700080Y-95254394D01*
X166625606Y-95179920D01*
X166534394Y-95127259D01*
X166432661Y-95100000D01*
X166426446Y-95100000D01*
X167105922Y-94420524D01*
X167105921Y-94420523D01*
X167061359Y-94388147D01*
X167061350Y-94388141D01*
X166879031Y-94295244D01*
X166684417Y-94232009D01*
X166482317Y-94200000D01*
X166277683Y-94200000D01*
X166075582Y-94232009D01*
X165880968Y-94295244D01*
X165698644Y-94388143D01*
X165654077Y-94420523D01*
X165654077Y-94420524D01*
X166333554Y-95100000D01*
X166327339Y-95100000D01*
X166225606Y-95127259D01*
X166134394Y-95179920D01*
X166059920Y-95254394D01*
X166007259Y-95345606D01*
X165980000Y-95447339D01*
X165980000Y-95453553D01*
X165300524Y-94774077D01*
X165300523Y-94774077D01*
X165268143Y-94818644D01*
X165175244Y-95000968D01*
X165112009Y-95195582D01*
X165080000Y-95397682D01*
X142197016Y-95397682D01*
X142156749Y-95318652D01*
X142124362Y-95274077D01*
X142124362Y-95274076D01*
X141444888Y-95953551D01*
X141444888Y-95947339D01*
X141417629Y-95845606D01*
X141364968Y-95754394D01*
X141290494Y-95679920D01*
X141199282Y-95627259D01*
X141097549Y-95600000D01*
X141091334Y-95600000D01*
X141770810Y-94920524D01*
X141770809Y-94920523D01*
X141726247Y-94888147D01*
X141726238Y-94888141D01*
X141543919Y-94795244D01*
X141349305Y-94732009D01*
X141147205Y-94700000D01*
X140942571Y-94700000D01*
X140740470Y-94732009D01*
X140545856Y-94795244D01*
X140363539Y-94888139D01*
X140293332Y-94939148D01*
X140227525Y-94962627D01*
X140159471Y-94946801D01*
X140132766Y-94926510D01*
X140063545Y-94857289D01*
X140063544Y-94857288D01*
X139914222Y-94765186D01*
X139914219Y-94765185D01*
X139747683Y-94710000D01*
X139743421Y-94709088D01*
X139681990Y-94675801D01*
X139648307Y-94614586D01*
X139645388Y-94587837D01*
X139645388Y-92102135D01*
X156649500Y-92102135D01*
X156649500Y-93897870D01*
X156649501Y-93897876D01*
X156655908Y-93957483D01*
X156706202Y-94092328D01*
X156706206Y-94092335D01*
X156792452Y-94207544D01*
X156792455Y-94207547D01*
X156907664Y-94293793D01*
X156907671Y-94293797D01*
X157042517Y-94344091D01*
X157042516Y-94344091D01*
X157046256Y-94344493D01*
X157102127Y-94350500D01*
X158897872Y-94350499D01*
X158953743Y-94344493D01*
X158953744Y-94344493D01*
X158953985Y-94344467D01*
X158957483Y-94344091D01*
X159092331Y-94293796D01*
X159207546Y-94207546D01*
X159293796Y-94092331D01*
X159344091Y-93957483D01*
X159350500Y-93897873D01*
X159350499Y-92102128D01*
X159344091Y-92042517D01*
X159328961Y-92001952D01*
X159293797Y-91907671D01*
X159293793Y-91907664D01*
X159207547Y-91792455D01*
X159207544Y-91792452D01*
X159092335Y-91706206D01*
X159092328Y-91706202D01*
X158957482Y-91655908D01*
X158957483Y-91655908D01*
X158897883Y-91649501D01*
X158897881Y-91649500D01*
X158897873Y-91649500D01*
X158897864Y-91649500D01*
X157102129Y-91649500D01*
X157102123Y-91649501D01*
X157042516Y-91655908D01*
X156907671Y-91706202D01*
X156907664Y-91706206D01*
X156792455Y-91792452D01*
X156792452Y-91792455D01*
X156706206Y-91907664D01*
X156706202Y-91907671D01*
X156655908Y-92042517D01*
X156649501Y-92102116D01*
X156649501Y-92102123D01*
X156649500Y-92102135D01*
X139645388Y-92102135D01*
X139645388Y-88370465D01*
X139665073Y-88303426D01*
X139681707Y-88282784D01*
X142119194Y-85845297D01*
X144678323Y-83286168D01*
X144739642Y-83252686D01*
X144809334Y-83257670D01*
X144865267Y-83299542D01*
X144889684Y-83365006D01*
X144890000Y-83373849D01*
X144890000Y-83409969D01*
X144890001Y-83409987D01*
X144900494Y-83512697D01*
X144955641Y-83679119D01*
X144955643Y-83679124D01*
X145047684Y-83828345D01*
X145171654Y-83952315D01*
X145320875Y-84044356D01*
X145320880Y-84044358D01*
X145487302Y-84099505D01*
X145487309Y-84099506D01*
X145590019Y-84109999D01*
X145939999Y-84109999D01*
X145940000Y-84109998D01*
X145940000Y-83125686D01*
X145944394Y-83130080D01*
X146035606Y-83182741D01*
X146137339Y-83210000D01*
X146242661Y-83210000D01*
X146344394Y-83182741D01*
X146435606Y-83130080D01*
X146440000Y-83125686D01*
X146440000Y-84109999D01*
X146789972Y-84109999D01*
X146789986Y-84109998D01*
X146892697Y-84099505D01*
X147059119Y-84044358D01*
X147059124Y-84044356D01*
X147208345Y-83952315D01*
X147332315Y-83828345D01*
X147424356Y-83679124D01*
X147424359Y-83679117D01*
X147451592Y-83596932D01*
X147491364Y-83539487D01*
X147555879Y-83512663D01*
X147624655Y-83524977D01*
X147669617Y-83563050D01*
X147738034Y-83657219D01*
X147882786Y-83801971D01*
X148037749Y-83914556D01*
X148048390Y-83922287D01*
X148129499Y-83963614D01*
X148230776Y-84015218D01*
X148230778Y-84015218D01*
X148230781Y-84015220D01*
X148320459Y-84044358D01*
X148425465Y-84078477D01*
X148526557Y-84094488D01*
X148627648Y-84110500D01*
X148627649Y-84110500D01*
X148832351Y-84110500D01*
X148832352Y-84110500D01*
X149034534Y-84078477D01*
X149229219Y-84015220D01*
X149411610Y-83922287D01*
X149504590Y-83854732D01*
X149577213Y-83801971D01*
X149577215Y-83801968D01*
X149577219Y-83801966D01*
X149721966Y-83657219D01*
X149721968Y-83657215D01*
X149721971Y-83657213D01*
X149842284Y-83491614D01*
X149842283Y-83491614D01*
X149842287Y-83491610D01*
X149889516Y-83398917D01*
X149937489Y-83348123D01*
X150005310Y-83331328D01*
X150071445Y-83353865D01*
X150110485Y-83398919D01*
X150157715Y-83491614D01*
X150278028Y-83657213D01*
X150278034Y-83657219D01*
X150422781Y-83801966D01*
X150588390Y-83922287D01*
X150601793Y-83929116D01*
X150652589Y-83977088D01*
X150669500Y-84039601D01*
X150669500Y-85183330D01*
X150669499Y-85183348D01*
X150669499Y-85349054D01*
X150669498Y-85349054D01*
X150710422Y-85501783D01*
X150736290Y-85546588D01*
X150789477Y-85638712D01*
X150789481Y-85638717D01*
X150908349Y-85757585D01*
X150908355Y-85757590D01*
X153665425Y-88514660D01*
X153698910Y-88575983D01*
X153699361Y-88578149D01*
X153730261Y-88733491D01*
X153730264Y-88733501D01*
X153790602Y-88879172D01*
X153790609Y-88879185D01*
X153878210Y-89010288D01*
X153878213Y-89010292D01*
X153989707Y-89121786D01*
X153989711Y-89121789D01*
X154120814Y-89209390D01*
X154120827Y-89209397D01*
X154266498Y-89269735D01*
X154266503Y-89269737D01*
X154387440Y-89293793D01*
X154421153Y-89300499D01*
X154421156Y-89300500D01*
X154421158Y-89300500D01*
X154578844Y-89300500D01*
X154578845Y-89300499D01*
X154733497Y-89269737D01*
X154879179Y-89209394D01*
X155010289Y-89121789D01*
X155121789Y-89010289D01*
X155209394Y-88879179D01*
X155215256Y-88865028D01*
X155233793Y-88820275D01*
X155269737Y-88733497D01*
X155300500Y-88578842D01*
X155300500Y-88421158D01*
X155300500Y-88421155D01*
X155300499Y-88421153D01*
X155293414Y-88385534D01*
X155269737Y-88266503D01*
X155246658Y-88210784D01*
X155209397Y-88120827D01*
X155209390Y-88120814D01*
X155121789Y-87989711D01*
X155121786Y-87989707D01*
X155010292Y-87878213D01*
X155010288Y-87878210D01*
X154879185Y-87790609D01*
X154879172Y-87790602D01*
X154733501Y-87730264D01*
X154733491Y-87730261D01*
X154578149Y-87699361D01*
X154516238Y-87666976D01*
X154514660Y-87665425D01*
X151906819Y-85057584D01*
X151873334Y-84996261D01*
X151870500Y-84969903D01*
X151870500Y-84039601D01*
X151890185Y-83972562D01*
X151938206Y-83929116D01*
X151951610Y-83922287D01*
X152117219Y-83801966D01*
X152261966Y-83657219D01*
X152261968Y-83657215D01*
X152261971Y-83657213D01*
X152382284Y-83491614D01*
X152382283Y-83491614D01*
X152382287Y-83491610D01*
X152429516Y-83398917D01*
X152477489Y-83348123D01*
X152545310Y-83331328D01*
X152611445Y-83353865D01*
X152650485Y-83398919D01*
X152697715Y-83491614D01*
X152818028Y-83657213D01*
X152962786Y-83801971D01*
X153117749Y-83914556D01*
X153128390Y-83922287D01*
X153209499Y-83963614D01*
X153310776Y-84015218D01*
X153310778Y-84015218D01*
X153310781Y-84015220D01*
X153400459Y-84044358D01*
X153505465Y-84078477D01*
X153606557Y-84094488D01*
X153707648Y-84110500D01*
X153707649Y-84110500D01*
X153912351Y-84110500D01*
X153912352Y-84110500D01*
X154114534Y-84078477D01*
X154128842Y-84073827D01*
X154198682Y-84071831D01*
X154254842Y-84104077D01*
X156781022Y-86630257D01*
X156814507Y-86691580D01*
X156809523Y-86761272D01*
X156792607Y-86792249D01*
X156706206Y-86907664D01*
X156706202Y-86907671D01*
X156655908Y-87042517D01*
X156649501Y-87102116D01*
X156649500Y-87102135D01*
X156649500Y-88897870D01*
X156649501Y-88897876D01*
X156655908Y-88957483D01*
X156706202Y-89092328D01*
X156706206Y-89092335D01*
X156792452Y-89207544D01*
X156792455Y-89207547D01*
X156907664Y-89293793D01*
X156907671Y-89293797D01*
X157042517Y-89344091D01*
X157042516Y-89344091D01*
X157049444Y-89344835D01*
X157102127Y-89350500D01*
X158897872Y-89350499D01*
X158957483Y-89344091D01*
X159092331Y-89293796D01*
X159207546Y-89207546D01*
X159293796Y-89092331D01*
X159344091Y-88957483D01*
X159350500Y-88897873D01*
X159350499Y-88873979D01*
X159353330Y-88860963D01*
X159363940Y-88841525D01*
X159370179Y-88820275D01*
X159386803Y-88799643D01*
X159386808Y-88799636D01*
X159386811Y-88799634D01*
X159386818Y-88799626D01*
X160057037Y-88129408D01*
X160074075Y-88192993D01*
X160139901Y-88307007D01*
X160232993Y-88400099D01*
X160347007Y-88465925D01*
X160410590Y-88482962D01*
X159778282Y-89115269D01*
X159778282Y-89115270D01*
X159832449Y-89154624D01*
X160021782Y-89251095D01*
X160223870Y-89316757D01*
X160433754Y-89350000D01*
X160646246Y-89350000D01*
X160856127Y-89316757D01*
X160856130Y-89316757D01*
X161058217Y-89251095D01*
X161247554Y-89154622D01*
X161301716Y-89115270D01*
X161301717Y-89115270D01*
X160971548Y-88785102D01*
X165465000Y-88785102D01*
X165465000Y-88994897D01*
X165505925Y-89200641D01*
X165505927Y-89200649D01*
X165586207Y-89394464D01*
X165620563Y-89445882D01*
X166140000Y-88926445D01*
X166140000Y-88941344D01*
X166166578Y-89040534D01*
X166217923Y-89129465D01*
X166290535Y-89202077D01*
X166379466Y-89253422D01*
X166478656Y-89280000D01*
X166493553Y-89280000D01*
X165974116Y-89799434D01*
X165974117Y-89799435D01*
X166025528Y-89833788D01*
X166025534Y-89833791D01*
X166219350Y-89914072D01*
X166219358Y-89914074D01*
X166425102Y-89954999D01*
X166425106Y-89955000D01*
X166634894Y-89955000D01*
X166634897Y-89954999D01*
X166840641Y-89914074D01*
X166840649Y-89914072D01*
X167034465Y-89833791D01*
X167034473Y-89833787D01*
X167085881Y-89799435D01*
X167085882Y-89799434D01*
X166566448Y-89280000D01*
X166581344Y-89280000D01*
X166680534Y-89253422D01*
X166769465Y-89202077D01*
X166842077Y-89129465D01*
X166893422Y-89040534D01*
X166920000Y-88941344D01*
X166920000Y-88926448D01*
X167439434Y-89445882D01*
X167439435Y-89445881D01*
X167473787Y-89394473D01*
X167473791Y-89394465D01*
X167554072Y-89200649D01*
X167554074Y-89200641D01*
X167594999Y-88994897D01*
X167595000Y-88994894D01*
X167595000Y-88785106D01*
X167594999Y-88785102D01*
X167554074Y-88579358D01*
X167554072Y-88579350D01*
X167473791Y-88385534D01*
X167473788Y-88385528D01*
X167439435Y-88334117D01*
X167439434Y-88334116D01*
X166920000Y-88853551D01*
X166920000Y-88838656D01*
X166893422Y-88739466D01*
X166842077Y-88650535D01*
X166769465Y-88577923D01*
X166680534Y-88526578D01*
X166581344Y-88500000D01*
X166566447Y-88500000D01*
X167085882Y-87980563D01*
X167034464Y-87946207D01*
X166840649Y-87865927D01*
X166840641Y-87865925D01*
X166634897Y-87825000D01*
X166425102Y-87825000D01*
X166219358Y-87865925D01*
X166219350Y-87865927D01*
X166025535Y-87946207D01*
X166025532Y-87946209D01*
X165974117Y-87980564D01*
X166493554Y-88500000D01*
X166478656Y-88500000D01*
X166379466Y-88526578D01*
X166290535Y-88577923D01*
X166217923Y-88650535D01*
X166166578Y-88739466D01*
X166140000Y-88838656D01*
X166140000Y-88853553D01*
X165620564Y-88334117D01*
X165586209Y-88385532D01*
X165586207Y-88385535D01*
X165505927Y-88579350D01*
X165505925Y-88579358D01*
X165465000Y-88785102D01*
X160971548Y-88785102D01*
X160669408Y-88482962D01*
X160732993Y-88465925D01*
X160847007Y-88400099D01*
X160940099Y-88307007D01*
X161005925Y-88192993D01*
X161022962Y-88129408D01*
X161655270Y-88761717D01*
X161655270Y-88761716D01*
X161694623Y-88707553D01*
X161791095Y-88518217D01*
X161856757Y-88316130D01*
X161856757Y-88316127D01*
X161890000Y-88106246D01*
X161890000Y-87893753D01*
X161856757Y-87683872D01*
X161856757Y-87683869D01*
X161791095Y-87481782D01*
X161694624Y-87292449D01*
X161655270Y-87238282D01*
X161655269Y-87238282D01*
X161022962Y-87870590D01*
X161005925Y-87807007D01*
X160940099Y-87692993D01*
X160847007Y-87599901D01*
X160732993Y-87534075D01*
X160669409Y-87517037D01*
X161301716Y-86884728D01*
X161247550Y-86845375D01*
X161058217Y-86748904D01*
X160856129Y-86683242D01*
X160646246Y-86650000D01*
X160433754Y-86650000D01*
X160223872Y-86683242D01*
X160223869Y-86683242D01*
X160021782Y-86748904D01*
X159832439Y-86845380D01*
X159778282Y-86884727D01*
X159778282Y-86884728D01*
X160410591Y-87517037D01*
X160347007Y-87534075D01*
X160232993Y-87599901D01*
X160139901Y-87692993D01*
X160074075Y-87807007D01*
X160057037Y-87870591D01*
X159386818Y-87200372D01*
X159353333Y-87139049D01*
X159353330Y-87139036D01*
X159350499Y-87126015D01*
X159350499Y-87102128D01*
X159344091Y-87042517D01*
X159305503Y-86939057D01*
X159293798Y-86907673D01*
X159293793Y-86907664D01*
X159207547Y-86792455D01*
X159207544Y-86792452D01*
X159092335Y-86706206D01*
X159092328Y-86706202D01*
X158957482Y-86655908D01*
X158957483Y-86655908D01*
X158897883Y-86649501D01*
X158897881Y-86649500D01*
X158897873Y-86649500D01*
X158897865Y-86649500D01*
X158550098Y-86649500D01*
X158520654Y-86640854D01*
X158490672Y-86634332D01*
X158485656Y-86630577D01*
X158483059Y-86629815D01*
X158462422Y-86613186D01*
X158368716Y-86519480D01*
X158368713Y-86519478D01*
X155104077Y-83254842D01*
X155070592Y-83193519D01*
X155073828Y-83128841D01*
X155075387Y-83124043D01*
X155078477Y-83114534D01*
X155110500Y-82912352D01*
X155110500Y-82707648D01*
X155091428Y-82587235D01*
X155078477Y-82505465D01*
X155031101Y-82359659D01*
X155015220Y-82310781D01*
X155015218Y-82310778D01*
X155015218Y-82310776D01*
X154958613Y-82199684D01*
X154922287Y-82128390D01*
X154899936Y-82097626D01*
X154801971Y-81962786D01*
X154657213Y-81818028D01*
X154491613Y-81697715D01*
X154491612Y-81697714D01*
X154491610Y-81697713D01*
X154434653Y-81668691D01*
X154309223Y-81604781D01*
X154114534Y-81541522D01*
X153939995Y-81513878D01*
X153912352Y-81509500D01*
X153707648Y-81509500D01*
X153669599Y-81515526D01*
X153505468Y-81541522D01*
X153496717Y-81544365D01*
X153491154Y-81546173D01*
X153421313Y-81548167D01*
X153365157Y-81515922D01*
X148551416Y-76702181D01*
X148517931Y-76640858D01*
X148522915Y-76571166D01*
X148564787Y-76515233D01*
X148630251Y-76490816D01*
X148639097Y-76490500D01*
X148832351Y-76490500D01*
X148832352Y-76490500D01*
X149034534Y-76458477D01*
X149229219Y-76395220D01*
X149411610Y-76302287D01*
X149517122Y-76225629D01*
X149577213Y-76181971D01*
X149577215Y-76181968D01*
X149577219Y-76181966D01*
X149721966Y-76037219D01*
X149721968Y-76037215D01*
X149721971Y-76037213D01*
X149842284Y-75871614D01*
X149842285Y-75871613D01*
X149842287Y-75871610D01*
X149889516Y-75778917D01*
X149937489Y-75728123D01*
X150005310Y-75711328D01*
X150071445Y-75733865D01*
X150110483Y-75778917D01*
X150140064Y-75836971D01*
X150157715Y-75871614D01*
X150278028Y-76037213D01*
X150422786Y-76181971D01*
X150556551Y-76279155D01*
X150588390Y-76302287D01*
X150702633Y-76360497D01*
X150770776Y-76395218D01*
X150770778Y-76395218D01*
X150770781Y-76395220D01*
X150875137Y-76429127D01*
X150965465Y-76458477D01*
X151030768Y-76468820D01*
X151167648Y-76490500D01*
X151167649Y-76490500D01*
X151372351Y-76490500D01*
X151372352Y-76490500D01*
X151574534Y-76458477D01*
X151588842Y-76453827D01*
X151658682Y-76451831D01*
X151714842Y-76484077D01*
X154095139Y-78864374D01*
X154095149Y-78864385D01*
X154099479Y-78868715D01*
X154099480Y-78868716D01*
X154211284Y-78980520D01*
X154298095Y-79030639D01*
X154298097Y-79030641D01*
X154317905Y-79042077D01*
X154348215Y-79059577D01*
X154500943Y-79100501D01*
X154500946Y-79100501D01*
X154666653Y-79100501D01*
X154666669Y-79100500D01*
X157742338Y-79100500D01*
X157809377Y-79120185D01*
X157852823Y-79168205D01*
X157866330Y-79194714D01*
X157988965Y-79363505D01*
X158136495Y-79511035D01*
X158305286Y-79633670D01*
X158384894Y-79674232D01*
X158491179Y-79728387D01*
X158491181Y-79728387D01*
X158491184Y-79728389D01*
X158597545Y-79762948D01*
X158689610Y-79792862D01*
X158895676Y-79825500D01*
X158895681Y-79825500D01*
X159104324Y-79825500D01*
X159310389Y-79792862D01*
X159508816Y-79728389D01*
X159694714Y-79633670D01*
X159863505Y-79511035D01*
X160011035Y-79363505D01*
X160133670Y-79194714D01*
X160228389Y-79008816D01*
X160292862Y-78810389D01*
X160300855Y-78759922D01*
X160325500Y-78604324D01*
X160325500Y-78395675D01*
X160292862Y-78189610D01*
X160248191Y-78052128D01*
X160228389Y-77991184D01*
X160228387Y-77991181D01*
X160228387Y-77991179D01*
X160178421Y-77893116D01*
X160133670Y-77805286D01*
X160011035Y-77636495D01*
X159863505Y-77488965D01*
X159797353Y-77440902D01*
X159694712Y-77366328D01*
X159643990Y-77340485D01*
X159593194Y-77292511D01*
X159576398Y-77224690D01*
X159598935Y-77158555D01*
X159643990Y-77119515D01*
X159694712Y-77093671D01*
X159694711Y-77093671D01*
X159694714Y-77093670D01*
X159863505Y-76971035D01*
X160011035Y-76823505D01*
X160133670Y-76654714D01*
X160228389Y-76468816D01*
X160292862Y-76270389D01*
X160309854Y-76163107D01*
X160325500Y-76064324D01*
X160325500Y-75855675D01*
X160292862Y-75649610D01*
X160253027Y-75527011D01*
X160228389Y-75451184D01*
X160228387Y-75451181D01*
X160228387Y-75451179D01*
X160159601Y-75316179D01*
X160133670Y-75265286D01*
X160011035Y-75096495D01*
X159863505Y-74948965D01*
X159767043Y-74878880D01*
X159724380Y-74823553D01*
X159718401Y-74753939D01*
X159751007Y-74692145D01*
X159783637Y-74668080D01*
X159800490Y-74659493D01*
X159912494Y-74602424D01*
X160061645Y-74481645D01*
X160182424Y-74332494D01*
X160269554Y-74161492D01*
X160319227Y-73976111D01*
X160325500Y-73896402D01*
X160325500Y-72943598D01*
X160319227Y-72863889D01*
X160269554Y-72678508D01*
X160182424Y-72507506D01*
X160107013Y-72414380D01*
X160061645Y-72358354D01*
X159963094Y-72278551D01*
X159912494Y-72237576D01*
X159741492Y-72150446D01*
X159741491Y-72150445D01*
X159741490Y-72150445D01*
X159556109Y-72100772D01*
X159476409Y-72094500D01*
X159476402Y-72094500D01*
X158523598Y-72094500D01*
X158523590Y-72094500D01*
X158443890Y-72100772D01*
X158258509Y-72150445D01*
X158087507Y-72237575D01*
X157938354Y-72358354D01*
X157817575Y-72507507D01*
X157730445Y-72678509D01*
X157680772Y-72863890D01*
X157674500Y-72943590D01*
X157674500Y-73896409D01*
X157680772Y-73976109D01*
X157728627Y-74154703D01*
X157730446Y-74161492D01*
X157817576Y-74332494D01*
X157832762Y-74351247D01*
X157938354Y-74481645D01*
X158087507Y-74602425D01*
X158216363Y-74668080D01*
X158267159Y-74716054D01*
X158283954Y-74783875D01*
X158261417Y-74850010D01*
X158232954Y-74878882D01*
X158223893Y-74885466D01*
X158136493Y-74948966D01*
X157988966Y-75096493D01*
X157866330Y-75265285D01*
X157771612Y-75451179D01*
X157707137Y-75649610D01*
X157674500Y-75855675D01*
X157674500Y-76064324D01*
X157707137Y-76270389D01*
X157771612Y-76468820D01*
X157840660Y-76604334D01*
X157866330Y-76654714D01*
X157988965Y-76823505D01*
X158136495Y-76971035D01*
X158305286Y-77093670D01*
X158352271Y-77117610D01*
X158356010Y-77119515D01*
X158406806Y-77167490D01*
X158423601Y-77235310D01*
X158401064Y-77301445D01*
X158356010Y-77340485D01*
X158305285Y-77366330D01*
X158136493Y-77488966D01*
X157988966Y-77636493D01*
X157866330Y-77805285D01*
X157852823Y-77831795D01*
X157804848Y-77882591D01*
X157742338Y-77899500D01*
X154880097Y-77899500D01*
X154813058Y-77879815D01*
X154792416Y-77863181D01*
X153631416Y-76702181D01*
X153597931Y-76640858D01*
X153602915Y-76571166D01*
X153644787Y-76515233D01*
X153710251Y-76490816D01*
X153719097Y-76490500D01*
X153912351Y-76490500D01*
X153912352Y-76490500D01*
X154114534Y-76458477D01*
X154309219Y-76395220D01*
X154491610Y-76302287D01*
X154597122Y-76225629D01*
X154657213Y-76181971D01*
X154657215Y-76181968D01*
X154657219Y-76181966D01*
X154801966Y-76037219D01*
X154801968Y-76037215D01*
X154801971Y-76037213D01*
X154878587Y-75931758D01*
X154922287Y-75871610D01*
X155015220Y-75689219D01*
X155078477Y-75494534D01*
X155110500Y-75292352D01*
X155110500Y-75087648D01*
X155088535Y-74948966D01*
X155078477Y-74885465D01*
X155035741Y-74753939D01*
X155015220Y-74690781D01*
X155015218Y-74690778D01*
X155015218Y-74690776D01*
X154978937Y-74619571D01*
X154922287Y-74508390D01*
X154902039Y-74480521D01*
X154801971Y-74342786D01*
X154657213Y-74198028D01*
X154491613Y-74077715D01*
X154491612Y-74077714D01*
X154491610Y-74077713D01*
X154417594Y-74040000D01*
X154309223Y-73984781D01*
X154114534Y-73921522D01*
X153939995Y-73893878D01*
X153912352Y-73889500D01*
X153707648Y-73889500D01*
X153683329Y-73893351D01*
X153505465Y-73921522D01*
X153310776Y-73984781D01*
X153128386Y-74077715D01*
X152962786Y-74198028D01*
X152818028Y-74342786D01*
X152697715Y-74508386D01*
X152650485Y-74601080D01*
X152602510Y-74651876D01*
X152534689Y-74668671D01*
X152468554Y-74646134D01*
X152429515Y-74601080D01*
X152425962Y-74594107D01*
X152382287Y-74508390D01*
X152362039Y-74480521D01*
X152261971Y-74342786D01*
X152117213Y-74198028D01*
X151951613Y-74077715D01*
X151951612Y-74077714D01*
X151951610Y-74077713D01*
X151877594Y-74040000D01*
X151769223Y-73984781D01*
X151574534Y-73921522D01*
X151399995Y-73893878D01*
X151372352Y-73889500D01*
X151167648Y-73889500D01*
X151143329Y-73893351D01*
X150965465Y-73921522D01*
X150770776Y-73984781D01*
X150588386Y-74077715D01*
X150422786Y-74198028D01*
X150278028Y-74342786D01*
X150157715Y-74508386D01*
X150110485Y-74601080D01*
X150062510Y-74651876D01*
X149994689Y-74668671D01*
X149928554Y-74646134D01*
X149889515Y-74601080D01*
X149885962Y-74594107D01*
X149842287Y-74508390D01*
X149822039Y-74480521D01*
X149721971Y-74342786D01*
X149577213Y-74198028D01*
X149411613Y-74077715D01*
X149411612Y-74077714D01*
X149411610Y-74077713D01*
X149337594Y-74040000D01*
X149229223Y-73984781D01*
X149034534Y-73921522D01*
X148859995Y-73893878D01*
X148832352Y-73889500D01*
X148627648Y-73889500D01*
X148603329Y-73893351D01*
X148425465Y-73921522D01*
X148230776Y-73984781D01*
X148048386Y-74077715D01*
X147882786Y-74198028D01*
X147738028Y-74342786D01*
X147617715Y-74508386D01*
X147570485Y-74601080D01*
X147522510Y-74651876D01*
X147454689Y-74668671D01*
X147388554Y-74646134D01*
X147349515Y-74601080D01*
X147345962Y-74594107D01*
X147302287Y-74508390D01*
X147282039Y-74480521D01*
X147181971Y-74342786D01*
X147037213Y-74198028D01*
X146871610Y-74077712D01*
X146858200Y-74070879D01*
X146807406Y-74022903D01*
X146790500Y-73960397D01*
X146790500Y-71370097D01*
X146810185Y-71303058D01*
X146826819Y-71282416D01*
X148772416Y-69336819D01*
X148833739Y-69303334D01*
X148860097Y-69300500D01*
X148982351Y-69300500D01*
X148982352Y-69300500D01*
X149184534Y-69268477D01*
X149198842Y-69263827D01*
X149214054Y-69263392D01*
X149228315Y-69258074D01*
X149248268Y-69262414D01*
X149268682Y-69261831D01*
X149282769Y-69269920D01*
X149296588Y-69272926D01*
X149324842Y-69294077D01*
X149495139Y-69464374D01*
X149495149Y-69464385D01*
X149499479Y-69468715D01*
X149499480Y-69468716D01*
X149611284Y-69580520D01*
X149682765Y-69621789D01*
X149748215Y-69659577D01*
X149900943Y-69700501D01*
X149900946Y-69700501D01*
X150066653Y-69700501D01*
X150066669Y-69700500D01*
X161574684Y-69700500D01*
X161622136Y-69709939D01*
X161766498Y-69769735D01*
X161766503Y-69769737D01*
X161921153Y-69800499D01*
X161921156Y-69800500D01*
X161921158Y-69800500D01*
X162078843Y-69800500D01*
X162094564Y-69797372D01*
X162151309Y-69786085D01*
X162220899Y-69792312D01*
X162276077Y-69835174D01*
X162299322Y-69901063D01*
X162299500Y-69907702D01*
X162299500Y-81316625D01*
X162299499Y-81316643D01*
X162299499Y-81482349D01*
X162299498Y-81482349D01*
X162340423Y-81635080D01*
X162367257Y-81681556D01*
X162367258Y-81681560D01*
X162367259Y-81681560D01*
X162419479Y-81772009D01*
X162419481Y-81772012D01*
X162538349Y-81890880D01*
X162538354Y-81890884D01*
X165802989Y-85155520D01*
X165802991Y-85155521D01*
X165802995Y-85155524D01*
X165946959Y-85238641D01*
X165945790Y-85240665D01*
X165990854Y-85276977D01*
X166012923Y-85343270D01*
X165995647Y-85410970D01*
X165957893Y-85450804D01*
X165850783Y-85522371D01*
X165702373Y-85670781D01*
X165585765Y-85845298D01*
X165505447Y-86039204D01*
X165505445Y-86039210D01*
X165464500Y-86245054D01*
X165464500Y-86245057D01*
X165464500Y-86454943D01*
X165464500Y-86454945D01*
X165464499Y-86454945D01*
X165505445Y-86660789D01*
X165505447Y-86660795D01*
X165585765Y-86854701D01*
X165702373Y-87029218D01*
X165850781Y-87177626D01*
X166025298Y-87294234D01*
X166122251Y-87334393D01*
X166219205Y-87374553D01*
X166219209Y-87374553D01*
X166219210Y-87374554D01*
X166425054Y-87415500D01*
X166425057Y-87415500D01*
X166634945Y-87415500D01*
X166773433Y-87387952D01*
X166840795Y-87374553D01*
X167034703Y-87294233D01*
X167209216Y-87177628D01*
X167357628Y-87029216D01*
X167474233Y-86854703D01*
X167554553Y-86660795D01*
X167575138Y-86557307D01*
X167595500Y-86454945D01*
X167595500Y-86384484D01*
X167615185Y-86317445D01*
X167667989Y-86271690D01*
X167737147Y-86261746D01*
X167745217Y-86263180D01*
X167756393Y-86265549D01*
X167766503Y-86269737D01*
X167921158Y-86300500D01*
X167921248Y-86300500D01*
X167923375Y-86300951D01*
X167953488Y-86317188D01*
X167983760Y-86333023D01*
X167984860Y-86334104D01*
X167984875Y-86334112D01*
X167984882Y-86334125D01*
X167985339Y-86334574D01*
X178593181Y-96942416D01*
X178626666Y-97003739D01*
X178629500Y-97030097D01*
X178629500Y-99158164D01*
X178609815Y-99225203D01*
X178561796Y-99268648D01*
X178495976Y-99302185D01*
X178317641Y-99431752D01*
X178317636Y-99431756D01*
X178161756Y-99587636D01*
X178161752Y-99587641D01*
X178032187Y-99765974D01*
X177932104Y-99962393D01*
X177932103Y-99962396D01*
X177863985Y-100172047D01*
X177863985Y-100172049D01*
X177829500Y-100389778D01*
X177829500Y-100610222D01*
X177832385Y-100628436D01*
X177863985Y-100827952D01*
X177932103Y-101037603D01*
X177932104Y-101037606D01*
X178032187Y-101234025D01*
X178161752Y-101412358D01*
X178161756Y-101412363D01*
X178317636Y-101568243D01*
X178317641Y-101568247D01*
X178470315Y-101679170D01*
X178495978Y-101697815D01*
X178619443Y-101760724D01*
X178692393Y-101797895D01*
X178692396Y-101797896D01*
X178797221Y-101831955D01*
X178902049Y-101866015D01*
X179119778Y-101900500D01*
X179119779Y-101900500D01*
X179220902Y-101900500D01*
X179287941Y-101920185D01*
X179333696Y-101972989D01*
X179343640Y-102042147D01*
X179314615Y-102105703D01*
X179308583Y-102112181D01*
X175557584Y-105863181D01*
X175496261Y-105896666D01*
X175469903Y-105899500D01*
X174724500Y-105899500D01*
X174657461Y-105879815D01*
X174611706Y-105827011D01*
X174600500Y-105775500D01*
X174600500Y-96729601D01*
X174620185Y-96662562D01*
X174668206Y-96619116D01*
X174681610Y-96612287D01*
X174847219Y-96491966D01*
X174991966Y-96347219D01*
X174991968Y-96347215D01*
X174991971Y-96347213D01*
X175054550Y-96261079D01*
X175112287Y-96181610D01*
X175205220Y-95999219D01*
X175268477Y-95804534D01*
X175300500Y-95602352D01*
X175300500Y-95397648D01*
X175280928Y-95274076D01*
X175268477Y-95195465D01*
X175221051Y-95049503D01*
X175205220Y-95000781D01*
X175205218Y-95000778D01*
X175205218Y-95000776D01*
X175147826Y-94888139D01*
X175112287Y-94818390D01*
X175080092Y-94774077D01*
X174991971Y-94652786D01*
X174847213Y-94508028D01*
X174681613Y-94387715D01*
X174681612Y-94387714D01*
X174681610Y-94387713D01*
X174624653Y-94358691D01*
X174499223Y-94294781D01*
X174304534Y-94231522D01*
X174129995Y-94203878D01*
X174102352Y-94199500D01*
X173897648Y-94199500D01*
X173873329Y-94203351D01*
X173695465Y-94231522D01*
X173500776Y-94294781D01*
X173318386Y-94387715D01*
X173152786Y-94508028D01*
X173008028Y-94652786D01*
X172887715Y-94818386D01*
X172794781Y-95000776D01*
X172731522Y-95195465D01*
X172699500Y-95397648D01*
X172699500Y-95602351D01*
X172731522Y-95804534D01*
X172794781Y-95999223D01*
X172843476Y-96094790D01*
X172887585Y-96181359D01*
X172887715Y-96181613D01*
X173008028Y-96347213D01*
X173008034Y-96347219D01*
X173152781Y-96491966D01*
X173318390Y-96612287D01*
X173331793Y-96619116D01*
X173382589Y-96667088D01*
X173399500Y-96729601D01*
X173399500Y-106199902D01*
X173379815Y-106266941D01*
X173363181Y-106287583D01*
X165587582Y-114063181D01*
X165526259Y-114096666D01*
X165499901Y-114099500D01*
X164052129Y-114099500D01*
X164052123Y-114099501D01*
X163992516Y-114105908D01*
X163857671Y-114156202D01*
X163857664Y-114156206D01*
X163742455Y-114242452D01*
X163742452Y-114242455D01*
X163656206Y-114357664D01*
X163656203Y-114357669D01*
X163626398Y-114437581D01*
X163584526Y-114493514D01*
X163519062Y-114517931D01*
X163450789Y-114503079D01*
X163422535Y-114481928D01*
X163372363Y-114431756D01*
X163372358Y-114431752D01*
X163194025Y-114302187D01*
X163194024Y-114302186D01*
X163194022Y-114302185D01*
X163076791Y-114242452D01*
X162997606Y-114202104D01*
X162997603Y-114202103D01*
X162787952Y-114133985D01*
X162679086Y-114116742D01*
X162570222Y-114099500D01*
X162349778Y-114099500D01*
X162277201Y-114110995D01*
X162132047Y-114133985D01*
X161922396Y-114202103D01*
X161922393Y-114202104D01*
X161725974Y-114302187D01*
X161547641Y-114431752D01*
X161547636Y-114431756D01*
X161391756Y-114587636D01*
X161391752Y-114587641D01*
X161262187Y-114765974D01*
X161162104Y-114962393D01*
X161162103Y-114962396D01*
X161093985Y-115172047D01*
X161059500Y-115389778D01*
X161059500Y-115610221D01*
X161093985Y-115827952D01*
X161162103Y-116037603D01*
X161162104Y-116037606D01*
X161262187Y-116234025D01*
X161391752Y-116412358D01*
X161391756Y-116412363D01*
X161547636Y-116568243D01*
X161547641Y-116568247D01*
X161649606Y-116642328D01*
X161725978Y-116697815D01*
X161854375Y-116763237D01*
X161922393Y-116797895D01*
X161922396Y-116797896D01*
X162027221Y-116831955D01*
X162132049Y-116866015D01*
X162349778Y-116900500D01*
X162349779Y-116900500D01*
X162570221Y-116900500D01*
X162570222Y-116900500D01*
X162787951Y-116866015D01*
X162997606Y-116797895D01*
X163194022Y-116697815D01*
X163372365Y-116568242D01*
X163422536Y-116518070D01*
X163483857Y-116484586D01*
X163553548Y-116489570D01*
X163609482Y-116531441D01*
X163626398Y-116562419D01*
X163656202Y-116642328D01*
X163656206Y-116642335D01*
X163742452Y-116757544D01*
X163742455Y-116757547D01*
X163857664Y-116843793D01*
X163857671Y-116843797D01*
X163992517Y-116894091D01*
X163992516Y-116894091D01*
X163999444Y-116894835D01*
X164052127Y-116900500D01*
X165947872Y-116900499D01*
X166007483Y-116894091D01*
X166142331Y-116843796D01*
X166257546Y-116757546D01*
X166343796Y-116642331D01*
X166394091Y-116507483D01*
X166400500Y-116447873D01*
X166400499Y-115000095D01*
X166420184Y-114933057D01*
X166436813Y-114912420D01*
X174212416Y-107136819D01*
X174273739Y-107103334D01*
X174300097Y-107100500D01*
X175683331Y-107100500D01*
X175683347Y-107100501D01*
X175690943Y-107100501D01*
X175849054Y-107100501D01*
X175849057Y-107100501D01*
X176001785Y-107059577D01*
X176051904Y-107030639D01*
X176138716Y-106980520D01*
X176250520Y-106868716D01*
X176250520Y-106868714D01*
X176260728Y-106858507D01*
X176260730Y-106858504D01*
X181182416Y-101936818D01*
X181243739Y-101903333D01*
X181270097Y-101900499D01*
X182717871Y-101900499D01*
X182717872Y-101900499D01*
X182777483Y-101894091D01*
X182912331Y-101843796D01*
X183027546Y-101757546D01*
X183113796Y-101642331D01*
X183164091Y-101507483D01*
X183170500Y-101447873D01*
X183170499Y-99552128D01*
X183164091Y-99492517D01*
X183143601Y-99437581D01*
X183113797Y-99357671D01*
X183113793Y-99357664D01*
X183027547Y-99242455D01*
X183027544Y-99242452D01*
X182912335Y-99156206D01*
X182912328Y-99156202D01*
X182777482Y-99105908D01*
X182777483Y-99105908D01*
X182717872Y-99099499D01*
X182717838Y-99099498D01*
X182717830Y-99099495D01*
X182714572Y-99099145D01*
X182714654Y-99098374D01*
X182651953Y-99076240D01*
X182609101Y-99021054D01*
X182600500Y-98975677D01*
X182600500Y-80524499D01*
X182620185Y-80457460D01*
X182672989Y-80411705D01*
X182724500Y-80400499D01*
X182947871Y-80400499D01*
X182947872Y-80400499D01*
X183007483Y-80394091D01*
X183142331Y-80343796D01*
X183257546Y-80257546D01*
X183343796Y-80142331D01*
X183394091Y-80007483D01*
X183400500Y-79947873D01*
X183400499Y-78052128D01*
X183394091Y-77992517D01*
X183381000Y-77957419D01*
X183343797Y-77857671D01*
X183343793Y-77857664D01*
X183257547Y-77742455D01*
X183257544Y-77742452D01*
X183142335Y-77656206D01*
X183142328Y-77656202D01*
X183007482Y-77605908D01*
X183007483Y-77605908D01*
X182947883Y-77599501D01*
X182947881Y-77599500D01*
X182947873Y-77599500D01*
X182947865Y-77599500D01*
X182724500Y-77599500D01*
X182657461Y-77579815D01*
X182611706Y-77527011D01*
X182600500Y-77475500D01*
X182600500Y-77420945D01*
X182600500Y-77420943D01*
X182559577Y-77268216D01*
X182559573Y-77268209D01*
X182480524Y-77131290D01*
X182480521Y-77131286D01*
X182480520Y-77131284D01*
X182368716Y-77019480D01*
X182368715Y-77019479D01*
X182364385Y-77015149D01*
X182364374Y-77015139D01*
X179136819Y-73787584D01*
X179103334Y-73726261D01*
X179100500Y-73699903D01*
X179100500Y-71800096D01*
X179120185Y-71733057D01*
X179136814Y-71712420D01*
X187412416Y-63436817D01*
X187473739Y-63403333D01*
X187500097Y-63400499D01*
X188947871Y-63400499D01*
X188947872Y-63400499D01*
X189007483Y-63394091D01*
X189142331Y-63343796D01*
X189257546Y-63257546D01*
X189343796Y-63142331D01*
X189394091Y-63007483D01*
X189400500Y-62947873D01*
X189400499Y-61052128D01*
X189394091Y-60992517D01*
X189392650Y-60988654D01*
X189343797Y-60857671D01*
X189343793Y-60857664D01*
X189257547Y-60742455D01*
X189257544Y-60742452D01*
X189142335Y-60656206D01*
X189142328Y-60656202D01*
X189007482Y-60605908D01*
X189007483Y-60605908D01*
X188947883Y-60599501D01*
X188947881Y-60599500D01*
X188947873Y-60599500D01*
X188947865Y-60599500D01*
X187500097Y-60599500D01*
X187433058Y-60579815D01*
X187412416Y-60563181D01*
X186987590Y-60138355D01*
X186987588Y-60138352D01*
X186868717Y-60019481D01*
X186868709Y-60019475D01*
X186762959Y-59958421D01*
X186762958Y-59958420D01*
X186762958Y-59958421D01*
X186731785Y-59940423D01*
X186579057Y-59899499D01*
X186420943Y-59899499D01*
X186413347Y-59899499D01*
X186413331Y-59899500D01*
X178936082Y-59899500D01*
X178869043Y-59879815D01*
X178848401Y-59863181D01*
X178438433Y-59453213D01*
X178404948Y-59391890D01*
X178409932Y-59322198D01*
X178442623Y-59273852D01*
X178456765Y-59260973D01*
X178630563Y-59102698D01*
X178632780Y-59100730D01*
X178918230Y-58853419D01*
X178921770Y-58850467D01*
X179507515Y-58380452D01*
X179512539Y-58376629D01*
X180101655Y-57951871D01*
X180107021Y-57948213D01*
X180702722Y-57564717D01*
X180708371Y-57561291D01*
X181311002Y-57217633D01*
X181316895Y-57214483D01*
X181926769Y-56909492D01*
X181932913Y-56906629D01*
X182550498Y-56639285D01*
X182556826Y-56636751D01*
X183182588Y-56406261D01*
X183189093Y-56404070D01*
X183823472Y-56209857D01*
X183830124Y-56208022D01*
X184473598Y-56049702D01*
X184480307Y-56048248D01*
X185133291Y-55925634D01*
X185139990Y-55924567D01*
X185802747Y-55837666D01*
X185809470Y-55836971D01*
X186481993Y-55785963D01*
X186488647Y-55785638D01*
X187170830Y-55770800D01*
X187177378Y-55770831D01*
X187868507Y-55792516D01*
X187874908Y-55792885D01*
X188573870Y-55851418D01*
X188580179Y-55852108D01*
X189285053Y-55947673D01*
X189291151Y-55948655D01*
X189998933Y-56081094D01*
X190004887Y-56082361D01*
X190710918Y-56250863D01*
X190716714Y-56252396D01*
X190993813Y-56332911D01*
X191413766Y-56454933D01*
X191419433Y-56456727D01*
X192096164Y-56689061D01*
X192101692Y-56691108D01*
X192320131Y-56777973D01*
X192738536Y-56944357D01*
X192744048Y-56946705D01*
X192780793Y-56963415D01*
X193302347Y-57200598D01*
X193308353Y-57203529D01*
X193713908Y-57415244D01*
X193717234Y-57418193D01*
X193772271Y-57445711D01*
X193775252Y-57447267D01*
X193780013Y-57449887D01*
X193954393Y-57550946D01*
X193967092Y-57559391D01*
X193974140Y-57564731D01*
X194125189Y-57679177D01*
X194136756Y-57689120D01*
X194189752Y-57740669D01*
X194278934Y-57827417D01*
X194289196Y-57838709D01*
X194413310Y-57993432D01*
X194422101Y-58005891D01*
X194526257Y-58174678D01*
X194533457Y-58188134D01*
X194616093Y-58368443D01*
X194621587Y-58382684D01*
X194668834Y-58531945D01*
X194674368Y-58561550D01*
X194689302Y-58798000D01*
X194689487Y-58801896D01*
X194698793Y-59096127D01*
X194698855Y-59100077D01*
X194698784Y-59390751D01*
X194698719Y-59394747D01*
X194689595Y-59675591D01*
X194689250Y-59681638D01*
X194643071Y-60248222D01*
X194642136Y-60256360D01*
X194560745Y-60804541D01*
X194559260Y-60812671D01*
X194442633Y-61349167D01*
X194440604Y-61357200D01*
X194288727Y-61883614D01*
X194286176Y-61891463D01*
X194098675Y-62409203D01*
X194095641Y-62416790D01*
X193871759Y-62927195D01*
X193868292Y-62934450D01*
X193606948Y-63438636D01*
X193603108Y-63445501D01*
X193302943Y-63944362D01*
X193298795Y-63950798D01*
X192958187Y-64445016D01*
X192953797Y-64450995D01*
X192570964Y-64940973D01*
X192566400Y-64946479D01*
X192139397Y-65432409D01*
X192134718Y-65437445D01*
X191661494Y-65919283D01*
X191656759Y-65923855D01*
X191135355Y-66401211D01*
X191130610Y-66405339D01*
X190559059Y-66877638D01*
X190554346Y-66881345D01*
X189930799Y-67347776D01*
X189926150Y-67351089D01*
X189249126Y-67810497D01*
X189244566Y-67813447D01*
X188512897Y-68264452D01*
X188508444Y-68267071D01*
X187721707Y-68707897D01*
X187717372Y-68710214D01*
X186876016Y-69138745D01*
X186871802Y-69140792D01*
X185977725Y-69554418D01*
X185973632Y-69556223D01*
X185030965Y-69951696D01*
X185026982Y-69953287D01*
X184043239Y-70326534D01*
X184039350Y-70327935D01*
X183028096Y-70673520D01*
X183024272Y-70674758D01*
X182009880Y-70985089D01*
X182006076Y-70986187D01*
X181035986Y-71249404D01*
X181032131Y-71250384D01*
X180214889Y-71444213D01*
X180211460Y-71444975D01*
X179905540Y-71508438D01*
X179905539Y-71508437D01*
X179904044Y-71508747D01*
X179845076Y-71519541D01*
X179839669Y-71522104D01*
X179836699Y-71522720D01*
X179833820Y-71523318D01*
X179833818Y-71523318D01*
X179833817Y-71523319D01*
X179810503Y-71535054D01*
X179781521Y-71549642D01*
X179778907Y-71550919D01*
X179726001Y-71576010D01*
X179721041Y-71579214D01*
X179716105Y-71582572D01*
X179672378Y-71621557D01*
X179671284Y-71622532D01*
X179625602Y-71661373D01*
X179622204Y-71666292D01*
X179617743Y-71670270D01*
X179585630Y-71719193D01*
X179584003Y-71721609D01*
X179550711Y-71769819D01*
X179548036Y-71775037D01*
X179545427Y-71780441D01*
X179527060Y-71836038D01*
X179526115Y-71838788D01*
X179506449Y-71893936D01*
X179505183Y-71899824D01*
X179504090Y-71905569D01*
X179500739Y-71964032D01*
X179500656Y-71965487D01*
X179495815Y-72025293D01*
X179496891Y-72031172D01*
X179496549Y-72037145D01*
X179496550Y-72037148D01*
X179508435Y-72094441D01*
X179508993Y-72097301D01*
X179519540Y-72154924D01*
X179521355Y-72160556D01*
X179523315Y-72166176D01*
X179526026Y-72171561D01*
X179550297Y-72219778D01*
X179576010Y-72273997D01*
X179579882Y-72278551D01*
X179582572Y-72283895D01*
X179622512Y-72328691D01*
X179661373Y-72374398D01*
X179666294Y-72377796D01*
X179670273Y-72382259D01*
X179670275Y-72382260D01*
X179670277Y-72382262D01*
X179719209Y-72414380D01*
X179721626Y-72416007D01*
X179769812Y-72449284D01*
X179769821Y-72449287D01*
X179775083Y-72451983D01*
X179780439Y-72454570D01*
X179780445Y-72454574D01*
X179836137Y-72472970D01*
X179838685Y-72473846D01*
X179893939Y-72493551D01*
X179893945Y-72493551D01*
X179899811Y-72494812D01*
X179905574Y-72495909D01*
X179905575Y-72495909D01*
X179905578Y-72495910D01*
X179964088Y-72499262D01*
X179966872Y-72499454D01*
X180162486Y-72515289D01*
X180179418Y-72517849D01*
X180392859Y-72565395D01*
X180406573Y-72569289D01*
X180679655Y-72664154D01*
X180682465Y-72665130D01*
X180693618Y-72669622D01*
X180847754Y-72740563D01*
X181029152Y-72824051D01*
X181038311Y-72828737D01*
X181428405Y-73049249D01*
X181436071Y-73053959D01*
X181873250Y-73344932D01*
X181879808Y-73349610D01*
X182358326Y-73715059D01*
X182362655Y-73718521D01*
X182607936Y-73923832D01*
X182610610Y-73926136D01*
X182693918Y-74000000D01*
X182846788Y-74135542D01*
X182863827Y-74150649D01*
X182866339Y-74152938D01*
X183080466Y-74353554D01*
X183124148Y-74394479D01*
X183126520Y-74396762D01*
X183384684Y-74651876D01*
X183387092Y-74654255D01*
X183389329Y-74656524D01*
X183421068Y-74689554D01*
X183650810Y-74928644D01*
X183652952Y-74930931D01*
X183893031Y-75193762D01*
X183907170Y-75209241D01*
X183915586Y-75218454D01*
X183917624Y-75220741D01*
X184165978Y-75506509D01*
X184177964Y-75520300D01*
X184179911Y-75522597D01*
X184440000Y-75836971D01*
X184441860Y-75839274D01*
X184697000Y-76163107D01*
X184698781Y-76165423D01*
X184871217Y-76395220D01*
X184942713Y-76490500D01*
X184952314Y-76503294D01*
X184954011Y-76505611D01*
X185036348Y-76620827D01*
X185200573Y-76850631D01*
X185202207Y-76852974D01*
X185445942Y-77211197D01*
X185447507Y-77213554D01*
X185682782Y-77576903D01*
X185684282Y-77579278D01*
X185915679Y-77955027D01*
X185917115Y-77957419D01*
X185952609Y-78018071D01*
X186092753Y-78257546D01*
X186138975Y-78336528D01*
X186140341Y-78338923D01*
X186214820Y-78472987D01*
X186357429Y-78729685D01*
X186358743Y-78732114D01*
X186565590Y-79124799D01*
X186566845Y-79127247D01*
X186626536Y-79246931D01*
X186763725Y-79522005D01*
X186768091Y-79530758D01*
X186769274Y-79533196D01*
X186879086Y-79766135D01*
X186959938Y-79937643D01*
X186961076Y-79940128D01*
X187145448Y-80354683D01*
X187146529Y-80357187D01*
X187320059Y-80771679D01*
X187321082Y-80774200D01*
X187436321Y-81067355D01*
X187474726Y-81165054D01*
X187487748Y-81198179D01*
X187488708Y-81200702D01*
X187540446Y-81341284D01*
X187644506Y-81624038D01*
X187645414Y-81626592D01*
X187777176Y-82010289D01*
X187793832Y-82058790D01*
X187794677Y-82061340D01*
X187806259Y-82097628D01*
X187932261Y-82492400D01*
X187933054Y-82494982D01*
X188062813Y-82934340D01*
X188063549Y-82936935D01*
X188182597Y-83374874D01*
X188183275Y-83377479D01*
X188294105Y-83823192D01*
X188294725Y-83825807D01*
X188394978Y-84269875D01*
X188395540Y-84272497D01*
X188487254Y-84723973D01*
X188487759Y-84726601D01*
X188569052Y-85176329D01*
X188569498Y-85178961D01*
X188641924Y-85635594D01*
X188642313Y-85638228D01*
X188704484Y-86093140D01*
X188704815Y-86095775D01*
X188757850Y-86557307D01*
X188758124Y-86559940D01*
X188801026Y-87019634D01*
X188801244Y-87022263D01*
X188834765Y-87488409D01*
X188834925Y-87491033D01*
X188858439Y-87955447D01*
X188858544Y-87958062D01*
X188872415Y-88428470D01*
X188872465Y-88431076D01*
X188876432Y-88900123D01*
X188876426Y-88902717D01*
X188870512Y-89377320D01*
X188870453Y-89379901D01*
X188854693Y-89853330D01*
X188854581Y-89855894D01*
X188828709Y-90334751D01*
X188828545Y-90337298D01*
X188792860Y-90815023D01*
X188792646Y-90817550D01*
X188746607Y-91300651D01*
X188746342Y-91303157D01*
X188690487Y-91785297D01*
X188690174Y-91787779D01*
X188623749Y-92274948D01*
X188623389Y-92277406D01*
X188547085Y-92763998D01*
X188546679Y-92766430D01*
X188459570Y-93257878D01*
X188459119Y-93260282D01*
X188362058Y-93751309D01*
X188361565Y-93753683D01*
X188253457Y-94249433D01*
X188252922Y-94251776D01*
X188134737Y-94747380D01*
X188134162Y-94749692D01*
X188004700Y-95249810D01*
X188004092Y-95252068D01*
X187985498Y-95318652D01*
X187864391Y-95752303D01*
X187863741Y-95754547D01*
X187712647Y-96258710D01*
X187711911Y-96261079D01*
X187539932Y-96795780D01*
X187531748Y-96815318D01*
X187066765Y-97703640D01*
X187064632Y-97707543D01*
X186524380Y-98655289D01*
X186522205Y-98658956D01*
X185923790Y-99629598D01*
X185921591Y-99633036D01*
X185262825Y-100626792D01*
X185260616Y-100630014D01*
X184539125Y-101647285D01*
X184536916Y-101650302D01*
X183750532Y-102691094D01*
X183748335Y-102693917D01*
X182894751Y-103758356D01*
X182892572Y-103760997D01*
X181969694Y-104848888D01*
X181967541Y-104851359D01*
X180973316Y-105962435D01*
X180971193Y-105964748D01*
X179903660Y-107098623D01*
X179901571Y-107100789D01*
X178759090Y-108256738D01*
X178757037Y-108258767D01*
X177538023Y-109436037D01*
X177536008Y-109437940D01*
X176239313Y-110635391D01*
X176237336Y-110637178D01*
X174862042Y-111853514D01*
X174860103Y-111855193D01*
X173405909Y-113088655D01*
X173404007Y-113090236D01*
X171870969Y-114338865D01*
X171869102Y-114340356D01*
X170257995Y-115601725D01*
X170256161Y-115603133D01*
X168568348Y-116874506D01*
X168566543Y-116875840D01*
X166804518Y-118153796D01*
X166802739Y-118155063D01*
X164969785Y-119435821D01*
X164968028Y-119437026D01*
X163068702Y-120716154D01*
X163066961Y-120717306D01*
X161106931Y-121989897D01*
X161105201Y-121991000D01*
X159091902Y-123251307D01*
X159090175Y-123252368D01*
X157032604Y-124494046D01*
X157030873Y-124495072D01*
X154939325Y-125711396D01*
X154937580Y-125712392D01*
X152824661Y-126895757D01*
X152822891Y-126896729D01*
X150702760Y-128039191D01*
X150700954Y-128040146D01*
X148587832Y-129134287D01*
X148586441Y-129134995D01*
X147539162Y-129660652D01*
X147538216Y-129661122D01*
X146500471Y-130170973D01*
X146499507Y-130171442D01*
X145471410Y-130665562D01*
X145470423Y-130666031D01*
X144455547Y-131142835D01*
X144454536Y-131143304D01*
X143456326Y-131601374D01*
X143455287Y-131601845D01*
X142472436Y-132041965D01*
X142471366Y-132042438D01*
X141512083Y-132461186D01*
X141510977Y-132461663D01*
X140568888Y-132862058D01*
X140567743Y-132862538D01*
X139655694Y-133239431D01*
X139654504Y-133239915D01*
X138761810Y-133598021D01*
X138760570Y-133598511D01*
X137903373Y-133931727D01*
X137902077Y-133932222D01*
X137065673Y-134246627D01*
X137064315Y-134247129D01*
X136268452Y-134535734D01*
X136267023Y-134536242D01*
X135492894Y-134806301D01*
X135491388Y-134806816D01*
X134761507Y-135050980D01*
X134759913Y-135051501D01*
X134052390Y-135277589D01*
X134050700Y-135278116D01*
X133389810Y-135478952D01*
X133388010Y-135479484D01*
X132749691Y-135662951D01*
X132747769Y-135663487D01*
X132157115Y-135823016D01*
X132155058Y-135823552D01*
X131586863Y-135966608D01*
X131584654Y-135967143D01*
X131064033Y-136088119D01*
X131061653Y-136088648D01*
X130562861Y-136194260D01*
X130560292Y-136194775D01*
X130107849Y-136280627D01*
X130105066Y-136281122D01*
X129673767Y-136352818D01*
X129670746Y-136353282D01*
X129283680Y-136407860D01*
X129280394Y-136408279D01*
X128913491Y-136450053D01*
X128909908Y-136450408D01*
X128584473Y-136477917D01*
X128580561Y-136478186D01*
X128274236Y-136494344D01*
X128269964Y-136494495D01*
X128003596Y-136499350D01*
X127998555Y-136499340D01*
X127803476Y-136494963D01*
X127797843Y-136494708D01*
X127607708Y-136481776D01*
X127602027Y-136481258D01*
X127415706Y-136459941D01*
X127410014Y-136459156D01*
X127234106Y-136430721D01*
X127225607Y-136429041D01*
X126860312Y-136343456D01*
X126849205Y-136340301D01*
X126499163Y-136223022D01*
X126488534Y-136218909D01*
X126476276Y-136213505D01*
X126255481Y-136116164D01*
X126143842Y-136066946D01*
X126133886Y-136062013D01*
X125792211Y-135873190D01*
X125783071Y-135867610D01*
X125716649Y-135823016D01*
X125442613Y-135639035D01*
X125434387Y-135633007D01*
X125093812Y-135361159D01*
X125086512Y-135354851D01*
X125004125Y-135277864D01*
X124745100Y-135035815D01*
X124738714Y-135029395D01*
X124396125Y-134658848D01*
X124390609Y-134652458D01*
X124046919Y-134225796D01*
X124042206Y-134219551D01*
X124004930Y-134166774D01*
X123838920Y-133931727D01*
X123697851Y-133731994D01*
X123693850Y-133725963D01*
X123349463Y-133172433D01*
X123346093Y-133166677D01*
X123002556Y-132541944D01*
X122999734Y-132536497D01*
X122963281Y-132461663D01*
X122658092Y-131835140D01*
X122655747Y-131830033D01*
X122555454Y-131597905D01*
X122317155Y-131046361D01*
X122315208Y-131041581D01*
X121980993Y-130169842D01*
X121979386Y-130165396D01*
X121650916Y-129199507D01*
X121649609Y-129195432D01*
X121328332Y-128129062D01*
X121327240Y-128125211D01*
X121014757Y-126952089D01*
X121013862Y-126948516D01*
X120711741Y-125661801D01*
X120711012Y-125658492D01*
X120641609Y-125321816D01*
X120420927Y-124251280D01*
X120420356Y-124248323D01*
X120144033Y-122713484D01*
X120143557Y-122710648D01*
X119882771Y-121040835D01*
X119882390Y-121038209D01*
X119664107Y-119413122D01*
X119638933Y-119225708D01*
X119638633Y-119223294D01*
X119605268Y-118931270D01*
X119414288Y-117259714D01*
X119414053Y-117257466D01*
X119379857Y-116900500D01*
X119210641Y-115134118D01*
X119210472Y-115132173D01*
X119029765Y-112839266D01*
X119029644Y-112837553D01*
X118873374Y-110364015D01*
X118873276Y-110362262D01*
X118861642Y-110123911D01*
X118743036Y-107694009D01*
X118742970Y-107692419D01*
X118742159Y-107669680D01*
X118640145Y-104809798D01*
X118640111Y-104808653D01*
X118565730Y-101680430D01*
X118565707Y-101679170D01*
X118563427Y-101507482D01*
X118520089Y-98244114D01*
X118520082Y-98243394D01*
X118501723Y-94339058D01*
X118500500Y-92001902D01*
X118500503Y-92001084D01*
X118500946Y-91932650D01*
X118505462Y-91235198D01*
X118505480Y-91233790D01*
X118520324Y-90474922D01*
X118520367Y-90473311D01*
X118537360Y-89955000D01*
X118544888Y-89725348D01*
X118544953Y-89723704D01*
X118579232Y-88981135D01*
X118579309Y-88979671D01*
X118622968Y-88248426D01*
X118623080Y-88246754D01*
X118629492Y-88159414D01*
X118676327Y-87521478D01*
X118676460Y-87519833D01*
X118676838Y-87515514D01*
X118738742Y-86806533D01*
X118738904Y-86804828D01*
X118742053Y-86773772D01*
X118810616Y-86097674D01*
X118810777Y-86096187D01*
X118891179Y-85401338D01*
X118891369Y-85399792D01*
X118981007Y-84711497D01*
X118981249Y-84709748D01*
X119079157Y-84034455D01*
X119079388Y-84032942D01*
X119186383Y-83364183D01*
X119186666Y-83362498D01*
X119301489Y-82707311D01*
X119301822Y-82705496D01*
X119321141Y-82604240D01*
X119425522Y-82057147D01*
X119425882Y-82055337D01*
X119435190Y-82010289D01*
X119557030Y-81420623D01*
X119557392Y-81418934D01*
X119697202Y-80791330D01*
X119697637Y-80789446D01*
X119701285Y-80774200D01*
X119844440Y-80175804D01*
X119844905Y-80173928D01*
X119852994Y-80142335D01*
X120000210Y-79567373D01*
X120000671Y-79565630D01*
X120162550Y-78973145D01*
X120163076Y-78971283D01*
X120163605Y-78969465D01*
X120333202Y-78386219D01*
X120333756Y-78384372D01*
X120510056Y-77813363D01*
X120510623Y-77811579D01*
X120694981Y-77248055D01*
X120695597Y-77246223D01*
X120885705Y-76696789D01*
X120886355Y-76694966D01*
X121084260Y-76153266D01*
X121084940Y-76151450D01*
X121288181Y-75623811D01*
X121288981Y-75621790D01*
X121306005Y-75579815D01*
X121499850Y-75101862D01*
X121500624Y-75100000D01*
X121716439Y-74594026D01*
X121717303Y-74592051D01*
X121718946Y-74588385D01*
X121940520Y-74093908D01*
X121941424Y-74091937D01*
X122169237Y-73607547D01*
X122170218Y-73605513D01*
X122200035Y-73545057D01*
X122405264Y-73128941D01*
X122406224Y-73127039D01*
X122645490Y-72664083D01*
X122646520Y-72662135D01*
X122892883Y-72206932D01*
X122893969Y-72204973D01*
X123144194Y-71763217D01*
X123145324Y-71761269D01*
X123402406Y-71327393D01*
X123403579Y-71325456D01*
X123664346Y-70904564D01*
X123665592Y-70902597D01*
X123933042Y-70489604D01*
X123934358Y-70487617D01*
X124205096Y-70087529D01*
X124206453Y-70085568D01*
X124483849Y-69693180D01*
X124485272Y-69691211D01*
X124765739Y-69311394D01*
X124767278Y-69309356D01*
X124771923Y-69303334D01*
X125054115Y-68937438D01*
X125055717Y-68935407D01*
X125345533Y-68575592D01*
X125347141Y-68573638D01*
X125643280Y-68221605D01*
X125644966Y-68219645D01*
X125943935Y-67879380D01*
X125945629Y-67877494D01*
X126250750Y-67545067D01*
X126252555Y-67543144D01*
X126560425Y-67222114D01*
X126562332Y-67220169D01*
X126572995Y-67209530D01*
X126876244Y-66906969D01*
X126878053Y-66905204D01*
X127194778Y-66602942D01*
X127196740Y-66601111D01*
X127519308Y-66306778D01*
X127521229Y-66305064D01*
X127846620Y-66021316D01*
X127848626Y-66019606D01*
X128179801Y-65743763D01*
X128181897Y-65742057D01*
X128515843Y-65476547D01*
X128518039Y-65474842D01*
X128857640Y-65217290D01*
X128859813Y-65215681D01*
X129202419Y-64968034D01*
X129204705Y-64966422D01*
X129552922Y-64726740D01*
X129555181Y-64725223D01*
X129906449Y-64495220D01*
X129908822Y-64493705D01*
X130265668Y-64271688D01*
X130268012Y-64270268D01*
X130628109Y-64057654D01*
X130630589Y-64056230D01*
X130775057Y-63975396D01*
X130996088Y-63851722D01*
X130998577Y-63850366D01*
X131367707Y-63654947D01*
X131370134Y-63653698D01*
X131744719Y-63466396D01*
X131747165Y-63465208D01*
X132125490Y-63286887D01*
X132127976Y-63285750D01*
X132511720Y-63115625D01*
X132514302Y-63114517D01*
X132901932Y-62953286D01*
X132904522Y-62952243D01*
X133297682Y-62799246D01*
X133300148Y-62798318D01*
X133697627Y-62654061D01*
X133700240Y-62653147D01*
X134103062Y-62517296D01*
X134105656Y-62516454D01*
X134513099Y-62389302D01*
X134515740Y-62388511D01*
X134928559Y-62269871D01*
X134931182Y-62269149D01*
X135348947Y-62159206D01*
X135351512Y-62158561D01*
X135774828Y-62057223D01*
X135777448Y-62056627D01*
X136205898Y-61964070D01*
X136208367Y-61963564D01*
X136642492Y-61879747D01*
X136645052Y-61879282D01*
X137084552Y-61804351D01*
X137087122Y-61803941D01*
X137532224Y-61737941D01*
X137534835Y-61737582D01*
X137985795Y-61680574D01*
X137988320Y-61680282D01*
X138444943Y-61632389D01*
X138447512Y-61632148D01*
X138910316Y-61593428D01*
X138912790Y-61593246D01*
X139381313Y-61563846D01*
X139383813Y-61563716D01*
X139858857Y-61543703D01*
X139861342Y-61543623D01*
X140338983Y-61533218D01*
X140342650Y-61533194D01*
X141326922Y-61541329D01*
X141331676Y-61541461D01*
X142338972Y-61589238D01*
X142343598Y-61589547D01*
X143377695Y-61678149D01*
X143382253Y-61678624D01*
X144444070Y-61809319D01*
X144448398Y-61809931D01*
X145538626Y-61984052D01*
X145542865Y-61984806D01*
X146662226Y-62203773D01*
X146666267Y-62204634D01*
X147820176Y-62471019D01*
X147822174Y-62471497D01*
X147834909Y-62474670D01*
X147852009Y-62480276D01*
X147870908Y-62488034D01*
X147900167Y-62491790D01*
X147914327Y-62494453D01*
X147942962Y-62501586D01*
X147972409Y-62501065D01*
X148001619Y-62504816D01*
X148038006Y-62499906D01*
X148074726Y-62499258D01*
X148103037Y-62491133D01*
X148132220Y-62487196D01*
X148166095Y-62473036D01*
X148173040Y-62471043D01*
X148173041Y-62471043D01*
X148173044Y-62471042D01*
X148174606Y-62470593D01*
X148201397Y-62462906D01*
X148226642Y-62447729D01*
X148253810Y-62436374D01*
X148282865Y-62413930D01*
X148314344Y-62395007D01*
X148334800Y-62373814D01*
X148358104Y-62355814D01*
X148380360Y-62326615D01*
X148405868Y-62300190D01*
X148420142Y-62274423D01*
X148437993Y-62251006D01*
X148451935Y-62217039D01*
X148469733Y-62184914D01*
X148476851Y-62156334D01*
X148488034Y-62129092D01*
X148492710Y-62092670D01*
X148499056Y-62067193D01*
X148501585Y-62057043D01*
X148501585Y-62057042D01*
X148501586Y-62057038D01*
X148501065Y-62027590D01*
X148504816Y-61998381D01*
X148499906Y-61961993D01*
X148499258Y-61925274D01*
X148491133Y-61896962D01*
X148487196Y-61867780D01*
X148473036Y-61833904D01*
X148462906Y-61798603D01*
X148452380Y-61781095D01*
X148444246Y-61765026D01*
X148432844Y-61737748D01*
X148251160Y-61303070D01*
X148250306Y-61300974D01*
X148244992Y-61287577D01*
X148055731Y-60810402D01*
X148054913Y-60808279D01*
X147873808Y-60325482D01*
X147873029Y-60323347D01*
X147705237Y-59848604D01*
X147704509Y-59846480D01*
X147549493Y-59378972D01*
X147548763Y-59376692D01*
X147475281Y-59139303D01*
X147406624Y-58917499D01*
X147405913Y-58915116D01*
X147388193Y-58853441D01*
X147275914Y-58462650D01*
X147275237Y-58460194D01*
X147257926Y-58394842D01*
X147157579Y-58016012D01*
X147156938Y-58013480D01*
X147120578Y-57863388D01*
X147066868Y-57641673D01*
X147050873Y-57575644D01*
X147050268Y-57573025D01*
X147022952Y-57448526D01*
X146955968Y-57143234D01*
X146955417Y-57140581D01*
X146947870Y-57102142D01*
X146872206Y-56716744D01*
X146871698Y-56713996D01*
X146841502Y-56539477D01*
X146799763Y-56298249D01*
X146799313Y-56295455D01*
X146796680Y-56277836D01*
X146737964Y-55885001D01*
X146737575Y-55882164D01*
X146733798Y-55852109D01*
X146687039Y-55480001D01*
X146686707Y-55477081D01*
X146646336Y-55079642D01*
X146646071Y-55076678D01*
X146641364Y-55015719D01*
X146616316Y-54691294D01*
X146616048Y-54686728D01*
X146612395Y-54595804D01*
X146585289Y-53921226D01*
X146585197Y-53915016D01*
X146592899Y-53177284D01*
X146593133Y-53170854D01*
X146605129Y-52978913D01*
X146637801Y-52456119D01*
X146638384Y-52449593D01*
X146718855Y-51756806D01*
X146719807Y-51750185D01*
X146835063Y-51078569D01*
X146836406Y-51071863D01*
X146861483Y-50962396D01*
X146985625Y-50420486D01*
X146987351Y-50413813D01*
X147169841Y-49782008D01*
X147171973Y-49775341D01*
X147177984Y-49758226D01*
X147387173Y-49162552D01*
X147389697Y-49155970D01*
X147637178Y-48561732D01*
X147640058Y-48555339D01*
X147919407Y-47979524D01*
X147922661Y-47973279D01*
X148233448Y-47416020D01*
X148237056Y-47409962D01*
X148242636Y-47401173D01*
X148578707Y-46871762D01*
X148582631Y-46865951D01*
X148954346Y-46347681D01*
X148958523Y-46342189D01*
X149358945Y-45845362D01*
X149363387Y-45840154D01*
X149790251Y-45367079D01*
X149794932Y-45362172D01*
X150244487Y-44916210D01*
X150249439Y-44911560D01*
X150715347Y-44497665D01*
X150720518Y-44493321D01*
X151191525Y-44119167D01*
X151197018Y-44115047D01*
X151651710Y-43793398D01*
X151657551Y-43789512D01*
X152049497Y-43544586D01*
X152055192Y-43541238D01*
X152219491Y-43450531D01*
X152234471Y-43443522D01*
X152319666Y-43410388D01*
X152341745Y-43404081D01*
X152431486Y-43387244D01*
X152454351Y-43385119D01*
X152545649Y-43385119D01*
X152568514Y-43387245D01*
G37*
%TD.AperFunction*%
%TA.AperFunction,Conductor*%
G36*
X177818834Y-72476209D02*
G01*
X177874767Y-72518081D01*
X177899184Y-72583545D01*
X177899500Y-72592391D01*
X177899500Y-73913330D01*
X177899499Y-73913348D01*
X177899499Y-74079054D01*
X177899498Y-74079054D01*
X177940423Y-74231786D01*
X177956126Y-74258982D01*
X177956127Y-74258987D01*
X177956129Y-74258987D01*
X178009464Y-74351368D01*
X178019479Y-74368714D01*
X178019481Y-74368717D01*
X178138349Y-74487585D01*
X178138355Y-74487590D01*
X181048959Y-77398194D01*
X181082444Y-77459517D01*
X181077460Y-77529209D01*
X181035588Y-77585142D01*
X180999367Y-77602078D01*
X180999785Y-77603198D01*
X180857671Y-77656202D01*
X180857664Y-77656206D01*
X180742455Y-77742452D01*
X180742452Y-77742455D01*
X180656206Y-77857664D01*
X180656203Y-77857669D01*
X180626398Y-77937581D01*
X180584526Y-77993514D01*
X180519062Y-78017931D01*
X180450789Y-78003079D01*
X180422535Y-77981928D01*
X180372363Y-77931756D01*
X180372358Y-77931752D01*
X180194025Y-77802187D01*
X180194024Y-77802186D01*
X180194022Y-77802185D01*
X180076791Y-77742452D01*
X179997606Y-77702104D01*
X179997603Y-77702103D01*
X179787952Y-77633985D01*
X179679086Y-77616742D01*
X179570222Y-77599500D01*
X179349778Y-77599500D01*
X179277201Y-77610995D01*
X179132047Y-77633985D01*
X178922396Y-77702103D01*
X178922393Y-77702104D01*
X178725974Y-77802187D01*
X178547641Y-77931752D01*
X178547636Y-77931756D01*
X178391756Y-78087636D01*
X178391752Y-78087641D01*
X178262187Y-78265974D01*
X178162104Y-78462393D01*
X178162103Y-78462396D01*
X178093985Y-78672047D01*
X178059500Y-78889778D01*
X178059500Y-79110221D01*
X178093985Y-79327952D01*
X178162103Y-79537603D01*
X178162104Y-79537606D01*
X178262187Y-79734025D01*
X178391752Y-79912358D01*
X178391756Y-79912363D01*
X178547636Y-80068243D01*
X178547641Y-80068247D01*
X178649606Y-80142328D01*
X178725978Y-80197815D01*
X178854375Y-80263237D01*
X178922393Y-80297895D01*
X178922396Y-80297896D01*
X179027221Y-80331955D01*
X179132049Y-80366015D01*
X179349778Y-80400500D01*
X179349779Y-80400500D01*
X179570221Y-80400500D01*
X179570222Y-80400500D01*
X179787951Y-80366015D01*
X179997606Y-80297895D01*
X180194022Y-80197815D01*
X180372365Y-80068242D01*
X180422536Y-80018070D01*
X180483857Y-79984586D01*
X180553548Y-79989570D01*
X180609482Y-80031441D01*
X180626398Y-80062419D01*
X180656202Y-80142328D01*
X180656206Y-80142335D01*
X180742452Y-80257544D01*
X180742455Y-80257547D01*
X180857664Y-80343793D01*
X180857671Y-80343797D01*
X180890218Y-80355936D01*
X180992517Y-80394091D01*
X181052127Y-80400500D01*
X181275500Y-80400499D01*
X181342539Y-80420183D01*
X181388294Y-80472987D01*
X181399500Y-80524499D01*
X181399500Y-98975500D01*
X181379815Y-99042539D01*
X181327011Y-99088294D01*
X181275500Y-99099500D01*
X180822129Y-99099500D01*
X180822123Y-99099501D01*
X180762516Y-99105908D01*
X180627671Y-99156202D01*
X180627664Y-99156206D01*
X180512455Y-99242452D01*
X180512452Y-99242455D01*
X180426206Y-99357664D01*
X180426203Y-99357669D01*
X180396398Y-99437581D01*
X180354526Y-99493514D01*
X180289062Y-99517931D01*
X180220789Y-99503079D01*
X180192535Y-99481928D01*
X180142363Y-99431756D01*
X180142358Y-99431752D01*
X179964023Y-99302185D01*
X179898204Y-99268648D01*
X179847409Y-99220674D01*
X179830500Y-99158164D01*
X179830500Y-96650943D01*
X179830499Y-96650939D01*
X179816853Y-96600010D01*
X179816853Y-96600009D01*
X179789577Y-96498215D01*
X179733161Y-96400500D01*
X179710520Y-96361284D01*
X179598716Y-96249480D01*
X179598713Y-96249478D01*
X168836416Y-85487181D01*
X168802931Y-85425858D01*
X168807915Y-85356166D01*
X168849787Y-85300233D01*
X168915251Y-85275816D01*
X168924097Y-85275500D01*
X173518331Y-85275500D01*
X173518347Y-85275501D01*
X173525943Y-85275501D01*
X173684054Y-85275501D01*
X173684057Y-85275501D01*
X173753598Y-85256867D01*
X173823446Y-85258530D01*
X173881308Y-85297692D01*
X173908813Y-85361920D01*
X173897227Y-85430823D01*
X173854581Y-85479744D01*
X173790783Y-85522371D01*
X173642373Y-85670781D01*
X173525765Y-85845298D01*
X173445447Y-86039204D01*
X173445445Y-86039210D01*
X173404500Y-86245054D01*
X173404500Y-86245057D01*
X173404500Y-86454943D01*
X173404500Y-86454945D01*
X173404499Y-86454945D01*
X173445445Y-86660789D01*
X173445447Y-86660795D01*
X173525765Y-86854701D01*
X173642373Y-87029218D01*
X173790781Y-87177626D01*
X173965298Y-87294234D01*
X174062251Y-87334393D01*
X174159205Y-87374553D01*
X174159209Y-87374553D01*
X174159210Y-87374554D01*
X174365054Y-87415500D01*
X174365057Y-87415500D01*
X174574945Y-87415500D01*
X174713433Y-87387952D01*
X174780795Y-87374553D01*
X174811590Y-87361796D01*
X174881059Y-87354327D01*
X174943538Y-87385601D01*
X174979192Y-87445689D01*
X174976699Y-87515514D01*
X174946725Y-87564038D01*
X174714661Y-87796102D01*
X174653338Y-87829587D01*
X174602790Y-87830039D01*
X174574943Y-87824500D01*
X174365057Y-87824500D01*
X174365055Y-87824500D01*
X174159210Y-87865445D01*
X174159204Y-87865447D01*
X173965298Y-87945765D01*
X173790781Y-88062373D01*
X173642373Y-88210781D01*
X173525765Y-88385298D01*
X173445447Y-88579204D01*
X173445445Y-88579210D01*
X173404500Y-88785054D01*
X173404500Y-88785057D01*
X173404500Y-88994943D01*
X173404500Y-88994945D01*
X173404499Y-88994945D01*
X173445445Y-89200789D01*
X173445447Y-89200795D01*
X173525765Y-89394701D01*
X173642373Y-89569218D01*
X173790781Y-89717626D01*
X173965298Y-89834234D01*
X174062251Y-89874393D01*
X174159205Y-89914553D01*
X174159209Y-89914553D01*
X174159210Y-89914554D01*
X174365054Y-89955500D01*
X174365057Y-89955500D01*
X174574945Y-89955500D01*
X174713433Y-89927952D01*
X174780795Y-89914553D01*
X174974703Y-89834233D01*
X175149216Y-89717628D01*
X175297628Y-89569216D01*
X175414233Y-89394703D01*
X175494553Y-89200795D01*
X175516129Y-89092328D01*
X175535500Y-88994945D01*
X175535500Y-88785054D01*
X175529961Y-88757209D01*
X175536188Y-88687617D01*
X175563894Y-88645339D01*
X176980520Y-87228716D01*
X177059577Y-87091784D01*
X177100501Y-86939057D01*
X177100501Y-86780942D01*
X177100501Y-86773347D01*
X177100500Y-86773329D01*
X177100500Y-77579765D01*
X177120185Y-77512726D01*
X177121398Y-77510874D01*
X177136037Y-77488966D01*
X177209394Y-77379179D01*
X177269737Y-77233497D01*
X177300500Y-77078842D01*
X177300500Y-76921158D01*
X177300500Y-76921155D01*
X177300499Y-76921153D01*
X177286471Y-76850631D01*
X177269737Y-76766503D01*
X177240897Y-76696876D01*
X177209397Y-76620827D01*
X177209390Y-76620814D01*
X177121789Y-76489711D01*
X177121786Y-76489707D01*
X177010292Y-76378213D01*
X177010288Y-76378210D01*
X176879185Y-76290609D01*
X176879172Y-76290602D01*
X176733501Y-76230264D01*
X176733489Y-76230261D01*
X176578845Y-76199500D01*
X176578842Y-76199500D01*
X176421158Y-76199500D01*
X176421155Y-76199500D01*
X176266510Y-76230261D01*
X176266498Y-76230264D01*
X176120827Y-76290602D01*
X176120814Y-76290609D01*
X175989711Y-76378210D01*
X175989707Y-76378213D01*
X175878213Y-76489707D01*
X175878210Y-76489711D01*
X175790609Y-76620814D01*
X175790602Y-76620827D01*
X175730264Y-76766498D01*
X175730261Y-76766510D01*
X175699500Y-76921153D01*
X175699500Y-77078846D01*
X175730261Y-77233489D01*
X175730264Y-77233501D01*
X175790602Y-77379172D01*
X175790609Y-77379185D01*
X175878602Y-77510874D01*
X175899480Y-77577551D01*
X175899500Y-77579765D01*
X175899500Y-86559902D01*
X175879815Y-86626941D01*
X175863181Y-86647583D01*
X175684038Y-86826725D01*
X175622715Y-86860210D01*
X175553023Y-86855226D01*
X175497090Y-86813354D01*
X175472673Y-86747890D01*
X175481796Y-86691591D01*
X175494553Y-86660795D01*
X175515138Y-86557307D01*
X175535500Y-86454945D01*
X175535500Y-86245054D01*
X175494554Y-86039210D01*
X175494553Y-86039209D01*
X175494553Y-86039205D01*
X175438682Y-85904322D01*
X175414234Y-85845298D01*
X175297626Y-85670781D01*
X175149218Y-85522373D01*
X174974701Y-85405765D01*
X174780795Y-85325447D01*
X174780789Y-85325445D01*
X174574945Y-85284500D01*
X174574943Y-85284500D01*
X174365057Y-85284500D01*
X174365055Y-85284500D01*
X174159210Y-85325445D01*
X174159204Y-85325447D01*
X174128406Y-85338204D01*
X174117202Y-85339408D01*
X174107314Y-85344808D01*
X174083085Y-85343075D01*
X174058936Y-85345671D01*
X174048861Y-85340627D01*
X174037623Y-85339824D01*
X174018177Y-85325267D01*
X173996458Y-85314395D01*
X173990708Y-85304704D01*
X173981689Y-85297953D01*
X173973201Y-85275196D01*
X173960806Y-85254306D01*
X173961208Y-85243045D01*
X173957271Y-85232489D01*
X173962433Y-85208755D01*
X173963301Y-85184481D01*
X173970112Y-85173454D01*
X173972122Y-85164216D01*
X173993268Y-85135967D01*
X174085520Y-85043716D01*
X174085521Y-85043713D01*
X174225338Y-84903895D01*
X174286659Y-84870412D01*
X174337209Y-84869961D01*
X174365054Y-84875500D01*
X174365057Y-84875500D01*
X174574945Y-84875500D01*
X174713433Y-84847952D01*
X174780795Y-84834553D01*
X174974703Y-84754233D01*
X175149216Y-84637628D01*
X175297628Y-84489216D01*
X175414233Y-84314703D01*
X175494553Y-84120795D01*
X175512056Y-84032801D01*
X175535500Y-83914945D01*
X175535500Y-83705054D01*
X175494554Y-83499210D01*
X175494553Y-83499209D01*
X175494553Y-83499205D01*
X175443053Y-83374874D01*
X175414234Y-83305298D01*
X175297626Y-83130781D01*
X175149218Y-82982373D01*
X174974701Y-82865765D01*
X174780795Y-82785447D01*
X174780789Y-82785445D01*
X174574945Y-82744500D01*
X174574943Y-82744500D01*
X174365057Y-82744500D01*
X174365055Y-82744500D01*
X174159210Y-82785445D01*
X174159204Y-82785447D01*
X173965298Y-82865765D01*
X173790781Y-82982373D01*
X173642373Y-83130781D01*
X173525765Y-83305298D01*
X173445447Y-83499204D01*
X173445445Y-83499210D01*
X173404500Y-83705054D01*
X173404500Y-83914943D01*
X173406761Y-83926311D01*
X173400532Y-83995903D01*
X173357668Y-84051079D01*
X173291778Y-84074322D01*
X173285143Y-84074500D01*
X167714857Y-84074500D01*
X167647818Y-84054815D01*
X167602063Y-84002011D01*
X167592119Y-83932853D01*
X167593239Y-83926310D01*
X167594040Y-83922284D01*
X167595500Y-83914943D01*
X167595500Y-83705057D01*
X167595500Y-83705054D01*
X167591376Y-83684323D01*
X167597603Y-83614732D01*
X167625310Y-83572452D01*
X169822817Y-81374945D01*
X173404499Y-81374945D01*
X173445445Y-81580789D01*
X173445447Y-81580795D01*
X173525765Y-81774701D01*
X173642373Y-81949218D01*
X173790781Y-82097626D01*
X173965298Y-82214234D01*
X174062251Y-82254393D01*
X174159205Y-82294553D01*
X174159209Y-82294553D01*
X174159210Y-82294554D01*
X174365054Y-82335500D01*
X174365057Y-82335500D01*
X174574945Y-82335500D01*
X174755568Y-82299571D01*
X174780795Y-82294553D01*
X174974703Y-82214233D01*
X175149216Y-82097628D01*
X175297628Y-81949216D01*
X175414233Y-81774703D01*
X175494553Y-81580795D01*
X175514135Y-81482349D01*
X175535500Y-81374945D01*
X175535500Y-81165054D01*
X175494554Y-80959210D01*
X175494553Y-80959209D01*
X175494553Y-80959205D01*
X175454393Y-80862251D01*
X175414234Y-80765298D01*
X175297626Y-80590781D01*
X175149218Y-80442373D01*
X174974701Y-80325765D01*
X174780795Y-80245447D01*
X174780789Y-80245445D01*
X174574945Y-80204500D01*
X174574943Y-80204500D01*
X174365057Y-80204500D01*
X174365055Y-80204500D01*
X174159210Y-80245445D01*
X174159204Y-80245447D01*
X173965298Y-80325765D01*
X173790781Y-80442373D01*
X173642373Y-80590781D01*
X173525765Y-80765298D01*
X173445447Y-80959204D01*
X173445445Y-80959210D01*
X173404500Y-81165054D01*
X173404500Y-81165057D01*
X173404500Y-81374943D01*
X173404500Y-81374945D01*
X173404499Y-81374945D01*
X169822817Y-81374945D01*
X172717764Y-78479999D01*
X173433862Y-78479999D01*
X173433863Y-78480000D01*
X174168458Y-78480000D01*
X174157923Y-78490535D01*
X174106578Y-78579466D01*
X174080000Y-78678656D01*
X174080000Y-78781344D01*
X174106578Y-78880534D01*
X174157923Y-78969465D01*
X174168458Y-78980000D01*
X173433863Y-78980000D01*
X173445925Y-79040641D01*
X173445927Y-79040649D01*
X173526207Y-79234464D01*
X173642760Y-79408897D01*
X173642763Y-79408901D01*
X173791098Y-79557236D01*
X173791102Y-79557239D01*
X173965535Y-79673792D01*
X173965537Y-79673793D01*
X174159347Y-79754071D01*
X174159352Y-79754072D01*
X174220000Y-79766135D01*
X174220000Y-79031542D01*
X174230535Y-79042077D01*
X174319466Y-79093422D01*
X174418656Y-79120000D01*
X174521344Y-79120000D01*
X174620534Y-79093422D01*
X174709465Y-79042077D01*
X174720000Y-79031542D01*
X174720000Y-79766134D01*
X174780647Y-79754072D01*
X174780652Y-79754071D01*
X174974462Y-79673793D01*
X174974464Y-79673792D01*
X175148897Y-79557239D01*
X175148901Y-79557236D01*
X175297236Y-79408901D01*
X175297239Y-79408897D01*
X175413792Y-79234464D01*
X175494072Y-79040649D01*
X175494074Y-79040641D01*
X175506137Y-78980000D01*
X174771542Y-78980000D01*
X174782077Y-78969465D01*
X174833422Y-78880534D01*
X174860000Y-78781344D01*
X174860000Y-78678656D01*
X174833422Y-78579466D01*
X174782077Y-78490535D01*
X174771542Y-78480000D01*
X175506137Y-78480000D01*
X175506137Y-78479999D01*
X175494074Y-78419358D01*
X175494072Y-78419350D01*
X175413792Y-78225535D01*
X175297239Y-78051102D01*
X175297236Y-78051098D01*
X175148901Y-77902763D01*
X175148897Y-77902760D01*
X174974464Y-77786207D01*
X174780649Y-77705927D01*
X174780641Y-77705925D01*
X174720000Y-77693862D01*
X174720000Y-78428458D01*
X174709465Y-78417923D01*
X174620534Y-78366578D01*
X174521344Y-78340000D01*
X174418656Y-78340000D01*
X174319466Y-78366578D01*
X174230535Y-78417923D01*
X174220000Y-78428458D01*
X174220000Y-77693863D01*
X174219999Y-77693862D01*
X174159358Y-77705925D01*
X174159350Y-77705927D01*
X173965535Y-77786207D01*
X173791102Y-77902760D01*
X173791098Y-77902763D01*
X173642763Y-78051098D01*
X173642760Y-78051102D01*
X173526207Y-78225535D01*
X173445927Y-78419350D01*
X173445925Y-78419358D01*
X173433862Y-78479999D01*
X172717764Y-78479999D01*
X173973713Y-77224050D01*
X173973716Y-77224049D01*
X173976185Y-77221579D01*
X174006796Y-77204869D01*
X174037491Y-77188108D01*
X174037501Y-77188108D01*
X174037510Y-77188104D01*
X174074587Y-77190759D01*
X174107183Y-77193090D01*
X174107197Y-77193095D01*
X174107201Y-77193096D01*
X174107204Y-77193098D01*
X174111308Y-77194713D01*
X174159199Y-77214551D01*
X174159202Y-77214551D01*
X174159205Y-77214553D01*
X174159209Y-77214553D01*
X174159210Y-77214554D01*
X174365054Y-77255500D01*
X174365057Y-77255500D01*
X174574945Y-77255500D01*
X174745463Y-77221581D01*
X174780795Y-77214553D01*
X174974703Y-77134233D01*
X175149216Y-77017628D01*
X175297628Y-76869216D01*
X175414233Y-76694703D01*
X175494553Y-76500795D01*
X175514244Y-76401801D01*
X175535500Y-76294945D01*
X175535500Y-76085054D01*
X175494554Y-75879210D01*
X175494553Y-75879209D01*
X175494553Y-75879205D01*
X175453013Y-75778919D01*
X175414234Y-75685298D01*
X175297626Y-75510781D01*
X175149218Y-75362373D01*
X175125059Y-75346231D01*
X175083582Y-75318517D01*
X175038779Y-75264907D01*
X175030071Y-75195582D01*
X175060225Y-75132554D01*
X175064774Y-75127754D01*
X177687821Y-72504708D01*
X177749142Y-72471225D01*
X177818834Y-72476209D01*
G37*
%TD.AperFunction*%
%TD*%
M02*
