M48
; DRILL file KiCad 10.0.1 date 2026-04-18T21:54:35
; FORMAT={-:-/ absolute / metric / decimal}
; #@! TF.CreationDate,2026-04-18T21:54:35+10:00
; #@! TF.GenerationSoftware,Kicad,Pcbnew,10.0.1
; #@! TF.FileFunction,Plated,1,2,PTH
FMAT,2
METRIC
; #@! TA.AperFunction,Plated,PTH,ViaDrill
T1C0.300
; #@! TA.AperFunction,Plated,PTH,ComponentDrill
T2C0.780
; #@! TA.AperFunction,Plated,PTH,ComponentDrill
T3C0.800
; #@! TA.AperFunction,Plated,PTH,ComponentDrill
T4C0.850
; #@! TA.AperFunction,Plated,PTH,ComponentDrill
T5C0.900
; #@! TA.AperFunction,Plated,PTH,ComponentDrill
T6C1.000
%
G90
G05
T1
X146.0Y-80.0
X154.5Y-88.5
X162.0Y-69.0
T2
X166.53Y-71.11
X166.53Y-73.65
X166.53Y-76.19
X166.53Y-78.73
X166.53Y-81.27
X166.53Y-83.81
X166.53Y-86.35
X166.53Y-88.89
X174.47Y-71.11
X174.47Y-73.65
X174.47Y-76.19
X174.47Y-78.73
X174.47Y-81.27
X174.47Y-83.81
X174.47Y-86.35
X174.47Y-88.89
T3
X139.045Y-96.0
X141.045Y-96.0
X146.19Y-75.19
X146.19Y-82.81
X148.73Y-75.19
X148.73Y-82.81
X148.88Y-68.0
X151.27Y-75.19
X151.27Y-82.81
X153.81Y-75.19
X153.81Y-82.81
X156.5Y-68.0
X166.38Y-95.5
X174.0Y-95.5
T4
X159.0Y-73.42
X159.0Y-75.96
X159.0Y-78.5
T5
X121.73Y-104.0
X124.27Y-104.0
X124.46Y-77.0
X126.73Y-132.0
X127.0Y-77.0
X129.27Y-132.0
X138.23Y-66.5
X140.77Y-66.5
X151.23Y-51.5
X153.77Y-51.5
X162.46Y-115.5
X165.0Y-115.5
X169.96Y-52.5
X172.5Y-52.5
X179.23Y-100.5
X179.46Y-79.0
X181.77Y-100.5
X182.0Y-79.0
X185.46Y-62.0
X188.0Y-62.0
T6
X137.0Y-74.0
X142.0Y-74.0
X158.0Y-88.0
X158.0Y-93.0
X160.54Y-88.0
M30
